G04 (created by PCBNEW (2013-03-19 BZR 4004)-stable) date 8/2/2015 7:27:16 AM*
%MOIN*%
G04 Gerber Fmt 3.4, Leading zero omitted, Abs format*
%FSLAX34Y34*%
G01*
G70*
G90*
G04 APERTURE LIST*
%ADD10C,0.007*%
%ADD11R,0.055X0.015*%
%ADD12R,0.035X0.035*%
%ADD13R,0.08X0.08*%
%ADD14C,0.11*%
%ADD15C,0.16*%
%ADD16R,0.0591X0.0591*%
%ADD17C,0.0591*%
%ADD18R,0.01X0.05*%
%ADD19R,0.05X0.01*%
%ADD20R,0.035X0.055*%
%ADD21R,0.055X0.035*%
%ADD22R,0.016X0.06*%
%ADD23R,0.075X0.025*%
%ADD24R,0.05X0.025*%
%ADD25R,0.04X0.05*%
%ADD26O,0.01X0.04*%
%ADD27O,0.04X0.01*%
%ADD28R,0.055X0.055*%
%ADD29R,0.06X0.02*%
%ADD30R,0.05X0.05*%
%ADD31R,0.325X0.105*%
%ADD32R,0.105X0.325*%
%ADD33R,0.03X0.04*%
%ADD34R,0.08X0.05*%
%ADD35R,0.05X0.08*%
%ADD36C,0.04*%
%ADD37R,0.05X0.022*%
%ADD38R,0.022X0.05*%
%ADD39R,0.015X0.05*%
%ADD40R,0.05X0.015*%
%ADD41R,0.05X0.04*%
%ADD42R,0.06X0.06*%
%ADD43C,0.06*%
G04 APERTURE END LIST*
G54D10*
G54D11*
X60770Y-18910D03*
X60770Y-18660D03*
X60770Y-18400D03*
X60770Y-18140D03*
X60770Y-17890D03*
G54D12*
X60670Y-19280D03*
X60670Y-17520D03*
G54D13*
X61850Y-20050D03*
X61850Y-16750D03*
X61850Y-18950D03*
X61850Y-17850D03*
G54D14*
X61660Y-13250D03*
X58400Y-15300D03*
X59100Y-14250D03*
X57260Y-11600D03*
X60310Y-11450D03*
X740Y-5250D03*
X4000Y-7300D03*
X3300Y-6250D03*
X5140Y-3600D03*
X2090Y-3450D03*
X740Y-10050D03*
X4000Y-12100D03*
X3300Y-11050D03*
X5140Y-8400D03*
X2090Y-8250D03*
X740Y-14850D03*
X4000Y-16900D03*
X3300Y-15850D03*
X5140Y-13200D03*
X2090Y-13050D03*
G54D15*
X60430Y-4400D03*
X60430Y-8900D03*
G54D16*
X57930Y-8400D03*
G54D17*
X56930Y-7900D03*
X57930Y-7400D03*
X56930Y-6900D03*
X57930Y-6400D03*
X56930Y-5900D03*
X57930Y-5400D03*
X56930Y-4900D03*
G54D18*
X26990Y-20450D03*
X31710Y-20450D03*
X31510Y-20450D03*
X31320Y-20450D03*
X31120Y-20450D03*
X30920Y-20450D03*
X30730Y-20450D03*
X30530Y-20450D03*
X30330Y-20450D03*
X30140Y-20450D03*
X29940Y-20450D03*
X29740Y-20450D03*
X29540Y-20450D03*
X29350Y-20450D03*
X29150Y-20450D03*
X28950Y-20450D03*
X28760Y-20450D03*
X28560Y-20450D03*
X28360Y-20450D03*
X28170Y-20450D03*
X27970Y-20450D03*
X27770Y-20450D03*
X27580Y-20450D03*
X27380Y-20450D03*
X27180Y-20450D03*
G54D19*
X32450Y-21190D03*
X32450Y-25910D03*
X32450Y-25710D03*
X32450Y-25520D03*
X32450Y-25320D03*
X32450Y-25120D03*
X32450Y-24930D03*
X32450Y-24730D03*
X32450Y-24530D03*
X32450Y-24340D03*
X32450Y-24140D03*
X32450Y-23940D03*
X32450Y-23740D03*
X32450Y-23550D03*
X32450Y-23350D03*
X32450Y-23150D03*
X32450Y-22960D03*
X32450Y-22760D03*
X32450Y-22560D03*
X32450Y-22370D03*
X32450Y-22170D03*
X32450Y-21970D03*
X32450Y-21780D03*
X32450Y-21580D03*
X32450Y-21380D03*
X26250Y-21190D03*
X26250Y-21390D03*
X26250Y-21580D03*
X26250Y-21780D03*
X26250Y-21980D03*
X26250Y-22170D03*
X26250Y-22370D03*
X26250Y-22570D03*
X26250Y-22760D03*
X26250Y-22960D03*
X26250Y-23160D03*
X26250Y-23360D03*
X26250Y-23550D03*
X26250Y-23750D03*
X26250Y-23950D03*
X26250Y-24140D03*
X26250Y-24340D03*
X26250Y-24540D03*
X26250Y-24730D03*
X26250Y-24930D03*
X26250Y-25130D03*
X26250Y-25320D03*
X26250Y-25520D03*
X26250Y-25720D03*
X26250Y-25910D03*
G54D18*
X26990Y-26650D03*
X27190Y-26650D03*
X27380Y-26650D03*
X27580Y-26650D03*
X27780Y-26650D03*
X27970Y-26650D03*
X28170Y-26650D03*
X28370Y-26650D03*
X28560Y-26650D03*
X28760Y-26650D03*
X28960Y-26650D03*
X29160Y-26650D03*
X29350Y-26650D03*
X29550Y-26650D03*
X29750Y-26650D03*
X29940Y-26650D03*
X30140Y-26650D03*
X30340Y-26650D03*
X30530Y-26650D03*
X30730Y-26650D03*
X30930Y-26650D03*
X31120Y-26650D03*
X31320Y-26650D03*
X31520Y-26650D03*
X31710Y-26650D03*
G54D20*
X14475Y-25800D03*
X13725Y-25800D03*
X14475Y-23200D03*
X13725Y-23200D03*
X12475Y-27800D03*
X11725Y-27800D03*
X12475Y-25200D03*
X11725Y-25200D03*
X12475Y-22600D03*
X11725Y-22600D03*
X13725Y-29700D03*
X14475Y-29700D03*
X13725Y-27100D03*
X14475Y-27100D03*
X13725Y-24500D03*
X14475Y-24500D03*
X11725Y-29100D03*
X12475Y-29100D03*
X11725Y-26500D03*
X12475Y-26500D03*
G54D21*
X22600Y-32325D03*
X22600Y-33075D03*
X22000Y-34425D03*
X22000Y-35175D03*
G54D20*
X14475Y-28400D03*
X13725Y-28400D03*
G54D21*
X10300Y-35175D03*
X10300Y-34425D03*
X11600Y-35175D03*
X11600Y-34425D03*
X12900Y-35175D03*
X12900Y-34425D03*
G54D20*
X53975Y-13750D03*
X53225Y-13750D03*
X51375Y-15700D03*
X52125Y-15700D03*
G54D21*
X14200Y-35175D03*
X14200Y-34425D03*
X15500Y-35175D03*
X15500Y-34425D03*
X16800Y-35175D03*
X16800Y-34425D03*
X18100Y-35175D03*
X18100Y-34425D03*
X19400Y-35175D03*
X19400Y-34425D03*
G54D20*
X55125Y-15700D03*
X55875Y-15700D03*
X30725Y-19100D03*
X29975Y-19100D03*
X26625Y-28600D03*
X27375Y-28600D03*
X37825Y-23600D03*
X38575Y-23600D03*
X37825Y-22300D03*
X38575Y-22300D03*
X57075Y-16800D03*
X57825Y-16800D03*
X59625Y-20300D03*
X58875Y-20300D03*
G54D21*
X47400Y-4175D03*
X47400Y-4925D03*
X39650Y-4175D03*
X39650Y-4925D03*
G54D20*
X54425Y-20300D03*
X55175Y-20300D03*
G54D21*
X43550Y-4925D03*
X43550Y-4175D03*
X38350Y-4175D03*
X38350Y-4925D03*
X38350Y-6775D03*
X38350Y-6025D03*
G54D20*
X55875Y-14400D03*
X55125Y-14400D03*
G54D21*
X42250Y-4175D03*
X42250Y-4925D03*
X42250Y-6825D03*
X42250Y-6075D03*
X40950Y-6825D03*
X40950Y-6075D03*
X39650Y-6775D03*
X39650Y-6025D03*
X40950Y-4175D03*
X40950Y-4925D03*
X43550Y-6075D03*
X43550Y-6825D03*
G54D20*
X21325Y-19600D03*
X20575Y-19600D03*
X18975Y-19000D03*
X19725Y-19000D03*
X18975Y-22600D03*
X19725Y-22600D03*
G54D21*
X47900Y-32325D03*
X47900Y-33075D03*
X46600Y-32325D03*
X46600Y-33075D03*
X45300Y-32325D03*
X45300Y-33075D03*
X44000Y-32325D03*
X44000Y-33075D03*
X42700Y-32325D03*
X42700Y-33075D03*
X41400Y-32325D03*
X41400Y-33075D03*
X40100Y-32325D03*
X40100Y-33075D03*
X38800Y-32325D03*
X38800Y-33075D03*
G54D20*
X51375Y-11800D03*
X52125Y-11800D03*
G54D21*
X20700Y-35175D03*
X20700Y-34425D03*
G54D20*
X49525Y-14400D03*
X50275Y-14400D03*
G54D21*
X37500Y-32325D03*
X37500Y-33075D03*
G54D20*
X11725Y-23900D03*
X12475Y-23900D03*
G54D21*
X36200Y-32325D03*
X36200Y-33075D03*
G54D20*
X15725Y-22600D03*
X16475Y-22600D03*
X15725Y-25200D03*
X16475Y-25200D03*
G54D21*
X34900Y-32325D03*
X34900Y-33075D03*
G54D20*
X16475Y-29100D03*
X15725Y-29100D03*
X16475Y-26500D03*
X15725Y-26500D03*
X16475Y-23900D03*
X15725Y-23900D03*
G54D21*
X48500Y-35175D03*
X48500Y-34425D03*
G54D20*
X15725Y-27800D03*
X16475Y-27800D03*
X51375Y-13100D03*
X52125Y-13100D03*
G54D21*
X21300Y-32325D03*
X21300Y-33075D03*
X20000Y-32325D03*
X20000Y-33075D03*
G54D20*
X51375Y-14400D03*
X52125Y-14400D03*
G54D21*
X18700Y-32325D03*
X18700Y-33075D03*
X17400Y-32325D03*
X17400Y-33075D03*
X16100Y-32325D03*
X16100Y-33075D03*
X14800Y-32325D03*
X14800Y-33075D03*
X13500Y-32325D03*
X13500Y-33075D03*
X12200Y-32325D03*
X12200Y-33075D03*
X10900Y-32325D03*
X10900Y-33075D03*
X35500Y-35175D03*
X35500Y-34425D03*
X34600Y-26025D03*
X34600Y-25275D03*
G54D20*
X21325Y-21400D03*
X20575Y-21400D03*
G54D21*
X36800Y-35175D03*
X36800Y-34425D03*
X38100Y-35175D03*
X38100Y-34425D03*
G54D20*
X55875Y-11800D03*
X55125Y-11800D03*
X55125Y-13100D03*
X55875Y-13100D03*
G54D21*
X39400Y-35175D03*
X39400Y-34425D03*
X40700Y-35175D03*
X40700Y-34425D03*
X42000Y-35175D03*
X42000Y-34425D03*
X43300Y-35175D03*
X43300Y-34425D03*
X44600Y-35175D03*
X44600Y-34425D03*
X45900Y-35175D03*
X45900Y-34425D03*
X47200Y-35175D03*
X47200Y-34425D03*
G54D20*
X19725Y-20800D03*
X18975Y-20800D03*
X49525Y-15700D03*
X50275Y-15700D03*
X29475Y-8850D03*
X30225Y-8850D03*
X48225Y-9100D03*
X47475Y-9100D03*
G54D21*
X40350Y-12075D03*
X40350Y-11325D03*
X41650Y-12075D03*
X41650Y-11325D03*
X42950Y-12075D03*
X42950Y-11325D03*
G54D20*
X37275Y-15000D03*
X38025Y-15000D03*
G54D21*
X44250Y-12075D03*
X44250Y-11325D03*
X45550Y-12075D03*
X45550Y-11325D03*
G54D20*
X37275Y-13700D03*
X38025Y-13700D03*
G54D21*
X39050Y-12075D03*
X39050Y-11325D03*
G54D20*
X6625Y-15600D03*
X7375Y-15600D03*
G54D21*
X52400Y-3625D03*
X52400Y-2875D03*
X57650Y-2125D03*
X57650Y-2875D03*
X56350Y-2125D03*
X56350Y-2875D03*
X53750Y-2875D03*
X53750Y-3625D03*
X55050Y-2875D03*
X55050Y-3625D03*
G54D20*
X48225Y-7800D03*
X47475Y-7800D03*
X49325Y-5150D03*
X50075Y-5150D03*
X49325Y-6450D03*
X50075Y-6450D03*
X50075Y-9100D03*
X49325Y-9100D03*
X48225Y-6450D03*
X47475Y-6450D03*
X50075Y-7800D03*
X49325Y-7800D03*
G54D21*
X26100Y-14475D03*
X26100Y-13725D03*
G54D20*
X26625Y-32800D03*
X27375Y-32800D03*
X45575Y-16050D03*
X46325Y-16050D03*
X51725Y-29450D03*
X50975Y-29450D03*
X50975Y-30750D03*
X51725Y-30750D03*
G54D21*
X47400Y-25825D03*
X47400Y-26575D03*
G54D20*
X50975Y-32650D03*
X51725Y-32650D03*
G54D21*
X33750Y-2075D03*
X33750Y-2825D03*
G54D20*
X27025Y-6000D03*
X26275Y-6000D03*
X36775Y-26050D03*
X37525Y-26050D03*
X49125Y-29450D03*
X49875Y-29450D03*
X49125Y-28150D03*
X49875Y-28150D03*
G54D21*
X52900Y-24775D03*
X52900Y-24025D03*
X50050Y-25375D03*
X50050Y-26125D03*
X33600Y-9525D03*
X33600Y-8775D03*
X32300Y-9525D03*
X32300Y-8775D03*
X34900Y-8775D03*
X34900Y-9525D03*
G54D20*
X28875Y-6000D03*
X28125Y-6000D03*
X49875Y-30750D03*
X49125Y-30750D03*
X15125Y-11600D03*
X15875Y-11600D03*
X18075Y-12750D03*
X18825Y-12750D03*
X29575Y-12100D03*
X28825Y-12100D03*
X16225Y-12750D03*
X16975Y-12750D03*
X11175Y-10000D03*
X10425Y-10000D03*
X11175Y-11300D03*
X10425Y-11300D03*
X27375Y-29900D03*
X26625Y-29900D03*
X24375Y-20990D03*
X25125Y-20990D03*
X24625Y-26700D03*
X23875Y-26700D03*
X55425Y-35550D03*
X56175Y-35550D03*
X35875Y-19800D03*
X36625Y-19800D03*
X37675Y-19800D03*
X38425Y-19800D03*
G54D21*
X34600Y-23225D03*
X34600Y-23975D03*
X24900Y-23425D03*
X24900Y-24175D03*
G54D20*
X28625Y-28100D03*
X29375Y-28100D03*
X30925Y-28100D03*
X31675Y-28100D03*
X11975Y-8700D03*
X11225Y-8700D03*
X6625Y-16900D03*
X7375Y-16900D03*
X7375Y-14300D03*
X6625Y-14300D03*
X9275Y-16900D03*
X8525Y-16900D03*
X9275Y-15600D03*
X8525Y-15600D03*
X6625Y-2500D03*
X7375Y-2500D03*
X11275Y-16900D03*
X10525Y-16900D03*
X10525Y-15600D03*
X11275Y-15600D03*
X6625Y-11300D03*
X7375Y-11300D03*
X7375Y-10000D03*
X6625Y-10000D03*
X6625Y-6500D03*
X7375Y-6500D03*
X7375Y-5200D03*
X6625Y-5200D03*
X8525Y-6500D03*
X9275Y-6500D03*
X16125Y-15650D03*
X16875Y-15650D03*
G54D21*
X15850Y-9075D03*
X15850Y-9825D03*
X18300Y-4225D03*
X18300Y-4975D03*
X17000Y-4225D03*
X17000Y-4975D03*
X15700Y-4225D03*
X15700Y-4975D03*
X14400Y-4225D03*
X14400Y-4975D03*
G54D20*
X8525Y-10000D03*
X9275Y-10000D03*
G54D21*
X20100Y-9275D03*
X20100Y-10025D03*
G54D20*
X8525Y-5200D03*
X9275Y-5200D03*
X8525Y-11300D03*
X9275Y-11300D03*
G54D22*
X41100Y-16050D03*
X41350Y-16050D03*
X41610Y-16050D03*
X41870Y-16050D03*
X42120Y-16050D03*
X42380Y-16050D03*
X42640Y-16050D03*
X42890Y-16050D03*
X43150Y-16050D03*
X43400Y-16050D03*
X43660Y-16050D03*
X43920Y-16050D03*
X44170Y-16050D03*
X44430Y-16050D03*
X44430Y-13250D03*
X44170Y-13250D03*
X43930Y-13250D03*
X43660Y-13250D03*
X43400Y-13250D03*
X43150Y-13250D03*
X42890Y-13250D03*
X42640Y-13250D03*
X42380Y-13250D03*
X42120Y-13250D03*
X41870Y-13250D03*
X41610Y-13250D03*
X41350Y-13250D03*
X41100Y-13250D03*
G54D23*
X51300Y-5450D03*
X51300Y-5950D03*
X51300Y-6450D03*
X51300Y-6950D03*
X51300Y-7450D03*
X51300Y-7950D03*
X51300Y-8450D03*
X51300Y-8950D03*
X54900Y-8950D03*
X54900Y-8450D03*
X54900Y-7950D03*
X54900Y-7450D03*
X54900Y-6950D03*
X54900Y-6450D03*
X54900Y-5950D03*
X54900Y-5450D03*
G54D24*
X35900Y-21230D03*
X38400Y-21230D03*
X38400Y-20770D03*
X35900Y-20770D03*
G54D25*
X36200Y-22700D03*
X36200Y-23600D03*
X36900Y-23600D03*
X36900Y-22700D03*
X39200Y-14050D03*
X39200Y-14950D03*
X39900Y-14950D03*
X39900Y-14050D03*
G54D26*
X18542Y-11484D03*
X18345Y-11484D03*
X18148Y-11484D03*
X18739Y-11484D03*
G54D27*
X19034Y-11189D03*
X19034Y-10992D03*
X19034Y-10795D03*
X19034Y-10598D03*
X19034Y-10402D03*
X19034Y-10205D03*
X19034Y-10008D03*
X19034Y-9811D03*
G54D26*
X17361Y-9516D03*
X18739Y-9516D03*
X18542Y-9516D03*
X18345Y-9516D03*
X18148Y-9516D03*
X17952Y-9516D03*
X17755Y-9516D03*
X17558Y-9516D03*
G54D27*
X17066Y-9811D03*
X17066Y-10008D03*
X17066Y-10205D03*
X17066Y-10402D03*
X17066Y-10598D03*
X17066Y-10795D03*
X17066Y-10992D03*
X17066Y-11189D03*
G54D26*
X17361Y-11484D03*
X17558Y-11484D03*
X17755Y-11484D03*
X17952Y-11484D03*
G54D28*
X18400Y-10850D03*
X17700Y-10850D03*
X18400Y-10150D03*
X17700Y-10150D03*
G54D29*
X29600Y-13200D03*
X29600Y-13700D03*
X29600Y-14200D03*
X29600Y-14700D03*
X27400Y-14700D03*
X27400Y-14200D03*
X27400Y-13700D03*
X27400Y-13200D03*
G54D30*
X57880Y-26600D03*
X59020Y-26600D03*
G54D31*
X27850Y-4350D03*
X27850Y-2150D03*
G54D32*
X54550Y-23800D03*
X56750Y-23800D03*
G54D33*
X53600Y-15000D03*
X53975Y-15800D03*
X53225Y-15800D03*
X53600Y-11600D03*
X53975Y-12400D03*
X53225Y-12400D03*
X24900Y-30000D03*
X24525Y-29200D03*
X25275Y-29200D03*
G54D34*
X35150Y-2800D03*
X35150Y-4000D03*
G54D35*
X26150Y-31350D03*
X27350Y-31350D03*
X39900Y-16400D03*
X38700Y-16400D03*
X56600Y-26600D03*
X55400Y-26600D03*
X51200Y-24050D03*
X50000Y-24050D03*
X52950Y-31100D03*
X54150Y-31100D03*
X52950Y-32650D03*
X54150Y-32650D03*
X56500Y-20300D03*
X57700Y-20300D03*
X51200Y-22500D03*
X50000Y-22500D03*
X44800Y-4700D03*
X46000Y-4700D03*
X44800Y-6300D03*
X46000Y-6300D03*
G54D34*
X35150Y-6850D03*
X35150Y-5650D03*
X33650Y-6850D03*
X33650Y-5650D03*
X28100Y-7650D03*
X28100Y-8850D03*
X30700Y-2800D03*
X30700Y-4000D03*
X21400Y-4300D03*
X21400Y-5500D03*
X19800Y-4300D03*
X19800Y-5500D03*
G54D35*
X18150Y-14200D03*
X19350Y-14200D03*
X15700Y-14200D03*
X16900Y-14200D03*
G54D34*
X14450Y-8550D03*
X14450Y-9750D03*
G54D35*
X11700Y-6600D03*
X10500Y-6600D03*
X11700Y-5100D03*
X10500Y-5100D03*
X52950Y-29550D03*
X54150Y-29550D03*
X13900Y-12950D03*
X15100Y-12950D03*
G54D34*
X26500Y-7650D03*
X26500Y-8850D03*
G54D36*
X35250Y-28300D03*
X36250Y-28300D03*
X33250Y-28300D03*
X34250Y-28300D03*
X37250Y-28300D03*
G54D37*
X9850Y-7880D03*
X9850Y-8250D03*
X9850Y-8620D03*
X8850Y-8620D03*
X8850Y-8250D03*
X8850Y-7880D03*
G54D38*
X59270Y-19050D03*
X58900Y-19050D03*
X58530Y-19050D03*
X58530Y-18050D03*
X58900Y-18050D03*
X59270Y-18050D03*
G54D34*
X32250Y-2800D03*
X32250Y-4000D03*
G54D39*
X52950Y-28200D03*
X52430Y-28200D03*
X52180Y-28200D03*
X51920Y-28200D03*
X51670Y-28200D03*
X51410Y-28200D03*
X51150Y-28200D03*
X51150Y-25900D03*
X51410Y-25900D03*
X51670Y-25900D03*
X51920Y-25900D03*
X52180Y-25900D03*
X52430Y-25900D03*
X52690Y-25900D03*
X52950Y-25900D03*
X52690Y-28200D03*
G54D25*
X52050Y-27350D03*
X51550Y-27350D03*
X52550Y-27350D03*
X52050Y-26750D03*
X51550Y-26750D03*
X52550Y-26750D03*
G54D40*
X32300Y-6000D03*
X32300Y-6520D03*
X32300Y-6770D03*
X32300Y-7030D03*
X32300Y-7280D03*
X32300Y-7540D03*
X32300Y-7800D03*
X30000Y-7800D03*
X30000Y-7540D03*
X30000Y-7280D03*
X30000Y-7030D03*
X30000Y-6770D03*
X30000Y-6520D03*
X30000Y-6260D03*
X30000Y-6000D03*
X32300Y-6260D03*
G54D41*
X31450Y-6900D03*
X31450Y-7400D03*
X31450Y-6400D03*
X30850Y-6900D03*
X30850Y-7400D03*
X30850Y-6400D03*
G54D35*
X31250Y-17700D03*
X30050Y-17700D03*
G54D42*
X11400Y-2800D03*
G54D43*
X12400Y-2800D03*
X13400Y-2800D03*
X14400Y-2800D03*
X15400Y-2800D03*
X16400Y-2800D03*
X17400Y-2800D03*
X18400Y-2800D03*
X19400Y-2800D03*
X20400Y-2800D03*
X21400Y-2800D03*
X22400Y-2800D03*
G54D42*
X11400Y-36550D03*
G54D43*
X12400Y-36550D03*
X13400Y-36550D03*
X14400Y-36550D03*
X15400Y-36550D03*
X16400Y-36550D03*
X17400Y-36550D03*
X18400Y-36550D03*
X19400Y-36550D03*
X20400Y-36550D03*
X21400Y-36550D03*
X22400Y-36550D03*
G54D42*
X36400Y-36550D03*
G54D43*
X37400Y-36550D03*
X38400Y-36550D03*
X39400Y-36550D03*
X40400Y-36550D03*
X41400Y-36550D03*
X42400Y-36550D03*
X43400Y-36550D03*
X44400Y-36550D03*
X45400Y-36550D03*
X46400Y-36550D03*
X47400Y-36550D03*
G54D42*
X58050Y-36550D03*
G54D43*
X58050Y-35550D03*
X58050Y-34550D03*
X58050Y-33550D03*
X58050Y-32550D03*
X58050Y-31550D03*
G54D42*
X38400Y-2800D03*
G54D43*
X39400Y-2800D03*
X40400Y-2800D03*
X41400Y-2800D03*
X42400Y-2800D03*
X43400Y-2800D03*
X44400Y-2800D03*
X45400Y-2800D03*
X46400Y-2800D03*
X47400Y-2800D03*
X9850Y-19200D03*
G54D42*
X8850Y-19200D03*
G54D43*
X9850Y-20200D03*
X8850Y-20200D03*
X9850Y-21200D03*
X8850Y-21200D03*
X9850Y-22200D03*
X8850Y-22200D03*
X9850Y-23200D03*
X8850Y-23200D03*
X9850Y-24200D03*
X8850Y-24200D03*
X9850Y-25200D03*
X8850Y-25200D03*
X9850Y-26200D03*
X8850Y-26200D03*
M02*
