M48
;DRILL file {Pcbnew (2013-03-19 BZR 4004)-stable} date 8/2/2015 7:27:20 AM
;FORMAT={2:4/ absolute / inch / keep zeros}
FMAT,2
INCH,TZ
T1C0.020
T2C0.028
T3C0.035
T4C0.038
T5C0.050
T6C0.065
T7C0.128
%
G90
G05
M72
T1
X006100Y-015600
X006350Y-021150
X006350Y-033250
X006400Y-008250
X006400Y-027700
X006450Y-003650
X006450Y-012800
X006450Y-037750
X007400Y-003100
X007900Y-002500
X007900Y-015600
X008300Y-008250
X009100Y-014400
X009300Y-012150
X009850Y-005200
X009850Y-007450
X009850Y-009050
X009850Y-011300
X009900Y-015600
X009900Y-016900
X010300Y-033900
X010400Y-008250
X010750Y-001600
X011200Y-029800
X011600Y-033900
X011800Y-015600
X011800Y-016900
X012250Y-011500
X012300Y-005100
X012300Y-006600
X012900Y-033900
X013000Y-022600
X013000Y-023900
X013000Y-025200
X013000Y-026500
X013000Y-027800
X013000Y-029100
X013300Y-012950
X014200Y-033900
X014450Y-007950
X014600Y-011600
X014650Y-037750
X015100Y-014200
X015200Y-022600
X015200Y-023900
X015200Y-025200
X015200Y-026500
X015200Y-027800
X015200Y-029100
X015250Y-006150
X015300Y-017200
X015500Y-033900
X015600Y-015650
X015850Y-008550
X015850Y-010950
X016100Y-030300
X016150Y-016250
X016200Y-013350
X016400Y-011150
X016600Y-012150
X016800Y-033900
X017000Y-022600
X017000Y-023900
X017000Y-025200
X017000Y-027800
X017000Y-029100
X017050Y-026500
X017550Y-012600
X017700Y-010150
X017700Y-010850
X017950Y-001500
X018100Y-033900
X018150Y-013450
X018150Y-014950
X018400Y-008150
X018400Y-010150
X018400Y-010850
X018600Y-007250
X019400Y-033900
X019550Y-012350
X019700Y-025750
X019800Y-006100
X020000Y-031800
X020100Y-017200
X020150Y-012950
X020350Y-029300
X020700Y-009300
X020700Y-010000
X020700Y-033900
X021100Y-023900
X021300Y-031800
X021400Y-006100
X022000Y-033900
X022100Y-010450
X022400Y-008100
X022600Y-031800
X023150Y-033800
X023250Y-028050
X023850Y-021000
X023850Y-027300
X023950Y-012250
X024050Y-029200
X024300Y-023450
X024300Y-024150
X024350Y-020390
X024400Y-015950
X024650Y-027300
X025150Y-020390
X025150Y-027700
X025250Y-035600
X025500Y-001600
X025500Y-003800
X025500Y-014500
X025550Y-008100
X025650Y-027300
X025750Y-006000
X026100Y-028600
X026100Y-030600
X026100Y-032100
X026100Y-032800
X026600Y-029200
X026750Y-013700
X026800Y-014700
X027000Y-021750
X027000Y-022550
X027000Y-024150
X027200Y-010450
X027300Y-018150
X027350Y-007650
X027350Y-026050
X027400Y-015100
X027400Y-034300
X027450Y-037750
X027500Y-022150
X027500Y-022950
X027500Y-023750
X027500Y-024500
X027550Y-006000
X027550Y-019000
X027550Y-021250
X027850Y-026050
X027900Y-025500
X028100Y-013200
X028150Y-030800
X028300Y-012100
X028350Y-025150
X028650Y-028700
X028800Y-011500
X028850Y-014200
X029000Y-029300
X029200Y-007400
X029200Y-026000
X029300Y-021050
X029300Y-022250
X029300Y-023450
X029350Y-028700
X029400Y-029750
X029600Y-011500
X029600Y-015500
X029850Y-026000
X029900Y-021650
X029900Y-022850
X029950Y-018500
X030200Y-014700
X030400Y-023900
X030700Y-001650
X030700Y-002200
X030700Y-004600
X030850Y-005600
X030850Y-006400
X030850Y-006900
X030850Y-007400
X030850Y-008200
X030950Y-028700
X031150Y-025350
X031250Y-016950
X031250Y-018500
X031250Y-023350
X031250Y-026000
X031300Y-022000
X031300Y-022750
X031450Y-004600
X031450Y-005600
X031450Y-006400
X031450Y-006900
X031450Y-007400
X031450Y-008200
X031500Y-001650
X031500Y-002200
X031550Y-024700
X031650Y-024100
X031650Y-028700
X031700Y-021600
X031700Y-022400
X031850Y-023400
X032050Y-034300
X032100Y-018300
X032150Y-010450
X032250Y-001650
X032250Y-002200
X032250Y-004600
X032300Y-005600
X032450Y-020850
X032800Y-029200
X032850Y-012500
X032850Y-017650
X033250Y-007850
X033250Y-028300
X033600Y-010050
X033600Y-018300
X033600Y-021600
X033650Y-032850
X034200Y-017650
X034200Y-021900
X034250Y-028300
X034800Y-016900
X034900Y-010050
X035200Y-020150
X035200Y-023250
X035200Y-023950
X035200Y-025300
X035200Y-026000
X035250Y-028300
X035350Y-037800
X035500Y-033900
X035700Y-017150
X035700Y-022250
X036250Y-028300
X036600Y-008500
X036800Y-033900
X037150Y-019800
X037250Y-013100
X037250Y-014350
X037250Y-015600
X037250Y-028300
X038050Y-026050
X038050Y-028600
X038100Y-016400
X038100Y-033900
X038350Y-005450
X038600Y-014950
X038700Y-017150
X038950Y-019800
X039100Y-022300
X039100Y-023600
X039400Y-033900
X039650Y-005450
X039650Y-009650
X039900Y-013400
X040150Y-024200
X040150Y-026200
X040600Y-008550
X040700Y-033900
X040950Y-005450
X041000Y-011300
X041000Y-012050
X041350Y-015400
X041350Y-016650
X041950Y-019250
X042000Y-033900
X042200Y-026350
X042250Y-005450
X042300Y-011300
X042300Y-012050
X042400Y-012600
X042800Y-013950
X043300Y-033900
X043400Y-009650
X043400Y-022750
X043500Y-013950
X043500Y-016650
X043600Y-011300
X043600Y-012050
X043650Y-015400
X044100Y-024300
X044150Y-028750
X044500Y-008800
X044600Y-033900
X044900Y-011300
X044900Y-012050
X045250Y-017700
X045350Y-014800
X045900Y-026400
X045900Y-033900
X046000Y-005500
X046000Y-007050
X046250Y-010550
X046250Y-019850
X046250Y-029700
X046450Y-012400
X046450Y-014700
X046450Y-017700
X046450Y-024500
X046700Y-004900
X046850Y-016050
X046950Y-006450
X046950Y-007800
X046950Y-009100
X047200Y-019100
X047200Y-033900
X047300Y-037800
X047350Y-021050
X047400Y-027100
X047450Y-007150
X047450Y-009700
X048050Y-025850
X048100Y-022800
X048100Y-027600
X048500Y-033900
X049000Y-014400
X049000Y-015700
X049050Y-010100
X049100Y-028800
X049100Y-030100
X049300Y-008450
X049800Y-001600
X049800Y-021250
X050000Y-012650
X050400Y-032650
X050600Y-008450
X050750Y-018000
X050750Y-025900
X050750Y-026750
X050750Y-027350
X050900Y-019200
X050950Y-032000
X050950Y-033300
X051200Y-023250
X051300Y-009600
X051500Y-025000
X051550Y-026750
X051550Y-027350
X051800Y-003650
X051950Y-034250
X052050Y-026750
X052050Y-027350
X052250Y-022350
X052400Y-004150
X052550Y-026750
X052550Y-027350
X052750Y-016900
X052950Y-010700
X053200Y-013100
X053200Y-014400
X053350Y-026750
X053350Y-027350
X053350Y-028200
X053400Y-021250
X054000Y-013100
X054000Y-014400
X054400Y-019150
X054500Y-015700
X054750Y-037750
X055100Y-015100
X055350Y-001550
X055450Y-036150
X055750Y-034100
X055900Y-020300
X056000Y-018000
X056350Y-028350
X056350Y-030900
X056500Y-021050
X056550Y-016800
X056600Y-027350
X057100Y-017400
X057250Y-027350
X057900Y-027350
X057950Y-019150
X058900Y-017500
X059550Y-022550
X059600Y-027500
X061450Y-001600
X061450Y-029500
X061450Y-033550
X061450Y-037700
X061500Y-022450
X061500Y-025150
T2
X060670Y-017520
X060670Y-019280
T3
X056930Y-004900
X056930Y-005900
X056930Y-006900
X056930Y-007900
X057930Y-005400
X057930Y-006400
X057930Y-007400
X057930Y-008400
T4
X008850Y-019200
X008850Y-020200
X008850Y-021200
X008850Y-022200
X008850Y-023200
X008850Y-024200
X008850Y-025200
X008850Y-026200
X009850Y-019200
X009850Y-020200
X009850Y-021200
X009850Y-022200
X009850Y-023200
X009850Y-024200
X009850Y-025200
X009850Y-026200
X011400Y-002800
X011400Y-036550
X012400Y-002800
X012400Y-036550
X013400Y-002800
X013400Y-036550
X014400Y-002800
X014400Y-036550
X015400Y-002800
X015400Y-036550
X016400Y-002800
X016400Y-036550
X017400Y-002800
X017400Y-036550
X018400Y-002800
X018400Y-036550
X019400Y-002800
X019400Y-036550
X020400Y-002800
X020400Y-036550
X021400Y-002800
X021400Y-036550
X022400Y-002800
X022400Y-036550
X036400Y-036550
X037400Y-036550
X038400Y-002800
X038400Y-036550
X039400Y-002800
X039400Y-036550
X040400Y-002800
X040400Y-036550
X041400Y-002800
X041400Y-036550
X042400Y-002800
X042400Y-036550
X043400Y-002800
X043400Y-036550
X044400Y-002800
X044400Y-036550
X045400Y-002800
X045400Y-036550
X046400Y-002800
X046400Y-036550
X047400Y-002800
X047400Y-036550
X058050Y-031550
X058050Y-032550
X058050Y-033550
X058050Y-034550
X058050Y-035550
X058050Y-036550
T5
X061850Y-016750
X061850Y-020050
T6
X000740Y-005250
X000740Y-010050
X000740Y-014850
X002090Y-003450
X002090Y-008250
X002090Y-013050
X003300Y-006250
X003300Y-011050
X003300Y-015850
X004000Y-007300
X004000Y-012100
X004000Y-016900
X005140Y-003600
X005140Y-008400
X005140Y-013200
X057260Y-011600
X058400Y-015300
X059100Y-014250
X060310Y-011450
X061660Y-013250
T7
X060430Y-004400
X060430Y-008900
T0
M30
