G04 (created by PCBNEW (2013-03-19 BZR 4004)-stable) date 8/2/2015 7:27:16 AM*
%MOIN*%
G04 Gerber Fmt 3.4, Leading zero omitted, Abs format*
%FSLAX34Y34*%
G01*
G70*
G90*
G04 APERTURE LIST*
%ADD10C,0.007*%
%ADD11C,0.01*%
%ADD12C,0.005*%
%ADD13C,0.012*%
%ADD14C,0.008*%
%ADD15R,0.035X0.035*%
%ADD16R,0.08X0.08*%
%ADD17C,0.11*%
%ADD18C,0.16*%
%ADD19R,0.0591X0.0591*%
%ADD20C,0.0591*%
%ADD21R,0.055X0.055*%
%ADD22R,0.04X0.06*%
%ADD23C,0.04*%
%ADD24R,0.04X0.05*%
%ADD25R,0.05X0.04*%
%ADD26R,0.06X0.06*%
%ADD27C,0.06*%
G04 APERTURE END LIST*
G54D10*
G54D11*
X2650Y-2870D02*
X4750Y-2870D01*
X0Y-2870D02*
X0Y-7630D01*
X0Y-7630D02*
X3300Y-7630D01*
X5600Y-7630D02*
X5600Y-4150D01*
X1550Y-2870D02*
X0Y-2870D01*
X4700Y-7630D02*
X5600Y-7630D01*
X2650Y-7670D02*
X4750Y-7670D01*
X0Y-7670D02*
X0Y-12430D01*
X0Y-12430D02*
X3300Y-12430D01*
X5600Y-12430D02*
X5600Y-8950D01*
X1550Y-7670D02*
X0Y-7670D01*
X4700Y-12430D02*
X5600Y-12430D01*
X2650Y-12470D02*
X4750Y-12470D01*
X0Y-12470D02*
X0Y-17230D01*
X0Y-17230D02*
X3300Y-17230D01*
X5600Y-17230D02*
X5600Y-13750D01*
X1550Y-12470D02*
X0Y-12470D01*
X4700Y-17230D02*
X5600Y-17230D01*
G54D12*
X62100Y-7700D02*
X62100Y-7000D01*
X61400Y-5700D02*
X62100Y-5700D01*
X62100Y-5700D02*
X62100Y-6300D01*
X61400Y-7700D02*
X62100Y-7700D01*
X62100Y-6300D02*
X62250Y-6300D01*
X62100Y-7000D02*
X62250Y-7000D01*
X61400Y-7600D02*
X62100Y-7600D01*
X62250Y-7000D02*
X62250Y-6300D01*
X61400Y-7700D02*
X61400Y-5700D01*
G54D13*
X61900Y-37050D02*
X61900Y-31050D01*
X58600Y-37050D02*
X61900Y-37050D01*
X59600Y-37050D02*
X59600Y-31050D01*
X61900Y-31050D02*
X58600Y-31050D01*
X58600Y-31050D02*
X58600Y-37050D01*
X8200Y-18800D02*
X5600Y-18800D01*
X5600Y-26600D02*
X8200Y-26600D01*
X8200Y-26600D02*
X8200Y-18800D01*
G54D10*
X6533Y-5041D02*
X6533Y-5291D01*
X6550Y-5341D01*
X6583Y-5375D01*
X6633Y-5391D01*
X6666Y-5391D01*
X6183Y-5391D02*
X6383Y-5391D01*
X6283Y-5391D02*
X6283Y-5041D01*
X6316Y-5091D01*
X6350Y-5125D01*
X6383Y-5141D01*
X6066Y-5041D02*
X5850Y-5041D01*
X5966Y-5175D01*
X5916Y-5175D01*
X5883Y-5191D01*
X5866Y-5208D01*
X5850Y-5241D01*
X5850Y-5325D01*
X5866Y-5358D01*
X5883Y-5375D01*
X5916Y-5391D01*
X6016Y-5391D01*
X6050Y-5375D01*
X6066Y-5358D01*
X6533Y-10041D02*
X6533Y-10291D01*
X6550Y-10341D01*
X6583Y-10375D01*
X6633Y-10391D01*
X6666Y-10391D01*
X6183Y-10391D02*
X6383Y-10391D01*
X6283Y-10391D02*
X6283Y-10041D01*
X6316Y-10091D01*
X6350Y-10125D01*
X6383Y-10141D01*
X5883Y-10158D02*
X5883Y-10391D01*
X5966Y-10025D02*
X6050Y-10275D01*
X5833Y-10275D01*
X6533Y-14791D02*
X6533Y-15041D01*
X6550Y-15091D01*
X6583Y-15125D01*
X6633Y-15141D01*
X6666Y-15141D01*
X6183Y-15141D02*
X6383Y-15141D01*
X6283Y-15141D02*
X6283Y-14791D01*
X6316Y-14841D01*
X6350Y-14875D01*
X6383Y-14891D01*
X5866Y-14791D02*
X6033Y-14791D01*
X6050Y-14958D01*
X6033Y-14941D01*
X6000Y-14925D01*
X5916Y-14925D01*
X5883Y-14941D01*
X5866Y-14958D01*
X5850Y-14991D01*
X5850Y-15075D01*
X5866Y-15108D01*
X5883Y-15125D01*
X5916Y-15141D01*
X6000Y-15141D01*
X6033Y-15125D01*
X6050Y-15108D01*
G54D12*
X61171Y-6771D02*
X61171Y-6471D01*
X61100Y-6471D01*
X61057Y-6485D01*
X61028Y-6514D01*
X61014Y-6542D01*
X61000Y-6600D01*
X61000Y-6642D01*
X61014Y-6700D01*
X61028Y-6728D01*
X61057Y-6757D01*
X61100Y-6771D01*
X61171Y-6771D01*
X60900Y-6471D02*
X60714Y-6471D01*
X60814Y-6585D01*
X60771Y-6585D01*
X60742Y-6600D01*
X60728Y-6614D01*
X60714Y-6642D01*
X60714Y-6714D01*
X60728Y-6742D01*
X60742Y-6757D01*
X60771Y-6771D01*
X60857Y-6771D01*
X60885Y-6757D01*
X60900Y-6742D01*
G54D11*
X58335Y-37661D02*
X58335Y-37261D01*
X58183Y-37261D01*
X58145Y-37280D01*
X58126Y-37300D01*
X58107Y-37338D01*
X58107Y-37395D01*
X58126Y-37433D01*
X58145Y-37452D01*
X58183Y-37471D01*
X58335Y-37471D01*
X57726Y-37661D02*
X57954Y-37661D01*
X57840Y-37661D02*
X57840Y-37261D01*
X57878Y-37319D01*
X57916Y-37357D01*
X57954Y-37376D01*
X57573Y-37300D02*
X57554Y-37280D01*
X57516Y-37261D01*
X57421Y-37261D01*
X57383Y-37280D01*
X57364Y-37300D01*
X57345Y-37338D01*
X57345Y-37376D01*
X57364Y-37433D01*
X57592Y-37661D01*
X57345Y-37661D01*
G54D14*
X8983Y-17961D02*
X8983Y-18247D01*
X9002Y-18304D01*
X9040Y-18342D01*
X9097Y-18361D01*
X9135Y-18361D01*
X8773Y-18361D02*
X8697Y-18361D01*
X8659Y-18342D01*
X8640Y-18323D01*
X8602Y-18266D01*
X8583Y-18190D01*
X8583Y-18038D01*
X8602Y-18000D01*
X8621Y-17980D01*
X8659Y-17961D01*
X8735Y-17961D01*
X8773Y-17980D01*
X8792Y-18000D01*
X8811Y-18038D01*
X8811Y-18133D01*
X8792Y-18171D01*
X8773Y-18190D01*
X8735Y-18209D01*
X8659Y-18209D01*
X8621Y-18190D01*
X8602Y-18171D01*
X8583Y-18133D01*
%LPC*%
G54D15*
X60670Y-19280D03*
X60670Y-17520D03*
G54D16*
X61850Y-20050D03*
X61850Y-16750D03*
G54D17*
X61660Y-13250D03*
X58400Y-15300D03*
X59100Y-14250D03*
X57260Y-11600D03*
X60310Y-11450D03*
X740Y-5250D03*
X4000Y-7300D03*
X3300Y-6250D03*
X5140Y-3600D03*
X2090Y-3450D03*
X740Y-10050D03*
X4000Y-12100D03*
X3300Y-11050D03*
X5140Y-8400D03*
X2090Y-8250D03*
X740Y-14850D03*
X4000Y-16900D03*
X3300Y-15850D03*
X5140Y-13200D03*
X2090Y-13050D03*
G54D18*
X60430Y-4400D03*
X60430Y-8900D03*
G54D19*
X57930Y-8400D03*
G54D20*
X56930Y-7900D03*
X57930Y-7400D03*
X56930Y-6900D03*
X57930Y-6400D03*
X56930Y-5900D03*
X57930Y-5400D03*
X56930Y-4900D03*
G54D21*
X18400Y-10850D03*
X17700Y-10850D03*
X18400Y-10150D03*
X17700Y-10150D03*
G54D22*
X61750Y-6150D03*
X61750Y-7150D03*
G54D23*
X35250Y-28300D03*
X36250Y-28300D03*
X33250Y-28300D03*
X34250Y-28300D03*
X37250Y-28300D03*
G54D24*
X52050Y-27350D03*
X51550Y-27350D03*
X52550Y-27350D03*
X52050Y-26750D03*
X51550Y-26750D03*
X52550Y-26750D03*
G54D25*
X31450Y-6900D03*
X31450Y-7400D03*
X31450Y-6400D03*
X30850Y-6900D03*
X30850Y-7400D03*
X30850Y-6400D03*
G54D26*
X11400Y-2800D03*
G54D27*
X12400Y-2800D03*
X13400Y-2800D03*
X14400Y-2800D03*
X15400Y-2800D03*
X16400Y-2800D03*
X17400Y-2800D03*
X18400Y-2800D03*
X19400Y-2800D03*
X20400Y-2800D03*
X21400Y-2800D03*
X22400Y-2800D03*
G54D26*
X11400Y-36550D03*
G54D27*
X12400Y-36550D03*
X13400Y-36550D03*
X14400Y-36550D03*
X15400Y-36550D03*
X16400Y-36550D03*
X17400Y-36550D03*
X18400Y-36550D03*
X19400Y-36550D03*
X20400Y-36550D03*
X21400Y-36550D03*
X22400Y-36550D03*
G54D26*
X36400Y-36550D03*
G54D27*
X37400Y-36550D03*
X38400Y-36550D03*
X39400Y-36550D03*
X40400Y-36550D03*
X41400Y-36550D03*
X42400Y-36550D03*
X43400Y-36550D03*
X44400Y-36550D03*
X45400Y-36550D03*
X46400Y-36550D03*
X47400Y-36550D03*
G54D26*
X58050Y-36550D03*
G54D27*
X58050Y-35550D03*
X58050Y-34550D03*
X58050Y-33550D03*
X58050Y-32550D03*
X58050Y-31550D03*
G54D26*
X38400Y-2800D03*
G54D27*
X39400Y-2800D03*
X40400Y-2800D03*
X41400Y-2800D03*
X42400Y-2800D03*
X43400Y-2800D03*
X44400Y-2800D03*
X45400Y-2800D03*
X46400Y-2800D03*
X47400Y-2800D03*
X9850Y-19200D03*
G54D26*
X8850Y-19200D03*
G54D27*
X9850Y-20200D03*
X8850Y-20200D03*
X9850Y-21200D03*
X8850Y-21200D03*
X9850Y-22200D03*
X8850Y-22200D03*
X9850Y-23200D03*
X8850Y-23200D03*
X9850Y-24200D03*
X8850Y-24200D03*
X9850Y-25200D03*
X8850Y-25200D03*
X9850Y-26200D03*
X8850Y-26200D03*
M02*
