G04 (created by PCBNEW (2013-03-19 BZR 4004)-stable) date 7/29/2015 9:45:37 AM*
%MOIN*%
G04 Gerber Fmt 3.4, Leading zero omitted, Abs format*
%FSLAX34Y34*%
G01*
G70*
G90*
G04 APERTURE LIST*
%ADD10C,0.007*%
%ADD11C,0.04*%
%ADD12C,0.2*%
%ADD13C,0.18*%
%ADD14R,0.06X0.06*%
%ADD15C,0.06*%
%ADD16C,0.01*%
G04 APERTURE END LIST*
G54D10*
G54D11*
X39600Y-8550D03*
X40050Y-10500D03*
X39950Y-12800D03*
X40000Y-17400D03*
X39950Y-20250D03*
X42700Y-21100D03*
X44200Y-19500D03*
X42000Y-20100D03*
X42050Y-17450D03*
X42100Y-15100D03*
X42150Y-12750D03*
X42000Y-10500D03*
X41950Y-8500D03*
X39950Y-15100D03*
X37500Y-23150D03*
X37850Y-20000D03*
X37850Y-17400D03*
X37900Y-15100D03*
X37900Y-12750D03*
X37800Y-10500D03*
X37850Y-8600D03*
X44300Y-17500D03*
X44150Y-15100D03*
X44150Y-12750D03*
X44200Y-10500D03*
X43050Y-8450D03*
X40050Y-35500D03*
X38500Y-35800D03*
X36500Y-35800D03*
X34350Y-35750D03*
X32500Y-35750D03*
X30200Y-35750D03*
X28700Y-32950D03*
X29850Y-33600D03*
X32400Y-33650D03*
X33500Y-33650D03*
X36550Y-33650D03*
X37850Y-33650D03*
X39200Y-33650D03*
X40200Y-31650D03*
X28700Y-31500D03*
X29450Y-30650D03*
X29800Y-31900D03*
X32150Y-31600D03*
X28950Y-34550D03*
X34500Y-31650D03*
X37400Y-31600D03*
X30000Y-29750D03*
X32150Y-29700D03*
X31050Y-27750D03*
X33100Y-27600D03*
X30450Y-26650D03*
X33050Y-26200D03*
X29250Y-27800D03*
X7950Y-23300D03*
X14700Y-22200D03*
X8800Y-21400D03*
X5750Y-27500D03*
X7000Y-28100D03*
X8000Y-28100D03*
X9550Y-28150D03*
X10200Y-26700D03*
X10100Y-24900D03*
X6550Y-26850D03*
X4650Y-25900D03*
X3850Y-26600D03*
X3000Y-24550D03*
X37600Y-7250D03*
X36350Y-8100D03*
X33500Y-8750D03*
X35850Y-10500D03*
X35700Y-12750D03*
X35750Y-15100D03*
X35750Y-17400D03*
X35750Y-20500D03*
X44500Y-7600D03*
X33450Y-21400D03*
X34300Y-8150D03*
X33600Y-10500D03*
X33750Y-12750D03*
X33700Y-15100D03*
X33600Y-17400D03*
X33600Y-20250D03*
X31550Y-20250D03*
X31600Y-17400D03*
X31500Y-15100D03*
X31500Y-12750D03*
X31600Y-10500D03*
X29450Y-20250D03*
X29400Y-17450D03*
X29500Y-15100D03*
X29550Y-12750D03*
X29400Y-10500D03*
X30350Y-8550D03*
X35350Y-22950D03*
X33000Y-24950D03*
X35250Y-24950D03*
X37450Y-24950D03*
X38800Y-24650D03*
X41800Y-24950D03*
X43850Y-24950D03*
X46350Y-24950D03*
X47900Y-25750D03*
X48150Y-27250D03*
X47200Y-29050D03*
X47050Y-26500D03*
X45100Y-26000D03*
X42700Y-26050D03*
X40150Y-26200D03*
X43350Y-27750D03*
X45250Y-27300D03*
X37500Y-26350D03*
X35700Y-26050D03*
X35700Y-27650D03*
X37900Y-27600D03*
X40200Y-27600D03*
X42650Y-28550D03*
X41700Y-29500D03*
X42750Y-29950D03*
X43300Y-30750D03*
X41750Y-30900D03*
X42900Y-35800D03*
X38550Y-29700D03*
X36200Y-29750D03*
X33900Y-29700D03*
X21450Y-25400D03*
X20100Y-25100D03*
X21350Y-22950D03*
X22800Y-28150D03*
X24850Y-28550D03*
X24850Y-30500D03*
X24350Y-25050D03*
X22800Y-26750D03*
X16800Y-22850D03*
X21350Y-26700D03*
X24500Y-27500D03*
X26500Y-27150D03*
X11300Y-26000D03*
X11250Y-27850D03*
X10550Y-29000D03*
X8000Y-29200D03*
X6350Y-30650D03*
X5600Y-33700D03*
X5750Y-34900D03*
X7800Y-34950D03*
X8000Y-33900D03*
X9100Y-34350D03*
X3750Y-34450D03*
X39200Y-4300D03*
X44400Y-5250D03*
X36050Y-3800D03*
X42300Y-4400D03*
X36350Y-5250D03*
X34600Y-5250D03*
X33300Y-4500D03*
X31450Y-4150D03*
X35500Y-6600D03*
X29550Y-4250D03*
X28300Y-7800D03*
X27450Y-10500D03*
X27350Y-12750D03*
X27350Y-15100D03*
X27400Y-17500D03*
X27700Y-20600D03*
X28300Y-25000D03*
X31700Y-24650D03*
X47200Y-30450D03*
X6650Y-21250D03*
X7800Y-21250D03*
X7650Y-22250D03*
X3750Y-21200D03*
X10800Y-21150D03*
X14750Y-21300D03*
X13800Y-21200D03*
X14950Y-23300D03*
X15800Y-21500D03*
X21350Y-24050D03*
X16850Y-20450D03*
X16750Y-25150D03*
X16700Y-27150D03*
X18750Y-25100D03*
X18850Y-27150D03*
X9100Y-20000D03*
X9150Y-17750D03*
X3850Y-18850D03*
X7400Y-18850D03*
X10850Y-18850D03*
X14400Y-18850D03*
X7400Y-20000D03*
X5600Y-20000D03*
X3850Y-20000D03*
X10850Y-20000D03*
X12650Y-20000D03*
X14450Y-20000D03*
X14500Y-16250D03*
X18650Y-20450D03*
X2100Y-20000D03*
X2100Y-17750D03*
X5650Y-17700D03*
X12650Y-17700D03*
G54D12*
X52700Y-23750D03*
G54D13*
X55200Y-23750D03*
X53900Y-25650D03*
G54D11*
X30300Y-24650D03*
X50200Y-37850D03*
X43500Y-37850D03*
X27850Y-37800D03*
X19200Y-37750D03*
X23550Y-37750D03*
X800Y-33850D03*
X800Y-37850D03*
X800Y-21850D03*
X800Y-17850D03*
X800Y-25850D03*
X800Y-29850D03*
X800Y-13850D03*
X800Y-9850D03*
X800Y-5850D03*
X800Y-1500D03*
X20800Y-1500D03*
X16800Y-1500D03*
X8800Y-1500D03*
X4800Y-1500D03*
X12800Y-1500D03*
X24800Y-1500D03*
X28800Y-1500D03*
X56200Y-1500D03*
X49050Y-1500D03*
X52650Y-1500D03*
X56200Y-5500D03*
X49000Y-6800D03*
X51750Y-6150D03*
X53450Y-3550D03*
X56200Y-10500D03*
X56200Y-14500D03*
X51300Y-11850D03*
X53700Y-13100D03*
X53450Y-10550D03*
X48600Y-9500D03*
X49650Y-11800D03*
X56250Y-20300D03*
X56200Y-26850D03*
X52200Y-26850D03*
X50200Y-33850D03*
X50200Y-29850D03*
X13000Y-31350D03*
X13750Y-28700D03*
X17300Y-33950D03*
X21550Y-33900D03*
X26750Y-34450D03*
X21800Y-30750D03*
X16250Y-18100D03*
X17600Y-14950D03*
X6900Y-15400D03*
X9450Y-14950D03*
X3800Y-16150D03*
X6000Y-13550D03*
X3150Y-7550D03*
X4600Y-4900D03*
X11100Y-5950D03*
X13550Y-5700D03*
X17700Y-5200D03*
X11400Y-15300D03*
X44600Y-34300D03*
G54D14*
X6000Y-2800D03*
G54D15*
X7000Y-2800D03*
X8000Y-2800D03*
X9000Y-2800D03*
X10000Y-2800D03*
X11000Y-2800D03*
X12000Y-2800D03*
X13000Y-2800D03*
X14000Y-2800D03*
X15000Y-2800D03*
X16000Y-2800D03*
X17000Y-2800D03*
G54D14*
X31000Y-37550D03*
G54D15*
X32000Y-37550D03*
X33000Y-37550D03*
X34000Y-37550D03*
X35000Y-37550D03*
X36000Y-37550D03*
X37000Y-37550D03*
X38000Y-37550D03*
X39000Y-37550D03*
X40000Y-37550D03*
X41000Y-37550D03*
X42000Y-37550D03*
G54D14*
X31000Y-36550D03*
G54D15*
X32000Y-36550D03*
X33000Y-36550D03*
X34000Y-36550D03*
X35000Y-36550D03*
X36000Y-36550D03*
X37000Y-36550D03*
X38000Y-36550D03*
X39000Y-36550D03*
X40000Y-36550D03*
X41000Y-36550D03*
X42000Y-36550D03*
G54D14*
X6000Y-37550D03*
G54D15*
X7000Y-37550D03*
X8000Y-37550D03*
X9000Y-37550D03*
X10000Y-37550D03*
X11000Y-37550D03*
X12000Y-37550D03*
X13000Y-37550D03*
X14000Y-37550D03*
X15000Y-37550D03*
X16000Y-37550D03*
X17000Y-37550D03*
G54D14*
X6000Y-36550D03*
G54D15*
X7000Y-36550D03*
X8000Y-36550D03*
X9000Y-36550D03*
X10000Y-36550D03*
X11000Y-36550D03*
X12000Y-36550D03*
X13000Y-36550D03*
X14000Y-36550D03*
X15000Y-36550D03*
X16000Y-36550D03*
X17000Y-36550D03*
G54D14*
X31000Y-1800D03*
G54D15*
X32000Y-1800D03*
X33000Y-1800D03*
X34000Y-1800D03*
X35000Y-1800D03*
X36000Y-1800D03*
X37000Y-1800D03*
X38000Y-1800D03*
X39000Y-1800D03*
X40000Y-1800D03*
X41000Y-1800D03*
X42000Y-1800D03*
G54D14*
X33000Y-2800D03*
G54D15*
X34000Y-2800D03*
X35000Y-2800D03*
X36000Y-2800D03*
X37000Y-2800D03*
X38000Y-2800D03*
X39000Y-2800D03*
X40000Y-2800D03*
X41000Y-2800D03*
X42000Y-2800D03*
G54D11*
X44150Y-32900D03*
X44700Y-32250D03*
X36900Y-7150D03*
X24450Y-19950D03*
X25250Y-18700D03*
X23650Y-18700D03*
X54750Y-8650D03*
X55500Y-8650D03*
X55500Y-9400D03*
X54750Y-9400D03*
X54000Y-9400D03*
X54000Y-8650D03*
X25650Y-32900D03*
X26200Y-32250D03*
X20700Y-31600D03*
X20700Y-30650D03*
X26250Y-11300D03*
X25600Y-10800D03*
X21350Y-10800D03*
X22000Y-11300D03*
X6200Y-12750D03*
X6200Y-11450D03*
X17500Y-11300D03*
X16850Y-10750D03*
X9100Y-22150D03*
X9750Y-21550D03*
X2100Y-22900D03*
X2750Y-23400D03*
X25500Y-21850D03*
X24850Y-21350D03*
X31700Y-33500D03*
X30550Y-33500D03*
X43400Y-23900D03*
X42750Y-24400D03*
X27650Y-21600D03*
X28250Y-21100D03*
X43400Y-7350D03*
X42750Y-7850D03*
X27650Y-5100D03*
X28250Y-4600D03*
X10250Y-8000D03*
X10700Y-7450D03*
X53050Y-15650D03*
X49700Y-21950D03*
X47700Y-21900D03*
X45500Y-13950D03*
X47250Y-15650D03*
X49750Y-15650D03*
X48650Y-16450D03*
X48650Y-18000D03*
X47750Y-19150D03*
X49500Y-19150D03*
X48650Y-20250D03*
X45450Y-12250D03*
X45450Y-10550D03*
X46250Y-11050D03*
X47200Y-12250D03*
X47000Y-11050D03*
X47350Y-13800D03*
X50350Y-13800D03*
X52950Y-13800D03*
X45800Y-2500D03*
X45800Y-1600D03*
X47000Y-1950D03*
X48100Y-1600D03*
X48100Y-2850D03*
X48200Y-7350D03*
X46500Y-6600D03*
X47650Y-6600D03*
X47000Y-7300D03*
X19250Y-14400D03*
X7700Y-11250D03*
X9600Y-8850D03*
X21500Y-6850D03*
X22600Y-12650D03*
X11550Y-10550D03*
X11450Y-11750D03*
X25700Y-6850D03*
X51250Y-9550D03*
X5400Y-32850D03*
X6350Y-32650D03*
X11200Y-35050D03*
X11200Y-31450D03*
X15650Y-32900D03*
X14850Y-32050D03*
X16700Y-32850D03*
X5050Y-27700D03*
X4400Y-28250D03*
X8400Y-26400D03*
X7900Y-27050D03*
X4850Y-33500D03*
X8600Y-30750D03*
X9250Y-31300D03*
X26400Y-30500D03*
X44900Y-30500D03*
X45650Y-31000D03*
X27050Y-31000D03*
X23100Y-10300D03*
X18850Y-10300D03*
X13500Y-10300D03*
X2800Y-11850D03*
X28850Y-7300D03*
X28850Y-23850D03*
X42250Y-5100D03*
X42200Y-21650D03*
X30200Y-5850D03*
X30250Y-22350D03*
X40700Y-6600D03*
X40700Y-23150D03*
X41450Y-35600D03*
X29850Y-6600D03*
X29800Y-23150D03*
X41200Y-5800D03*
X41200Y-22350D03*
X20050Y-29250D03*
X19400Y-29900D03*
X43350Y-32950D03*
X42800Y-32250D03*
X24450Y-14800D03*
X6750Y-25850D03*
X13750Y-25850D03*
X49950Y-4900D03*
X49950Y-3400D03*
X46000Y-21800D03*
X46000Y-20300D03*
X46050Y-17950D03*
X46000Y-16450D03*
X10050Y-35050D03*
X10050Y-31500D03*
X4050Y-33500D03*
X7250Y-31650D03*
X5050Y-29600D03*
X21400Y-16000D03*
X19800Y-16000D03*
X25250Y-16000D03*
X23650Y-16000D03*
X19250Y-22250D03*
X19250Y-21100D03*
X20650Y-12100D03*
X16150Y-12100D03*
X18900Y-31000D03*
X18150Y-30100D03*
X15650Y-30650D03*
X23700Y-21300D03*
X22950Y-20400D03*
X26250Y-12100D03*
X25600Y-12650D03*
X22000Y-12100D03*
X25700Y-4550D03*
X21450Y-4550D03*
X2450Y-9950D03*
X7000Y-11450D03*
X3800Y-9900D03*
X3300Y-9200D03*
X17500Y-12100D03*
X8700Y-30100D03*
X9200Y-23300D03*
X37600Y-5150D03*
X4800Y-30950D03*
X47100Y-28000D03*
X5700Y-23700D03*
X12750Y-24000D03*
X2100Y-22150D03*
X2750Y-21550D03*
X4400Y-29050D03*
X43400Y-23100D03*
X42750Y-22600D03*
X27650Y-22400D03*
X28250Y-22900D03*
X42750Y-6050D03*
X43400Y-6550D03*
X27650Y-5900D03*
X28250Y-6400D03*
X32800Y-6600D03*
X33250Y-7300D03*
X38200Y-4400D03*
X9200Y-26400D03*
X3100Y-33500D03*
X6950Y-29200D03*
X7250Y-30200D03*
X9450Y-29200D03*
X6550Y-29750D03*
X9250Y-32000D03*
X8600Y-32550D03*
X46350Y-31950D03*
X27850Y-31900D03*
X24900Y-32800D03*
X24400Y-32250D03*
X28500Y-28000D03*
X27850Y-27600D03*
X32800Y-23250D03*
X37800Y-21650D03*
X38200Y-21000D03*
X33200Y-23850D03*
X12700Y-10750D03*
X11950Y-8000D03*
X13950Y-9250D03*
X23100Y-8650D03*
X18850Y-8650D03*
X14350Y-8650D03*
X22700Y-9200D03*
X18450Y-9200D03*
X11500Y-7450D03*
X8500Y-12650D03*
X7850Y-12250D03*
X14650Y-25100D03*
X11250Y-22250D03*
X4250Y-22250D03*
X7650Y-25100D03*
X11400Y-21200D03*
X12750Y-22200D03*
X4400Y-21250D03*
X5750Y-22200D03*
X53200Y-20450D03*
X52200Y-20900D03*
X51000Y-20550D03*
X51000Y-21800D03*
X43950Y-2550D03*
X43300Y-1950D03*
X43950Y-1550D03*
X53550Y-19450D03*
X55650Y-19450D03*
X53450Y-17050D03*
X55600Y-16950D03*
X50950Y-17000D03*
X50900Y-19400D03*
X13500Y-34500D03*
X13500Y-32050D03*
X8500Y-8250D03*
G54D10*
G36*
X56450Y-26795D02*
X56426Y-26914D01*
X56361Y-27011D01*
X56305Y-27048D01*
X56305Y-23861D01*
X56264Y-23429D01*
X56179Y-23224D01*
X56050Y-23111D01*
X56050Y-23112D01*
X56050Y-19370D01*
X56000Y-19249D01*
X56000Y-16870D01*
X55939Y-16723D01*
X55900Y-16684D01*
X55900Y-9320D01*
X55839Y-9173D01*
X55726Y-9061D01*
X55639Y-9024D01*
X55726Y-8989D01*
X55838Y-8876D01*
X55899Y-8729D01*
X55900Y-8570D01*
X55839Y-8423D01*
X55726Y-8311D01*
X55579Y-8250D01*
X55420Y-8249D01*
X55273Y-8310D01*
X55161Y-8423D01*
X55124Y-8510D01*
X55089Y-8423D01*
X54976Y-8311D01*
X54829Y-8250D01*
X54670Y-8249D01*
X54523Y-8310D01*
X54411Y-8423D01*
X54374Y-8510D01*
X54339Y-8423D01*
X54226Y-8311D01*
X54079Y-8250D01*
X53920Y-8249D01*
X53773Y-8310D01*
X53661Y-8423D01*
X53600Y-8570D01*
X53599Y-8729D01*
X53660Y-8876D01*
X53773Y-8988D01*
X53860Y-9025D01*
X53773Y-9060D01*
X53661Y-9173D01*
X53600Y-9320D01*
X53599Y-9479D01*
X53660Y-9626D01*
X53773Y-9738D01*
X53920Y-9799D01*
X54079Y-9800D01*
X54226Y-9739D01*
X54338Y-9626D01*
X54375Y-9539D01*
X54410Y-9626D01*
X54523Y-9738D01*
X54670Y-9799D01*
X54829Y-9800D01*
X54976Y-9739D01*
X55088Y-9626D01*
X55125Y-9539D01*
X55160Y-9626D01*
X55273Y-9738D01*
X55420Y-9799D01*
X55579Y-9800D01*
X55726Y-9739D01*
X55838Y-9626D01*
X55899Y-9479D01*
X55900Y-9320D01*
X55900Y-16684D01*
X55826Y-16611D01*
X55679Y-16550D01*
X55520Y-16549D01*
X55373Y-16610D01*
X55261Y-16723D01*
X55200Y-16870D01*
X55199Y-17029D01*
X55260Y-17176D01*
X55373Y-17288D01*
X55520Y-17349D01*
X55679Y-17350D01*
X55826Y-17289D01*
X55938Y-17176D01*
X55999Y-17029D01*
X56000Y-16870D01*
X56000Y-19249D01*
X55989Y-19223D01*
X55876Y-19111D01*
X55729Y-19050D01*
X55570Y-19049D01*
X55423Y-19110D01*
X55311Y-19223D01*
X55250Y-19370D01*
X55249Y-19529D01*
X55310Y-19676D01*
X55423Y-19788D01*
X55570Y-19849D01*
X55729Y-19850D01*
X55876Y-19789D01*
X55988Y-19676D01*
X56049Y-19529D01*
X56050Y-19370D01*
X56050Y-23112D01*
X55838Y-23323D01*
X55838Y-22899D01*
X55725Y-22770D01*
X55311Y-22644D01*
X54879Y-22685D01*
X54674Y-22770D01*
X54561Y-22899D01*
X55200Y-23537D01*
X55838Y-22899D01*
X55838Y-23323D01*
X55412Y-23750D01*
X56050Y-24388D01*
X56179Y-24275D01*
X56305Y-23861D01*
X56305Y-27048D01*
X56264Y-27076D01*
X56145Y-27100D01*
X55838Y-27100D01*
X55838Y-24600D01*
X55200Y-23962D01*
X54987Y-24174D01*
X54987Y-23750D01*
X54349Y-23111D01*
X54220Y-23224D01*
X54094Y-23638D01*
X54135Y-24070D01*
X54220Y-24275D01*
X54349Y-24388D01*
X54987Y-23750D01*
X54987Y-24174D01*
X54561Y-24600D01*
X54674Y-24729D01*
X55088Y-24855D01*
X55520Y-24814D01*
X55725Y-24729D01*
X55838Y-24600D01*
X55838Y-27100D01*
X55005Y-27100D01*
X55005Y-25761D01*
X54964Y-25329D01*
X54879Y-25124D01*
X54750Y-25011D01*
X54538Y-25223D01*
X54538Y-24799D01*
X54425Y-24670D01*
X54011Y-24544D01*
X53950Y-24550D01*
X53950Y-19370D01*
X53889Y-19223D01*
X53850Y-19184D01*
X53850Y-16970D01*
X53789Y-16823D01*
X53676Y-16711D01*
X53529Y-16650D01*
X53450Y-16649D01*
X53450Y-15570D01*
X53389Y-15423D01*
X53350Y-15384D01*
X53350Y-13720D01*
X53289Y-13573D01*
X53176Y-13461D01*
X53029Y-13400D01*
X52870Y-13399D01*
X52723Y-13460D01*
X52611Y-13573D01*
X52550Y-13720D01*
X52549Y-13879D01*
X52610Y-14026D01*
X52723Y-14138D01*
X52870Y-14199D01*
X53029Y-14200D01*
X53176Y-14139D01*
X53288Y-14026D01*
X53349Y-13879D01*
X53350Y-13720D01*
X53350Y-15384D01*
X53276Y-15311D01*
X53129Y-15250D01*
X52970Y-15249D01*
X52823Y-15310D01*
X52711Y-15423D01*
X52650Y-15570D01*
X52649Y-15729D01*
X52710Y-15876D01*
X52823Y-15988D01*
X52970Y-16049D01*
X53129Y-16050D01*
X53276Y-15989D01*
X53388Y-15876D01*
X53449Y-15729D01*
X53450Y-15570D01*
X53450Y-16649D01*
X53370Y-16649D01*
X53223Y-16710D01*
X53111Y-16823D01*
X53050Y-16970D01*
X53049Y-17129D01*
X53110Y-17276D01*
X53223Y-17388D01*
X53370Y-17449D01*
X53529Y-17450D01*
X53676Y-17389D01*
X53788Y-17276D01*
X53849Y-17129D01*
X53850Y-16970D01*
X53850Y-19184D01*
X53776Y-19111D01*
X53629Y-19050D01*
X53470Y-19049D01*
X53323Y-19110D01*
X53211Y-19223D01*
X53150Y-19370D01*
X53149Y-19529D01*
X53210Y-19676D01*
X53323Y-19788D01*
X53470Y-19849D01*
X53629Y-19850D01*
X53776Y-19789D01*
X53888Y-19676D01*
X53949Y-19529D01*
X53950Y-19370D01*
X53950Y-24550D01*
X53579Y-24585D01*
X53548Y-24598D01*
X53716Y-24430D01*
X53899Y-23989D01*
X53900Y-23512D01*
X53717Y-23071D01*
X53600Y-22953D01*
X53600Y-20370D01*
X53539Y-20223D01*
X53426Y-20111D01*
X53279Y-20050D01*
X53120Y-20049D01*
X52973Y-20110D01*
X52861Y-20223D01*
X52800Y-20370D01*
X52799Y-20529D01*
X52860Y-20676D01*
X52973Y-20788D01*
X53120Y-20849D01*
X53279Y-20850D01*
X53426Y-20789D01*
X53538Y-20676D01*
X53599Y-20529D01*
X53600Y-20370D01*
X53600Y-22953D01*
X53380Y-22733D01*
X52939Y-22550D01*
X52600Y-22549D01*
X52600Y-20820D01*
X52539Y-20673D01*
X52426Y-20561D01*
X52279Y-20500D01*
X52120Y-20499D01*
X51973Y-20560D01*
X51861Y-20673D01*
X51800Y-20820D01*
X51799Y-20979D01*
X51860Y-21126D01*
X51973Y-21238D01*
X52120Y-21299D01*
X52279Y-21300D01*
X52426Y-21239D01*
X52538Y-21126D01*
X52599Y-20979D01*
X52600Y-20820D01*
X52600Y-22549D01*
X52462Y-22549D01*
X52021Y-22732D01*
X51683Y-23069D01*
X51650Y-23149D01*
X51650Y-9470D01*
X51589Y-9323D01*
X51476Y-9211D01*
X51329Y-9150D01*
X51170Y-9149D01*
X51023Y-9210D01*
X50911Y-9323D01*
X50850Y-9470D01*
X50849Y-9629D01*
X50910Y-9776D01*
X51023Y-9888D01*
X51170Y-9949D01*
X51329Y-9950D01*
X51476Y-9889D01*
X51588Y-9776D01*
X51649Y-9629D01*
X51650Y-9470D01*
X51650Y-23149D01*
X51500Y-23510D01*
X51499Y-23987D01*
X51682Y-24428D01*
X52019Y-24766D01*
X52460Y-24949D01*
X52937Y-24950D01*
X53094Y-24885D01*
X53008Y-24970D01*
X53049Y-25011D01*
X52920Y-25124D01*
X52794Y-25538D01*
X52835Y-25970D01*
X52920Y-26175D01*
X53049Y-26288D01*
X53687Y-25650D01*
X53682Y-25644D01*
X53894Y-25432D01*
X53900Y-25437D01*
X54538Y-24799D01*
X54538Y-25223D01*
X54112Y-25650D01*
X54750Y-26288D01*
X54879Y-26175D01*
X55005Y-25761D01*
X55005Y-27100D01*
X54538Y-27100D01*
X54538Y-26500D01*
X53900Y-25862D01*
X53687Y-26074D01*
X53261Y-26500D01*
X53374Y-26629D01*
X53788Y-26755D01*
X54220Y-26714D01*
X54425Y-26629D01*
X54538Y-26500D01*
X54538Y-27100D01*
X51400Y-27100D01*
X51400Y-21720D01*
X51400Y-20470D01*
X51350Y-20349D01*
X51350Y-16920D01*
X51289Y-16773D01*
X51176Y-16661D01*
X51029Y-16600D01*
X50870Y-16599D01*
X50750Y-16649D01*
X50750Y-13720D01*
X50689Y-13573D01*
X50576Y-13461D01*
X50429Y-13400D01*
X50270Y-13399D01*
X50123Y-13460D01*
X50011Y-13573D01*
X49950Y-13720D01*
X49949Y-13879D01*
X50010Y-14026D01*
X50123Y-14138D01*
X50270Y-14199D01*
X50429Y-14200D01*
X50576Y-14139D01*
X50688Y-14026D01*
X50749Y-13879D01*
X50750Y-13720D01*
X50750Y-16649D01*
X50723Y-16660D01*
X50611Y-16773D01*
X50550Y-16920D01*
X50549Y-17079D01*
X50610Y-17226D01*
X50723Y-17338D01*
X50870Y-17399D01*
X51029Y-17400D01*
X51176Y-17339D01*
X51288Y-17226D01*
X51349Y-17079D01*
X51350Y-16920D01*
X51350Y-20349D01*
X51339Y-20323D01*
X51300Y-20284D01*
X51300Y-19320D01*
X51239Y-19173D01*
X51126Y-19061D01*
X50979Y-19000D01*
X50820Y-18999D01*
X50673Y-19060D01*
X50561Y-19173D01*
X50500Y-19320D01*
X50499Y-19479D01*
X50560Y-19626D01*
X50673Y-19738D01*
X50820Y-19799D01*
X50979Y-19800D01*
X51126Y-19739D01*
X51238Y-19626D01*
X51299Y-19479D01*
X51300Y-19320D01*
X51300Y-20284D01*
X51226Y-20211D01*
X51079Y-20150D01*
X50920Y-20149D01*
X50773Y-20210D01*
X50661Y-20323D01*
X50600Y-20470D01*
X50599Y-20629D01*
X50660Y-20776D01*
X50773Y-20888D01*
X50920Y-20949D01*
X51079Y-20950D01*
X51226Y-20889D01*
X51338Y-20776D01*
X51399Y-20629D01*
X51400Y-20470D01*
X51400Y-21720D01*
X51339Y-21573D01*
X51226Y-21461D01*
X51079Y-21400D01*
X50920Y-21399D01*
X50773Y-21460D01*
X50661Y-21573D01*
X50600Y-21720D01*
X50599Y-21879D01*
X50660Y-22026D01*
X50773Y-22138D01*
X50920Y-22199D01*
X51079Y-22200D01*
X51226Y-22139D01*
X51338Y-22026D01*
X51399Y-21879D01*
X51400Y-21720D01*
X51400Y-27100D01*
X50845Y-27100D01*
X50696Y-27129D01*
X50566Y-27216D01*
X50479Y-27346D01*
X50450Y-27495D01*
X50450Y-38495D01*
X50426Y-38614D01*
X50361Y-38711D01*
X50264Y-38776D01*
X50150Y-38799D01*
X50150Y-15570D01*
X50089Y-15423D01*
X49976Y-15311D01*
X49829Y-15250D01*
X49670Y-15249D01*
X49523Y-15310D01*
X49411Y-15423D01*
X49350Y-15570D01*
X49349Y-15729D01*
X49410Y-15876D01*
X49523Y-15988D01*
X49670Y-16049D01*
X49829Y-16050D01*
X49976Y-15989D01*
X50088Y-15876D01*
X50149Y-15729D01*
X50150Y-15570D01*
X50150Y-38799D01*
X50145Y-38800D01*
X50100Y-38800D01*
X50100Y-21870D01*
X50039Y-21723D01*
X49926Y-21611D01*
X49900Y-21599D01*
X49900Y-19070D01*
X49839Y-18923D01*
X49726Y-18811D01*
X49579Y-18750D01*
X49420Y-18749D01*
X49273Y-18810D01*
X49161Y-18923D01*
X49100Y-19070D01*
X49099Y-19229D01*
X49160Y-19376D01*
X49273Y-19488D01*
X49420Y-19549D01*
X49579Y-19550D01*
X49726Y-19489D01*
X49838Y-19376D01*
X49899Y-19229D01*
X49900Y-19070D01*
X49900Y-21599D01*
X49779Y-21550D01*
X49620Y-21549D01*
X49473Y-21610D01*
X49361Y-21723D01*
X49300Y-21870D01*
X49299Y-22029D01*
X49360Y-22176D01*
X49473Y-22288D01*
X49620Y-22349D01*
X49779Y-22350D01*
X49926Y-22289D01*
X50038Y-22176D01*
X50099Y-22029D01*
X50100Y-21870D01*
X50100Y-38800D01*
X49050Y-38800D01*
X49050Y-20170D01*
X49050Y-17920D01*
X49050Y-16370D01*
X48989Y-16223D01*
X48876Y-16111D01*
X48729Y-16050D01*
X48600Y-16049D01*
X48600Y-7270D01*
X48539Y-7123D01*
X48500Y-7084D01*
X48500Y-2770D01*
X48500Y-1520D01*
X48439Y-1373D01*
X48326Y-1261D01*
X48179Y-1200D01*
X48020Y-1199D01*
X47873Y-1260D01*
X47761Y-1373D01*
X47700Y-1520D01*
X47699Y-1679D01*
X47760Y-1826D01*
X47873Y-1938D01*
X48020Y-1999D01*
X48179Y-2000D01*
X48326Y-1939D01*
X48438Y-1826D01*
X48499Y-1679D01*
X48500Y-1520D01*
X48500Y-2770D01*
X48439Y-2623D01*
X48326Y-2511D01*
X48179Y-2450D01*
X48020Y-2449D01*
X47873Y-2510D01*
X47761Y-2623D01*
X47700Y-2770D01*
X47699Y-2929D01*
X47760Y-3076D01*
X47873Y-3188D01*
X48020Y-3249D01*
X48179Y-3250D01*
X48326Y-3189D01*
X48438Y-3076D01*
X48499Y-2929D01*
X48500Y-2770D01*
X48500Y-7084D01*
X48426Y-7011D01*
X48279Y-6950D01*
X48120Y-6949D01*
X48050Y-6979D01*
X48050Y-6520D01*
X47989Y-6373D01*
X47876Y-6261D01*
X47729Y-6200D01*
X47570Y-6199D01*
X47423Y-6260D01*
X47400Y-6284D01*
X47400Y-1870D01*
X47339Y-1723D01*
X47226Y-1611D01*
X47079Y-1550D01*
X46920Y-1549D01*
X46773Y-1610D01*
X46661Y-1723D01*
X46600Y-1870D01*
X46599Y-2029D01*
X46660Y-2176D01*
X46773Y-2288D01*
X46920Y-2349D01*
X47079Y-2350D01*
X47226Y-2289D01*
X47338Y-2176D01*
X47399Y-2029D01*
X47400Y-1870D01*
X47400Y-6284D01*
X47311Y-6373D01*
X47250Y-6520D01*
X47249Y-6679D01*
X47310Y-6826D01*
X47423Y-6938D01*
X47570Y-6999D01*
X47729Y-7000D01*
X47876Y-6939D01*
X47988Y-6826D01*
X48049Y-6679D01*
X48050Y-6520D01*
X48050Y-6979D01*
X47973Y-7010D01*
X47861Y-7123D01*
X47800Y-7270D01*
X47799Y-7429D01*
X47860Y-7576D01*
X47973Y-7688D01*
X48120Y-7749D01*
X48279Y-7750D01*
X48426Y-7689D01*
X48538Y-7576D01*
X48599Y-7429D01*
X48600Y-7270D01*
X48600Y-16049D01*
X48570Y-16049D01*
X48423Y-16110D01*
X48311Y-16223D01*
X48250Y-16370D01*
X48249Y-16529D01*
X48310Y-16676D01*
X48423Y-16788D01*
X48570Y-16849D01*
X48729Y-16850D01*
X48876Y-16789D01*
X48988Y-16676D01*
X49049Y-16529D01*
X49050Y-16370D01*
X49050Y-17920D01*
X48989Y-17773D01*
X48876Y-17661D01*
X48729Y-17600D01*
X48570Y-17599D01*
X48423Y-17660D01*
X48311Y-17773D01*
X48250Y-17920D01*
X48249Y-18079D01*
X48310Y-18226D01*
X48423Y-18338D01*
X48570Y-18399D01*
X48729Y-18400D01*
X48876Y-18339D01*
X48988Y-18226D01*
X49049Y-18079D01*
X49050Y-17920D01*
X49050Y-20170D01*
X48989Y-20023D01*
X48876Y-19911D01*
X48729Y-19850D01*
X48570Y-19849D01*
X48423Y-19910D01*
X48311Y-20023D01*
X48250Y-20170D01*
X48249Y-20329D01*
X48310Y-20476D01*
X48423Y-20588D01*
X48570Y-20649D01*
X48729Y-20650D01*
X48876Y-20589D01*
X48988Y-20476D01*
X49049Y-20329D01*
X49050Y-20170D01*
X49050Y-38800D01*
X48150Y-38800D01*
X48150Y-19070D01*
X48089Y-18923D01*
X47976Y-18811D01*
X47829Y-18750D01*
X47750Y-18749D01*
X47750Y-13720D01*
X47689Y-13573D01*
X47600Y-13484D01*
X47600Y-12170D01*
X47539Y-12023D01*
X47426Y-11911D01*
X47400Y-11899D01*
X47400Y-10970D01*
X47400Y-7220D01*
X47339Y-7073D01*
X47226Y-6961D01*
X47079Y-6900D01*
X46920Y-6899D01*
X46900Y-6908D01*
X46900Y-6520D01*
X46839Y-6373D01*
X46726Y-6261D01*
X46579Y-6200D01*
X46420Y-6199D01*
X46273Y-6260D01*
X46200Y-6334D01*
X46200Y-2420D01*
X46200Y-1520D01*
X46139Y-1373D01*
X46026Y-1261D01*
X45879Y-1200D01*
X45720Y-1199D01*
X45573Y-1260D01*
X45461Y-1373D01*
X45400Y-1520D01*
X45399Y-1679D01*
X45460Y-1826D01*
X45573Y-1938D01*
X45720Y-1999D01*
X45879Y-2000D01*
X46026Y-1939D01*
X46138Y-1826D01*
X46199Y-1679D01*
X46200Y-1520D01*
X46200Y-2420D01*
X46139Y-2273D01*
X46026Y-2161D01*
X45879Y-2100D01*
X45720Y-2099D01*
X45573Y-2160D01*
X45461Y-2273D01*
X45400Y-2420D01*
X45399Y-2579D01*
X45460Y-2726D01*
X45573Y-2838D01*
X45720Y-2899D01*
X45879Y-2900D01*
X46026Y-2839D01*
X46138Y-2726D01*
X46199Y-2579D01*
X46200Y-2420D01*
X46200Y-6334D01*
X46161Y-6373D01*
X46100Y-6520D01*
X46099Y-6679D01*
X46160Y-6826D01*
X46273Y-6938D01*
X46420Y-6999D01*
X46579Y-7000D01*
X46726Y-6939D01*
X46838Y-6826D01*
X46899Y-6679D01*
X46900Y-6520D01*
X46900Y-6908D01*
X46773Y-6960D01*
X46661Y-7073D01*
X46600Y-7220D01*
X46599Y-7379D01*
X46660Y-7526D01*
X46773Y-7638D01*
X46920Y-7699D01*
X47079Y-7700D01*
X47226Y-7639D01*
X47338Y-7526D01*
X47399Y-7379D01*
X47400Y-7220D01*
X47400Y-10970D01*
X47339Y-10823D01*
X47226Y-10711D01*
X47079Y-10650D01*
X46920Y-10649D01*
X46773Y-10710D01*
X46661Y-10823D01*
X46624Y-10910D01*
X46589Y-10823D01*
X46476Y-10711D01*
X46329Y-10650D01*
X46170Y-10649D01*
X46023Y-10710D01*
X45911Y-10823D01*
X45850Y-10970D01*
X45850Y-10470D01*
X45789Y-10323D01*
X45676Y-10211D01*
X45529Y-10150D01*
X45370Y-10149D01*
X45223Y-10210D01*
X45111Y-10323D01*
X45050Y-10470D01*
X45049Y-10629D01*
X45110Y-10776D01*
X45223Y-10888D01*
X45370Y-10949D01*
X45529Y-10950D01*
X45676Y-10889D01*
X45788Y-10776D01*
X45849Y-10629D01*
X45850Y-10470D01*
X45850Y-10970D01*
X45849Y-11129D01*
X45910Y-11276D01*
X46023Y-11388D01*
X46170Y-11449D01*
X46329Y-11450D01*
X46476Y-11389D01*
X46588Y-11276D01*
X46625Y-11189D01*
X46660Y-11276D01*
X46773Y-11388D01*
X46920Y-11449D01*
X47079Y-11450D01*
X47226Y-11389D01*
X47338Y-11276D01*
X47399Y-11129D01*
X47400Y-10970D01*
X47400Y-11899D01*
X47279Y-11850D01*
X47120Y-11849D01*
X46973Y-11910D01*
X46861Y-12023D01*
X46800Y-12170D01*
X46799Y-12329D01*
X46860Y-12476D01*
X46973Y-12588D01*
X47120Y-12649D01*
X47279Y-12650D01*
X47426Y-12589D01*
X47538Y-12476D01*
X47599Y-12329D01*
X47600Y-12170D01*
X47600Y-13484D01*
X47576Y-13461D01*
X47429Y-13400D01*
X47270Y-13399D01*
X47123Y-13460D01*
X47011Y-13573D01*
X46950Y-13720D01*
X46949Y-13879D01*
X47010Y-14026D01*
X47123Y-14138D01*
X47270Y-14199D01*
X47429Y-14200D01*
X47576Y-14139D01*
X47688Y-14026D01*
X47749Y-13879D01*
X47750Y-13720D01*
X47750Y-18749D01*
X47670Y-18749D01*
X47650Y-18758D01*
X47650Y-15570D01*
X47589Y-15423D01*
X47476Y-15311D01*
X47329Y-15250D01*
X47170Y-15249D01*
X47023Y-15310D01*
X46911Y-15423D01*
X46850Y-15570D01*
X46849Y-15729D01*
X46910Y-15876D01*
X47023Y-15988D01*
X47170Y-16049D01*
X47329Y-16050D01*
X47476Y-15989D01*
X47588Y-15876D01*
X47649Y-15729D01*
X47650Y-15570D01*
X47650Y-18758D01*
X47523Y-18810D01*
X47411Y-18923D01*
X47350Y-19070D01*
X47349Y-19229D01*
X47410Y-19376D01*
X47523Y-19488D01*
X47670Y-19549D01*
X47829Y-19550D01*
X47976Y-19489D01*
X48088Y-19376D01*
X48149Y-19229D01*
X48150Y-19070D01*
X48150Y-38800D01*
X48100Y-38800D01*
X48100Y-21820D01*
X48039Y-21673D01*
X47926Y-21561D01*
X47779Y-21500D01*
X47620Y-21499D01*
X47473Y-21560D01*
X47361Y-21673D01*
X47300Y-21820D01*
X47299Y-21979D01*
X47360Y-22126D01*
X47473Y-22238D01*
X47620Y-22299D01*
X47779Y-22300D01*
X47926Y-22239D01*
X48038Y-22126D01*
X48099Y-21979D01*
X48100Y-21820D01*
X48100Y-38800D01*
X46050Y-38800D01*
X46050Y-30920D01*
X45989Y-30773D01*
X45900Y-30684D01*
X45900Y-13870D01*
X45850Y-13749D01*
X45850Y-12170D01*
X45789Y-12023D01*
X45676Y-11911D01*
X45529Y-11850D01*
X45370Y-11849D01*
X45223Y-11910D01*
X45111Y-12023D01*
X45050Y-12170D01*
X45049Y-12329D01*
X45110Y-12476D01*
X45223Y-12588D01*
X45370Y-12649D01*
X45529Y-12650D01*
X45676Y-12589D01*
X45788Y-12476D01*
X45849Y-12329D01*
X45850Y-12170D01*
X45850Y-13749D01*
X45839Y-13723D01*
X45726Y-13611D01*
X45579Y-13550D01*
X45420Y-13549D01*
X45273Y-13610D01*
X45161Y-13723D01*
X45100Y-13870D01*
X45099Y-14029D01*
X45160Y-14176D01*
X45273Y-14288D01*
X45420Y-14349D01*
X45579Y-14350D01*
X45726Y-14289D01*
X45838Y-14176D01*
X45899Y-14029D01*
X45900Y-13870D01*
X45900Y-30684D01*
X45876Y-30661D01*
X45729Y-30600D01*
X45570Y-30599D01*
X45423Y-30660D01*
X45311Y-30773D01*
X45300Y-30799D01*
X45300Y-30420D01*
X45239Y-30273D01*
X45126Y-30161D01*
X44979Y-30100D01*
X44820Y-30099D01*
X44673Y-30160D01*
X44561Y-30273D01*
X44500Y-30420D01*
X44499Y-30579D01*
X44560Y-30726D01*
X44673Y-30838D01*
X44820Y-30899D01*
X44979Y-30900D01*
X45126Y-30839D01*
X45238Y-30726D01*
X45299Y-30579D01*
X45300Y-30420D01*
X45300Y-30799D01*
X45250Y-30920D01*
X45249Y-31079D01*
X45310Y-31226D01*
X45423Y-31338D01*
X45570Y-31399D01*
X45729Y-31400D01*
X45876Y-31339D01*
X45988Y-31226D01*
X46049Y-31079D01*
X46050Y-30920D01*
X46050Y-38800D01*
X45100Y-38800D01*
X45100Y-32170D01*
X45039Y-32023D01*
X44926Y-31911D01*
X44779Y-31850D01*
X44620Y-31849D01*
X44473Y-31910D01*
X44361Y-32023D01*
X44350Y-32049D01*
X44350Y-2470D01*
X44350Y-1470D01*
X44289Y-1323D01*
X44176Y-1211D01*
X44029Y-1150D01*
X43870Y-1149D01*
X43723Y-1210D01*
X43611Y-1323D01*
X43550Y-1470D01*
X43549Y-1629D01*
X43553Y-1637D01*
X43526Y-1611D01*
X43379Y-1550D01*
X43220Y-1549D01*
X43073Y-1610D01*
X42961Y-1723D01*
X42900Y-1870D01*
X42899Y-2029D01*
X42960Y-2176D01*
X43073Y-2288D01*
X43220Y-2349D01*
X43379Y-2350D01*
X43526Y-2289D01*
X43638Y-2176D01*
X43699Y-2029D01*
X43700Y-1870D01*
X43696Y-1862D01*
X43723Y-1888D01*
X43870Y-1949D01*
X44029Y-1950D01*
X44176Y-1889D01*
X44288Y-1776D01*
X44349Y-1629D01*
X44350Y-1470D01*
X44350Y-2470D01*
X44289Y-2323D01*
X44176Y-2211D01*
X44029Y-2150D01*
X43870Y-2149D01*
X43723Y-2210D01*
X43611Y-2323D01*
X43550Y-2470D01*
X43549Y-2629D01*
X43610Y-2776D01*
X43723Y-2888D01*
X43870Y-2949D01*
X44029Y-2950D01*
X44176Y-2889D01*
X44288Y-2776D01*
X44349Y-2629D01*
X44350Y-2470D01*
X44350Y-32049D01*
X44300Y-32170D01*
X44299Y-32329D01*
X44360Y-32476D01*
X44473Y-32588D01*
X44620Y-32649D01*
X44779Y-32650D01*
X44926Y-32589D01*
X45038Y-32476D01*
X45099Y-32329D01*
X45100Y-32170D01*
X45100Y-38800D01*
X44550Y-38800D01*
X44550Y-32820D01*
X44489Y-32673D01*
X44376Y-32561D01*
X44229Y-32500D01*
X44070Y-32499D01*
X43923Y-32560D01*
X43811Y-32673D01*
X43800Y-32699D01*
X43800Y-23820D01*
X43800Y-7270D01*
X43739Y-7123D01*
X43626Y-7011D01*
X43479Y-6950D01*
X43320Y-6949D01*
X43173Y-7010D01*
X43061Y-7123D01*
X43000Y-7270D01*
X42999Y-7429D01*
X43060Y-7576D01*
X43173Y-7688D01*
X43320Y-7749D01*
X43479Y-7750D01*
X43626Y-7689D01*
X43738Y-7576D01*
X43799Y-7429D01*
X43800Y-7270D01*
X43800Y-23820D01*
X43739Y-23673D01*
X43626Y-23561D01*
X43479Y-23500D01*
X43320Y-23499D01*
X43173Y-23560D01*
X43150Y-23584D01*
X43150Y-7770D01*
X43089Y-7623D01*
X42976Y-7511D01*
X42829Y-7450D01*
X42670Y-7449D01*
X42650Y-7458D01*
X42650Y-5020D01*
X42589Y-4873D01*
X42500Y-4784D01*
X42500Y-2700D01*
X42500Y-1700D01*
X42424Y-1517D01*
X42283Y-1376D01*
X42099Y-1300D01*
X41900Y-1299D01*
X41717Y-1375D01*
X41576Y-1516D01*
X41500Y-1700D01*
X41500Y-1701D01*
X41500Y-1700D01*
X41424Y-1517D01*
X41283Y-1376D01*
X41099Y-1300D01*
X40900Y-1299D01*
X40717Y-1375D01*
X40576Y-1516D01*
X40500Y-1700D01*
X40500Y-1701D01*
X40500Y-1700D01*
X40424Y-1517D01*
X40283Y-1376D01*
X40099Y-1300D01*
X39900Y-1299D01*
X39717Y-1375D01*
X39576Y-1516D01*
X39500Y-1700D01*
X39499Y-1899D01*
X39575Y-2082D01*
X39716Y-2223D01*
X39900Y-2299D01*
X40099Y-2300D01*
X40282Y-2224D01*
X40423Y-2083D01*
X40499Y-1899D01*
X40500Y-1700D01*
X40500Y-1701D01*
X40499Y-1899D01*
X40575Y-2082D01*
X40716Y-2223D01*
X40900Y-2299D01*
X41099Y-2300D01*
X41282Y-2224D01*
X41423Y-2083D01*
X41499Y-1899D01*
X41500Y-1700D01*
X41500Y-1701D01*
X41499Y-1899D01*
X41575Y-2082D01*
X41716Y-2223D01*
X41900Y-2299D01*
X42099Y-2300D01*
X42282Y-2224D01*
X42423Y-2083D01*
X42499Y-1899D01*
X42500Y-1700D01*
X42500Y-2700D01*
X42424Y-2517D01*
X42283Y-2376D01*
X42099Y-2300D01*
X41900Y-2299D01*
X41717Y-2375D01*
X41576Y-2516D01*
X41500Y-2700D01*
X41500Y-2701D01*
X41500Y-2700D01*
X41424Y-2517D01*
X41283Y-2376D01*
X41099Y-2300D01*
X40900Y-2299D01*
X40717Y-2375D01*
X40576Y-2516D01*
X40500Y-2700D01*
X40500Y-2701D01*
X40500Y-2700D01*
X40424Y-2517D01*
X40283Y-2376D01*
X40099Y-2300D01*
X39900Y-2299D01*
X39717Y-2375D01*
X39576Y-2516D01*
X39500Y-2700D01*
X39499Y-2899D01*
X39575Y-3082D01*
X39716Y-3223D01*
X39900Y-3299D01*
X40099Y-3300D01*
X40282Y-3224D01*
X40423Y-3083D01*
X40499Y-2899D01*
X40500Y-2700D01*
X40500Y-2701D01*
X40499Y-2899D01*
X40575Y-3082D01*
X40716Y-3223D01*
X40900Y-3299D01*
X41099Y-3300D01*
X41282Y-3224D01*
X41423Y-3083D01*
X41499Y-2899D01*
X41500Y-2700D01*
X41500Y-2701D01*
X41499Y-2899D01*
X41575Y-3082D01*
X41716Y-3223D01*
X41900Y-3299D01*
X42099Y-3300D01*
X42282Y-3224D01*
X42423Y-3083D01*
X42499Y-2899D01*
X42500Y-2700D01*
X42500Y-4784D01*
X42476Y-4761D01*
X42329Y-4700D01*
X42170Y-4699D01*
X42023Y-4760D01*
X41911Y-4873D01*
X41850Y-5020D01*
X41849Y-5179D01*
X41910Y-5326D01*
X42023Y-5438D01*
X42170Y-5499D01*
X42329Y-5500D01*
X42476Y-5439D01*
X42588Y-5326D01*
X42649Y-5179D01*
X42650Y-5020D01*
X42650Y-7458D01*
X42523Y-7510D01*
X42411Y-7623D01*
X42350Y-7770D01*
X42349Y-7929D01*
X42410Y-8076D01*
X42523Y-8188D01*
X42670Y-8249D01*
X42829Y-8250D01*
X42976Y-8189D01*
X43088Y-8076D01*
X43149Y-7929D01*
X43150Y-7770D01*
X43150Y-23584D01*
X43061Y-23673D01*
X43000Y-23820D01*
X42999Y-23979D01*
X43060Y-24126D01*
X43173Y-24238D01*
X43320Y-24299D01*
X43479Y-24300D01*
X43626Y-24239D01*
X43738Y-24126D01*
X43799Y-23979D01*
X43800Y-23820D01*
X43800Y-32699D01*
X43750Y-32820D01*
X43749Y-32979D01*
X43810Y-33126D01*
X43923Y-33238D01*
X44070Y-33299D01*
X44229Y-33300D01*
X44376Y-33239D01*
X44488Y-33126D01*
X44549Y-32979D01*
X44550Y-32820D01*
X44550Y-38800D01*
X43150Y-38800D01*
X43150Y-24320D01*
X43089Y-24173D01*
X42976Y-24061D01*
X42829Y-24000D01*
X42670Y-23999D01*
X42600Y-24029D01*
X42600Y-21570D01*
X42539Y-21423D01*
X42426Y-21311D01*
X42279Y-21250D01*
X42120Y-21249D01*
X41973Y-21310D01*
X41861Y-21423D01*
X41800Y-21570D01*
X41799Y-21729D01*
X41860Y-21876D01*
X41973Y-21988D01*
X42120Y-22049D01*
X42279Y-22050D01*
X42426Y-21989D01*
X42538Y-21876D01*
X42599Y-21729D01*
X42600Y-21570D01*
X42600Y-24029D01*
X42523Y-24060D01*
X42411Y-24173D01*
X42350Y-24320D01*
X42349Y-24479D01*
X42410Y-24626D01*
X42523Y-24738D01*
X42670Y-24799D01*
X42829Y-24800D01*
X42976Y-24739D01*
X43088Y-24626D01*
X43149Y-24479D01*
X43150Y-24320D01*
X43150Y-38800D01*
X42500Y-38800D01*
X42500Y-37450D01*
X42500Y-36450D01*
X42424Y-36267D01*
X42283Y-36126D01*
X42099Y-36050D01*
X41900Y-36049D01*
X41850Y-36070D01*
X41850Y-35520D01*
X41789Y-35373D01*
X41676Y-35261D01*
X41600Y-35229D01*
X41600Y-22270D01*
X41600Y-5720D01*
X41539Y-5573D01*
X41426Y-5461D01*
X41279Y-5400D01*
X41120Y-5399D01*
X40973Y-5460D01*
X40861Y-5573D01*
X40800Y-5720D01*
X40799Y-5879D01*
X40860Y-6026D01*
X40973Y-6138D01*
X41120Y-6199D01*
X41279Y-6200D01*
X41426Y-6139D01*
X41538Y-6026D01*
X41599Y-5879D01*
X41600Y-5720D01*
X41600Y-22270D01*
X41539Y-22123D01*
X41426Y-22011D01*
X41279Y-21950D01*
X41120Y-21949D01*
X41100Y-21958D01*
X41100Y-6520D01*
X41039Y-6373D01*
X40926Y-6261D01*
X40779Y-6200D01*
X40620Y-6199D01*
X40473Y-6260D01*
X40361Y-6373D01*
X40300Y-6520D01*
X40299Y-6679D01*
X40360Y-6826D01*
X40473Y-6938D01*
X40620Y-6999D01*
X40779Y-7000D01*
X40926Y-6939D01*
X41038Y-6826D01*
X41099Y-6679D01*
X41100Y-6520D01*
X41100Y-21958D01*
X40973Y-22010D01*
X40861Y-22123D01*
X40800Y-22270D01*
X40799Y-22429D01*
X40860Y-22576D01*
X40973Y-22688D01*
X41120Y-22749D01*
X41279Y-22750D01*
X41426Y-22689D01*
X41538Y-22576D01*
X41599Y-22429D01*
X41600Y-22270D01*
X41600Y-35229D01*
X41529Y-35200D01*
X41370Y-35199D01*
X41223Y-35260D01*
X41111Y-35373D01*
X41100Y-35399D01*
X41100Y-23070D01*
X41039Y-22923D01*
X40926Y-22811D01*
X40779Y-22750D01*
X40620Y-22749D01*
X40473Y-22810D01*
X40361Y-22923D01*
X40300Y-23070D01*
X40299Y-23229D01*
X40360Y-23376D01*
X40473Y-23488D01*
X40620Y-23549D01*
X40779Y-23550D01*
X40926Y-23489D01*
X41038Y-23376D01*
X41099Y-23229D01*
X41100Y-23070D01*
X41100Y-35399D01*
X41050Y-35520D01*
X41049Y-35679D01*
X41110Y-35826D01*
X41223Y-35938D01*
X41370Y-35999D01*
X41529Y-36000D01*
X41676Y-35939D01*
X41788Y-35826D01*
X41849Y-35679D01*
X41850Y-35520D01*
X41850Y-36070D01*
X41717Y-36125D01*
X41576Y-36266D01*
X41500Y-36450D01*
X41500Y-36451D01*
X41500Y-36450D01*
X41424Y-36267D01*
X41283Y-36126D01*
X41099Y-36050D01*
X40900Y-36049D01*
X40717Y-36125D01*
X40576Y-36266D01*
X40500Y-36450D01*
X40500Y-36451D01*
X40500Y-36450D01*
X40424Y-36267D01*
X40283Y-36126D01*
X40099Y-36050D01*
X39900Y-36049D01*
X39717Y-36125D01*
X39576Y-36266D01*
X39500Y-36450D01*
X39500Y-36451D01*
X39500Y-36450D01*
X39477Y-36396D01*
X39477Y-2837D01*
X39477Y-1837D01*
X39455Y-1651D01*
X39426Y-1582D01*
X39357Y-1548D01*
X39251Y-1654D01*
X39251Y-1442D01*
X39217Y-1373D01*
X39037Y-1322D01*
X38851Y-1344D01*
X38782Y-1373D01*
X38748Y-1442D01*
X39000Y-1693D01*
X39251Y-1442D01*
X39251Y-1654D01*
X39106Y-1800D01*
X39357Y-2051D01*
X39426Y-2017D01*
X39477Y-1837D01*
X39477Y-2837D01*
X39455Y-2651D01*
X39426Y-2582D01*
X39357Y-2548D01*
X39251Y-2654D01*
X39251Y-2442D01*
X39251Y-2157D01*
X39000Y-1906D01*
X38893Y-2012D01*
X38893Y-1800D01*
X38642Y-1548D01*
X38573Y-1582D01*
X38522Y-1762D01*
X38544Y-1948D01*
X38573Y-2017D01*
X38642Y-2051D01*
X38893Y-1800D01*
X38893Y-2012D01*
X38748Y-2157D01*
X38782Y-2226D01*
X38962Y-2277D01*
X39148Y-2255D01*
X39217Y-2226D01*
X39251Y-2157D01*
X39251Y-2442D01*
X39217Y-2373D01*
X39037Y-2322D01*
X38851Y-2344D01*
X38782Y-2373D01*
X38748Y-2442D01*
X39000Y-2693D01*
X39251Y-2442D01*
X39251Y-2654D01*
X39106Y-2800D01*
X39357Y-3051D01*
X39426Y-3017D01*
X39477Y-2837D01*
X39477Y-36396D01*
X39424Y-36267D01*
X39283Y-36126D01*
X39251Y-36112D01*
X39251Y-3157D01*
X39000Y-2906D01*
X38893Y-3012D01*
X38893Y-2800D01*
X38642Y-2548D01*
X38573Y-2582D01*
X38522Y-2762D01*
X38544Y-2948D01*
X38573Y-3017D01*
X38642Y-3051D01*
X38893Y-2800D01*
X38893Y-3012D01*
X38748Y-3157D01*
X38782Y-3226D01*
X38962Y-3277D01*
X39148Y-3255D01*
X39217Y-3226D01*
X39251Y-3157D01*
X39251Y-36112D01*
X39099Y-36050D01*
X38900Y-36049D01*
X38717Y-36125D01*
X38576Y-36266D01*
X38500Y-36450D01*
X38500Y-36451D01*
X38500Y-36450D01*
X38477Y-36396D01*
X38477Y-2837D01*
X38477Y-1837D01*
X38455Y-1651D01*
X38426Y-1582D01*
X38357Y-1548D01*
X38251Y-1654D01*
X38251Y-1442D01*
X38217Y-1373D01*
X38037Y-1322D01*
X37851Y-1344D01*
X37782Y-1373D01*
X37748Y-1442D01*
X38000Y-1693D01*
X38251Y-1442D01*
X38251Y-1654D01*
X38106Y-1800D01*
X38357Y-2051D01*
X38426Y-2017D01*
X38477Y-1837D01*
X38477Y-2837D01*
X38455Y-2651D01*
X38426Y-2582D01*
X38357Y-2548D01*
X38251Y-2654D01*
X38251Y-2442D01*
X38251Y-2157D01*
X38000Y-1906D01*
X37893Y-2012D01*
X37893Y-1800D01*
X37642Y-1548D01*
X37573Y-1582D01*
X37522Y-1762D01*
X37544Y-1948D01*
X37573Y-2017D01*
X37642Y-2051D01*
X37893Y-1800D01*
X37893Y-2012D01*
X37748Y-2157D01*
X37782Y-2226D01*
X37962Y-2277D01*
X38148Y-2255D01*
X38217Y-2226D01*
X38251Y-2157D01*
X38251Y-2442D01*
X38217Y-2373D01*
X38037Y-2322D01*
X37851Y-2344D01*
X37782Y-2373D01*
X37748Y-2442D01*
X38000Y-2693D01*
X38251Y-2442D01*
X38251Y-2654D01*
X38106Y-2800D01*
X38357Y-3051D01*
X38426Y-3017D01*
X38477Y-2837D01*
X38477Y-36396D01*
X38424Y-36267D01*
X38283Y-36126D01*
X38251Y-36112D01*
X38251Y-3157D01*
X38000Y-2906D01*
X37893Y-3012D01*
X37893Y-2800D01*
X37642Y-2548D01*
X37573Y-2582D01*
X37522Y-2762D01*
X37544Y-2948D01*
X37573Y-3017D01*
X37642Y-3051D01*
X37893Y-2800D01*
X37893Y-3012D01*
X37748Y-3157D01*
X37782Y-3226D01*
X37962Y-3277D01*
X38148Y-3255D01*
X38217Y-3226D01*
X38251Y-3157D01*
X38251Y-36112D01*
X38099Y-36050D01*
X37900Y-36049D01*
X37717Y-36125D01*
X37576Y-36266D01*
X37500Y-36450D01*
X37500Y-36451D01*
X37500Y-36450D01*
X37477Y-36396D01*
X37477Y-2837D01*
X37477Y-1837D01*
X37455Y-1651D01*
X37426Y-1582D01*
X37357Y-1548D01*
X37251Y-1654D01*
X37251Y-1442D01*
X37217Y-1373D01*
X37037Y-1322D01*
X36851Y-1344D01*
X36782Y-1373D01*
X36748Y-1442D01*
X37000Y-1693D01*
X37251Y-1442D01*
X37251Y-1654D01*
X37106Y-1800D01*
X37357Y-2051D01*
X37426Y-2017D01*
X37477Y-1837D01*
X37477Y-2837D01*
X37455Y-2651D01*
X37426Y-2582D01*
X37357Y-2548D01*
X37251Y-2654D01*
X37251Y-2442D01*
X37251Y-2157D01*
X37000Y-1906D01*
X36893Y-2012D01*
X36893Y-1800D01*
X36642Y-1548D01*
X36573Y-1582D01*
X36522Y-1762D01*
X36544Y-1948D01*
X36573Y-2017D01*
X36642Y-2051D01*
X36893Y-1800D01*
X36893Y-2012D01*
X36748Y-2157D01*
X36782Y-2226D01*
X36962Y-2277D01*
X37148Y-2255D01*
X37217Y-2226D01*
X37251Y-2157D01*
X37251Y-2442D01*
X37217Y-2373D01*
X37037Y-2322D01*
X36851Y-2344D01*
X36782Y-2373D01*
X36748Y-2442D01*
X37000Y-2693D01*
X37251Y-2442D01*
X37251Y-2654D01*
X37106Y-2800D01*
X37357Y-3051D01*
X37426Y-3017D01*
X37477Y-2837D01*
X37477Y-36396D01*
X37424Y-36267D01*
X37300Y-36142D01*
X37300Y-7070D01*
X37251Y-6952D01*
X37251Y-3157D01*
X37000Y-2906D01*
X36893Y-3012D01*
X36893Y-2800D01*
X36642Y-2548D01*
X36573Y-2582D01*
X36522Y-2762D01*
X36544Y-2948D01*
X36573Y-3017D01*
X36642Y-3051D01*
X36893Y-2800D01*
X36893Y-3012D01*
X36748Y-3157D01*
X36782Y-3226D01*
X36962Y-3277D01*
X37148Y-3255D01*
X37217Y-3226D01*
X37251Y-3157D01*
X37251Y-6952D01*
X37239Y-6923D01*
X37126Y-6811D01*
X36979Y-6750D01*
X36820Y-6749D01*
X36673Y-6810D01*
X36561Y-6923D01*
X36500Y-7070D01*
X36500Y-2700D01*
X36500Y-1700D01*
X36424Y-1517D01*
X36283Y-1376D01*
X36099Y-1300D01*
X35900Y-1299D01*
X35717Y-1375D01*
X35576Y-1516D01*
X35500Y-1700D01*
X35500Y-1701D01*
X35500Y-1700D01*
X35424Y-1517D01*
X35283Y-1376D01*
X35099Y-1300D01*
X34900Y-1299D01*
X34717Y-1375D01*
X34576Y-1516D01*
X34500Y-1700D01*
X34500Y-1701D01*
X34500Y-1700D01*
X34424Y-1517D01*
X34283Y-1376D01*
X34099Y-1300D01*
X33900Y-1299D01*
X33717Y-1375D01*
X33576Y-1516D01*
X33500Y-1700D01*
X33499Y-1899D01*
X33575Y-2082D01*
X33716Y-2223D01*
X33900Y-2299D01*
X34099Y-2300D01*
X34282Y-2224D01*
X34423Y-2083D01*
X34499Y-1899D01*
X34500Y-1700D01*
X34500Y-1701D01*
X34499Y-1899D01*
X34575Y-2082D01*
X34716Y-2223D01*
X34900Y-2299D01*
X35099Y-2300D01*
X35282Y-2224D01*
X35423Y-2083D01*
X35499Y-1899D01*
X35500Y-1700D01*
X35500Y-1701D01*
X35499Y-1899D01*
X35575Y-2082D01*
X35716Y-2223D01*
X35900Y-2299D01*
X36099Y-2300D01*
X36282Y-2224D01*
X36423Y-2083D01*
X36499Y-1899D01*
X36500Y-1700D01*
X36500Y-2700D01*
X36424Y-2517D01*
X36283Y-2376D01*
X36099Y-2300D01*
X35900Y-2299D01*
X35717Y-2375D01*
X35576Y-2516D01*
X35500Y-2700D01*
X35500Y-2701D01*
X35500Y-2700D01*
X35424Y-2517D01*
X35283Y-2376D01*
X35099Y-2300D01*
X34900Y-2299D01*
X34717Y-2375D01*
X34576Y-2516D01*
X34500Y-2700D01*
X34500Y-2701D01*
X34500Y-2700D01*
X34424Y-2517D01*
X34283Y-2376D01*
X34099Y-2300D01*
X33900Y-2299D01*
X33717Y-2375D01*
X33576Y-2516D01*
X33500Y-2700D01*
X33499Y-2899D01*
X33575Y-3082D01*
X33716Y-3223D01*
X33900Y-3299D01*
X34099Y-3300D01*
X34282Y-3224D01*
X34423Y-3083D01*
X34499Y-2899D01*
X34500Y-2700D01*
X34500Y-2701D01*
X34499Y-2899D01*
X34575Y-3082D01*
X34716Y-3223D01*
X34900Y-3299D01*
X35099Y-3300D01*
X35282Y-3224D01*
X35423Y-3083D01*
X35499Y-2899D01*
X35500Y-2700D01*
X35500Y-2701D01*
X35499Y-2899D01*
X35575Y-3082D01*
X35716Y-3223D01*
X35900Y-3299D01*
X36099Y-3300D01*
X36282Y-3224D01*
X36423Y-3083D01*
X36499Y-2899D01*
X36500Y-2700D01*
X36500Y-7070D01*
X36500Y-7070D01*
X36499Y-7229D01*
X36560Y-7376D01*
X36673Y-7488D01*
X36820Y-7549D01*
X36979Y-7550D01*
X37126Y-7489D01*
X37238Y-7376D01*
X37299Y-7229D01*
X37300Y-7070D01*
X37300Y-36142D01*
X37283Y-36126D01*
X37099Y-36050D01*
X36900Y-36049D01*
X36717Y-36125D01*
X36576Y-36266D01*
X36500Y-36450D01*
X36499Y-36649D01*
X36575Y-36832D01*
X36716Y-36973D01*
X36900Y-37049D01*
X37099Y-37050D01*
X37282Y-36974D01*
X37423Y-36833D01*
X37499Y-36649D01*
X37500Y-36450D01*
X37500Y-36451D01*
X37499Y-36649D01*
X37575Y-36832D01*
X37716Y-36973D01*
X37900Y-37049D01*
X38099Y-37050D01*
X38282Y-36974D01*
X38423Y-36833D01*
X38499Y-36649D01*
X38500Y-36450D01*
X38500Y-36451D01*
X38499Y-36649D01*
X38575Y-36832D01*
X38716Y-36973D01*
X38900Y-37049D01*
X39099Y-37050D01*
X39282Y-36974D01*
X39423Y-36833D01*
X39499Y-36649D01*
X39500Y-36450D01*
X39500Y-36451D01*
X39499Y-36649D01*
X39575Y-36832D01*
X39716Y-36973D01*
X39900Y-37049D01*
X40099Y-37050D01*
X40282Y-36974D01*
X40423Y-36833D01*
X40499Y-36649D01*
X40500Y-36450D01*
X40500Y-36451D01*
X40499Y-36649D01*
X40575Y-36832D01*
X40716Y-36973D01*
X40900Y-37049D01*
X41099Y-37050D01*
X41282Y-36974D01*
X41423Y-36833D01*
X41499Y-36649D01*
X41500Y-36450D01*
X41500Y-36451D01*
X41499Y-36649D01*
X41575Y-36832D01*
X41716Y-36973D01*
X41900Y-37049D01*
X42099Y-37050D01*
X42282Y-36974D01*
X42423Y-36833D01*
X42499Y-36649D01*
X42500Y-36450D01*
X42500Y-37450D01*
X42424Y-37267D01*
X42283Y-37126D01*
X42099Y-37050D01*
X41900Y-37049D01*
X41717Y-37125D01*
X41576Y-37266D01*
X41500Y-37450D01*
X41500Y-37451D01*
X41500Y-37450D01*
X41424Y-37267D01*
X41283Y-37126D01*
X41099Y-37050D01*
X40900Y-37049D01*
X40717Y-37125D01*
X40576Y-37266D01*
X40500Y-37450D01*
X40500Y-37451D01*
X40500Y-37450D01*
X40424Y-37267D01*
X40283Y-37126D01*
X40099Y-37050D01*
X39900Y-37049D01*
X39717Y-37125D01*
X39576Y-37266D01*
X39500Y-37450D01*
X39500Y-37451D01*
X39500Y-37450D01*
X39424Y-37267D01*
X39283Y-37126D01*
X39099Y-37050D01*
X38900Y-37049D01*
X38717Y-37125D01*
X38576Y-37266D01*
X38500Y-37450D01*
X38500Y-37451D01*
X38500Y-37450D01*
X38424Y-37267D01*
X38283Y-37126D01*
X38099Y-37050D01*
X37900Y-37049D01*
X37717Y-37125D01*
X37576Y-37266D01*
X37500Y-37450D01*
X37500Y-37451D01*
X37500Y-37450D01*
X37424Y-37267D01*
X37283Y-37126D01*
X37099Y-37050D01*
X36900Y-37049D01*
X36717Y-37125D01*
X36576Y-37266D01*
X36500Y-37450D01*
X36499Y-37649D01*
X36575Y-37832D01*
X36716Y-37973D01*
X36900Y-38049D01*
X37099Y-38050D01*
X37282Y-37974D01*
X37423Y-37833D01*
X37499Y-37649D01*
X37500Y-37450D01*
X37500Y-37451D01*
X37499Y-37649D01*
X37575Y-37832D01*
X37716Y-37973D01*
X37900Y-38049D01*
X38099Y-38050D01*
X38282Y-37974D01*
X38423Y-37833D01*
X38499Y-37649D01*
X38500Y-37450D01*
X38500Y-37451D01*
X38499Y-37649D01*
X38575Y-37832D01*
X38716Y-37973D01*
X38900Y-38049D01*
X39099Y-38050D01*
X39282Y-37974D01*
X39423Y-37833D01*
X39499Y-37649D01*
X39500Y-37450D01*
X39500Y-37451D01*
X39499Y-37649D01*
X39575Y-37832D01*
X39716Y-37973D01*
X39900Y-38049D01*
X40099Y-38050D01*
X40282Y-37974D01*
X40423Y-37833D01*
X40499Y-37649D01*
X40500Y-37450D01*
X40500Y-37451D01*
X40499Y-37649D01*
X40575Y-37832D01*
X40716Y-37973D01*
X40900Y-38049D01*
X41099Y-38050D01*
X41282Y-37974D01*
X41423Y-37833D01*
X41499Y-37649D01*
X41500Y-37450D01*
X41500Y-37451D01*
X41499Y-37649D01*
X41575Y-37832D01*
X41716Y-37973D01*
X41900Y-38049D01*
X42099Y-38050D01*
X42282Y-37974D01*
X42423Y-37833D01*
X42499Y-37649D01*
X42500Y-37450D01*
X42500Y-38800D01*
X36477Y-38800D01*
X36477Y-37587D01*
X36477Y-36587D01*
X36455Y-36401D01*
X36426Y-36332D01*
X36357Y-36298D01*
X36251Y-36404D01*
X36251Y-36192D01*
X36217Y-36123D01*
X36037Y-36072D01*
X35851Y-36094D01*
X35782Y-36123D01*
X35748Y-36192D01*
X36000Y-36443D01*
X36251Y-36192D01*
X36251Y-36404D01*
X36106Y-36550D01*
X36357Y-36801D01*
X36426Y-36767D01*
X36477Y-36587D01*
X36477Y-37587D01*
X36455Y-37401D01*
X36426Y-37332D01*
X36357Y-37298D01*
X36251Y-37404D01*
X36251Y-37192D01*
X36251Y-36907D01*
X36000Y-36656D01*
X35893Y-36762D01*
X35893Y-36550D01*
X35642Y-36298D01*
X35573Y-36332D01*
X35522Y-36512D01*
X35544Y-36698D01*
X35573Y-36767D01*
X35642Y-36801D01*
X35893Y-36550D01*
X35893Y-36762D01*
X35748Y-36907D01*
X35782Y-36976D01*
X35962Y-37027D01*
X36148Y-37005D01*
X36217Y-36976D01*
X36251Y-36907D01*
X36251Y-37192D01*
X36217Y-37123D01*
X36037Y-37072D01*
X35851Y-37094D01*
X35782Y-37123D01*
X35748Y-37192D01*
X36000Y-37443D01*
X36251Y-37192D01*
X36251Y-37404D01*
X36106Y-37550D01*
X36357Y-37801D01*
X36426Y-37767D01*
X36477Y-37587D01*
X36477Y-38800D01*
X36251Y-38800D01*
X36251Y-37907D01*
X36000Y-37656D01*
X35893Y-37762D01*
X35893Y-37550D01*
X35642Y-37298D01*
X35573Y-37332D01*
X35522Y-37512D01*
X35544Y-37698D01*
X35573Y-37767D01*
X35642Y-37801D01*
X35893Y-37550D01*
X35893Y-37762D01*
X35748Y-37907D01*
X35782Y-37976D01*
X35962Y-38027D01*
X36148Y-38005D01*
X36217Y-37976D01*
X36251Y-37907D01*
X36251Y-38800D01*
X35500Y-38800D01*
X35500Y-37450D01*
X35500Y-36450D01*
X35424Y-36267D01*
X35283Y-36126D01*
X35099Y-36050D01*
X34900Y-36049D01*
X34717Y-36125D01*
X34576Y-36266D01*
X34500Y-36450D01*
X34500Y-36451D01*
X34500Y-36450D01*
X34424Y-36267D01*
X34283Y-36126D01*
X34099Y-36050D01*
X33900Y-36049D01*
X33717Y-36125D01*
X33576Y-36266D01*
X33500Y-36450D01*
X33500Y-36451D01*
X33500Y-36450D01*
X33477Y-36396D01*
X33477Y-1837D01*
X33455Y-1651D01*
X33426Y-1582D01*
X33357Y-1548D01*
X33251Y-1654D01*
X33251Y-1442D01*
X33217Y-1373D01*
X33037Y-1322D01*
X32851Y-1344D01*
X32782Y-1373D01*
X32748Y-1442D01*
X33000Y-1693D01*
X33251Y-1442D01*
X33251Y-1654D01*
X33106Y-1800D01*
X33357Y-2051D01*
X33426Y-2017D01*
X33477Y-1837D01*
X33477Y-36396D01*
X33470Y-36378D01*
X33470Y-3066D01*
X33470Y-2533D01*
X33469Y-2466D01*
X33444Y-2403D01*
X33396Y-2355D01*
X33333Y-2329D01*
X33251Y-2329D01*
X33251Y-2157D01*
X33000Y-1906D01*
X32893Y-2012D01*
X32893Y-1800D01*
X32642Y-1548D01*
X32573Y-1582D01*
X32522Y-1762D01*
X32544Y-1948D01*
X32573Y-2017D01*
X32642Y-2051D01*
X32893Y-1800D01*
X32893Y-2012D01*
X32748Y-2157D01*
X32782Y-2226D01*
X32962Y-2277D01*
X33148Y-2255D01*
X33217Y-2226D01*
X33251Y-2157D01*
X33251Y-2329D01*
X33117Y-2330D01*
X33075Y-2372D01*
X33075Y-2725D01*
X33427Y-2725D01*
X33470Y-2682D01*
X33470Y-2533D01*
X33470Y-3066D01*
X33470Y-2917D01*
X33427Y-2875D01*
X33075Y-2875D01*
X33075Y-3227D01*
X33117Y-3270D01*
X33333Y-3270D01*
X33396Y-3244D01*
X33444Y-3196D01*
X33469Y-3133D01*
X33470Y-3066D01*
X33470Y-36378D01*
X33424Y-36267D01*
X33283Y-36126D01*
X33099Y-36050D01*
X32925Y-36049D01*
X32925Y-3227D01*
X32925Y-2875D01*
X32925Y-2725D01*
X32925Y-2372D01*
X32882Y-2330D01*
X32666Y-2329D01*
X32603Y-2355D01*
X32555Y-2403D01*
X32530Y-2466D01*
X32529Y-2533D01*
X32530Y-2682D01*
X32572Y-2725D01*
X32925Y-2725D01*
X32925Y-2875D01*
X32572Y-2875D01*
X32530Y-2917D01*
X32529Y-3066D01*
X32530Y-3133D01*
X32555Y-3196D01*
X32603Y-3244D01*
X32666Y-3270D01*
X32882Y-3270D01*
X32925Y-3227D01*
X32925Y-36049D01*
X32900Y-36049D01*
X32717Y-36125D01*
X32576Y-36266D01*
X32500Y-36450D01*
X32499Y-36649D01*
X32575Y-36832D01*
X32716Y-36973D01*
X32900Y-37049D01*
X33099Y-37050D01*
X33282Y-36974D01*
X33423Y-36833D01*
X33499Y-36649D01*
X33500Y-36450D01*
X33500Y-36451D01*
X33499Y-36649D01*
X33575Y-36832D01*
X33716Y-36973D01*
X33900Y-37049D01*
X34099Y-37050D01*
X34282Y-36974D01*
X34423Y-36833D01*
X34499Y-36649D01*
X34500Y-36450D01*
X34500Y-36451D01*
X34499Y-36649D01*
X34575Y-36832D01*
X34716Y-36973D01*
X34900Y-37049D01*
X35099Y-37050D01*
X35282Y-36974D01*
X35423Y-36833D01*
X35499Y-36649D01*
X35500Y-36450D01*
X35500Y-37450D01*
X35424Y-37267D01*
X35283Y-37126D01*
X35099Y-37050D01*
X34900Y-37049D01*
X34717Y-37125D01*
X34576Y-37266D01*
X34500Y-37450D01*
X34500Y-37451D01*
X34500Y-37450D01*
X34424Y-37267D01*
X34283Y-37126D01*
X34099Y-37050D01*
X33900Y-37049D01*
X33717Y-37125D01*
X33576Y-37266D01*
X33500Y-37450D01*
X33500Y-37451D01*
X33500Y-37450D01*
X33424Y-37267D01*
X33283Y-37126D01*
X33099Y-37050D01*
X32900Y-37049D01*
X32717Y-37125D01*
X32576Y-37266D01*
X32500Y-37450D01*
X32500Y-37451D01*
X32500Y-37450D01*
X32424Y-37267D01*
X32283Y-37126D01*
X32099Y-37050D01*
X31900Y-37049D01*
X31717Y-37125D01*
X31576Y-37266D01*
X31500Y-37450D01*
X31500Y-37510D01*
X31500Y-37210D01*
X31469Y-37136D01*
X31413Y-37080D01*
X31339Y-37050D01*
X31339Y-37050D01*
X31413Y-37019D01*
X31469Y-36963D01*
X31499Y-36889D01*
X31500Y-36810D01*
X31500Y-36649D01*
X31575Y-36832D01*
X31716Y-36973D01*
X31900Y-37049D01*
X32099Y-37050D01*
X32282Y-36974D01*
X32423Y-36833D01*
X32499Y-36649D01*
X32500Y-36450D01*
X32500Y-1700D01*
X32424Y-1517D01*
X32283Y-1376D01*
X32099Y-1300D01*
X31900Y-1299D01*
X31717Y-1375D01*
X31576Y-1516D01*
X31500Y-1700D01*
X31499Y-1899D01*
X31575Y-2082D01*
X31716Y-2223D01*
X31900Y-2299D01*
X32099Y-2300D01*
X32282Y-2224D01*
X32423Y-2083D01*
X32499Y-1899D01*
X32500Y-1700D01*
X32500Y-36450D01*
X32424Y-36267D01*
X32283Y-36126D01*
X32100Y-36050D01*
X32100Y-33420D01*
X32039Y-33273D01*
X31926Y-33161D01*
X31779Y-33100D01*
X31620Y-33099D01*
X31473Y-33160D01*
X31470Y-33164D01*
X31470Y-2066D01*
X31470Y-1533D01*
X31469Y-1466D01*
X31444Y-1403D01*
X31396Y-1355D01*
X31333Y-1329D01*
X31117Y-1330D01*
X31075Y-1372D01*
X31075Y-1725D01*
X31427Y-1725D01*
X31470Y-1682D01*
X31470Y-1533D01*
X31470Y-2066D01*
X31470Y-1917D01*
X31427Y-1875D01*
X31075Y-1875D01*
X31075Y-2227D01*
X31117Y-2270D01*
X31333Y-2270D01*
X31396Y-2244D01*
X31444Y-2196D01*
X31469Y-2133D01*
X31470Y-2066D01*
X31470Y-33164D01*
X31361Y-33273D01*
X31300Y-33420D01*
X31299Y-33579D01*
X31360Y-33726D01*
X31473Y-33838D01*
X31620Y-33899D01*
X31779Y-33900D01*
X31926Y-33839D01*
X32038Y-33726D01*
X32099Y-33579D01*
X32100Y-33420D01*
X32100Y-36050D01*
X32099Y-36050D01*
X31900Y-36049D01*
X31717Y-36125D01*
X31576Y-36266D01*
X31500Y-36450D01*
X31500Y-36510D01*
X31500Y-36210D01*
X31469Y-36136D01*
X31413Y-36080D01*
X31339Y-36050D01*
X31260Y-36049D01*
X30950Y-36049D01*
X30950Y-33420D01*
X30925Y-33360D01*
X30925Y-2227D01*
X30925Y-1875D01*
X30925Y-1725D01*
X30925Y-1372D01*
X30882Y-1330D01*
X30666Y-1329D01*
X30603Y-1355D01*
X30555Y-1403D01*
X30530Y-1466D01*
X30529Y-1533D01*
X30530Y-1682D01*
X30572Y-1725D01*
X30925Y-1725D01*
X30925Y-1875D01*
X30572Y-1875D01*
X30530Y-1917D01*
X30529Y-2066D01*
X30530Y-2133D01*
X30555Y-2196D01*
X30603Y-2244D01*
X30666Y-2270D01*
X30882Y-2270D01*
X30925Y-2227D01*
X30925Y-33360D01*
X30889Y-33273D01*
X30776Y-33161D01*
X30650Y-33108D01*
X30650Y-22270D01*
X30600Y-22149D01*
X30600Y-5770D01*
X30539Y-5623D01*
X30426Y-5511D01*
X30279Y-5450D01*
X30120Y-5449D01*
X29973Y-5510D01*
X29861Y-5623D01*
X29800Y-5770D01*
X29799Y-5929D01*
X29860Y-6076D01*
X29973Y-6188D01*
X30120Y-6249D01*
X30279Y-6250D01*
X30426Y-6189D01*
X30538Y-6076D01*
X30599Y-5929D01*
X30600Y-5770D01*
X30600Y-22149D01*
X30589Y-22123D01*
X30476Y-22011D01*
X30329Y-21950D01*
X30250Y-21949D01*
X30250Y-6520D01*
X30189Y-6373D01*
X30076Y-6261D01*
X29929Y-6200D01*
X29770Y-6199D01*
X29623Y-6260D01*
X29511Y-6373D01*
X29450Y-6520D01*
X29449Y-6679D01*
X29510Y-6826D01*
X29623Y-6938D01*
X29770Y-6999D01*
X29929Y-7000D01*
X30076Y-6939D01*
X30188Y-6826D01*
X30249Y-6679D01*
X30250Y-6520D01*
X30250Y-21949D01*
X30170Y-21949D01*
X30023Y-22010D01*
X29911Y-22123D01*
X29850Y-22270D01*
X29849Y-22429D01*
X29910Y-22576D01*
X30023Y-22688D01*
X30170Y-22749D01*
X30329Y-22750D01*
X30476Y-22689D01*
X30588Y-22576D01*
X30649Y-22429D01*
X30650Y-22270D01*
X30650Y-33108D01*
X30629Y-33100D01*
X30470Y-33099D01*
X30323Y-33160D01*
X30211Y-33273D01*
X30200Y-33299D01*
X30200Y-23070D01*
X30139Y-22923D01*
X30026Y-22811D01*
X29879Y-22750D01*
X29720Y-22749D01*
X29573Y-22810D01*
X29461Y-22923D01*
X29400Y-23070D01*
X29399Y-23229D01*
X29460Y-23376D01*
X29573Y-23488D01*
X29720Y-23549D01*
X29879Y-23550D01*
X30026Y-23489D01*
X30138Y-23376D01*
X30199Y-23229D01*
X30200Y-23070D01*
X30200Y-33299D01*
X30150Y-33420D01*
X30149Y-33579D01*
X30210Y-33726D01*
X30323Y-33838D01*
X30470Y-33899D01*
X30629Y-33900D01*
X30776Y-33839D01*
X30888Y-33726D01*
X30949Y-33579D01*
X30950Y-33420D01*
X30950Y-36049D01*
X30660Y-36049D01*
X30586Y-36080D01*
X30530Y-36136D01*
X30500Y-36210D01*
X30499Y-36289D01*
X30499Y-36889D01*
X30530Y-36963D01*
X30586Y-37019D01*
X30660Y-37049D01*
X30660Y-37049D01*
X30586Y-37080D01*
X30530Y-37136D01*
X30500Y-37210D01*
X30499Y-37289D01*
X30499Y-37889D01*
X30530Y-37963D01*
X30586Y-38019D01*
X30660Y-38049D01*
X30739Y-38050D01*
X31339Y-38050D01*
X31413Y-38019D01*
X31469Y-37963D01*
X31499Y-37889D01*
X31500Y-37810D01*
X31500Y-37649D01*
X31575Y-37832D01*
X31716Y-37973D01*
X31900Y-38049D01*
X32099Y-38050D01*
X32282Y-37974D01*
X32423Y-37833D01*
X32499Y-37649D01*
X32500Y-37450D01*
X32500Y-37451D01*
X32499Y-37649D01*
X32575Y-37832D01*
X32716Y-37973D01*
X32900Y-38049D01*
X33099Y-38050D01*
X33282Y-37974D01*
X33423Y-37833D01*
X33499Y-37649D01*
X33500Y-37450D01*
X33500Y-37451D01*
X33499Y-37649D01*
X33575Y-37832D01*
X33716Y-37973D01*
X33900Y-38049D01*
X34099Y-38050D01*
X34282Y-37974D01*
X34423Y-37833D01*
X34499Y-37649D01*
X34500Y-37450D01*
X34500Y-37451D01*
X34499Y-37649D01*
X34575Y-37832D01*
X34716Y-37973D01*
X34900Y-38049D01*
X35099Y-38050D01*
X35282Y-37974D01*
X35423Y-37833D01*
X35499Y-37649D01*
X35500Y-37450D01*
X35500Y-38800D01*
X29250Y-38800D01*
X29250Y-23770D01*
X29250Y-7220D01*
X29189Y-7073D01*
X29076Y-6961D01*
X28929Y-6900D01*
X28770Y-6899D01*
X28650Y-6949D01*
X28650Y-4520D01*
X28589Y-4373D01*
X28476Y-4261D01*
X28329Y-4200D01*
X28170Y-4199D01*
X28023Y-4260D01*
X27911Y-4373D01*
X27850Y-4520D01*
X27849Y-4679D01*
X27888Y-4772D01*
X27876Y-4761D01*
X27729Y-4700D01*
X27570Y-4699D01*
X27423Y-4760D01*
X27311Y-4873D01*
X27250Y-5020D01*
X27249Y-5179D01*
X27310Y-5326D01*
X27423Y-5438D01*
X27570Y-5499D01*
X27729Y-5500D01*
X27876Y-5439D01*
X27988Y-5326D01*
X28049Y-5179D01*
X28050Y-5020D01*
X28011Y-4927D01*
X28023Y-4938D01*
X28170Y-4999D01*
X28329Y-5000D01*
X28476Y-4939D01*
X28588Y-4826D01*
X28649Y-4679D01*
X28650Y-4520D01*
X28650Y-6949D01*
X28623Y-6960D01*
X28511Y-7073D01*
X28450Y-7220D01*
X28449Y-7379D01*
X28510Y-7526D01*
X28623Y-7638D01*
X28770Y-7699D01*
X28929Y-7700D01*
X29076Y-7639D01*
X29188Y-7526D01*
X29249Y-7379D01*
X29250Y-7220D01*
X29250Y-23770D01*
X29189Y-23623D01*
X29076Y-23511D01*
X28929Y-23450D01*
X28770Y-23449D01*
X28650Y-23499D01*
X28650Y-21020D01*
X28589Y-20873D01*
X28476Y-20761D01*
X28329Y-20700D01*
X28170Y-20699D01*
X28023Y-20760D01*
X27911Y-20873D01*
X27850Y-21020D01*
X27849Y-21179D01*
X27888Y-21272D01*
X27876Y-21261D01*
X27729Y-21200D01*
X27570Y-21199D01*
X27423Y-21260D01*
X27311Y-21373D01*
X27250Y-21520D01*
X27249Y-21679D01*
X27310Y-21826D01*
X27423Y-21938D01*
X27570Y-21999D01*
X27729Y-22000D01*
X27876Y-21939D01*
X27988Y-21826D01*
X28049Y-21679D01*
X28050Y-21520D01*
X28011Y-21427D01*
X28023Y-21438D01*
X28170Y-21499D01*
X28329Y-21500D01*
X28476Y-21439D01*
X28588Y-21326D01*
X28649Y-21179D01*
X28650Y-21020D01*
X28650Y-23499D01*
X28623Y-23510D01*
X28511Y-23623D01*
X28450Y-23770D01*
X28449Y-23929D01*
X28510Y-24076D01*
X28623Y-24188D01*
X28770Y-24249D01*
X28929Y-24250D01*
X29076Y-24189D01*
X29188Y-24076D01*
X29249Y-23929D01*
X29250Y-23770D01*
X29250Y-38800D01*
X27450Y-38800D01*
X27450Y-30920D01*
X27389Y-30773D01*
X27276Y-30661D01*
X27129Y-30600D01*
X26970Y-30599D01*
X26823Y-30660D01*
X26800Y-30684D01*
X26800Y-30420D01*
X26739Y-30273D01*
X26650Y-30184D01*
X26650Y-11220D01*
X26589Y-11073D01*
X26476Y-10961D01*
X26329Y-10900D01*
X26170Y-10899D01*
X26100Y-10929D01*
X26100Y-6770D01*
X26039Y-6623D01*
X25926Y-6511D01*
X25779Y-6450D01*
X25620Y-6449D01*
X25473Y-6510D01*
X25361Y-6623D01*
X25300Y-6770D01*
X25299Y-6929D01*
X25360Y-7076D01*
X25473Y-7188D01*
X25620Y-7249D01*
X25779Y-7250D01*
X25926Y-7189D01*
X26038Y-7076D01*
X26099Y-6929D01*
X26100Y-6770D01*
X26100Y-10929D01*
X26023Y-10960D01*
X26000Y-10984D01*
X26000Y-10720D01*
X25939Y-10573D01*
X25826Y-10461D01*
X25679Y-10400D01*
X25520Y-10399D01*
X25373Y-10460D01*
X25261Y-10573D01*
X25200Y-10720D01*
X25199Y-10879D01*
X25260Y-11026D01*
X25373Y-11138D01*
X25520Y-11199D01*
X25679Y-11200D01*
X25826Y-11139D01*
X25938Y-11026D01*
X25999Y-10879D01*
X26000Y-10720D01*
X26000Y-10984D01*
X25911Y-11073D01*
X25850Y-11220D01*
X25849Y-11379D01*
X25910Y-11526D01*
X26023Y-11638D01*
X26170Y-11699D01*
X26329Y-11700D01*
X26476Y-11639D01*
X26588Y-11526D01*
X26649Y-11379D01*
X26650Y-11220D01*
X26650Y-30184D01*
X26626Y-30161D01*
X26479Y-30100D01*
X26320Y-30099D01*
X26173Y-30160D01*
X26061Y-30273D01*
X26000Y-30420D01*
X25999Y-30579D01*
X26060Y-30726D01*
X26173Y-30838D01*
X26320Y-30899D01*
X26479Y-30900D01*
X26626Y-30839D01*
X26738Y-30726D01*
X26799Y-30579D01*
X26800Y-30420D01*
X26800Y-30684D01*
X26711Y-30773D01*
X26650Y-30920D01*
X26649Y-31079D01*
X26710Y-31226D01*
X26823Y-31338D01*
X26970Y-31399D01*
X27129Y-31400D01*
X27276Y-31339D01*
X27388Y-31226D01*
X27449Y-31079D01*
X27450Y-30920D01*
X27450Y-38800D01*
X26600Y-38800D01*
X26600Y-32170D01*
X26539Y-32023D01*
X26426Y-31911D01*
X26279Y-31850D01*
X26120Y-31849D01*
X25973Y-31910D01*
X25900Y-31984D01*
X25900Y-21770D01*
X25839Y-21623D01*
X25726Y-21511D01*
X25650Y-21479D01*
X25650Y-18620D01*
X25589Y-18473D01*
X25476Y-18361D01*
X25329Y-18300D01*
X25170Y-18299D01*
X25023Y-18360D01*
X24911Y-18473D01*
X24850Y-18620D01*
X24849Y-18779D01*
X24910Y-18926D01*
X25023Y-19038D01*
X25170Y-19099D01*
X25329Y-19100D01*
X25476Y-19039D01*
X25588Y-18926D01*
X25649Y-18779D01*
X25650Y-18620D01*
X25650Y-21479D01*
X25579Y-21450D01*
X25420Y-21449D01*
X25273Y-21510D01*
X25250Y-21534D01*
X25250Y-21270D01*
X25189Y-21123D01*
X25076Y-21011D01*
X24929Y-20950D01*
X24850Y-20949D01*
X24850Y-19870D01*
X24789Y-19723D01*
X24676Y-19611D01*
X24529Y-19550D01*
X24370Y-19549D01*
X24223Y-19610D01*
X24111Y-19723D01*
X24050Y-19870D01*
X24050Y-18620D01*
X23989Y-18473D01*
X23876Y-18361D01*
X23729Y-18300D01*
X23570Y-18299D01*
X23500Y-18329D01*
X23500Y-10220D01*
X23439Y-10073D01*
X23326Y-9961D01*
X23179Y-9900D01*
X23020Y-9899D01*
X22873Y-9960D01*
X22761Y-10073D01*
X22700Y-10220D01*
X22699Y-10379D01*
X22760Y-10526D01*
X22873Y-10638D01*
X23020Y-10699D01*
X23179Y-10700D01*
X23326Y-10639D01*
X23438Y-10526D01*
X23499Y-10379D01*
X23500Y-10220D01*
X23500Y-18329D01*
X23423Y-18360D01*
X23311Y-18473D01*
X23250Y-18620D01*
X23249Y-18779D01*
X23310Y-18926D01*
X23423Y-19038D01*
X23570Y-19099D01*
X23729Y-19100D01*
X23876Y-19039D01*
X23988Y-18926D01*
X24049Y-18779D01*
X24050Y-18620D01*
X24050Y-19870D01*
X24049Y-20029D01*
X24110Y-20176D01*
X24223Y-20288D01*
X24370Y-20349D01*
X24529Y-20350D01*
X24676Y-20289D01*
X24788Y-20176D01*
X24849Y-20029D01*
X24850Y-19870D01*
X24850Y-20949D01*
X24770Y-20949D01*
X24623Y-21010D01*
X24511Y-21123D01*
X24450Y-21270D01*
X24449Y-21429D01*
X24510Y-21576D01*
X24623Y-21688D01*
X24770Y-21749D01*
X24929Y-21750D01*
X25076Y-21689D01*
X25188Y-21576D01*
X25249Y-21429D01*
X25250Y-21270D01*
X25250Y-21534D01*
X25161Y-21623D01*
X25100Y-21770D01*
X25099Y-21929D01*
X25160Y-22076D01*
X25273Y-22188D01*
X25420Y-22249D01*
X25579Y-22250D01*
X25726Y-22189D01*
X25838Y-22076D01*
X25899Y-21929D01*
X25900Y-21770D01*
X25900Y-31984D01*
X25861Y-32023D01*
X25800Y-32170D01*
X25799Y-32329D01*
X25860Y-32476D01*
X25973Y-32588D01*
X26120Y-32649D01*
X26279Y-32650D01*
X26426Y-32589D01*
X26538Y-32476D01*
X26599Y-32329D01*
X26600Y-32170D01*
X26600Y-38800D01*
X26050Y-38800D01*
X26050Y-32820D01*
X25989Y-32673D01*
X25876Y-32561D01*
X25729Y-32500D01*
X25570Y-32499D01*
X25423Y-32560D01*
X25311Y-32673D01*
X25250Y-32820D01*
X25249Y-32979D01*
X25310Y-33126D01*
X25423Y-33238D01*
X25570Y-33299D01*
X25729Y-33300D01*
X25876Y-33239D01*
X25988Y-33126D01*
X26049Y-32979D01*
X26050Y-32820D01*
X26050Y-38800D01*
X23000Y-38800D01*
X23000Y-12570D01*
X22939Y-12423D01*
X22826Y-12311D01*
X22679Y-12250D01*
X22520Y-12249D01*
X22400Y-12299D01*
X22400Y-11220D01*
X22339Y-11073D01*
X22226Y-10961D01*
X22079Y-10900D01*
X21920Y-10899D01*
X21900Y-10908D01*
X21900Y-6770D01*
X21839Y-6623D01*
X21726Y-6511D01*
X21579Y-6450D01*
X21420Y-6449D01*
X21273Y-6510D01*
X21161Y-6623D01*
X21100Y-6770D01*
X21099Y-6929D01*
X21160Y-7076D01*
X21273Y-7188D01*
X21420Y-7249D01*
X21579Y-7250D01*
X21726Y-7189D01*
X21838Y-7076D01*
X21899Y-6929D01*
X21900Y-6770D01*
X21900Y-10908D01*
X21773Y-10960D01*
X21750Y-10984D01*
X21750Y-10720D01*
X21689Y-10573D01*
X21576Y-10461D01*
X21429Y-10400D01*
X21270Y-10399D01*
X21123Y-10460D01*
X21011Y-10573D01*
X20950Y-10720D01*
X20949Y-10879D01*
X21010Y-11026D01*
X21123Y-11138D01*
X21270Y-11199D01*
X21429Y-11200D01*
X21576Y-11139D01*
X21688Y-11026D01*
X21749Y-10879D01*
X21750Y-10720D01*
X21750Y-10984D01*
X21661Y-11073D01*
X21600Y-11220D01*
X21599Y-11379D01*
X21660Y-11526D01*
X21773Y-11638D01*
X21920Y-11699D01*
X22079Y-11700D01*
X22226Y-11639D01*
X22338Y-11526D01*
X22399Y-11379D01*
X22400Y-11220D01*
X22400Y-12299D01*
X22373Y-12310D01*
X22261Y-12423D01*
X22200Y-12570D01*
X22199Y-12729D01*
X22260Y-12876D01*
X22373Y-12988D01*
X22520Y-13049D01*
X22679Y-13050D01*
X22826Y-12989D01*
X22938Y-12876D01*
X22999Y-12729D01*
X23000Y-12570D01*
X23000Y-38800D01*
X21100Y-38800D01*
X21100Y-31520D01*
X21100Y-30570D01*
X21039Y-30423D01*
X20926Y-30311D01*
X20779Y-30250D01*
X20620Y-30249D01*
X20473Y-30310D01*
X20361Y-30423D01*
X20300Y-30570D01*
X20299Y-30729D01*
X20360Y-30876D01*
X20473Y-30988D01*
X20620Y-31049D01*
X20779Y-31050D01*
X20926Y-30989D01*
X21038Y-30876D01*
X21099Y-30729D01*
X21100Y-30570D01*
X21100Y-31520D01*
X21039Y-31373D01*
X20926Y-31261D01*
X20779Y-31200D01*
X20620Y-31199D01*
X20473Y-31260D01*
X20361Y-31373D01*
X20300Y-31520D01*
X20299Y-31679D01*
X20360Y-31826D01*
X20473Y-31938D01*
X20620Y-31999D01*
X20779Y-32000D01*
X20926Y-31939D01*
X21038Y-31826D01*
X21099Y-31679D01*
X21100Y-31520D01*
X21100Y-38800D01*
X19650Y-38800D01*
X19650Y-14320D01*
X19589Y-14173D01*
X19476Y-14061D01*
X19329Y-14000D01*
X19250Y-13999D01*
X19250Y-10220D01*
X19189Y-10073D01*
X19076Y-9961D01*
X18929Y-9900D01*
X18770Y-9899D01*
X18623Y-9960D01*
X18511Y-10073D01*
X18450Y-10220D01*
X18449Y-10379D01*
X18510Y-10526D01*
X18623Y-10638D01*
X18770Y-10699D01*
X18929Y-10700D01*
X19076Y-10639D01*
X19188Y-10526D01*
X19249Y-10379D01*
X19250Y-10220D01*
X19250Y-13999D01*
X19170Y-13999D01*
X19023Y-14060D01*
X18911Y-14173D01*
X18850Y-14320D01*
X18849Y-14479D01*
X18910Y-14626D01*
X19023Y-14738D01*
X19170Y-14799D01*
X19329Y-14800D01*
X19476Y-14739D01*
X19588Y-14626D01*
X19649Y-14479D01*
X19650Y-14320D01*
X19650Y-38800D01*
X17900Y-38800D01*
X17900Y-11220D01*
X17839Y-11073D01*
X17726Y-10961D01*
X17579Y-10900D01*
X17477Y-10899D01*
X17477Y-2837D01*
X17455Y-2651D01*
X17426Y-2582D01*
X17357Y-2548D01*
X17251Y-2654D01*
X17251Y-2442D01*
X17217Y-2373D01*
X17037Y-2322D01*
X16851Y-2344D01*
X16782Y-2373D01*
X16748Y-2442D01*
X17000Y-2693D01*
X17251Y-2442D01*
X17251Y-2654D01*
X17106Y-2800D01*
X17357Y-3051D01*
X17426Y-3017D01*
X17477Y-2837D01*
X17477Y-10899D01*
X17420Y-10899D01*
X17273Y-10960D01*
X17251Y-10983D01*
X17251Y-3157D01*
X17000Y-2906D01*
X16893Y-3012D01*
X16893Y-2800D01*
X16642Y-2548D01*
X16573Y-2582D01*
X16522Y-2762D01*
X16544Y-2948D01*
X16573Y-3017D01*
X16642Y-3051D01*
X16893Y-2800D01*
X16893Y-3012D01*
X16748Y-3157D01*
X16782Y-3226D01*
X16962Y-3277D01*
X17148Y-3255D01*
X17217Y-3226D01*
X17251Y-3157D01*
X17251Y-10983D01*
X17250Y-10984D01*
X17250Y-10670D01*
X17189Y-10523D01*
X17076Y-10411D01*
X16929Y-10350D01*
X16770Y-10349D01*
X16623Y-10410D01*
X16511Y-10523D01*
X16500Y-10549D01*
X16500Y-2700D01*
X16424Y-2517D01*
X16283Y-2376D01*
X16099Y-2300D01*
X15900Y-2299D01*
X15717Y-2375D01*
X15576Y-2516D01*
X15500Y-2700D01*
X15500Y-2701D01*
X15500Y-2700D01*
X15424Y-2517D01*
X15283Y-2376D01*
X15099Y-2300D01*
X14900Y-2299D01*
X14717Y-2375D01*
X14576Y-2516D01*
X14500Y-2700D01*
X14499Y-2899D01*
X14575Y-3082D01*
X14716Y-3223D01*
X14900Y-3299D01*
X15099Y-3300D01*
X15282Y-3224D01*
X15423Y-3083D01*
X15499Y-2899D01*
X15500Y-2700D01*
X15500Y-2701D01*
X15499Y-2899D01*
X15575Y-3082D01*
X15716Y-3223D01*
X15900Y-3299D01*
X16099Y-3300D01*
X16282Y-3224D01*
X16423Y-3083D01*
X16499Y-2899D01*
X16500Y-2700D01*
X16500Y-10549D01*
X16450Y-10670D01*
X16449Y-10829D01*
X16510Y-10976D01*
X16623Y-11088D01*
X16770Y-11149D01*
X16929Y-11150D01*
X17076Y-11089D01*
X17188Y-10976D01*
X17249Y-10829D01*
X17250Y-10670D01*
X17250Y-10984D01*
X17161Y-11073D01*
X17100Y-11220D01*
X17099Y-11379D01*
X17160Y-11526D01*
X17273Y-11638D01*
X17420Y-11699D01*
X17579Y-11700D01*
X17726Y-11639D01*
X17838Y-11526D01*
X17899Y-11379D01*
X17900Y-11220D01*
X17900Y-38800D01*
X17500Y-38800D01*
X17500Y-37450D01*
X17500Y-36450D01*
X17424Y-36267D01*
X17283Y-36126D01*
X17100Y-36050D01*
X17100Y-32770D01*
X17039Y-32623D01*
X16926Y-32511D01*
X16779Y-32450D01*
X16620Y-32449D01*
X16473Y-32510D01*
X16361Y-32623D01*
X16300Y-32770D01*
X16299Y-32929D01*
X16360Y-33076D01*
X16473Y-33188D01*
X16620Y-33249D01*
X16779Y-33250D01*
X16926Y-33189D01*
X17038Y-33076D01*
X17099Y-32929D01*
X17100Y-32770D01*
X17100Y-36050D01*
X17099Y-36050D01*
X16900Y-36049D01*
X16717Y-36125D01*
X16576Y-36266D01*
X16500Y-36450D01*
X16500Y-36451D01*
X16500Y-36450D01*
X16424Y-36267D01*
X16283Y-36126D01*
X16099Y-36050D01*
X16050Y-36050D01*
X16050Y-32820D01*
X15989Y-32673D01*
X15876Y-32561D01*
X15729Y-32500D01*
X15570Y-32499D01*
X15423Y-32560D01*
X15311Y-32673D01*
X15250Y-32820D01*
X15250Y-31970D01*
X15189Y-31823D01*
X15076Y-31711D01*
X14929Y-31650D01*
X14770Y-31649D01*
X14623Y-31710D01*
X14511Y-31823D01*
X14477Y-31903D01*
X14477Y-2837D01*
X14455Y-2651D01*
X14426Y-2582D01*
X14357Y-2548D01*
X14251Y-2654D01*
X14251Y-2442D01*
X14217Y-2373D01*
X14037Y-2322D01*
X13851Y-2344D01*
X13782Y-2373D01*
X13748Y-2442D01*
X14000Y-2693D01*
X14251Y-2442D01*
X14251Y-2654D01*
X14106Y-2800D01*
X14357Y-3051D01*
X14426Y-3017D01*
X14477Y-2837D01*
X14477Y-31903D01*
X14450Y-31970D01*
X14449Y-32129D01*
X14510Y-32276D01*
X14623Y-32388D01*
X14770Y-32449D01*
X14929Y-32450D01*
X15076Y-32389D01*
X15188Y-32276D01*
X15249Y-32129D01*
X15250Y-31970D01*
X15250Y-32820D01*
X15249Y-32979D01*
X15310Y-33126D01*
X15423Y-33238D01*
X15570Y-33299D01*
X15729Y-33300D01*
X15876Y-33239D01*
X15988Y-33126D01*
X16049Y-32979D01*
X16050Y-32820D01*
X16050Y-36050D01*
X15900Y-36049D01*
X15717Y-36125D01*
X15576Y-36266D01*
X15500Y-36450D01*
X15499Y-36649D01*
X15575Y-36832D01*
X15716Y-36973D01*
X15900Y-37049D01*
X16099Y-37050D01*
X16282Y-36974D01*
X16423Y-36833D01*
X16499Y-36649D01*
X16500Y-36450D01*
X16500Y-36451D01*
X16499Y-36649D01*
X16575Y-36832D01*
X16716Y-36973D01*
X16900Y-37049D01*
X17099Y-37050D01*
X17282Y-36974D01*
X17423Y-36833D01*
X17499Y-36649D01*
X17500Y-36450D01*
X17500Y-37450D01*
X17424Y-37267D01*
X17283Y-37126D01*
X17099Y-37050D01*
X16900Y-37049D01*
X16717Y-37125D01*
X16576Y-37266D01*
X16500Y-37450D01*
X16500Y-37451D01*
X16500Y-37450D01*
X16424Y-37267D01*
X16283Y-37126D01*
X16099Y-37050D01*
X15900Y-37049D01*
X15717Y-37125D01*
X15576Y-37266D01*
X15500Y-37450D01*
X15499Y-37649D01*
X15575Y-37832D01*
X15716Y-37973D01*
X15900Y-38049D01*
X16099Y-38050D01*
X16282Y-37974D01*
X16423Y-37833D01*
X16499Y-37649D01*
X16500Y-37450D01*
X16500Y-37451D01*
X16499Y-37649D01*
X16575Y-37832D01*
X16716Y-37973D01*
X16900Y-38049D01*
X17099Y-38050D01*
X17282Y-37974D01*
X17423Y-37833D01*
X17499Y-37649D01*
X17500Y-37450D01*
X17500Y-38800D01*
X15477Y-38800D01*
X15477Y-37587D01*
X15477Y-36587D01*
X15455Y-36401D01*
X15426Y-36332D01*
X15357Y-36298D01*
X15251Y-36404D01*
X15251Y-36192D01*
X15217Y-36123D01*
X15037Y-36072D01*
X14851Y-36094D01*
X14782Y-36123D01*
X14748Y-36192D01*
X15000Y-36443D01*
X15251Y-36192D01*
X15251Y-36404D01*
X15106Y-36550D01*
X15357Y-36801D01*
X15426Y-36767D01*
X15477Y-36587D01*
X15477Y-37587D01*
X15455Y-37401D01*
X15426Y-37332D01*
X15357Y-37298D01*
X15251Y-37404D01*
X15251Y-37192D01*
X15251Y-36907D01*
X15000Y-36656D01*
X14893Y-36762D01*
X14893Y-36550D01*
X14642Y-36298D01*
X14573Y-36332D01*
X14522Y-36512D01*
X14544Y-36698D01*
X14573Y-36767D01*
X14642Y-36801D01*
X14893Y-36550D01*
X14893Y-36762D01*
X14748Y-36907D01*
X14782Y-36976D01*
X14962Y-37027D01*
X15148Y-37005D01*
X15217Y-36976D01*
X15251Y-36907D01*
X15251Y-37192D01*
X15217Y-37123D01*
X15037Y-37072D01*
X14851Y-37094D01*
X14782Y-37123D01*
X14748Y-37192D01*
X15000Y-37443D01*
X15251Y-37192D01*
X15251Y-37404D01*
X15106Y-37550D01*
X15357Y-37801D01*
X15426Y-37767D01*
X15477Y-37587D01*
X15477Y-38800D01*
X15251Y-38800D01*
X15251Y-37907D01*
X15000Y-37656D01*
X14893Y-37762D01*
X14893Y-37550D01*
X14642Y-37298D01*
X14573Y-37332D01*
X14522Y-37512D01*
X14544Y-37698D01*
X14573Y-37767D01*
X14642Y-37801D01*
X14893Y-37550D01*
X14893Y-37762D01*
X14748Y-37907D01*
X14782Y-37976D01*
X14962Y-38027D01*
X15148Y-38005D01*
X15217Y-37976D01*
X15251Y-37907D01*
X15251Y-38800D01*
X14500Y-38800D01*
X14500Y-37450D01*
X14500Y-36450D01*
X14424Y-36267D01*
X14283Y-36126D01*
X14251Y-36112D01*
X14251Y-3157D01*
X14000Y-2906D01*
X13893Y-3012D01*
X13893Y-2800D01*
X13642Y-2548D01*
X13573Y-2582D01*
X13522Y-2762D01*
X13544Y-2948D01*
X13573Y-3017D01*
X13642Y-3051D01*
X13893Y-2800D01*
X13893Y-3012D01*
X13748Y-3157D01*
X13782Y-3226D01*
X13962Y-3277D01*
X14148Y-3255D01*
X14217Y-3226D01*
X14251Y-3157D01*
X14251Y-36112D01*
X14099Y-36050D01*
X13900Y-36049D01*
X13900Y-36050D01*
X13900Y-34420D01*
X13900Y-31970D01*
X13900Y-10220D01*
X13839Y-10073D01*
X13726Y-9961D01*
X13579Y-9900D01*
X13500Y-9899D01*
X13500Y-2700D01*
X13424Y-2517D01*
X13283Y-2376D01*
X13099Y-2300D01*
X12900Y-2299D01*
X12717Y-2375D01*
X12576Y-2516D01*
X12500Y-2700D01*
X12500Y-2701D01*
X12500Y-2700D01*
X12424Y-2517D01*
X12283Y-2376D01*
X12099Y-2300D01*
X11900Y-2299D01*
X11717Y-2375D01*
X11576Y-2516D01*
X11500Y-2700D01*
X11499Y-2899D01*
X11575Y-3082D01*
X11716Y-3223D01*
X11900Y-3299D01*
X12099Y-3300D01*
X12282Y-3224D01*
X12423Y-3083D01*
X12499Y-2899D01*
X12500Y-2700D01*
X12500Y-2701D01*
X12499Y-2899D01*
X12575Y-3082D01*
X12716Y-3223D01*
X12900Y-3299D01*
X13099Y-3300D01*
X13282Y-3224D01*
X13423Y-3083D01*
X13499Y-2899D01*
X13500Y-2700D01*
X13500Y-9899D01*
X13420Y-9899D01*
X13273Y-9960D01*
X13161Y-10073D01*
X13100Y-10220D01*
X13099Y-10379D01*
X13160Y-10526D01*
X13273Y-10638D01*
X13420Y-10699D01*
X13579Y-10700D01*
X13726Y-10639D01*
X13838Y-10526D01*
X13899Y-10379D01*
X13900Y-10220D01*
X13900Y-31970D01*
X13839Y-31823D01*
X13726Y-31711D01*
X13579Y-31650D01*
X13420Y-31649D01*
X13273Y-31710D01*
X13161Y-31823D01*
X13150Y-31849D01*
X13150Y-22120D01*
X13089Y-21973D01*
X12976Y-21861D01*
X12829Y-21800D01*
X12670Y-21799D01*
X12523Y-21860D01*
X12411Y-21973D01*
X12350Y-22120D01*
X12349Y-22279D01*
X12410Y-22426D01*
X12523Y-22538D01*
X12670Y-22599D01*
X12829Y-22600D01*
X12976Y-22539D01*
X13088Y-22426D01*
X13149Y-22279D01*
X13150Y-22120D01*
X13150Y-31849D01*
X13100Y-31970D01*
X13099Y-32129D01*
X13160Y-32276D01*
X13273Y-32388D01*
X13420Y-32449D01*
X13579Y-32450D01*
X13726Y-32389D01*
X13838Y-32276D01*
X13899Y-32129D01*
X13900Y-31970D01*
X13900Y-34420D01*
X13839Y-34273D01*
X13726Y-34161D01*
X13579Y-34100D01*
X13420Y-34099D01*
X13273Y-34160D01*
X13161Y-34273D01*
X13100Y-34420D01*
X13099Y-34579D01*
X13160Y-34726D01*
X13273Y-34838D01*
X13420Y-34899D01*
X13579Y-34900D01*
X13726Y-34839D01*
X13838Y-34726D01*
X13899Y-34579D01*
X13900Y-34420D01*
X13900Y-36050D01*
X13717Y-36125D01*
X13576Y-36266D01*
X13500Y-36450D01*
X13500Y-36451D01*
X13500Y-36450D01*
X13424Y-36267D01*
X13283Y-36126D01*
X13099Y-36050D01*
X12900Y-36049D01*
X12717Y-36125D01*
X12576Y-36266D01*
X12500Y-36450D01*
X12500Y-36451D01*
X12500Y-36450D01*
X12424Y-36267D01*
X12283Y-36126D01*
X12099Y-36050D01*
X11950Y-36049D01*
X11950Y-10470D01*
X11889Y-10323D01*
X11776Y-10211D01*
X11629Y-10150D01*
X11477Y-10149D01*
X11477Y-2837D01*
X11455Y-2651D01*
X11426Y-2582D01*
X11357Y-2548D01*
X11251Y-2654D01*
X11251Y-2442D01*
X11217Y-2373D01*
X11037Y-2322D01*
X10851Y-2344D01*
X10782Y-2373D01*
X10748Y-2442D01*
X11000Y-2693D01*
X11251Y-2442D01*
X11251Y-2654D01*
X11106Y-2800D01*
X11357Y-3051D01*
X11426Y-3017D01*
X11477Y-2837D01*
X11477Y-10149D01*
X11470Y-10149D01*
X11323Y-10210D01*
X11251Y-10283D01*
X11251Y-3157D01*
X11000Y-2906D01*
X10893Y-3012D01*
X10893Y-2800D01*
X10642Y-2548D01*
X10573Y-2582D01*
X10522Y-2762D01*
X10544Y-2948D01*
X10573Y-3017D01*
X10642Y-3051D01*
X10893Y-2800D01*
X10893Y-3012D01*
X10748Y-3157D01*
X10782Y-3226D01*
X10962Y-3277D01*
X11148Y-3255D01*
X11217Y-3226D01*
X11251Y-3157D01*
X11251Y-10283D01*
X11211Y-10323D01*
X11150Y-10470D01*
X11149Y-10629D01*
X11210Y-10776D01*
X11323Y-10888D01*
X11470Y-10949D01*
X11629Y-10950D01*
X11776Y-10889D01*
X11888Y-10776D01*
X11949Y-10629D01*
X11950Y-10470D01*
X11950Y-36049D01*
X11900Y-36049D01*
X11850Y-36070D01*
X11850Y-11670D01*
X11789Y-11523D01*
X11676Y-11411D01*
X11529Y-11350D01*
X11370Y-11349D01*
X11223Y-11410D01*
X11111Y-11523D01*
X11100Y-11549D01*
X11100Y-7370D01*
X11039Y-7223D01*
X10926Y-7111D01*
X10779Y-7050D01*
X10620Y-7049D01*
X10500Y-7099D01*
X10500Y-2700D01*
X10424Y-2517D01*
X10283Y-2376D01*
X10099Y-2300D01*
X9900Y-2299D01*
X9717Y-2375D01*
X9576Y-2516D01*
X9500Y-2700D01*
X9500Y-2701D01*
X9500Y-2700D01*
X9424Y-2517D01*
X9283Y-2376D01*
X9099Y-2300D01*
X8900Y-2299D01*
X8717Y-2375D01*
X8576Y-2516D01*
X8500Y-2700D01*
X8499Y-2899D01*
X8575Y-3082D01*
X8716Y-3223D01*
X8900Y-3299D01*
X9099Y-3300D01*
X9282Y-3224D01*
X9423Y-3083D01*
X9499Y-2899D01*
X9500Y-2700D01*
X9500Y-2701D01*
X9499Y-2899D01*
X9575Y-3082D01*
X9716Y-3223D01*
X9900Y-3299D01*
X10099Y-3300D01*
X10282Y-3224D01*
X10423Y-3083D01*
X10499Y-2899D01*
X10500Y-2700D01*
X10500Y-7099D01*
X10473Y-7110D01*
X10361Y-7223D01*
X10300Y-7370D01*
X10299Y-7529D01*
X10329Y-7600D01*
X10170Y-7599D01*
X10023Y-7660D01*
X9911Y-7773D01*
X9850Y-7920D01*
X9849Y-8079D01*
X9910Y-8226D01*
X10023Y-8338D01*
X10170Y-8399D01*
X10329Y-8400D01*
X10476Y-8339D01*
X10588Y-8226D01*
X10649Y-8079D01*
X10650Y-7920D01*
X10620Y-7849D01*
X10779Y-7850D01*
X10926Y-7789D01*
X11038Y-7676D01*
X11099Y-7529D01*
X11100Y-7370D01*
X11100Y-11549D01*
X11050Y-11670D01*
X11049Y-11829D01*
X11110Y-11976D01*
X11223Y-12088D01*
X11370Y-12149D01*
X11529Y-12150D01*
X11676Y-12089D01*
X11788Y-11976D01*
X11849Y-11829D01*
X11850Y-11670D01*
X11850Y-36070D01*
X11800Y-36091D01*
X11800Y-21120D01*
X11739Y-20973D01*
X11626Y-20861D01*
X11479Y-20800D01*
X11320Y-20799D01*
X11173Y-20860D01*
X11061Y-20973D01*
X11000Y-21120D01*
X10999Y-21279D01*
X11060Y-21426D01*
X11173Y-21538D01*
X11320Y-21599D01*
X11479Y-21600D01*
X11626Y-21539D01*
X11738Y-21426D01*
X11799Y-21279D01*
X11800Y-21120D01*
X11800Y-36091D01*
X11717Y-36125D01*
X11600Y-36242D01*
X11600Y-34970D01*
X11600Y-31370D01*
X11539Y-31223D01*
X11426Y-31111D01*
X11279Y-31050D01*
X11120Y-31049D01*
X10973Y-31110D01*
X10861Y-31223D01*
X10800Y-31370D01*
X10799Y-31529D01*
X10860Y-31676D01*
X10973Y-31788D01*
X11120Y-31849D01*
X11279Y-31850D01*
X11426Y-31789D01*
X11538Y-31676D01*
X11599Y-31529D01*
X11600Y-31370D01*
X11600Y-34970D01*
X11539Y-34823D01*
X11426Y-34711D01*
X11279Y-34650D01*
X11120Y-34649D01*
X10973Y-34710D01*
X10861Y-34823D01*
X10800Y-34970D01*
X10799Y-35129D01*
X10860Y-35276D01*
X10973Y-35388D01*
X11120Y-35449D01*
X11279Y-35450D01*
X11426Y-35389D01*
X11538Y-35276D01*
X11599Y-35129D01*
X11600Y-34970D01*
X11600Y-36242D01*
X11576Y-36266D01*
X11500Y-36450D01*
X11500Y-36451D01*
X11500Y-36450D01*
X11424Y-36267D01*
X11283Y-36126D01*
X11099Y-36050D01*
X10900Y-36049D01*
X10717Y-36125D01*
X10576Y-36266D01*
X10500Y-36450D01*
X10500Y-36451D01*
X10500Y-36450D01*
X10424Y-36267D01*
X10283Y-36126D01*
X10150Y-36070D01*
X10150Y-21470D01*
X10089Y-21323D01*
X10000Y-21234D01*
X10000Y-8770D01*
X9939Y-8623D01*
X9826Y-8511D01*
X9679Y-8450D01*
X9520Y-8449D01*
X9373Y-8510D01*
X9261Y-8623D01*
X9200Y-8770D01*
X9199Y-8929D01*
X9260Y-9076D01*
X9373Y-9188D01*
X9520Y-9249D01*
X9679Y-9250D01*
X9826Y-9189D01*
X9938Y-9076D01*
X9999Y-8929D01*
X10000Y-8770D01*
X10000Y-21234D01*
X9976Y-21211D01*
X9829Y-21150D01*
X9670Y-21149D01*
X9523Y-21210D01*
X9411Y-21323D01*
X9350Y-21470D01*
X9349Y-21629D01*
X9410Y-21776D01*
X9523Y-21888D01*
X9670Y-21949D01*
X9829Y-21950D01*
X9976Y-21889D01*
X10088Y-21776D01*
X10149Y-21629D01*
X10150Y-21470D01*
X10150Y-36070D01*
X10099Y-36050D01*
X9900Y-36049D01*
X9717Y-36125D01*
X9650Y-36192D01*
X9650Y-31220D01*
X9589Y-31073D01*
X9500Y-30984D01*
X9500Y-22070D01*
X9439Y-21923D01*
X9326Y-21811D01*
X9179Y-21750D01*
X9020Y-21749D01*
X8900Y-21799D01*
X8900Y-8170D01*
X8839Y-8023D01*
X8726Y-7911D01*
X8579Y-7850D01*
X8477Y-7849D01*
X8477Y-2837D01*
X8455Y-2651D01*
X8426Y-2582D01*
X8357Y-2548D01*
X8251Y-2654D01*
X8251Y-2442D01*
X8217Y-2373D01*
X8037Y-2322D01*
X7851Y-2344D01*
X7782Y-2373D01*
X7748Y-2442D01*
X8000Y-2693D01*
X8251Y-2442D01*
X8251Y-2654D01*
X8106Y-2800D01*
X8357Y-3051D01*
X8426Y-3017D01*
X8477Y-2837D01*
X8477Y-7849D01*
X8420Y-7849D01*
X8273Y-7910D01*
X8251Y-7933D01*
X8251Y-3157D01*
X8000Y-2906D01*
X7893Y-3012D01*
X7893Y-2800D01*
X7642Y-2548D01*
X7573Y-2582D01*
X7522Y-2762D01*
X7544Y-2948D01*
X7573Y-3017D01*
X7642Y-3051D01*
X7893Y-2800D01*
X7893Y-3012D01*
X7748Y-3157D01*
X7782Y-3226D01*
X7962Y-3277D01*
X8148Y-3255D01*
X8217Y-3226D01*
X8251Y-3157D01*
X8251Y-7933D01*
X8161Y-8023D01*
X8100Y-8170D01*
X8099Y-8329D01*
X8160Y-8476D01*
X8273Y-8588D01*
X8420Y-8649D01*
X8579Y-8650D01*
X8726Y-8589D01*
X8838Y-8476D01*
X8899Y-8329D01*
X8900Y-8170D01*
X8900Y-21799D01*
X8873Y-21810D01*
X8761Y-21923D01*
X8700Y-22070D01*
X8699Y-22229D01*
X8760Y-22376D01*
X8873Y-22488D01*
X9020Y-22549D01*
X9179Y-22550D01*
X9326Y-22489D01*
X9438Y-22376D01*
X9499Y-22229D01*
X9500Y-22070D01*
X9500Y-30984D01*
X9476Y-30961D01*
X9329Y-30900D01*
X9170Y-30899D01*
X9023Y-30960D01*
X9000Y-30984D01*
X9000Y-30670D01*
X8939Y-30523D01*
X8826Y-30411D01*
X8800Y-30399D01*
X8800Y-26320D01*
X8739Y-26173D01*
X8626Y-26061D01*
X8479Y-26000D01*
X8320Y-25999D01*
X8173Y-26060D01*
X8100Y-26134D01*
X8100Y-11170D01*
X8039Y-11023D01*
X7926Y-10911D01*
X7779Y-10850D01*
X7620Y-10849D01*
X7500Y-10899D01*
X7500Y-2700D01*
X7424Y-2517D01*
X7283Y-2376D01*
X7099Y-2300D01*
X6900Y-2299D01*
X6717Y-2375D01*
X6576Y-2516D01*
X6500Y-2700D01*
X6500Y-2760D01*
X6500Y-2460D01*
X6469Y-2386D01*
X6413Y-2330D01*
X6339Y-2300D01*
X6260Y-2299D01*
X5660Y-2299D01*
X5586Y-2330D01*
X5530Y-2386D01*
X5500Y-2460D01*
X5499Y-2539D01*
X5499Y-3139D01*
X5530Y-3213D01*
X5586Y-3269D01*
X5660Y-3299D01*
X5739Y-3300D01*
X6339Y-3300D01*
X6413Y-3269D01*
X6469Y-3213D01*
X6499Y-3139D01*
X6500Y-3060D01*
X6500Y-2899D01*
X6575Y-3082D01*
X6716Y-3223D01*
X6900Y-3299D01*
X7099Y-3300D01*
X7282Y-3224D01*
X7423Y-3083D01*
X7499Y-2899D01*
X7500Y-2700D01*
X7500Y-10899D01*
X7473Y-10910D01*
X7361Y-11023D01*
X7300Y-11170D01*
X7299Y-11329D01*
X7360Y-11476D01*
X7473Y-11588D01*
X7620Y-11649D01*
X7779Y-11650D01*
X7926Y-11589D01*
X8038Y-11476D01*
X8099Y-11329D01*
X8100Y-11170D01*
X8100Y-26134D01*
X8061Y-26173D01*
X8000Y-26320D01*
X7999Y-26479D01*
X8060Y-26626D01*
X8173Y-26738D01*
X8320Y-26799D01*
X8479Y-26800D01*
X8626Y-26739D01*
X8738Y-26626D01*
X8799Y-26479D01*
X8800Y-26320D01*
X8800Y-30399D01*
X8679Y-30350D01*
X8520Y-30349D01*
X8373Y-30410D01*
X8300Y-30484D01*
X8300Y-26970D01*
X8239Y-26823D01*
X8126Y-26711D01*
X7979Y-26650D01*
X7820Y-26649D01*
X7673Y-26710D01*
X7561Y-26823D01*
X7500Y-26970D01*
X7499Y-27129D01*
X7560Y-27276D01*
X7673Y-27388D01*
X7820Y-27449D01*
X7979Y-27450D01*
X8126Y-27389D01*
X8238Y-27276D01*
X8299Y-27129D01*
X8300Y-26970D01*
X8300Y-30484D01*
X8261Y-30523D01*
X8200Y-30670D01*
X8199Y-30829D01*
X8260Y-30976D01*
X8373Y-31088D01*
X8520Y-31149D01*
X8679Y-31150D01*
X8826Y-31089D01*
X8938Y-30976D01*
X8999Y-30829D01*
X9000Y-30670D01*
X9000Y-30984D01*
X8911Y-31073D01*
X8850Y-31220D01*
X8849Y-31379D01*
X8910Y-31526D01*
X9023Y-31638D01*
X9170Y-31699D01*
X9329Y-31700D01*
X9476Y-31639D01*
X9588Y-31526D01*
X9649Y-31379D01*
X9650Y-31220D01*
X9650Y-36192D01*
X9576Y-36266D01*
X9500Y-36450D01*
X9500Y-36451D01*
X9500Y-36450D01*
X9424Y-36267D01*
X9283Y-36126D01*
X9099Y-36050D01*
X8900Y-36049D01*
X8717Y-36125D01*
X8576Y-36266D01*
X8500Y-36450D01*
X8500Y-36451D01*
X8500Y-36450D01*
X8424Y-36267D01*
X8283Y-36126D01*
X8099Y-36050D01*
X7900Y-36049D01*
X7717Y-36125D01*
X7576Y-36266D01*
X7500Y-36450D01*
X7500Y-36451D01*
X7500Y-36450D01*
X7424Y-36267D01*
X7283Y-36126D01*
X7099Y-36050D01*
X6900Y-36049D01*
X6750Y-36112D01*
X6750Y-32570D01*
X6689Y-32423D01*
X6600Y-32334D01*
X6600Y-12670D01*
X6600Y-11370D01*
X6539Y-11223D01*
X6426Y-11111D01*
X6279Y-11050D01*
X6120Y-11049D01*
X5973Y-11110D01*
X5861Y-11223D01*
X5800Y-11370D01*
X5799Y-11529D01*
X5860Y-11676D01*
X5973Y-11788D01*
X6120Y-11849D01*
X6279Y-11850D01*
X6426Y-11789D01*
X6538Y-11676D01*
X6599Y-11529D01*
X6600Y-11370D01*
X6600Y-12670D01*
X6539Y-12523D01*
X6426Y-12411D01*
X6279Y-12350D01*
X6120Y-12349D01*
X5973Y-12410D01*
X5861Y-12523D01*
X5800Y-12670D01*
X5799Y-12829D01*
X5860Y-12976D01*
X5973Y-13088D01*
X6120Y-13149D01*
X6279Y-13150D01*
X6426Y-13089D01*
X6538Y-12976D01*
X6599Y-12829D01*
X6600Y-12670D01*
X6600Y-32334D01*
X6576Y-32311D01*
X6429Y-32250D01*
X6270Y-32249D01*
X6150Y-32299D01*
X6150Y-22120D01*
X6089Y-21973D01*
X5976Y-21861D01*
X5829Y-21800D01*
X5670Y-21799D01*
X5523Y-21860D01*
X5411Y-21973D01*
X5350Y-22120D01*
X5349Y-22279D01*
X5410Y-22426D01*
X5523Y-22538D01*
X5670Y-22599D01*
X5829Y-22600D01*
X5976Y-22539D01*
X6088Y-22426D01*
X6149Y-22279D01*
X6150Y-22120D01*
X6150Y-32299D01*
X6123Y-32310D01*
X6011Y-32423D01*
X5950Y-32570D01*
X5949Y-32729D01*
X6010Y-32876D01*
X6123Y-32988D01*
X6270Y-33049D01*
X6429Y-33050D01*
X6576Y-32989D01*
X6688Y-32876D01*
X6749Y-32729D01*
X6750Y-32570D01*
X6750Y-36112D01*
X6717Y-36125D01*
X6576Y-36266D01*
X6500Y-36450D01*
X6500Y-36510D01*
X6500Y-36210D01*
X6469Y-36136D01*
X6413Y-36080D01*
X6339Y-36050D01*
X6260Y-36049D01*
X5800Y-36049D01*
X5800Y-32770D01*
X5739Y-32623D01*
X5626Y-32511D01*
X5479Y-32450D01*
X5450Y-32450D01*
X5450Y-27620D01*
X5389Y-27473D01*
X5276Y-27361D01*
X5129Y-27300D01*
X4970Y-27299D01*
X4823Y-27360D01*
X4800Y-27384D01*
X4800Y-21170D01*
X4739Y-21023D01*
X4626Y-20911D01*
X4479Y-20850D01*
X4320Y-20849D01*
X4173Y-20910D01*
X4061Y-21023D01*
X4000Y-21170D01*
X3999Y-21329D01*
X4060Y-21476D01*
X4173Y-21588D01*
X4320Y-21649D01*
X4479Y-21650D01*
X4626Y-21589D01*
X4738Y-21476D01*
X4799Y-21329D01*
X4800Y-21170D01*
X4800Y-27384D01*
X4711Y-27473D01*
X4650Y-27620D01*
X4649Y-27779D01*
X4710Y-27926D01*
X4823Y-28038D01*
X4970Y-28099D01*
X5129Y-28100D01*
X5276Y-28039D01*
X5388Y-27926D01*
X5449Y-27779D01*
X5450Y-27620D01*
X5450Y-32450D01*
X5320Y-32449D01*
X5173Y-32510D01*
X5061Y-32623D01*
X5000Y-32770D01*
X4999Y-32929D01*
X5060Y-33076D01*
X5173Y-33188D01*
X5320Y-33249D01*
X5479Y-33250D01*
X5626Y-33189D01*
X5738Y-33076D01*
X5799Y-32929D01*
X5800Y-32770D01*
X5800Y-36049D01*
X5660Y-36049D01*
X5586Y-36080D01*
X5530Y-36136D01*
X5500Y-36210D01*
X5499Y-36289D01*
X5499Y-36889D01*
X5530Y-36963D01*
X5586Y-37019D01*
X5660Y-37049D01*
X5739Y-37050D01*
X6339Y-37050D01*
X6413Y-37019D01*
X6469Y-36963D01*
X6499Y-36889D01*
X6500Y-36810D01*
X6500Y-36649D01*
X6575Y-36832D01*
X6716Y-36973D01*
X6900Y-37049D01*
X7099Y-37050D01*
X7282Y-36974D01*
X7423Y-36833D01*
X7499Y-36649D01*
X7500Y-36450D01*
X7500Y-36451D01*
X7499Y-36649D01*
X7575Y-36832D01*
X7716Y-36973D01*
X7900Y-37049D01*
X8099Y-37050D01*
X8282Y-36974D01*
X8423Y-36833D01*
X8499Y-36649D01*
X8500Y-36450D01*
X8500Y-36451D01*
X8499Y-36649D01*
X8575Y-36832D01*
X8716Y-36973D01*
X8900Y-37049D01*
X9099Y-37050D01*
X9282Y-36974D01*
X9423Y-36833D01*
X9499Y-36649D01*
X9500Y-36450D01*
X9500Y-36451D01*
X9499Y-36649D01*
X9575Y-36832D01*
X9716Y-36973D01*
X9900Y-37049D01*
X10099Y-37050D01*
X10282Y-36974D01*
X10423Y-36833D01*
X10499Y-36649D01*
X10500Y-36450D01*
X10500Y-36451D01*
X10499Y-36649D01*
X10575Y-36832D01*
X10716Y-36973D01*
X10900Y-37049D01*
X11099Y-37050D01*
X11282Y-36974D01*
X11423Y-36833D01*
X11499Y-36649D01*
X11500Y-36450D01*
X11500Y-36451D01*
X11499Y-36649D01*
X11575Y-36832D01*
X11716Y-36973D01*
X11900Y-37049D01*
X12099Y-37050D01*
X12282Y-36974D01*
X12423Y-36833D01*
X12499Y-36649D01*
X12500Y-36450D01*
X12500Y-36451D01*
X12499Y-36649D01*
X12575Y-36832D01*
X12716Y-36973D01*
X12900Y-37049D01*
X13099Y-37050D01*
X13282Y-36974D01*
X13423Y-36833D01*
X13499Y-36649D01*
X13500Y-36450D01*
X13500Y-36451D01*
X13499Y-36649D01*
X13575Y-36832D01*
X13716Y-36973D01*
X13900Y-37049D01*
X14099Y-37050D01*
X14282Y-36974D01*
X14423Y-36833D01*
X14499Y-36649D01*
X14500Y-36450D01*
X14500Y-37450D01*
X14424Y-37267D01*
X14283Y-37126D01*
X14099Y-37050D01*
X13900Y-37049D01*
X13717Y-37125D01*
X13576Y-37266D01*
X13500Y-37450D01*
X13500Y-37451D01*
X13500Y-37450D01*
X13424Y-37267D01*
X13283Y-37126D01*
X13099Y-37050D01*
X12900Y-37049D01*
X12717Y-37125D01*
X12576Y-37266D01*
X12500Y-37450D01*
X12500Y-37451D01*
X12500Y-37450D01*
X12424Y-37267D01*
X12283Y-37126D01*
X12099Y-37050D01*
X11900Y-37049D01*
X11717Y-37125D01*
X11576Y-37266D01*
X11500Y-37450D01*
X11500Y-37451D01*
X11500Y-37450D01*
X11424Y-37267D01*
X11283Y-37126D01*
X11099Y-37050D01*
X10900Y-37049D01*
X10717Y-37125D01*
X10576Y-37266D01*
X10500Y-37450D01*
X10500Y-37451D01*
X10500Y-37450D01*
X10424Y-37267D01*
X10283Y-37126D01*
X10099Y-37050D01*
X9900Y-37049D01*
X9717Y-37125D01*
X9576Y-37266D01*
X9500Y-37450D01*
X9500Y-37451D01*
X9500Y-37450D01*
X9424Y-37267D01*
X9283Y-37126D01*
X9099Y-37050D01*
X8900Y-37049D01*
X8717Y-37125D01*
X8576Y-37266D01*
X8500Y-37450D01*
X8500Y-37451D01*
X8500Y-37450D01*
X8424Y-37267D01*
X8283Y-37126D01*
X8099Y-37050D01*
X7900Y-37049D01*
X7717Y-37125D01*
X7576Y-37266D01*
X7500Y-37450D01*
X7500Y-37451D01*
X7500Y-37450D01*
X7424Y-37267D01*
X7283Y-37126D01*
X7099Y-37050D01*
X6900Y-37049D01*
X6717Y-37125D01*
X6576Y-37266D01*
X6500Y-37450D01*
X6499Y-37649D01*
X6575Y-37832D01*
X6716Y-37973D01*
X6900Y-38049D01*
X7099Y-38050D01*
X7282Y-37974D01*
X7423Y-37833D01*
X7499Y-37649D01*
X7500Y-37450D01*
X7500Y-37451D01*
X7499Y-37649D01*
X7575Y-37832D01*
X7716Y-37973D01*
X7900Y-38049D01*
X8099Y-38050D01*
X8282Y-37974D01*
X8423Y-37833D01*
X8499Y-37649D01*
X8500Y-37450D01*
X8500Y-37451D01*
X8499Y-37649D01*
X8575Y-37832D01*
X8716Y-37973D01*
X8900Y-38049D01*
X9099Y-38050D01*
X9282Y-37974D01*
X9423Y-37833D01*
X9499Y-37649D01*
X9500Y-37450D01*
X9500Y-37451D01*
X9499Y-37649D01*
X9575Y-37832D01*
X9716Y-37973D01*
X9900Y-38049D01*
X10099Y-38050D01*
X10282Y-37974D01*
X10423Y-37833D01*
X10499Y-37649D01*
X10500Y-37450D01*
X10500Y-37451D01*
X10499Y-37649D01*
X10575Y-37832D01*
X10716Y-37973D01*
X10900Y-38049D01*
X11099Y-38050D01*
X11282Y-37974D01*
X11423Y-37833D01*
X11499Y-37649D01*
X11500Y-37450D01*
X11500Y-37451D01*
X11499Y-37649D01*
X11575Y-37832D01*
X11716Y-37973D01*
X11900Y-38049D01*
X12099Y-38050D01*
X12282Y-37974D01*
X12423Y-37833D01*
X12499Y-37649D01*
X12500Y-37450D01*
X12500Y-37451D01*
X12499Y-37649D01*
X12575Y-37832D01*
X12716Y-37973D01*
X12900Y-38049D01*
X13099Y-38050D01*
X13282Y-37974D01*
X13423Y-37833D01*
X13499Y-37649D01*
X13500Y-37450D01*
X13500Y-37451D01*
X13499Y-37649D01*
X13575Y-37832D01*
X13716Y-37973D01*
X13900Y-38049D01*
X14099Y-38050D01*
X14282Y-37974D01*
X14423Y-37833D01*
X14499Y-37649D01*
X14500Y-37450D01*
X14500Y-38800D01*
X6470Y-38800D01*
X6470Y-37816D01*
X6470Y-37283D01*
X6469Y-37216D01*
X6444Y-37153D01*
X6396Y-37105D01*
X6333Y-37079D01*
X6117Y-37080D01*
X6075Y-37122D01*
X6075Y-37475D01*
X6427Y-37475D01*
X6470Y-37432D01*
X6470Y-37283D01*
X6470Y-37816D01*
X6470Y-37667D01*
X6427Y-37625D01*
X6075Y-37625D01*
X6075Y-37977D01*
X6117Y-38020D01*
X6333Y-38020D01*
X6396Y-37994D01*
X6444Y-37946D01*
X6469Y-37883D01*
X6470Y-37816D01*
X6470Y-38800D01*
X5925Y-38800D01*
X5925Y-37977D01*
X5925Y-37625D01*
X5925Y-37475D01*
X5925Y-37122D01*
X5882Y-37080D01*
X5666Y-37079D01*
X5603Y-37105D01*
X5555Y-37153D01*
X5530Y-37216D01*
X5529Y-37283D01*
X5530Y-37432D01*
X5572Y-37475D01*
X5925Y-37475D01*
X5925Y-37625D01*
X5572Y-37625D01*
X5530Y-37667D01*
X5529Y-37816D01*
X5530Y-37883D01*
X5555Y-37946D01*
X5603Y-37994D01*
X5666Y-38020D01*
X5882Y-38020D01*
X5925Y-37977D01*
X5925Y-38800D01*
X5250Y-38800D01*
X5250Y-33420D01*
X5189Y-33273D01*
X5076Y-33161D01*
X4929Y-33100D01*
X4800Y-33099D01*
X4800Y-28170D01*
X4739Y-28023D01*
X4626Y-27911D01*
X4479Y-27850D01*
X4320Y-27849D01*
X4173Y-27910D01*
X4061Y-28023D01*
X4000Y-28170D01*
X3999Y-28329D01*
X4060Y-28476D01*
X4173Y-28588D01*
X4320Y-28649D01*
X4479Y-28650D01*
X4626Y-28589D01*
X4738Y-28476D01*
X4799Y-28329D01*
X4800Y-28170D01*
X4800Y-33099D01*
X4770Y-33099D01*
X4623Y-33160D01*
X4511Y-33273D01*
X4450Y-33420D01*
X4449Y-33579D01*
X4510Y-33726D01*
X4623Y-33838D01*
X4770Y-33899D01*
X4929Y-33900D01*
X5076Y-33839D01*
X5188Y-33726D01*
X5249Y-33579D01*
X5250Y-33420D01*
X5250Y-38800D01*
X3200Y-38800D01*
X3200Y-11770D01*
X3139Y-11623D01*
X3026Y-11511D01*
X2879Y-11450D01*
X2720Y-11449D01*
X2573Y-11510D01*
X2461Y-11623D01*
X2400Y-11770D01*
X2399Y-11929D01*
X2460Y-12076D01*
X2573Y-12188D01*
X2720Y-12249D01*
X2879Y-12250D01*
X3026Y-12189D01*
X3138Y-12076D01*
X3199Y-11929D01*
X3200Y-11770D01*
X3200Y-38800D01*
X3150Y-38800D01*
X3150Y-23320D01*
X3089Y-23173D01*
X2976Y-23061D01*
X2829Y-23000D01*
X2670Y-22999D01*
X2523Y-23060D01*
X2500Y-23084D01*
X2500Y-22820D01*
X2439Y-22673D01*
X2326Y-22561D01*
X2179Y-22500D01*
X2020Y-22499D01*
X1873Y-22560D01*
X1761Y-22673D01*
X1700Y-22820D01*
X1699Y-22979D01*
X1760Y-23126D01*
X1873Y-23238D01*
X2020Y-23299D01*
X2179Y-23300D01*
X2326Y-23239D01*
X2438Y-23126D01*
X2499Y-22979D01*
X2500Y-22820D01*
X2500Y-23084D01*
X2411Y-23173D01*
X2350Y-23320D01*
X2349Y-23479D01*
X2410Y-23626D01*
X2523Y-23738D01*
X2670Y-23799D01*
X2829Y-23800D01*
X2976Y-23739D01*
X3088Y-23626D01*
X3149Y-23479D01*
X3150Y-23320D01*
X3150Y-38800D01*
X854Y-38800D01*
X735Y-38776D01*
X638Y-38711D01*
X573Y-38614D01*
X550Y-38495D01*
X550Y-854D01*
X573Y-735D01*
X638Y-638D01*
X735Y-573D01*
X854Y-550D01*
X56145Y-550D01*
X56264Y-573D01*
X56361Y-638D01*
X56426Y-735D01*
X56450Y-854D01*
X56450Y-26795D01*
X56450Y-26795D01*
G37*
G54D16*
X56450Y-26795D02*
X56426Y-26914D01*
X56361Y-27011D01*
X56305Y-27048D01*
X56305Y-23861D01*
X56264Y-23429D01*
X56179Y-23224D01*
X56050Y-23111D01*
X56050Y-23112D01*
X56050Y-19370D01*
X56000Y-19249D01*
X56000Y-16870D01*
X55939Y-16723D01*
X55900Y-16684D01*
X55900Y-9320D01*
X55839Y-9173D01*
X55726Y-9061D01*
X55639Y-9024D01*
X55726Y-8989D01*
X55838Y-8876D01*
X55899Y-8729D01*
X55900Y-8570D01*
X55839Y-8423D01*
X55726Y-8311D01*
X55579Y-8250D01*
X55420Y-8249D01*
X55273Y-8310D01*
X55161Y-8423D01*
X55124Y-8510D01*
X55089Y-8423D01*
X54976Y-8311D01*
X54829Y-8250D01*
X54670Y-8249D01*
X54523Y-8310D01*
X54411Y-8423D01*
X54374Y-8510D01*
X54339Y-8423D01*
X54226Y-8311D01*
X54079Y-8250D01*
X53920Y-8249D01*
X53773Y-8310D01*
X53661Y-8423D01*
X53600Y-8570D01*
X53599Y-8729D01*
X53660Y-8876D01*
X53773Y-8988D01*
X53860Y-9025D01*
X53773Y-9060D01*
X53661Y-9173D01*
X53600Y-9320D01*
X53599Y-9479D01*
X53660Y-9626D01*
X53773Y-9738D01*
X53920Y-9799D01*
X54079Y-9800D01*
X54226Y-9739D01*
X54338Y-9626D01*
X54375Y-9539D01*
X54410Y-9626D01*
X54523Y-9738D01*
X54670Y-9799D01*
X54829Y-9800D01*
X54976Y-9739D01*
X55088Y-9626D01*
X55125Y-9539D01*
X55160Y-9626D01*
X55273Y-9738D01*
X55420Y-9799D01*
X55579Y-9800D01*
X55726Y-9739D01*
X55838Y-9626D01*
X55899Y-9479D01*
X55900Y-9320D01*
X55900Y-16684D01*
X55826Y-16611D01*
X55679Y-16550D01*
X55520Y-16549D01*
X55373Y-16610D01*
X55261Y-16723D01*
X55200Y-16870D01*
X55199Y-17029D01*
X55260Y-17176D01*
X55373Y-17288D01*
X55520Y-17349D01*
X55679Y-17350D01*
X55826Y-17289D01*
X55938Y-17176D01*
X55999Y-17029D01*
X56000Y-16870D01*
X56000Y-19249D01*
X55989Y-19223D01*
X55876Y-19111D01*
X55729Y-19050D01*
X55570Y-19049D01*
X55423Y-19110D01*
X55311Y-19223D01*
X55250Y-19370D01*
X55249Y-19529D01*
X55310Y-19676D01*
X55423Y-19788D01*
X55570Y-19849D01*
X55729Y-19850D01*
X55876Y-19789D01*
X55988Y-19676D01*
X56049Y-19529D01*
X56050Y-19370D01*
X56050Y-23112D01*
X55838Y-23323D01*
X55838Y-22899D01*
X55725Y-22770D01*
X55311Y-22644D01*
X54879Y-22685D01*
X54674Y-22770D01*
X54561Y-22899D01*
X55200Y-23537D01*
X55838Y-22899D01*
X55838Y-23323D01*
X55412Y-23750D01*
X56050Y-24388D01*
X56179Y-24275D01*
X56305Y-23861D01*
X56305Y-27048D01*
X56264Y-27076D01*
X56145Y-27100D01*
X55838Y-27100D01*
X55838Y-24600D01*
X55200Y-23962D01*
X54987Y-24174D01*
X54987Y-23750D01*
X54349Y-23111D01*
X54220Y-23224D01*
X54094Y-23638D01*
X54135Y-24070D01*
X54220Y-24275D01*
X54349Y-24388D01*
X54987Y-23750D01*
X54987Y-24174D01*
X54561Y-24600D01*
X54674Y-24729D01*
X55088Y-24855D01*
X55520Y-24814D01*
X55725Y-24729D01*
X55838Y-24600D01*
X55838Y-27100D01*
X55005Y-27100D01*
X55005Y-25761D01*
X54964Y-25329D01*
X54879Y-25124D01*
X54750Y-25011D01*
X54538Y-25223D01*
X54538Y-24799D01*
X54425Y-24670D01*
X54011Y-24544D01*
X53950Y-24550D01*
X53950Y-19370D01*
X53889Y-19223D01*
X53850Y-19184D01*
X53850Y-16970D01*
X53789Y-16823D01*
X53676Y-16711D01*
X53529Y-16650D01*
X53450Y-16649D01*
X53450Y-15570D01*
X53389Y-15423D01*
X53350Y-15384D01*
X53350Y-13720D01*
X53289Y-13573D01*
X53176Y-13461D01*
X53029Y-13400D01*
X52870Y-13399D01*
X52723Y-13460D01*
X52611Y-13573D01*
X52550Y-13720D01*
X52549Y-13879D01*
X52610Y-14026D01*
X52723Y-14138D01*
X52870Y-14199D01*
X53029Y-14200D01*
X53176Y-14139D01*
X53288Y-14026D01*
X53349Y-13879D01*
X53350Y-13720D01*
X53350Y-15384D01*
X53276Y-15311D01*
X53129Y-15250D01*
X52970Y-15249D01*
X52823Y-15310D01*
X52711Y-15423D01*
X52650Y-15570D01*
X52649Y-15729D01*
X52710Y-15876D01*
X52823Y-15988D01*
X52970Y-16049D01*
X53129Y-16050D01*
X53276Y-15989D01*
X53388Y-15876D01*
X53449Y-15729D01*
X53450Y-15570D01*
X53450Y-16649D01*
X53370Y-16649D01*
X53223Y-16710D01*
X53111Y-16823D01*
X53050Y-16970D01*
X53049Y-17129D01*
X53110Y-17276D01*
X53223Y-17388D01*
X53370Y-17449D01*
X53529Y-17450D01*
X53676Y-17389D01*
X53788Y-17276D01*
X53849Y-17129D01*
X53850Y-16970D01*
X53850Y-19184D01*
X53776Y-19111D01*
X53629Y-19050D01*
X53470Y-19049D01*
X53323Y-19110D01*
X53211Y-19223D01*
X53150Y-19370D01*
X53149Y-19529D01*
X53210Y-19676D01*
X53323Y-19788D01*
X53470Y-19849D01*
X53629Y-19850D01*
X53776Y-19789D01*
X53888Y-19676D01*
X53949Y-19529D01*
X53950Y-19370D01*
X53950Y-24550D01*
X53579Y-24585D01*
X53548Y-24598D01*
X53716Y-24430D01*
X53899Y-23989D01*
X53900Y-23512D01*
X53717Y-23071D01*
X53600Y-22953D01*
X53600Y-20370D01*
X53539Y-20223D01*
X53426Y-20111D01*
X53279Y-20050D01*
X53120Y-20049D01*
X52973Y-20110D01*
X52861Y-20223D01*
X52800Y-20370D01*
X52799Y-20529D01*
X52860Y-20676D01*
X52973Y-20788D01*
X53120Y-20849D01*
X53279Y-20850D01*
X53426Y-20789D01*
X53538Y-20676D01*
X53599Y-20529D01*
X53600Y-20370D01*
X53600Y-22953D01*
X53380Y-22733D01*
X52939Y-22550D01*
X52600Y-22549D01*
X52600Y-20820D01*
X52539Y-20673D01*
X52426Y-20561D01*
X52279Y-20500D01*
X52120Y-20499D01*
X51973Y-20560D01*
X51861Y-20673D01*
X51800Y-20820D01*
X51799Y-20979D01*
X51860Y-21126D01*
X51973Y-21238D01*
X52120Y-21299D01*
X52279Y-21300D01*
X52426Y-21239D01*
X52538Y-21126D01*
X52599Y-20979D01*
X52600Y-20820D01*
X52600Y-22549D01*
X52462Y-22549D01*
X52021Y-22732D01*
X51683Y-23069D01*
X51650Y-23149D01*
X51650Y-9470D01*
X51589Y-9323D01*
X51476Y-9211D01*
X51329Y-9150D01*
X51170Y-9149D01*
X51023Y-9210D01*
X50911Y-9323D01*
X50850Y-9470D01*
X50849Y-9629D01*
X50910Y-9776D01*
X51023Y-9888D01*
X51170Y-9949D01*
X51329Y-9950D01*
X51476Y-9889D01*
X51588Y-9776D01*
X51649Y-9629D01*
X51650Y-9470D01*
X51650Y-23149D01*
X51500Y-23510D01*
X51499Y-23987D01*
X51682Y-24428D01*
X52019Y-24766D01*
X52460Y-24949D01*
X52937Y-24950D01*
X53094Y-24885D01*
X53008Y-24970D01*
X53049Y-25011D01*
X52920Y-25124D01*
X52794Y-25538D01*
X52835Y-25970D01*
X52920Y-26175D01*
X53049Y-26288D01*
X53687Y-25650D01*
X53682Y-25644D01*
X53894Y-25432D01*
X53900Y-25437D01*
X54538Y-24799D01*
X54538Y-25223D01*
X54112Y-25650D01*
X54750Y-26288D01*
X54879Y-26175D01*
X55005Y-25761D01*
X55005Y-27100D01*
X54538Y-27100D01*
X54538Y-26500D01*
X53900Y-25862D01*
X53687Y-26074D01*
X53261Y-26500D01*
X53374Y-26629D01*
X53788Y-26755D01*
X54220Y-26714D01*
X54425Y-26629D01*
X54538Y-26500D01*
X54538Y-27100D01*
X51400Y-27100D01*
X51400Y-21720D01*
X51400Y-20470D01*
X51350Y-20349D01*
X51350Y-16920D01*
X51289Y-16773D01*
X51176Y-16661D01*
X51029Y-16600D01*
X50870Y-16599D01*
X50750Y-16649D01*
X50750Y-13720D01*
X50689Y-13573D01*
X50576Y-13461D01*
X50429Y-13400D01*
X50270Y-13399D01*
X50123Y-13460D01*
X50011Y-13573D01*
X49950Y-13720D01*
X49949Y-13879D01*
X50010Y-14026D01*
X50123Y-14138D01*
X50270Y-14199D01*
X50429Y-14200D01*
X50576Y-14139D01*
X50688Y-14026D01*
X50749Y-13879D01*
X50750Y-13720D01*
X50750Y-16649D01*
X50723Y-16660D01*
X50611Y-16773D01*
X50550Y-16920D01*
X50549Y-17079D01*
X50610Y-17226D01*
X50723Y-17338D01*
X50870Y-17399D01*
X51029Y-17400D01*
X51176Y-17339D01*
X51288Y-17226D01*
X51349Y-17079D01*
X51350Y-16920D01*
X51350Y-20349D01*
X51339Y-20323D01*
X51300Y-20284D01*
X51300Y-19320D01*
X51239Y-19173D01*
X51126Y-19061D01*
X50979Y-19000D01*
X50820Y-18999D01*
X50673Y-19060D01*
X50561Y-19173D01*
X50500Y-19320D01*
X50499Y-19479D01*
X50560Y-19626D01*
X50673Y-19738D01*
X50820Y-19799D01*
X50979Y-19800D01*
X51126Y-19739D01*
X51238Y-19626D01*
X51299Y-19479D01*
X51300Y-19320D01*
X51300Y-20284D01*
X51226Y-20211D01*
X51079Y-20150D01*
X50920Y-20149D01*
X50773Y-20210D01*
X50661Y-20323D01*
X50600Y-20470D01*
X50599Y-20629D01*
X50660Y-20776D01*
X50773Y-20888D01*
X50920Y-20949D01*
X51079Y-20950D01*
X51226Y-20889D01*
X51338Y-20776D01*
X51399Y-20629D01*
X51400Y-20470D01*
X51400Y-21720D01*
X51339Y-21573D01*
X51226Y-21461D01*
X51079Y-21400D01*
X50920Y-21399D01*
X50773Y-21460D01*
X50661Y-21573D01*
X50600Y-21720D01*
X50599Y-21879D01*
X50660Y-22026D01*
X50773Y-22138D01*
X50920Y-22199D01*
X51079Y-22200D01*
X51226Y-22139D01*
X51338Y-22026D01*
X51399Y-21879D01*
X51400Y-21720D01*
X51400Y-27100D01*
X50845Y-27100D01*
X50696Y-27129D01*
X50566Y-27216D01*
X50479Y-27346D01*
X50450Y-27495D01*
X50450Y-38495D01*
X50426Y-38614D01*
X50361Y-38711D01*
X50264Y-38776D01*
X50150Y-38799D01*
X50150Y-15570D01*
X50089Y-15423D01*
X49976Y-15311D01*
X49829Y-15250D01*
X49670Y-15249D01*
X49523Y-15310D01*
X49411Y-15423D01*
X49350Y-15570D01*
X49349Y-15729D01*
X49410Y-15876D01*
X49523Y-15988D01*
X49670Y-16049D01*
X49829Y-16050D01*
X49976Y-15989D01*
X50088Y-15876D01*
X50149Y-15729D01*
X50150Y-15570D01*
X50150Y-38799D01*
X50145Y-38800D01*
X50100Y-38800D01*
X50100Y-21870D01*
X50039Y-21723D01*
X49926Y-21611D01*
X49900Y-21599D01*
X49900Y-19070D01*
X49839Y-18923D01*
X49726Y-18811D01*
X49579Y-18750D01*
X49420Y-18749D01*
X49273Y-18810D01*
X49161Y-18923D01*
X49100Y-19070D01*
X49099Y-19229D01*
X49160Y-19376D01*
X49273Y-19488D01*
X49420Y-19549D01*
X49579Y-19550D01*
X49726Y-19489D01*
X49838Y-19376D01*
X49899Y-19229D01*
X49900Y-19070D01*
X49900Y-21599D01*
X49779Y-21550D01*
X49620Y-21549D01*
X49473Y-21610D01*
X49361Y-21723D01*
X49300Y-21870D01*
X49299Y-22029D01*
X49360Y-22176D01*
X49473Y-22288D01*
X49620Y-22349D01*
X49779Y-22350D01*
X49926Y-22289D01*
X50038Y-22176D01*
X50099Y-22029D01*
X50100Y-21870D01*
X50100Y-38800D01*
X49050Y-38800D01*
X49050Y-20170D01*
X49050Y-17920D01*
X49050Y-16370D01*
X48989Y-16223D01*
X48876Y-16111D01*
X48729Y-16050D01*
X48600Y-16049D01*
X48600Y-7270D01*
X48539Y-7123D01*
X48500Y-7084D01*
X48500Y-2770D01*
X48500Y-1520D01*
X48439Y-1373D01*
X48326Y-1261D01*
X48179Y-1200D01*
X48020Y-1199D01*
X47873Y-1260D01*
X47761Y-1373D01*
X47700Y-1520D01*
X47699Y-1679D01*
X47760Y-1826D01*
X47873Y-1938D01*
X48020Y-1999D01*
X48179Y-2000D01*
X48326Y-1939D01*
X48438Y-1826D01*
X48499Y-1679D01*
X48500Y-1520D01*
X48500Y-2770D01*
X48439Y-2623D01*
X48326Y-2511D01*
X48179Y-2450D01*
X48020Y-2449D01*
X47873Y-2510D01*
X47761Y-2623D01*
X47700Y-2770D01*
X47699Y-2929D01*
X47760Y-3076D01*
X47873Y-3188D01*
X48020Y-3249D01*
X48179Y-3250D01*
X48326Y-3189D01*
X48438Y-3076D01*
X48499Y-2929D01*
X48500Y-2770D01*
X48500Y-7084D01*
X48426Y-7011D01*
X48279Y-6950D01*
X48120Y-6949D01*
X48050Y-6979D01*
X48050Y-6520D01*
X47989Y-6373D01*
X47876Y-6261D01*
X47729Y-6200D01*
X47570Y-6199D01*
X47423Y-6260D01*
X47400Y-6284D01*
X47400Y-1870D01*
X47339Y-1723D01*
X47226Y-1611D01*
X47079Y-1550D01*
X46920Y-1549D01*
X46773Y-1610D01*
X46661Y-1723D01*
X46600Y-1870D01*
X46599Y-2029D01*
X46660Y-2176D01*
X46773Y-2288D01*
X46920Y-2349D01*
X47079Y-2350D01*
X47226Y-2289D01*
X47338Y-2176D01*
X47399Y-2029D01*
X47400Y-1870D01*
X47400Y-6284D01*
X47311Y-6373D01*
X47250Y-6520D01*
X47249Y-6679D01*
X47310Y-6826D01*
X47423Y-6938D01*
X47570Y-6999D01*
X47729Y-7000D01*
X47876Y-6939D01*
X47988Y-6826D01*
X48049Y-6679D01*
X48050Y-6520D01*
X48050Y-6979D01*
X47973Y-7010D01*
X47861Y-7123D01*
X47800Y-7270D01*
X47799Y-7429D01*
X47860Y-7576D01*
X47973Y-7688D01*
X48120Y-7749D01*
X48279Y-7750D01*
X48426Y-7689D01*
X48538Y-7576D01*
X48599Y-7429D01*
X48600Y-7270D01*
X48600Y-16049D01*
X48570Y-16049D01*
X48423Y-16110D01*
X48311Y-16223D01*
X48250Y-16370D01*
X48249Y-16529D01*
X48310Y-16676D01*
X48423Y-16788D01*
X48570Y-16849D01*
X48729Y-16850D01*
X48876Y-16789D01*
X48988Y-16676D01*
X49049Y-16529D01*
X49050Y-16370D01*
X49050Y-17920D01*
X48989Y-17773D01*
X48876Y-17661D01*
X48729Y-17600D01*
X48570Y-17599D01*
X48423Y-17660D01*
X48311Y-17773D01*
X48250Y-17920D01*
X48249Y-18079D01*
X48310Y-18226D01*
X48423Y-18338D01*
X48570Y-18399D01*
X48729Y-18400D01*
X48876Y-18339D01*
X48988Y-18226D01*
X49049Y-18079D01*
X49050Y-17920D01*
X49050Y-20170D01*
X48989Y-20023D01*
X48876Y-19911D01*
X48729Y-19850D01*
X48570Y-19849D01*
X48423Y-19910D01*
X48311Y-20023D01*
X48250Y-20170D01*
X48249Y-20329D01*
X48310Y-20476D01*
X48423Y-20588D01*
X48570Y-20649D01*
X48729Y-20650D01*
X48876Y-20589D01*
X48988Y-20476D01*
X49049Y-20329D01*
X49050Y-20170D01*
X49050Y-38800D01*
X48150Y-38800D01*
X48150Y-19070D01*
X48089Y-18923D01*
X47976Y-18811D01*
X47829Y-18750D01*
X47750Y-18749D01*
X47750Y-13720D01*
X47689Y-13573D01*
X47600Y-13484D01*
X47600Y-12170D01*
X47539Y-12023D01*
X47426Y-11911D01*
X47400Y-11899D01*
X47400Y-10970D01*
X47400Y-7220D01*
X47339Y-7073D01*
X47226Y-6961D01*
X47079Y-6900D01*
X46920Y-6899D01*
X46900Y-6908D01*
X46900Y-6520D01*
X46839Y-6373D01*
X46726Y-6261D01*
X46579Y-6200D01*
X46420Y-6199D01*
X46273Y-6260D01*
X46200Y-6334D01*
X46200Y-2420D01*
X46200Y-1520D01*
X46139Y-1373D01*
X46026Y-1261D01*
X45879Y-1200D01*
X45720Y-1199D01*
X45573Y-1260D01*
X45461Y-1373D01*
X45400Y-1520D01*
X45399Y-1679D01*
X45460Y-1826D01*
X45573Y-1938D01*
X45720Y-1999D01*
X45879Y-2000D01*
X46026Y-1939D01*
X46138Y-1826D01*
X46199Y-1679D01*
X46200Y-1520D01*
X46200Y-2420D01*
X46139Y-2273D01*
X46026Y-2161D01*
X45879Y-2100D01*
X45720Y-2099D01*
X45573Y-2160D01*
X45461Y-2273D01*
X45400Y-2420D01*
X45399Y-2579D01*
X45460Y-2726D01*
X45573Y-2838D01*
X45720Y-2899D01*
X45879Y-2900D01*
X46026Y-2839D01*
X46138Y-2726D01*
X46199Y-2579D01*
X46200Y-2420D01*
X46200Y-6334D01*
X46161Y-6373D01*
X46100Y-6520D01*
X46099Y-6679D01*
X46160Y-6826D01*
X46273Y-6938D01*
X46420Y-6999D01*
X46579Y-7000D01*
X46726Y-6939D01*
X46838Y-6826D01*
X46899Y-6679D01*
X46900Y-6520D01*
X46900Y-6908D01*
X46773Y-6960D01*
X46661Y-7073D01*
X46600Y-7220D01*
X46599Y-7379D01*
X46660Y-7526D01*
X46773Y-7638D01*
X46920Y-7699D01*
X47079Y-7700D01*
X47226Y-7639D01*
X47338Y-7526D01*
X47399Y-7379D01*
X47400Y-7220D01*
X47400Y-10970D01*
X47339Y-10823D01*
X47226Y-10711D01*
X47079Y-10650D01*
X46920Y-10649D01*
X46773Y-10710D01*
X46661Y-10823D01*
X46624Y-10910D01*
X46589Y-10823D01*
X46476Y-10711D01*
X46329Y-10650D01*
X46170Y-10649D01*
X46023Y-10710D01*
X45911Y-10823D01*
X45850Y-10970D01*
X45850Y-10470D01*
X45789Y-10323D01*
X45676Y-10211D01*
X45529Y-10150D01*
X45370Y-10149D01*
X45223Y-10210D01*
X45111Y-10323D01*
X45050Y-10470D01*
X45049Y-10629D01*
X45110Y-10776D01*
X45223Y-10888D01*
X45370Y-10949D01*
X45529Y-10950D01*
X45676Y-10889D01*
X45788Y-10776D01*
X45849Y-10629D01*
X45850Y-10470D01*
X45850Y-10970D01*
X45849Y-11129D01*
X45910Y-11276D01*
X46023Y-11388D01*
X46170Y-11449D01*
X46329Y-11450D01*
X46476Y-11389D01*
X46588Y-11276D01*
X46625Y-11189D01*
X46660Y-11276D01*
X46773Y-11388D01*
X46920Y-11449D01*
X47079Y-11450D01*
X47226Y-11389D01*
X47338Y-11276D01*
X47399Y-11129D01*
X47400Y-10970D01*
X47400Y-11899D01*
X47279Y-11850D01*
X47120Y-11849D01*
X46973Y-11910D01*
X46861Y-12023D01*
X46800Y-12170D01*
X46799Y-12329D01*
X46860Y-12476D01*
X46973Y-12588D01*
X47120Y-12649D01*
X47279Y-12650D01*
X47426Y-12589D01*
X47538Y-12476D01*
X47599Y-12329D01*
X47600Y-12170D01*
X47600Y-13484D01*
X47576Y-13461D01*
X47429Y-13400D01*
X47270Y-13399D01*
X47123Y-13460D01*
X47011Y-13573D01*
X46950Y-13720D01*
X46949Y-13879D01*
X47010Y-14026D01*
X47123Y-14138D01*
X47270Y-14199D01*
X47429Y-14200D01*
X47576Y-14139D01*
X47688Y-14026D01*
X47749Y-13879D01*
X47750Y-13720D01*
X47750Y-18749D01*
X47670Y-18749D01*
X47650Y-18758D01*
X47650Y-15570D01*
X47589Y-15423D01*
X47476Y-15311D01*
X47329Y-15250D01*
X47170Y-15249D01*
X47023Y-15310D01*
X46911Y-15423D01*
X46850Y-15570D01*
X46849Y-15729D01*
X46910Y-15876D01*
X47023Y-15988D01*
X47170Y-16049D01*
X47329Y-16050D01*
X47476Y-15989D01*
X47588Y-15876D01*
X47649Y-15729D01*
X47650Y-15570D01*
X47650Y-18758D01*
X47523Y-18810D01*
X47411Y-18923D01*
X47350Y-19070D01*
X47349Y-19229D01*
X47410Y-19376D01*
X47523Y-19488D01*
X47670Y-19549D01*
X47829Y-19550D01*
X47976Y-19489D01*
X48088Y-19376D01*
X48149Y-19229D01*
X48150Y-19070D01*
X48150Y-38800D01*
X48100Y-38800D01*
X48100Y-21820D01*
X48039Y-21673D01*
X47926Y-21561D01*
X47779Y-21500D01*
X47620Y-21499D01*
X47473Y-21560D01*
X47361Y-21673D01*
X47300Y-21820D01*
X47299Y-21979D01*
X47360Y-22126D01*
X47473Y-22238D01*
X47620Y-22299D01*
X47779Y-22300D01*
X47926Y-22239D01*
X48038Y-22126D01*
X48099Y-21979D01*
X48100Y-21820D01*
X48100Y-38800D01*
X46050Y-38800D01*
X46050Y-30920D01*
X45989Y-30773D01*
X45900Y-30684D01*
X45900Y-13870D01*
X45850Y-13749D01*
X45850Y-12170D01*
X45789Y-12023D01*
X45676Y-11911D01*
X45529Y-11850D01*
X45370Y-11849D01*
X45223Y-11910D01*
X45111Y-12023D01*
X45050Y-12170D01*
X45049Y-12329D01*
X45110Y-12476D01*
X45223Y-12588D01*
X45370Y-12649D01*
X45529Y-12650D01*
X45676Y-12589D01*
X45788Y-12476D01*
X45849Y-12329D01*
X45850Y-12170D01*
X45850Y-13749D01*
X45839Y-13723D01*
X45726Y-13611D01*
X45579Y-13550D01*
X45420Y-13549D01*
X45273Y-13610D01*
X45161Y-13723D01*
X45100Y-13870D01*
X45099Y-14029D01*
X45160Y-14176D01*
X45273Y-14288D01*
X45420Y-14349D01*
X45579Y-14350D01*
X45726Y-14289D01*
X45838Y-14176D01*
X45899Y-14029D01*
X45900Y-13870D01*
X45900Y-30684D01*
X45876Y-30661D01*
X45729Y-30600D01*
X45570Y-30599D01*
X45423Y-30660D01*
X45311Y-30773D01*
X45300Y-30799D01*
X45300Y-30420D01*
X45239Y-30273D01*
X45126Y-30161D01*
X44979Y-30100D01*
X44820Y-30099D01*
X44673Y-30160D01*
X44561Y-30273D01*
X44500Y-30420D01*
X44499Y-30579D01*
X44560Y-30726D01*
X44673Y-30838D01*
X44820Y-30899D01*
X44979Y-30900D01*
X45126Y-30839D01*
X45238Y-30726D01*
X45299Y-30579D01*
X45300Y-30420D01*
X45300Y-30799D01*
X45250Y-30920D01*
X45249Y-31079D01*
X45310Y-31226D01*
X45423Y-31338D01*
X45570Y-31399D01*
X45729Y-31400D01*
X45876Y-31339D01*
X45988Y-31226D01*
X46049Y-31079D01*
X46050Y-30920D01*
X46050Y-38800D01*
X45100Y-38800D01*
X45100Y-32170D01*
X45039Y-32023D01*
X44926Y-31911D01*
X44779Y-31850D01*
X44620Y-31849D01*
X44473Y-31910D01*
X44361Y-32023D01*
X44350Y-32049D01*
X44350Y-2470D01*
X44350Y-1470D01*
X44289Y-1323D01*
X44176Y-1211D01*
X44029Y-1150D01*
X43870Y-1149D01*
X43723Y-1210D01*
X43611Y-1323D01*
X43550Y-1470D01*
X43549Y-1629D01*
X43553Y-1637D01*
X43526Y-1611D01*
X43379Y-1550D01*
X43220Y-1549D01*
X43073Y-1610D01*
X42961Y-1723D01*
X42900Y-1870D01*
X42899Y-2029D01*
X42960Y-2176D01*
X43073Y-2288D01*
X43220Y-2349D01*
X43379Y-2350D01*
X43526Y-2289D01*
X43638Y-2176D01*
X43699Y-2029D01*
X43700Y-1870D01*
X43696Y-1862D01*
X43723Y-1888D01*
X43870Y-1949D01*
X44029Y-1950D01*
X44176Y-1889D01*
X44288Y-1776D01*
X44349Y-1629D01*
X44350Y-1470D01*
X44350Y-2470D01*
X44289Y-2323D01*
X44176Y-2211D01*
X44029Y-2150D01*
X43870Y-2149D01*
X43723Y-2210D01*
X43611Y-2323D01*
X43550Y-2470D01*
X43549Y-2629D01*
X43610Y-2776D01*
X43723Y-2888D01*
X43870Y-2949D01*
X44029Y-2950D01*
X44176Y-2889D01*
X44288Y-2776D01*
X44349Y-2629D01*
X44350Y-2470D01*
X44350Y-32049D01*
X44300Y-32170D01*
X44299Y-32329D01*
X44360Y-32476D01*
X44473Y-32588D01*
X44620Y-32649D01*
X44779Y-32650D01*
X44926Y-32589D01*
X45038Y-32476D01*
X45099Y-32329D01*
X45100Y-32170D01*
X45100Y-38800D01*
X44550Y-38800D01*
X44550Y-32820D01*
X44489Y-32673D01*
X44376Y-32561D01*
X44229Y-32500D01*
X44070Y-32499D01*
X43923Y-32560D01*
X43811Y-32673D01*
X43800Y-32699D01*
X43800Y-23820D01*
X43800Y-7270D01*
X43739Y-7123D01*
X43626Y-7011D01*
X43479Y-6950D01*
X43320Y-6949D01*
X43173Y-7010D01*
X43061Y-7123D01*
X43000Y-7270D01*
X42999Y-7429D01*
X43060Y-7576D01*
X43173Y-7688D01*
X43320Y-7749D01*
X43479Y-7750D01*
X43626Y-7689D01*
X43738Y-7576D01*
X43799Y-7429D01*
X43800Y-7270D01*
X43800Y-23820D01*
X43739Y-23673D01*
X43626Y-23561D01*
X43479Y-23500D01*
X43320Y-23499D01*
X43173Y-23560D01*
X43150Y-23584D01*
X43150Y-7770D01*
X43089Y-7623D01*
X42976Y-7511D01*
X42829Y-7450D01*
X42670Y-7449D01*
X42650Y-7458D01*
X42650Y-5020D01*
X42589Y-4873D01*
X42500Y-4784D01*
X42500Y-2700D01*
X42500Y-1700D01*
X42424Y-1517D01*
X42283Y-1376D01*
X42099Y-1300D01*
X41900Y-1299D01*
X41717Y-1375D01*
X41576Y-1516D01*
X41500Y-1700D01*
X41500Y-1701D01*
X41500Y-1700D01*
X41424Y-1517D01*
X41283Y-1376D01*
X41099Y-1300D01*
X40900Y-1299D01*
X40717Y-1375D01*
X40576Y-1516D01*
X40500Y-1700D01*
X40500Y-1701D01*
X40500Y-1700D01*
X40424Y-1517D01*
X40283Y-1376D01*
X40099Y-1300D01*
X39900Y-1299D01*
X39717Y-1375D01*
X39576Y-1516D01*
X39500Y-1700D01*
X39499Y-1899D01*
X39575Y-2082D01*
X39716Y-2223D01*
X39900Y-2299D01*
X40099Y-2300D01*
X40282Y-2224D01*
X40423Y-2083D01*
X40499Y-1899D01*
X40500Y-1700D01*
X40500Y-1701D01*
X40499Y-1899D01*
X40575Y-2082D01*
X40716Y-2223D01*
X40900Y-2299D01*
X41099Y-2300D01*
X41282Y-2224D01*
X41423Y-2083D01*
X41499Y-1899D01*
X41500Y-1700D01*
X41500Y-1701D01*
X41499Y-1899D01*
X41575Y-2082D01*
X41716Y-2223D01*
X41900Y-2299D01*
X42099Y-2300D01*
X42282Y-2224D01*
X42423Y-2083D01*
X42499Y-1899D01*
X42500Y-1700D01*
X42500Y-2700D01*
X42424Y-2517D01*
X42283Y-2376D01*
X42099Y-2300D01*
X41900Y-2299D01*
X41717Y-2375D01*
X41576Y-2516D01*
X41500Y-2700D01*
X41500Y-2701D01*
X41500Y-2700D01*
X41424Y-2517D01*
X41283Y-2376D01*
X41099Y-2300D01*
X40900Y-2299D01*
X40717Y-2375D01*
X40576Y-2516D01*
X40500Y-2700D01*
X40500Y-2701D01*
X40500Y-2700D01*
X40424Y-2517D01*
X40283Y-2376D01*
X40099Y-2300D01*
X39900Y-2299D01*
X39717Y-2375D01*
X39576Y-2516D01*
X39500Y-2700D01*
X39499Y-2899D01*
X39575Y-3082D01*
X39716Y-3223D01*
X39900Y-3299D01*
X40099Y-3300D01*
X40282Y-3224D01*
X40423Y-3083D01*
X40499Y-2899D01*
X40500Y-2700D01*
X40500Y-2701D01*
X40499Y-2899D01*
X40575Y-3082D01*
X40716Y-3223D01*
X40900Y-3299D01*
X41099Y-3300D01*
X41282Y-3224D01*
X41423Y-3083D01*
X41499Y-2899D01*
X41500Y-2700D01*
X41500Y-2701D01*
X41499Y-2899D01*
X41575Y-3082D01*
X41716Y-3223D01*
X41900Y-3299D01*
X42099Y-3300D01*
X42282Y-3224D01*
X42423Y-3083D01*
X42499Y-2899D01*
X42500Y-2700D01*
X42500Y-4784D01*
X42476Y-4761D01*
X42329Y-4700D01*
X42170Y-4699D01*
X42023Y-4760D01*
X41911Y-4873D01*
X41850Y-5020D01*
X41849Y-5179D01*
X41910Y-5326D01*
X42023Y-5438D01*
X42170Y-5499D01*
X42329Y-5500D01*
X42476Y-5439D01*
X42588Y-5326D01*
X42649Y-5179D01*
X42650Y-5020D01*
X42650Y-7458D01*
X42523Y-7510D01*
X42411Y-7623D01*
X42350Y-7770D01*
X42349Y-7929D01*
X42410Y-8076D01*
X42523Y-8188D01*
X42670Y-8249D01*
X42829Y-8250D01*
X42976Y-8189D01*
X43088Y-8076D01*
X43149Y-7929D01*
X43150Y-7770D01*
X43150Y-23584D01*
X43061Y-23673D01*
X43000Y-23820D01*
X42999Y-23979D01*
X43060Y-24126D01*
X43173Y-24238D01*
X43320Y-24299D01*
X43479Y-24300D01*
X43626Y-24239D01*
X43738Y-24126D01*
X43799Y-23979D01*
X43800Y-23820D01*
X43800Y-32699D01*
X43750Y-32820D01*
X43749Y-32979D01*
X43810Y-33126D01*
X43923Y-33238D01*
X44070Y-33299D01*
X44229Y-33300D01*
X44376Y-33239D01*
X44488Y-33126D01*
X44549Y-32979D01*
X44550Y-32820D01*
X44550Y-38800D01*
X43150Y-38800D01*
X43150Y-24320D01*
X43089Y-24173D01*
X42976Y-24061D01*
X42829Y-24000D01*
X42670Y-23999D01*
X42600Y-24029D01*
X42600Y-21570D01*
X42539Y-21423D01*
X42426Y-21311D01*
X42279Y-21250D01*
X42120Y-21249D01*
X41973Y-21310D01*
X41861Y-21423D01*
X41800Y-21570D01*
X41799Y-21729D01*
X41860Y-21876D01*
X41973Y-21988D01*
X42120Y-22049D01*
X42279Y-22050D01*
X42426Y-21989D01*
X42538Y-21876D01*
X42599Y-21729D01*
X42600Y-21570D01*
X42600Y-24029D01*
X42523Y-24060D01*
X42411Y-24173D01*
X42350Y-24320D01*
X42349Y-24479D01*
X42410Y-24626D01*
X42523Y-24738D01*
X42670Y-24799D01*
X42829Y-24800D01*
X42976Y-24739D01*
X43088Y-24626D01*
X43149Y-24479D01*
X43150Y-24320D01*
X43150Y-38800D01*
X42500Y-38800D01*
X42500Y-37450D01*
X42500Y-36450D01*
X42424Y-36267D01*
X42283Y-36126D01*
X42099Y-36050D01*
X41900Y-36049D01*
X41850Y-36070D01*
X41850Y-35520D01*
X41789Y-35373D01*
X41676Y-35261D01*
X41600Y-35229D01*
X41600Y-22270D01*
X41600Y-5720D01*
X41539Y-5573D01*
X41426Y-5461D01*
X41279Y-5400D01*
X41120Y-5399D01*
X40973Y-5460D01*
X40861Y-5573D01*
X40800Y-5720D01*
X40799Y-5879D01*
X40860Y-6026D01*
X40973Y-6138D01*
X41120Y-6199D01*
X41279Y-6200D01*
X41426Y-6139D01*
X41538Y-6026D01*
X41599Y-5879D01*
X41600Y-5720D01*
X41600Y-22270D01*
X41539Y-22123D01*
X41426Y-22011D01*
X41279Y-21950D01*
X41120Y-21949D01*
X41100Y-21958D01*
X41100Y-6520D01*
X41039Y-6373D01*
X40926Y-6261D01*
X40779Y-6200D01*
X40620Y-6199D01*
X40473Y-6260D01*
X40361Y-6373D01*
X40300Y-6520D01*
X40299Y-6679D01*
X40360Y-6826D01*
X40473Y-6938D01*
X40620Y-6999D01*
X40779Y-7000D01*
X40926Y-6939D01*
X41038Y-6826D01*
X41099Y-6679D01*
X41100Y-6520D01*
X41100Y-21958D01*
X40973Y-22010D01*
X40861Y-22123D01*
X40800Y-22270D01*
X40799Y-22429D01*
X40860Y-22576D01*
X40973Y-22688D01*
X41120Y-22749D01*
X41279Y-22750D01*
X41426Y-22689D01*
X41538Y-22576D01*
X41599Y-22429D01*
X41600Y-22270D01*
X41600Y-35229D01*
X41529Y-35200D01*
X41370Y-35199D01*
X41223Y-35260D01*
X41111Y-35373D01*
X41100Y-35399D01*
X41100Y-23070D01*
X41039Y-22923D01*
X40926Y-22811D01*
X40779Y-22750D01*
X40620Y-22749D01*
X40473Y-22810D01*
X40361Y-22923D01*
X40300Y-23070D01*
X40299Y-23229D01*
X40360Y-23376D01*
X40473Y-23488D01*
X40620Y-23549D01*
X40779Y-23550D01*
X40926Y-23489D01*
X41038Y-23376D01*
X41099Y-23229D01*
X41100Y-23070D01*
X41100Y-35399D01*
X41050Y-35520D01*
X41049Y-35679D01*
X41110Y-35826D01*
X41223Y-35938D01*
X41370Y-35999D01*
X41529Y-36000D01*
X41676Y-35939D01*
X41788Y-35826D01*
X41849Y-35679D01*
X41850Y-35520D01*
X41850Y-36070D01*
X41717Y-36125D01*
X41576Y-36266D01*
X41500Y-36450D01*
X41500Y-36451D01*
X41500Y-36450D01*
X41424Y-36267D01*
X41283Y-36126D01*
X41099Y-36050D01*
X40900Y-36049D01*
X40717Y-36125D01*
X40576Y-36266D01*
X40500Y-36450D01*
X40500Y-36451D01*
X40500Y-36450D01*
X40424Y-36267D01*
X40283Y-36126D01*
X40099Y-36050D01*
X39900Y-36049D01*
X39717Y-36125D01*
X39576Y-36266D01*
X39500Y-36450D01*
X39500Y-36451D01*
X39500Y-36450D01*
X39477Y-36396D01*
X39477Y-2837D01*
X39477Y-1837D01*
X39455Y-1651D01*
X39426Y-1582D01*
X39357Y-1548D01*
X39251Y-1654D01*
X39251Y-1442D01*
X39217Y-1373D01*
X39037Y-1322D01*
X38851Y-1344D01*
X38782Y-1373D01*
X38748Y-1442D01*
X39000Y-1693D01*
X39251Y-1442D01*
X39251Y-1654D01*
X39106Y-1800D01*
X39357Y-2051D01*
X39426Y-2017D01*
X39477Y-1837D01*
X39477Y-2837D01*
X39455Y-2651D01*
X39426Y-2582D01*
X39357Y-2548D01*
X39251Y-2654D01*
X39251Y-2442D01*
X39251Y-2157D01*
X39000Y-1906D01*
X38893Y-2012D01*
X38893Y-1800D01*
X38642Y-1548D01*
X38573Y-1582D01*
X38522Y-1762D01*
X38544Y-1948D01*
X38573Y-2017D01*
X38642Y-2051D01*
X38893Y-1800D01*
X38893Y-2012D01*
X38748Y-2157D01*
X38782Y-2226D01*
X38962Y-2277D01*
X39148Y-2255D01*
X39217Y-2226D01*
X39251Y-2157D01*
X39251Y-2442D01*
X39217Y-2373D01*
X39037Y-2322D01*
X38851Y-2344D01*
X38782Y-2373D01*
X38748Y-2442D01*
X39000Y-2693D01*
X39251Y-2442D01*
X39251Y-2654D01*
X39106Y-2800D01*
X39357Y-3051D01*
X39426Y-3017D01*
X39477Y-2837D01*
X39477Y-36396D01*
X39424Y-36267D01*
X39283Y-36126D01*
X39251Y-36112D01*
X39251Y-3157D01*
X39000Y-2906D01*
X38893Y-3012D01*
X38893Y-2800D01*
X38642Y-2548D01*
X38573Y-2582D01*
X38522Y-2762D01*
X38544Y-2948D01*
X38573Y-3017D01*
X38642Y-3051D01*
X38893Y-2800D01*
X38893Y-3012D01*
X38748Y-3157D01*
X38782Y-3226D01*
X38962Y-3277D01*
X39148Y-3255D01*
X39217Y-3226D01*
X39251Y-3157D01*
X39251Y-36112D01*
X39099Y-36050D01*
X38900Y-36049D01*
X38717Y-36125D01*
X38576Y-36266D01*
X38500Y-36450D01*
X38500Y-36451D01*
X38500Y-36450D01*
X38477Y-36396D01*
X38477Y-2837D01*
X38477Y-1837D01*
X38455Y-1651D01*
X38426Y-1582D01*
X38357Y-1548D01*
X38251Y-1654D01*
X38251Y-1442D01*
X38217Y-1373D01*
X38037Y-1322D01*
X37851Y-1344D01*
X37782Y-1373D01*
X37748Y-1442D01*
X38000Y-1693D01*
X38251Y-1442D01*
X38251Y-1654D01*
X38106Y-1800D01*
X38357Y-2051D01*
X38426Y-2017D01*
X38477Y-1837D01*
X38477Y-2837D01*
X38455Y-2651D01*
X38426Y-2582D01*
X38357Y-2548D01*
X38251Y-2654D01*
X38251Y-2442D01*
X38251Y-2157D01*
X38000Y-1906D01*
X37893Y-2012D01*
X37893Y-1800D01*
X37642Y-1548D01*
X37573Y-1582D01*
X37522Y-1762D01*
X37544Y-1948D01*
X37573Y-2017D01*
X37642Y-2051D01*
X37893Y-1800D01*
X37893Y-2012D01*
X37748Y-2157D01*
X37782Y-2226D01*
X37962Y-2277D01*
X38148Y-2255D01*
X38217Y-2226D01*
X38251Y-2157D01*
X38251Y-2442D01*
X38217Y-2373D01*
X38037Y-2322D01*
X37851Y-2344D01*
X37782Y-2373D01*
X37748Y-2442D01*
X38000Y-2693D01*
X38251Y-2442D01*
X38251Y-2654D01*
X38106Y-2800D01*
X38357Y-3051D01*
X38426Y-3017D01*
X38477Y-2837D01*
X38477Y-36396D01*
X38424Y-36267D01*
X38283Y-36126D01*
X38251Y-36112D01*
X38251Y-3157D01*
X38000Y-2906D01*
X37893Y-3012D01*
X37893Y-2800D01*
X37642Y-2548D01*
X37573Y-2582D01*
X37522Y-2762D01*
X37544Y-2948D01*
X37573Y-3017D01*
X37642Y-3051D01*
X37893Y-2800D01*
X37893Y-3012D01*
X37748Y-3157D01*
X37782Y-3226D01*
X37962Y-3277D01*
X38148Y-3255D01*
X38217Y-3226D01*
X38251Y-3157D01*
X38251Y-36112D01*
X38099Y-36050D01*
X37900Y-36049D01*
X37717Y-36125D01*
X37576Y-36266D01*
X37500Y-36450D01*
X37500Y-36451D01*
X37500Y-36450D01*
X37477Y-36396D01*
X37477Y-2837D01*
X37477Y-1837D01*
X37455Y-1651D01*
X37426Y-1582D01*
X37357Y-1548D01*
X37251Y-1654D01*
X37251Y-1442D01*
X37217Y-1373D01*
X37037Y-1322D01*
X36851Y-1344D01*
X36782Y-1373D01*
X36748Y-1442D01*
X37000Y-1693D01*
X37251Y-1442D01*
X37251Y-1654D01*
X37106Y-1800D01*
X37357Y-2051D01*
X37426Y-2017D01*
X37477Y-1837D01*
X37477Y-2837D01*
X37455Y-2651D01*
X37426Y-2582D01*
X37357Y-2548D01*
X37251Y-2654D01*
X37251Y-2442D01*
X37251Y-2157D01*
X37000Y-1906D01*
X36893Y-2012D01*
X36893Y-1800D01*
X36642Y-1548D01*
X36573Y-1582D01*
X36522Y-1762D01*
X36544Y-1948D01*
X36573Y-2017D01*
X36642Y-2051D01*
X36893Y-1800D01*
X36893Y-2012D01*
X36748Y-2157D01*
X36782Y-2226D01*
X36962Y-2277D01*
X37148Y-2255D01*
X37217Y-2226D01*
X37251Y-2157D01*
X37251Y-2442D01*
X37217Y-2373D01*
X37037Y-2322D01*
X36851Y-2344D01*
X36782Y-2373D01*
X36748Y-2442D01*
X37000Y-2693D01*
X37251Y-2442D01*
X37251Y-2654D01*
X37106Y-2800D01*
X37357Y-3051D01*
X37426Y-3017D01*
X37477Y-2837D01*
X37477Y-36396D01*
X37424Y-36267D01*
X37300Y-36142D01*
X37300Y-7070D01*
X37251Y-6952D01*
X37251Y-3157D01*
X37000Y-2906D01*
X36893Y-3012D01*
X36893Y-2800D01*
X36642Y-2548D01*
X36573Y-2582D01*
X36522Y-2762D01*
X36544Y-2948D01*
X36573Y-3017D01*
X36642Y-3051D01*
X36893Y-2800D01*
X36893Y-3012D01*
X36748Y-3157D01*
X36782Y-3226D01*
X36962Y-3277D01*
X37148Y-3255D01*
X37217Y-3226D01*
X37251Y-3157D01*
X37251Y-6952D01*
X37239Y-6923D01*
X37126Y-6811D01*
X36979Y-6750D01*
X36820Y-6749D01*
X36673Y-6810D01*
X36561Y-6923D01*
X36500Y-7070D01*
X36500Y-2700D01*
X36500Y-1700D01*
X36424Y-1517D01*
X36283Y-1376D01*
X36099Y-1300D01*
X35900Y-1299D01*
X35717Y-1375D01*
X35576Y-1516D01*
X35500Y-1700D01*
X35500Y-1701D01*
X35500Y-1700D01*
X35424Y-1517D01*
X35283Y-1376D01*
X35099Y-1300D01*
X34900Y-1299D01*
X34717Y-1375D01*
X34576Y-1516D01*
X34500Y-1700D01*
X34500Y-1701D01*
X34500Y-1700D01*
X34424Y-1517D01*
X34283Y-1376D01*
X34099Y-1300D01*
X33900Y-1299D01*
X33717Y-1375D01*
X33576Y-1516D01*
X33500Y-1700D01*
X33499Y-1899D01*
X33575Y-2082D01*
X33716Y-2223D01*
X33900Y-2299D01*
X34099Y-2300D01*
X34282Y-2224D01*
X34423Y-2083D01*
X34499Y-1899D01*
X34500Y-1700D01*
X34500Y-1701D01*
X34499Y-1899D01*
X34575Y-2082D01*
X34716Y-2223D01*
X34900Y-2299D01*
X35099Y-2300D01*
X35282Y-2224D01*
X35423Y-2083D01*
X35499Y-1899D01*
X35500Y-1700D01*
X35500Y-1701D01*
X35499Y-1899D01*
X35575Y-2082D01*
X35716Y-2223D01*
X35900Y-2299D01*
X36099Y-2300D01*
X36282Y-2224D01*
X36423Y-2083D01*
X36499Y-1899D01*
X36500Y-1700D01*
X36500Y-2700D01*
X36424Y-2517D01*
X36283Y-2376D01*
X36099Y-2300D01*
X35900Y-2299D01*
X35717Y-2375D01*
X35576Y-2516D01*
X35500Y-2700D01*
X35500Y-2701D01*
X35500Y-2700D01*
X35424Y-2517D01*
X35283Y-2376D01*
X35099Y-2300D01*
X34900Y-2299D01*
X34717Y-2375D01*
X34576Y-2516D01*
X34500Y-2700D01*
X34500Y-2701D01*
X34500Y-2700D01*
X34424Y-2517D01*
X34283Y-2376D01*
X34099Y-2300D01*
X33900Y-2299D01*
X33717Y-2375D01*
X33576Y-2516D01*
X33500Y-2700D01*
X33499Y-2899D01*
X33575Y-3082D01*
X33716Y-3223D01*
X33900Y-3299D01*
X34099Y-3300D01*
X34282Y-3224D01*
X34423Y-3083D01*
X34499Y-2899D01*
X34500Y-2700D01*
X34500Y-2701D01*
X34499Y-2899D01*
X34575Y-3082D01*
X34716Y-3223D01*
X34900Y-3299D01*
X35099Y-3300D01*
X35282Y-3224D01*
X35423Y-3083D01*
X35499Y-2899D01*
X35500Y-2700D01*
X35500Y-2701D01*
X35499Y-2899D01*
X35575Y-3082D01*
X35716Y-3223D01*
X35900Y-3299D01*
X36099Y-3300D01*
X36282Y-3224D01*
X36423Y-3083D01*
X36499Y-2899D01*
X36500Y-2700D01*
X36500Y-7070D01*
X36500Y-7070D01*
X36499Y-7229D01*
X36560Y-7376D01*
X36673Y-7488D01*
X36820Y-7549D01*
X36979Y-7550D01*
X37126Y-7489D01*
X37238Y-7376D01*
X37299Y-7229D01*
X37300Y-7070D01*
X37300Y-36142D01*
X37283Y-36126D01*
X37099Y-36050D01*
X36900Y-36049D01*
X36717Y-36125D01*
X36576Y-36266D01*
X36500Y-36450D01*
X36499Y-36649D01*
X36575Y-36832D01*
X36716Y-36973D01*
X36900Y-37049D01*
X37099Y-37050D01*
X37282Y-36974D01*
X37423Y-36833D01*
X37499Y-36649D01*
X37500Y-36450D01*
X37500Y-36451D01*
X37499Y-36649D01*
X37575Y-36832D01*
X37716Y-36973D01*
X37900Y-37049D01*
X38099Y-37050D01*
X38282Y-36974D01*
X38423Y-36833D01*
X38499Y-36649D01*
X38500Y-36450D01*
X38500Y-36451D01*
X38499Y-36649D01*
X38575Y-36832D01*
X38716Y-36973D01*
X38900Y-37049D01*
X39099Y-37050D01*
X39282Y-36974D01*
X39423Y-36833D01*
X39499Y-36649D01*
X39500Y-36450D01*
X39500Y-36451D01*
X39499Y-36649D01*
X39575Y-36832D01*
X39716Y-36973D01*
X39900Y-37049D01*
X40099Y-37050D01*
X40282Y-36974D01*
X40423Y-36833D01*
X40499Y-36649D01*
X40500Y-36450D01*
X40500Y-36451D01*
X40499Y-36649D01*
X40575Y-36832D01*
X40716Y-36973D01*
X40900Y-37049D01*
X41099Y-37050D01*
X41282Y-36974D01*
X41423Y-36833D01*
X41499Y-36649D01*
X41500Y-36450D01*
X41500Y-36451D01*
X41499Y-36649D01*
X41575Y-36832D01*
X41716Y-36973D01*
X41900Y-37049D01*
X42099Y-37050D01*
X42282Y-36974D01*
X42423Y-36833D01*
X42499Y-36649D01*
X42500Y-36450D01*
X42500Y-37450D01*
X42424Y-37267D01*
X42283Y-37126D01*
X42099Y-37050D01*
X41900Y-37049D01*
X41717Y-37125D01*
X41576Y-37266D01*
X41500Y-37450D01*
X41500Y-37451D01*
X41500Y-37450D01*
X41424Y-37267D01*
X41283Y-37126D01*
X41099Y-37050D01*
X40900Y-37049D01*
X40717Y-37125D01*
X40576Y-37266D01*
X40500Y-37450D01*
X40500Y-37451D01*
X40500Y-37450D01*
X40424Y-37267D01*
X40283Y-37126D01*
X40099Y-37050D01*
X39900Y-37049D01*
X39717Y-37125D01*
X39576Y-37266D01*
X39500Y-37450D01*
X39500Y-37451D01*
X39500Y-37450D01*
X39424Y-37267D01*
X39283Y-37126D01*
X39099Y-37050D01*
X38900Y-37049D01*
X38717Y-37125D01*
X38576Y-37266D01*
X38500Y-37450D01*
X38500Y-37451D01*
X38500Y-37450D01*
X38424Y-37267D01*
X38283Y-37126D01*
X38099Y-37050D01*
X37900Y-37049D01*
X37717Y-37125D01*
X37576Y-37266D01*
X37500Y-37450D01*
X37500Y-37451D01*
X37500Y-37450D01*
X37424Y-37267D01*
X37283Y-37126D01*
X37099Y-37050D01*
X36900Y-37049D01*
X36717Y-37125D01*
X36576Y-37266D01*
X36500Y-37450D01*
X36499Y-37649D01*
X36575Y-37832D01*
X36716Y-37973D01*
X36900Y-38049D01*
X37099Y-38050D01*
X37282Y-37974D01*
X37423Y-37833D01*
X37499Y-37649D01*
X37500Y-37450D01*
X37500Y-37451D01*
X37499Y-37649D01*
X37575Y-37832D01*
X37716Y-37973D01*
X37900Y-38049D01*
X38099Y-38050D01*
X38282Y-37974D01*
X38423Y-37833D01*
X38499Y-37649D01*
X38500Y-37450D01*
X38500Y-37451D01*
X38499Y-37649D01*
X38575Y-37832D01*
X38716Y-37973D01*
X38900Y-38049D01*
X39099Y-38050D01*
X39282Y-37974D01*
X39423Y-37833D01*
X39499Y-37649D01*
X39500Y-37450D01*
X39500Y-37451D01*
X39499Y-37649D01*
X39575Y-37832D01*
X39716Y-37973D01*
X39900Y-38049D01*
X40099Y-38050D01*
X40282Y-37974D01*
X40423Y-37833D01*
X40499Y-37649D01*
X40500Y-37450D01*
X40500Y-37451D01*
X40499Y-37649D01*
X40575Y-37832D01*
X40716Y-37973D01*
X40900Y-38049D01*
X41099Y-38050D01*
X41282Y-37974D01*
X41423Y-37833D01*
X41499Y-37649D01*
X41500Y-37450D01*
X41500Y-37451D01*
X41499Y-37649D01*
X41575Y-37832D01*
X41716Y-37973D01*
X41900Y-38049D01*
X42099Y-38050D01*
X42282Y-37974D01*
X42423Y-37833D01*
X42499Y-37649D01*
X42500Y-37450D01*
X42500Y-38800D01*
X36477Y-38800D01*
X36477Y-37587D01*
X36477Y-36587D01*
X36455Y-36401D01*
X36426Y-36332D01*
X36357Y-36298D01*
X36251Y-36404D01*
X36251Y-36192D01*
X36217Y-36123D01*
X36037Y-36072D01*
X35851Y-36094D01*
X35782Y-36123D01*
X35748Y-36192D01*
X36000Y-36443D01*
X36251Y-36192D01*
X36251Y-36404D01*
X36106Y-36550D01*
X36357Y-36801D01*
X36426Y-36767D01*
X36477Y-36587D01*
X36477Y-37587D01*
X36455Y-37401D01*
X36426Y-37332D01*
X36357Y-37298D01*
X36251Y-37404D01*
X36251Y-37192D01*
X36251Y-36907D01*
X36000Y-36656D01*
X35893Y-36762D01*
X35893Y-36550D01*
X35642Y-36298D01*
X35573Y-36332D01*
X35522Y-36512D01*
X35544Y-36698D01*
X35573Y-36767D01*
X35642Y-36801D01*
X35893Y-36550D01*
X35893Y-36762D01*
X35748Y-36907D01*
X35782Y-36976D01*
X35962Y-37027D01*
X36148Y-37005D01*
X36217Y-36976D01*
X36251Y-36907D01*
X36251Y-37192D01*
X36217Y-37123D01*
X36037Y-37072D01*
X35851Y-37094D01*
X35782Y-37123D01*
X35748Y-37192D01*
X36000Y-37443D01*
X36251Y-37192D01*
X36251Y-37404D01*
X36106Y-37550D01*
X36357Y-37801D01*
X36426Y-37767D01*
X36477Y-37587D01*
X36477Y-38800D01*
X36251Y-38800D01*
X36251Y-37907D01*
X36000Y-37656D01*
X35893Y-37762D01*
X35893Y-37550D01*
X35642Y-37298D01*
X35573Y-37332D01*
X35522Y-37512D01*
X35544Y-37698D01*
X35573Y-37767D01*
X35642Y-37801D01*
X35893Y-37550D01*
X35893Y-37762D01*
X35748Y-37907D01*
X35782Y-37976D01*
X35962Y-38027D01*
X36148Y-38005D01*
X36217Y-37976D01*
X36251Y-37907D01*
X36251Y-38800D01*
X35500Y-38800D01*
X35500Y-37450D01*
X35500Y-36450D01*
X35424Y-36267D01*
X35283Y-36126D01*
X35099Y-36050D01*
X34900Y-36049D01*
X34717Y-36125D01*
X34576Y-36266D01*
X34500Y-36450D01*
X34500Y-36451D01*
X34500Y-36450D01*
X34424Y-36267D01*
X34283Y-36126D01*
X34099Y-36050D01*
X33900Y-36049D01*
X33717Y-36125D01*
X33576Y-36266D01*
X33500Y-36450D01*
X33500Y-36451D01*
X33500Y-36450D01*
X33477Y-36396D01*
X33477Y-1837D01*
X33455Y-1651D01*
X33426Y-1582D01*
X33357Y-1548D01*
X33251Y-1654D01*
X33251Y-1442D01*
X33217Y-1373D01*
X33037Y-1322D01*
X32851Y-1344D01*
X32782Y-1373D01*
X32748Y-1442D01*
X33000Y-1693D01*
X33251Y-1442D01*
X33251Y-1654D01*
X33106Y-1800D01*
X33357Y-2051D01*
X33426Y-2017D01*
X33477Y-1837D01*
X33477Y-36396D01*
X33470Y-36378D01*
X33470Y-3066D01*
X33470Y-2533D01*
X33469Y-2466D01*
X33444Y-2403D01*
X33396Y-2355D01*
X33333Y-2329D01*
X33251Y-2329D01*
X33251Y-2157D01*
X33000Y-1906D01*
X32893Y-2012D01*
X32893Y-1800D01*
X32642Y-1548D01*
X32573Y-1582D01*
X32522Y-1762D01*
X32544Y-1948D01*
X32573Y-2017D01*
X32642Y-2051D01*
X32893Y-1800D01*
X32893Y-2012D01*
X32748Y-2157D01*
X32782Y-2226D01*
X32962Y-2277D01*
X33148Y-2255D01*
X33217Y-2226D01*
X33251Y-2157D01*
X33251Y-2329D01*
X33117Y-2330D01*
X33075Y-2372D01*
X33075Y-2725D01*
X33427Y-2725D01*
X33470Y-2682D01*
X33470Y-2533D01*
X33470Y-3066D01*
X33470Y-2917D01*
X33427Y-2875D01*
X33075Y-2875D01*
X33075Y-3227D01*
X33117Y-3270D01*
X33333Y-3270D01*
X33396Y-3244D01*
X33444Y-3196D01*
X33469Y-3133D01*
X33470Y-3066D01*
X33470Y-36378D01*
X33424Y-36267D01*
X33283Y-36126D01*
X33099Y-36050D01*
X32925Y-36049D01*
X32925Y-3227D01*
X32925Y-2875D01*
X32925Y-2725D01*
X32925Y-2372D01*
X32882Y-2330D01*
X32666Y-2329D01*
X32603Y-2355D01*
X32555Y-2403D01*
X32530Y-2466D01*
X32529Y-2533D01*
X32530Y-2682D01*
X32572Y-2725D01*
X32925Y-2725D01*
X32925Y-2875D01*
X32572Y-2875D01*
X32530Y-2917D01*
X32529Y-3066D01*
X32530Y-3133D01*
X32555Y-3196D01*
X32603Y-3244D01*
X32666Y-3270D01*
X32882Y-3270D01*
X32925Y-3227D01*
X32925Y-36049D01*
X32900Y-36049D01*
X32717Y-36125D01*
X32576Y-36266D01*
X32500Y-36450D01*
X32499Y-36649D01*
X32575Y-36832D01*
X32716Y-36973D01*
X32900Y-37049D01*
X33099Y-37050D01*
X33282Y-36974D01*
X33423Y-36833D01*
X33499Y-36649D01*
X33500Y-36450D01*
X33500Y-36451D01*
X33499Y-36649D01*
X33575Y-36832D01*
X33716Y-36973D01*
X33900Y-37049D01*
X34099Y-37050D01*
X34282Y-36974D01*
X34423Y-36833D01*
X34499Y-36649D01*
X34500Y-36450D01*
X34500Y-36451D01*
X34499Y-36649D01*
X34575Y-36832D01*
X34716Y-36973D01*
X34900Y-37049D01*
X35099Y-37050D01*
X35282Y-36974D01*
X35423Y-36833D01*
X35499Y-36649D01*
X35500Y-36450D01*
X35500Y-37450D01*
X35424Y-37267D01*
X35283Y-37126D01*
X35099Y-37050D01*
X34900Y-37049D01*
X34717Y-37125D01*
X34576Y-37266D01*
X34500Y-37450D01*
X34500Y-37451D01*
X34500Y-37450D01*
X34424Y-37267D01*
X34283Y-37126D01*
X34099Y-37050D01*
X33900Y-37049D01*
X33717Y-37125D01*
X33576Y-37266D01*
X33500Y-37450D01*
X33500Y-37451D01*
X33500Y-37450D01*
X33424Y-37267D01*
X33283Y-37126D01*
X33099Y-37050D01*
X32900Y-37049D01*
X32717Y-37125D01*
X32576Y-37266D01*
X32500Y-37450D01*
X32500Y-37451D01*
X32500Y-37450D01*
X32424Y-37267D01*
X32283Y-37126D01*
X32099Y-37050D01*
X31900Y-37049D01*
X31717Y-37125D01*
X31576Y-37266D01*
X31500Y-37450D01*
X31500Y-37510D01*
X31500Y-37210D01*
X31469Y-37136D01*
X31413Y-37080D01*
X31339Y-37050D01*
X31339Y-37050D01*
X31413Y-37019D01*
X31469Y-36963D01*
X31499Y-36889D01*
X31500Y-36810D01*
X31500Y-36649D01*
X31575Y-36832D01*
X31716Y-36973D01*
X31900Y-37049D01*
X32099Y-37050D01*
X32282Y-36974D01*
X32423Y-36833D01*
X32499Y-36649D01*
X32500Y-36450D01*
X32500Y-1700D01*
X32424Y-1517D01*
X32283Y-1376D01*
X32099Y-1300D01*
X31900Y-1299D01*
X31717Y-1375D01*
X31576Y-1516D01*
X31500Y-1700D01*
X31499Y-1899D01*
X31575Y-2082D01*
X31716Y-2223D01*
X31900Y-2299D01*
X32099Y-2300D01*
X32282Y-2224D01*
X32423Y-2083D01*
X32499Y-1899D01*
X32500Y-1700D01*
X32500Y-36450D01*
X32424Y-36267D01*
X32283Y-36126D01*
X32100Y-36050D01*
X32100Y-33420D01*
X32039Y-33273D01*
X31926Y-33161D01*
X31779Y-33100D01*
X31620Y-33099D01*
X31473Y-33160D01*
X31470Y-33164D01*
X31470Y-2066D01*
X31470Y-1533D01*
X31469Y-1466D01*
X31444Y-1403D01*
X31396Y-1355D01*
X31333Y-1329D01*
X31117Y-1330D01*
X31075Y-1372D01*
X31075Y-1725D01*
X31427Y-1725D01*
X31470Y-1682D01*
X31470Y-1533D01*
X31470Y-2066D01*
X31470Y-1917D01*
X31427Y-1875D01*
X31075Y-1875D01*
X31075Y-2227D01*
X31117Y-2270D01*
X31333Y-2270D01*
X31396Y-2244D01*
X31444Y-2196D01*
X31469Y-2133D01*
X31470Y-2066D01*
X31470Y-33164D01*
X31361Y-33273D01*
X31300Y-33420D01*
X31299Y-33579D01*
X31360Y-33726D01*
X31473Y-33838D01*
X31620Y-33899D01*
X31779Y-33900D01*
X31926Y-33839D01*
X32038Y-33726D01*
X32099Y-33579D01*
X32100Y-33420D01*
X32100Y-36050D01*
X32099Y-36050D01*
X31900Y-36049D01*
X31717Y-36125D01*
X31576Y-36266D01*
X31500Y-36450D01*
X31500Y-36510D01*
X31500Y-36210D01*
X31469Y-36136D01*
X31413Y-36080D01*
X31339Y-36050D01*
X31260Y-36049D01*
X30950Y-36049D01*
X30950Y-33420D01*
X30925Y-33360D01*
X30925Y-2227D01*
X30925Y-1875D01*
X30925Y-1725D01*
X30925Y-1372D01*
X30882Y-1330D01*
X30666Y-1329D01*
X30603Y-1355D01*
X30555Y-1403D01*
X30530Y-1466D01*
X30529Y-1533D01*
X30530Y-1682D01*
X30572Y-1725D01*
X30925Y-1725D01*
X30925Y-1875D01*
X30572Y-1875D01*
X30530Y-1917D01*
X30529Y-2066D01*
X30530Y-2133D01*
X30555Y-2196D01*
X30603Y-2244D01*
X30666Y-2270D01*
X30882Y-2270D01*
X30925Y-2227D01*
X30925Y-33360D01*
X30889Y-33273D01*
X30776Y-33161D01*
X30650Y-33108D01*
X30650Y-22270D01*
X30600Y-22149D01*
X30600Y-5770D01*
X30539Y-5623D01*
X30426Y-5511D01*
X30279Y-5450D01*
X30120Y-5449D01*
X29973Y-5510D01*
X29861Y-5623D01*
X29800Y-5770D01*
X29799Y-5929D01*
X29860Y-6076D01*
X29973Y-6188D01*
X30120Y-6249D01*
X30279Y-6250D01*
X30426Y-6189D01*
X30538Y-6076D01*
X30599Y-5929D01*
X30600Y-5770D01*
X30600Y-22149D01*
X30589Y-22123D01*
X30476Y-22011D01*
X30329Y-21950D01*
X30250Y-21949D01*
X30250Y-6520D01*
X30189Y-6373D01*
X30076Y-6261D01*
X29929Y-6200D01*
X29770Y-6199D01*
X29623Y-6260D01*
X29511Y-6373D01*
X29450Y-6520D01*
X29449Y-6679D01*
X29510Y-6826D01*
X29623Y-6938D01*
X29770Y-6999D01*
X29929Y-7000D01*
X30076Y-6939D01*
X30188Y-6826D01*
X30249Y-6679D01*
X30250Y-6520D01*
X30250Y-21949D01*
X30170Y-21949D01*
X30023Y-22010D01*
X29911Y-22123D01*
X29850Y-22270D01*
X29849Y-22429D01*
X29910Y-22576D01*
X30023Y-22688D01*
X30170Y-22749D01*
X30329Y-22750D01*
X30476Y-22689D01*
X30588Y-22576D01*
X30649Y-22429D01*
X30650Y-22270D01*
X30650Y-33108D01*
X30629Y-33100D01*
X30470Y-33099D01*
X30323Y-33160D01*
X30211Y-33273D01*
X30200Y-33299D01*
X30200Y-23070D01*
X30139Y-22923D01*
X30026Y-22811D01*
X29879Y-22750D01*
X29720Y-22749D01*
X29573Y-22810D01*
X29461Y-22923D01*
X29400Y-23070D01*
X29399Y-23229D01*
X29460Y-23376D01*
X29573Y-23488D01*
X29720Y-23549D01*
X29879Y-23550D01*
X30026Y-23489D01*
X30138Y-23376D01*
X30199Y-23229D01*
X30200Y-23070D01*
X30200Y-33299D01*
X30150Y-33420D01*
X30149Y-33579D01*
X30210Y-33726D01*
X30323Y-33838D01*
X30470Y-33899D01*
X30629Y-33900D01*
X30776Y-33839D01*
X30888Y-33726D01*
X30949Y-33579D01*
X30950Y-33420D01*
X30950Y-36049D01*
X30660Y-36049D01*
X30586Y-36080D01*
X30530Y-36136D01*
X30500Y-36210D01*
X30499Y-36289D01*
X30499Y-36889D01*
X30530Y-36963D01*
X30586Y-37019D01*
X30660Y-37049D01*
X30660Y-37049D01*
X30586Y-37080D01*
X30530Y-37136D01*
X30500Y-37210D01*
X30499Y-37289D01*
X30499Y-37889D01*
X30530Y-37963D01*
X30586Y-38019D01*
X30660Y-38049D01*
X30739Y-38050D01*
X31339Y-38050D01*
X31413Y-38019D01*
X31469Y-37963D01*
X31499Y-37889D01*
X31500Y-37810D01*
X31500Y-37649D01*
X31575Y-37832D01*
X31716Y-37973D01*
X31900Y-38049D01*
X32099Y-38050D01*
X32282Y-37974D01*
X32423Y-37833D01*
X32499Y-37649D01*
X32500Y-37450D01*
X32500Y-37451D01*
X32499Y-37649D01*
X32575Y-37832D01*
X32716Y-37973D01*
X32900Y-38049D01*
X33099Y-38050D01*
X33282Y-37974D01*
X33423Y-37833D01*
X33499Y-37649D01*
X33500Y-37450D01*
X33500Y-37451D01*
X33499Y-37649D01*
X33575Y-37832D01*
X33716Y-37973D01*
X33900Y-38049D01*
X34099Y-38050D01*
X34282Y-37974D01*
X34423Y-37833D01*
X34499Y-37649D01*
X34500Y-37450D01*
X34500Y-37451D01*
X34499Y-37649D01*
X34575Y-37832D01*
X34716Y-37973D01*
X34900Y-38049D01*
X35099Y-38050D01*
X35282Y-37974D01*
X35423Y-37833D01*
X35499Y-37649D01*
X35500Y-37450D01*
X35500Y-38800D01*
X29250Y-38800D01*
X29250Y-23770D01*
X29250Y-7220D01*
X29189Y-7073D01*
X29076Y-6961D01*
X28929Y-6900D01*
X28770Y-6899D01*
X28650Y-6949D01*
X28650Y-4520D01*
X28589Y-4373D01*
X28476Y-4261D01*
X28329Y-4200D01*
X28170Y-4199D01*
X28023Y-4260D01*
X27911Y-4373D01*
X27850Y-4520D01*
X27849Y-4679D01*
X27888Y-4772D01*
X27876Y-4761D01*
X27729Y-4700D01*
X27570Y-4699D01*
X27423Y-4760D01*
X27311Y-4873D01*
X27250Y-5020D01*
X27249Y-5179D01*
X27310Y-5326D01*
X27423Y-5438D01*
X27570Y-5499D01*
X27729Y-5500D01*
X27876Y-5439D01*
X27988Y-5326D01*
X28049Y-5179D01*
X28050Y-5020D01*
X28011Y-4927D01*
X28023Y-4938D01*
X28170Y-4999D01*
X28329Y-5000D01*
X28476Y-4939D01*
X28588Y-4826D01*
X28649Y-4679D01*
X28650Y-4520D01*
X28650Y-6949D01*
X28623Y-6960D01*
X28511Y-7073D01*
X28450Y-7220D01*
X28449Y-7379D01*
X28510Y-7526D01*
X28623Y-7638D01*
X28770Y-7699D01*
X28929Y-7700D01*
X29076Y-7639D01*
X29188Y-7526D01*
X29249Y-7379D01*
X29250Y-7220D01*
X29250Y-23770D01*
X29189Y-23623D01*
X29076Y-23511D01*
X28929Y-23450D01*
X28770Y-23449D01*
X28650Y-23499D01*
X28650Y-21020D01*
X28589Y-20873D01*
X28476Y-20761D01*
X28329Y-20700D01*
X28170Y-20699D01*
X28023Y-20760D01*
X27911Y-20873D01*
X27850Y-21020D01*
X27849Y-21179D01*
X27888Y-21272D01*
X27876Y-21261D01*
X27729Y-21200D01*
X27570Y-21199D01*
X27423Y-21260D01*
X27311Y-21373D01*
X27250Y-21520D01*
X27249Y-21679D01*
X27310Y-21826D01*
X27423Y-21938D01*
X27570Y-21999D01*
X27729Y-22000D01*
X27876Y-21939D01*
X27988Y-21826D01*
X28049Y-21679D01*
X28050Y-21520D01*
X28011Y-21427D01*
X28023Y-21438D01*
X28170Y-21499D01*
X28329Y-21500D01*
X28476Y-21439D01*
X28588Y-21326D01*
X28649Y-21179D01*
X28650Y-21020D01*
X28650Y-23499D01*
X28623Y-23510D01*
X28511Y-23623D01*
X28450Y-23770D01*
X28449Y-23929D01*
X28510Y-24076D01*
X28623Y-24188D01*
X28770Y-24249D01*
X28929Y-24250D01*
X29076Y-24189D01*
X29188Y-24076D01*
X29249Y-23929D01*
X29250Y-23770D01*
X29250Y-38800D01*
X27450Y-38800D01*
X27450Y-30920D01*
X27389Y-30773D01*
X27276Y-30661D01*
X27129Y-30600D01*
X26970Y-30599D01*
X26823Y-30660D01*
X26800Y-30684D01*
X26800Y-30420D01*
X26739Y-30273D01*
X26650Y-30184D01*
X26650Y-11220D01*
X26589Y-11073D01*
X26476Y-10961D01*
X26329Y-10900D01*
X26170Y-10899D01*
X26100Y-10929D01*
X26100Y-6770D01*
X26039Y-6623D01*
X25926Y-6511D01*
X25779Y-6450D01*
X25620Y-6449D01*
X25473Y-6510D01*
X25361Y-6623D01*
X25300Y-6770D01*
X25299Y-6929D01*
X25360Y-7076D01*
X25473Y-7188D01*
X25620Y-7249D01*
X25779Y-7250D01*
X25926Y-7189D01*
X26038Y-7076D01*
X26099Y-6929D01*
X26100Y-6770D01*
X26100Y-10929D01*
X26023Y-10960D01*
X26000Y-10984D01*
X26000Y-10720D01*
X25939Y-10573D01*
X25826Y-10461D01*
X25679Y-10400D01*
X25520Y-10399D01*
X25373Y-10460D01*
X25261Y-10573D01*
X25200Y-10720D01*
X25199Y-10879D01*
X25260Y-11026D01*
X25373Y-11138D01*
X25520Y-11199D01*
X25679Y-11200D01*
X25826Y-11139D01*
X25938Y-11026D01*
X25999Y-10879D01*
X26000Y-10720D01*
X26000Y-10984D01*
X25911Y-11073D01*
X25850Y-11220D01*
X25849Y-11379D01*
X25910Y-11526D01*
X26023Y-11638D01*
X26170Y-11699D01*
X26329Y-11700D01*
X26476Y-11639D01*
X26588Y-11526D01*
X26649Y-11379D01*
X26650Y-11220D01*
X26650Y-30184D01*
X26626Y-30161D01*
X26479Y-30100D01*
X26320Y-30099D01*
X26173Y-30160D01*
X26061Y-30273D01*
X26000Y-30420D01*
X25999Y-30579D01*
X26060Y-30726D01*
X26173Y-30838D01*
X26320Y-30899D01*
X26479Y-30900D01*
X26626Y-30839D01*
X26738Y-30726D01*
X26799Y-30579D01*
X26800Y-30420D01*
X26800Y-30684D01*
X26711Y-30773D01*
X26650Y-30920D01*
X26649Y-31079D01*
X26710Y-31226D01*
X26823Y-31338D01*
X26970Y-31399D01*
X27129Y-31400D01*
X27276Y-31339D01*
X27388Y-31226D01*
X27449Y-31079D01*
X27450Y-30920D01*
X27450Y-38800D01*
X26600Y-38800D01*
X26600Y-32170D01*
X26539Y-32023D01*
X26426Y-31911D01*
X26279Y-31850D01*
X26120Y-31849D01*
X25973Y-31910D01*
X25900Y-31984D01*
X25900Y-21770D01*
X25839Y-21623D01*
X25726Y-21511D01*
X25650Y-21479D01*
X25650Y-18620D01*
X25589Y-18473D01*
X25476Y-18361D01*
X25329Y-18300D01*
X25170Y-18299D01*
X25023Y-18360D01*
X24911Y-18473D01*
X24850Y-18620D01*
X24849Y-18779D01*
X24910Y-18926D01*
X25023Y-19038D01*
X25170Y-19099D01*
X25329Y-19100D01*
X25476Y-19039D01*
X25588Y-18926D01*
X25649Y-18779D01*
X25650Y-18620D01*
X25650Y-21479D01*
X25579Y-21450D01*
X25420Y-21449D01*
X25273Y-21510D01*
X25250Y-21534D01*
X25250Y-21270D01*
X25189Y-21123D01*
X25076Y-21011D01*
X24929Y-20950D01*
X24850Y-20949D01*
X24850Y-19870D01*
X24789Y-19723D01*
X24676Y-19611D01*
X24529Y-19550D01*
X24370Y-19549D01*
X24223Y-19610D01*
X24111Y-19723D01*
X24050Y-19870D01*
X24050Y-18620D01*
X23989Y-18473D01*
X23876Y-18361D01*
X23729Y-18300D01*
X23570Y-18299D01*
X23500Y-18329D01*
X23500Y-10220D01*
X23439Y-10073D01*
X23326Y-9961D01*
X23179Y-9900D01*
X23020Y-9899D01*
X22873Y-9960D01*
X22761Y-10073D01*
X22700Y-10220D01*
X22699Y-10379D01*
X22760Y-10526D01*
X22873Y-10638D01*
X23020Y-10699D01*
X23179Y-10700D01*
X23326Y-10639D01*
X23438Y-10526D01*
X23499Y-10379D01*
X23500Y-10220D01*
X23500Y-18329D01*
X23423Y-18360D01*
X23311Y-18473D01*
X23250Y-18620D01*
X23249Y-18779D01*
X23310Y-18926D01*
X23423Y-19038D01*
X23570Y-19099D01*
X23729Y-19100D01*
X23876Y-19039D01*
X23988Y-18926D01*
X24049Y-18779D01*
X24050Y-18620D01*
X24050Y-19870D01*
X24049Y-20029D01*
X24110Y-20176D01*
X24223Y-20288D01*
X24370Y-20349D01*
X24529Y-20350D01*
X24676Y-20289D01*
X24788Y-20176D01*
X24849Y-20029D01*
X24850Y-19870D01*
X24850Y-20949D01*
X24770Y-20949D01*
X24623Y-21010D01*
X24511Y-21123D01*
X24450Y-21270D01*
X24449Y-21429D01*
X24510Y-21576D01*
X24623Y-21688D01*
X24770Y-21749D01*
X24929Y-21750D01*
X25076Y-21689D01*
X25188Y-21576D01*
X25249Y-21429D01*
X25250Y-21270D01*
X25250Y-21534D01*
X25161Y-21623D01*
X25100Y-21770D01*
X25099Y-21929D01*
X25160Y-22076D01*
X25273Y-22188D01*
X25420Y-22249D01*
X25579Y-22250D01*
X25726Y-22189D01*
X25838Y-22076D01*
X25899Y-21929D01*
X25900Y-21770D01*
X25900Y-31984D01*
X25861Y-32023D01*
X25800Y-32170D01*
X25799Y-32329D01*
X25860Y-32476D01*
X25973Y-32588D01*
X26120Y-32649D01*
X26279Y-32650D01*
X26426Y-32589D01*
X26538Y-32476D01*
X26599Y-32329D01*
X26600Y-32170D01*
X26600Y-38800D01*
X26050Y-38800D01*
X26050Y-32820D01*
X25989Y-32673D01*
X25876Y-32561D01*
X25729Y-32500D01*
X25570Y-32499D01*
X25423Y-32560D01*
X25311Y-32673D01*
X25250Y-32820D01*
X25249Y-32979D01*
X25310Y-33126D01*
X25423Y-33238D01*
X25570Y-33299D01*
X25729Y-33300D01*
X25876Y-33239D01*
X25988Y-33126D01*
X26049Y-32979D01*
X26050Y-32820D01*
X26050Y-38800D01*
X23000Y-38800D01*
X23000Y-12570D01*
X22939Y-12423D01*
X22826Y-12311D01*
X22679Y-12250D01*
X22520Y-12249D01*
X22400Y-12299D01*
X22400Y-11220D01*
X22339Y-11073D01*
X22226Y-10961D01*
X22079Y-10900D01*
X21920Y-10899D01*
X21900Y-10908D01*
X21900Y-6770D01*
X21839Y-6623D01*
X21726Y-6511D01*
X21579Y-6450D01*
X21420Y-6449D01*
X21273Y-6510D01*
X21161Y-6623D01*
X21100Y-6770D01*
X21099Y-6929D01*
X21160Y-7076D01*
X21273Y-7188D01*
X21420Y-7249D01*
X21579Y-7250D01*
X21726Y-7189D01*
X21838Y-7076D01*
X21899Y-6929D01*
X21900Y-6770D01*
X21900Y-10908D01*
X21773Y-10960D01*
X21750Y-10984D01*
X21750Y-10720D01*
X21689Y-10573D01*
X21576Y-10461D01*
X21429Y-10400D01*
X21270Y-10399D01*
X21123Y-10460D01*
X21011Y-10573D01*
X20950Y-10720D01*
X20949Y-10879D01*
X21010Y-11026D01*
X21123Y-11138D01*
X21270Y-11199D01*
X21429Y-11200D01*
X21576Y-11139D01*
X21688Y-11026D01*
X21749Y-10879D01*
X21750Y-10720D01*
X21750Y-10984D01*
X21661Y-11073D01*
X21600Y-11220D01*
X21599Y-11379D01*
X21660Y-11526D01*
X21773Y-11638D01*
X21920Y-11699D01*
X22079Y-11700D01*
X22226Y-11639D01*
X22338Y-11526D01*
X22399Y-11379D01*
X22400Y-11220D01*
X22400Y-12299D01*
X22373Y-12310D01*
X22261Y-12423D01*
X22200Y-12570D01*
X22199Y-12729D01*
X22260Y-12876D01*
X22373Y-12988D01*
X22520Y-13049D01*
X22679Y-13050D01*
X22826Y-12989D01*
X22938Y-12876D01*
X22999Y-12729D01*
X23000Y-12570D01*
X23000Y-38800D01*
X21100Y-38800D01*
X21100Y-31520D01*
X21100Y-30570D01*
X21039Y-30423D01*
X20926Y-30311D01*
X20779Y-30250D01*
X20620Y-30249D01*
X20473Y-30310D01*
X20361Y-30423D01*
X20300Y-30570D01*
X20299Y-30729D01*
X20360Y-30876D01*
X20473Y-30988D01*
X20620Y-31049D01*
X20779Y-31050D01*
X20926Y-30989D01*
X21038Y-30876D01*
X21099Y-30729D01*
X21100Y-30570D01*
X21100Y-31520D01*
X21039Y-31373D01*
X20926Y-31261D01*
X20779Y-31200D01*
X20620Y-31199D01*
X20473Y-31260D01*
X20361Y-31373D01*
X20300Y-31520D01*
X20299Y-31679D01*
X20360Y-31826D01*
X20473Y-31938D01*
X20620Y-31999D01*
X20779Y-32000D01*
X20926Y-31939D01*
X21038Y-31826D01*
X21099Y-31679D01*
X21100Y-31520D01*
X21100Y-38800D01*
X19650Y-38800D01*
X19650Y-14320D01*
X19589Y-14173D01*
X19476Y-14061D01*
X19329Y-14000D01*
X19250Y-13999D01*
X19250Y-10220D01*
X19189Y-10073D01*
X19076Y-9961D01*
X18929Y-9900D01*
X18770Y-9899D01*
X18623Y-9960D01*
X18511Y-10073D01*
X18450Y-10220D01*
X18449Y-10379D01*
X18510Y-10526D01*
X18623Y-10638D01*
X18770Y-10699D01*
X18929Y-10700D01*
X19076Y-10639D01*
X19188Y-10526D01*
X19249Y-10379D01*
X19250Y-10220D01*
X19250Y-13999D01*
X19170Y-13999D01*
X19023Y-14060D01*
X18911Y-14173D01*
X18850Y-14320D01*
X18849Y-14479D01*
X18910Y-14626D01*
X19023Y-14738D01*
X19170Y-14799D01*
X19329Y-14800D01*
X19476Y-14739D01*
X19588Y-14626D01*
X19649Y-14479D01*
X19650Y-14320D01*
X19650Y-38800D01*
X17900Y-38800D01*
X17900Y-11220D01*
X17839Y-11073D01*
X17726Y-10961D01*
X17579Y-10900D01*
X17477Y-10899D01*
X17477Y-2837D01*
X17455Y-2651D01*
X17426Y-2582D01*
X17357Y-2548D01*
X17251Y-2654D01*
X17251Y-2442D01*
X17217Y-2373D01*
X17037Y-2322D01*
X16851Y-2344D01*
X16782Y-2373D01*
X16748Y-2442D01*
X17000Y-2693D01*
X17251Y-2442D01*
X17251Y-2654D01*
X17106Y-2800D01*
X17357Y-3051D01*
X17426Y-3017D01*
X17477Y-2837D01*
X17477Y-10899D01*
X17420Y-10899D01*
X17273Y-10960D01*
X17251Y-10983D01*
X17251Y-3157D01*
X17000Y-2906D01*
X16893Y-3012D01*
X16893Y-2800D01*
X16642Y-2548D01*
X16573Y-2582D01*
X16522Y-2762D01*
X16544Y-2948D01*
X16573Y-3017D01*
X16642Y-3051D01*
X16893Y-2800D01*
X16893Y-3012D01*
X16748Y-3157D01*
X16782Y-3226D01*
X16962Y-3277D01*
X17148Y-3255D01*
X17217Y-3226D01*
X17251Y-3157D01*
X17251Y-10983D01*
X17250Y-10984D01*
X17250Y-10670D01*
X17189Y-10523D01*
X17076Y-10411D01*
X16929Y-10350D01*
X16770Y-10349D01*
X16623Y-10410D01*
X16511Y-10523D01*
X16500Y-10549D01*
X16500Y-2700D01*
X16424Y-2517D01*
X16283Y-2376D01*
X16099Y-2300D01*
X15900Y-2299D01*
X15717Y-2375D01*
X15576Y-2516D01*
X15500Y-2700D01*
X15500Y-2701D01*
X15500Y-2700D01*
X15424Y-2517D01*
X15283Y-2376D01*
X15099Y-2300D01*
X14900Y-2299D01*
X14717Y-2375D01*
X14576Y-2516D01*
X14500Y-2700D01*
X14499Y-2899D01*
X14575Y-3082D01*
X14716Y-3223D01*
X14900Y-3299D01*
X15099Y-3300D01*
X15282Y-3224D01*
X15423Y-3083D01*
X15499Y-2899D01*
X15500Y-2700D01*
X15500Y-2701D01*
X15499Y-2899D01*
X15575Y-3082D01*
X15716Y-3223D01*
X15900Y-3299D01*
X16099Y-3300D01*
X16282Y-3224D01*
X16423Y-3083D01*
X16499Y-2899D01*
X16500Y-2700D01*
X16500Y-10549D01*
X16450Y-10670D01*
X16449Y-10829D01*
X16510Y-10976D01*
X16623Y-11088D01*
X16770Y-11149D01*
X16929Y-11150D01*
X17076Y-11089D01*
X17188Y-10976D01*
X17249Y-10829D01*
X17250Y-10670D01*
X17250Y-10984D01*
X17161Y-11073D01*
X17100Y-11220D01*
X17099Y-11379D01*
X17160Y-11526D01*
X17273Y-11638D01*
X17420Y-11699D01*
X17579Y-11700D01*
X17726Y-11639D01*
X17838Y-11526D01*
X17899Y-11379D01*
X17900Y-11220D01*
X17900Y-38800D01*
X17500Y-38800D01*
X17500Y-37450D01*
X17500Y-36450D01*
X17424Y-36267D01*
X17283Y-36126D01*
X17100Y-36050D01*
X17100Y-32770D01*
X17039Y-32623D01*
X16926Y-32511D01*
X16779Y-32450D01*
X16620Y-32449D01*
X16473Y-32510D01*
X16361Y-32623D01*
X16300Y-32770D01*
X16299Y-32929D01*
X16360Y-33076D01*
X16473Y-33188D01*
X16620Y-33249D01*
X16779Y-33250D01*
X16926Y-33189D01*
X17038Y-33076D01*
X17099Y-32929D01*
X17100Y-32770D01*
X17100Y-36050D01*
X17099Y-36050D01*
X16900Y-36049D01*
X16717Y-36125D01*
X16576Y-36266D01*
X16500Y-36450D01*
X16500Y-36451D01*
X16500Y-36450D01*
X16424Y-36267D01*
X16283Y-36126D01*
X16099Y-36050D01*
X16050Y-36050D01*
X16050Y-32820D01*
X15989Y-32673D01*
X15876Y-32561D01*
X15729Y-32500D01*
X15570Y-32499D01*
X15423Y-32560D01*
X15311Y-32673D01*
X15250Y-32820D01*
X15250Y-31970D01*
X15189Y-31823D01*
X15076Y-31711D01*
X14929Y-31650D01*
X14770Y-31649D01*
X14623Y-31710D01*
X14511Y-31823D01*
X14477Y-31903D01*
X14477Y-2837D01*
X14455Y-2651D01*
X14426Y-2582D01*
X14357Y-2548D01*
X14251Y-2654D01*
X14251Y-2442D01*
X14217Y-2373D01*
X14037Y-2322D01*
X13851Y-2344D01*
X13782Y-2373D01*
X13748Y-2442D01*
X14000Y-2693D01*
X14251Y-2442D01*
X14251Y-2654D01*
X14106Y-2800D01*
X14357Y-3051D01*
X14426Y-3017D01*
X14477Y-2837D01*
X14477Y-31903D01*
X14450Y-31970D01*
X14449Y-32129D01*
X14510Y-32276D01*
X14623Y-32388D01*
X14770Y-32449D01*
X14929Y-32450D01*
X15076Y-32389D01*
X15188Y-32276D01*
X15249Y-32129D01*
X15250Y-31970D01*
X15250Y-32820D01*
X15249Y-32979D01*
X15310Y-33126D01*
X15423Y-33238D01*
X15570Y-33299D01*
X15729Y-33300D01*
X15876Y-33239D01*
X15988Y-33126D01*
X16049Y-32979D01*
X16050Y-32820D01*
X16050Y-36050D01*
X15900Y-36049D01*
X15717Y-36125D01*
X15576Y-36266D01*
X15500Y-36450D01*
X15499Y-36649D01*
X15575Y-36832D01*
X15716Y-36973D01*
X15900Y-37049D01*
X16099Y-37050D01*
X16282Y-36974D01*
X16423Y-36833D01*
X16499Y-36649D01*
X16500Y-36450D01*
X16500Y-36451D01*
X16499Y-36649D01*
X16575Y-36832D01*
X16716Y-36973D01*
X16900Y-37049D01*
X17099Y-37050D01*
X17282Y-36974D01*
X17423Y-36833D01*
X17499Y-36649D01*
X17500Y-36450D01*
X17500Y-37450D01*
X17424Y-37267D01*
X17283Y-37126D01*
X17099Y-37050D01*
X16900Y-37049D01*
X16717Y-37125D01*
X16576Y-37266D01*
X16500Y-37450D01*
X16500Y-37451D01*
X16500Y-37450D01*
X16424Y-37267D01*
X16283Y-37126D01*
X16099Y-37050D01*
X15900Y-37049D01*
X15717Y-37125D01*
X15576Y-37266D01*
X15500Y-37450D01*
X15499Y-37649D01*
X15575Y-37832D01*
X15716Y-37973D01*
X15900Y-38049D01*
X16099Y-38050D01*
X16282Y-37974D01*
X16423Y-37833D01*
X16499Y-37649D01*
X16500Y-37450D01*
X16500Y-37451D01*
X16499Y-37649D01*
X16575Y-37832D01*
X16716Y-37973D01*
X16900Y-38049D01*
X17099Y-38050D01*
X17282Y-37974D01*
X17423Y-37833D01*
X17499Y-37649D01*
X17500Y-37450D01*
X17500Y-38800D01*
X15477Y-38800D01*
X15477Y-37587D01*
X15477Y-36587D01*
X15455Y-36401D01*
X15426Y-36332D01*
X15357Y-36298D01*
X15251Y-36404D01*
X15251Y-36192D01*
X15217Y-36123D01*
X15037Y-36072D01*
X14851Y-36094D01*
X14782Y-36123D01*
X14748Y-36192D01*
X15000Y-36443D01*
X15251Y-36192D01*
X15251Y-36404D01*
X15106Y-36550D01*
X15357Y-36801D01*
X15426Y-36767D01*
X15477Y-36587D01*
X15477Y-37587D01*
X15455Y-37401D01*
X15426Y-37332D01*
X15357Y-37298D01*
X15251Y-37404D01*
X15251Y-37192D01*
X15251Y-36907D01*
X15000Y-36656D01*
X14893Y-36762D01*
X14893Y-36550D01*
X14642Y-36298D01*
X14573Y-36332D01*
X14522Y-36512D01*
X14544Y-36698D01*
X14573Y-36767D01*
X14642Y-36801D01*
X14893Y-36550D01*
X14893Y-36762D01*
X14748Y-36907D01*
X14782Y-36976D01*
X14962Y-37027D01*
X15148Y-37005D01*
X15217Y-36976D01*
X15251Y-36907D01*
X15251Y-37192D01*
X15217Y-37123D01*
X15037Y-37072D01*
X14851Y-37094D01*
X14782Y-37123D01*
X14748Y-37192D01*
X15000Y-37443D01*
X15251Y-37192D01*
X15251Y-37404D01*
X15106Y-37550D01*
X15357Y-37801D01*
X15426Y-37767D01*
X15477Y-37587D01*
X15477Y-38800D01*
X15251Y-38800D01*
X15251Y-37907D01*
X15000Y-37656D01*
X14893Y-37762D01*
X14893Y-37550D01*
X14642Y-37298D01*
X14573Y-37332D01*
X14522Y-37512D01*
X14544Y-37698D01*
X14573Y-37767D01*
X14642Y-37801D01*
X14893Y-37550D01*
X14893Y-37762D01*
X14748Y-37907D01*
X14782Y-37976D01*
X14962Y-38027D01*
X15148Y-38005D01*
X15217Y-37976D01*
X15251Y-37907D01*
X15251Y-38800D01*
X14500Y-38800D01*
X14500Y-37450D01*
X14500Y-36450D01*
X14424Y-36267D01*
X14283Y-36126D01*
X14251Y-36112D01*
X14251Y-3157D01*
X14000Y-2906D01*
X13893Y-3012D01*
X13893Y-2800D01*
X13642Y-2548D01*
X13573Y-2582D01*
X13522Y-2762D01*
X13544Y-2948D01*
X13573Y-3017D01*
X13642Y-3051D01*
X13893Y-2800D01*
X13893Y-3012D01*
X13748Y-3157D01*
X13782Y-3226D01*
X13962Y-3277D01*
X14148Y-3255D01*
X14217Y-3226D01*
X14251Y-3157D01*
X14251Y-36112D01*
X14099Y-36050D01*
X13900Y-36049D01*
X13900Y-36050D01*
X13900Y-34420D01*
X13900Y-31970D01*
X13900Y-10220D01*
X13839Y-10073D01*
X13726Y-9961D01*
X13579Y-9900D01*
X13500Y-9899D01*
X13500Y-2700D01*
X13424Y-2517D01*
X13283Y-2376D01*
X13099Y-2300D01*
X12900Y-2299D01*
X12717Y-2375D01*
X12576Y-2516D01*
X12500Y-2700D01*
X12500Y-2701D01*
X12500Y-2700D01*
X12424Y-2517D01*
X12283Y-2376D01*
X12099Y-2300D01*
X11900Y-2299D01*
X11717Y-2375D01*
X11576Y-2516D01*
X11500Y-2700D01*
X11499Y-2899D01*
X11575Y-3082D01*
X11716Y-3223D01*
X11900Y-3299D01*
X12099Y-3300D01*
X12282Y-3224D01*
X12423Y-3083D01*
X12499Y-2899D01*
X12500Y-2700D01*
X12500Y-2701D01*
X12499Y-2899D01*
X12575Y-3082D01*
X12716Y-3223D01*
X12900Y-3299D01*
X13099Y-3300D01*
X13282Y-3224D01*
X13423Y-3083D01*
X13499Y-2899D01*
X13500Y-2700D01*
X13500Y-9899D01*
X13420Y-9899D01*
X13273Y-9960D01*
X13161Y-10073D01*
X13100Y-10220D01*
X13099Y-10379D01*
X13160Y-10526D01*
X13273Y-10638D01*
X13420Y-10699D01*
X13579Y-10700D01*
X13726Y-10639D01*
X13838Y-10526D01*
X13899Y-10379D01*
X13900Y-10220D01*
X13900Y-31970D01*
X13839Y-31823D01*
X13726Y-31711D01*
X13579Y-31650D01*
X13420Y-31649D01*
X13273Y-31710D01*
X13161Y-31823D01*
X13150Y-31849D01*
X13150Y-22120D01*
X13089Y-21973D01*
X12976Y-21861D01*
X12829Y-21800D01*
X12670Y-21799D01*
X12523Y-21860D01*
X12411Y-21973D01*
X12350Y-22120D01*
X12349Y-22279D01*
X12410Y-22426D01*
X12523Y-22538D01*
X12670Y-22599D01*
X12829Y-22600D01*
X12976Y-22539D01*
X13088Y-22426D01*
X13149Y-22279D01*
X13150Y-22120D01*
X13150Y-31849D01*
X13100Y-31970D01*
X13099Y-32129D01*
X13160Y-32276D01*
X13273Y-32388D01*
X13420Y-32449D01*
X13579Y-32450D01*
X13726Y-32389D01*
X13838Y-32276D01*
X13899Y-32129D01*
X13900Y-31970D01*
X13900Y-34420D01*
X13839Y-34273D01*
X13726Y-34161D01*
X13579Y-34100D01*
X13420Y-34099D01*
X13273Y-34160D01*
X13161Y-34273D01*
X13100Y-34420D01*
X13099Y-34579D01*
X13160Y-34726D01*
X13273Y-34838D01*
X13420Y-34899D01*
X13579Y-34900D01*
X13726Y-34839D01*
X13838Y-34726D01*
X13899Y-34579D01*
X13900Y-34420D01*
X13900Y-36050D01*
X13717Y-36125D01*
X13576Y-36266D01*
X13500Y-36450D01*
X13500Y-36451D01*
X13500Y-36450D01*
X13424Y-36267D01*
X13283Y-36126D01*
X13099Y-36050D01*
X12900Y-36049D01*
X12717Y-36125D01*
X12576Y-36266D01*
X12500Y-36450D01*
X12500Y-36451D01*
X12500Y-36450D01*
X12424Y-36267D01*
X12283Y-36126D01*
X12099Y-36050D01*
X11950Y-36049D01*
X11950Y-10470D01*
X11889Y-10323D01*
X11776Y-10211D01*
X11629Y-10150D01*
X11477Y-10149D01*
X11477Y-2837D01*
X11455Y-2651D01*
X11426Y-2582D01*
X11357Y-2548D01*
X11251Y-2654D01*
X11251Y-2442D01*
X11217Y-2373D01*
X11037Y-2322D01*
X10851Y-2344D01*
X10782Y-2373D01*
X10748Y-2442D01*
X11000Y-2693D01*
X11251Y-2442D01*
X11251Y-2654D01*
X11106Y-2800D01*
X11357Y-3051D01*
X11426Y-3017D01*
X11477Y-2837D01*
X11477Y-10149D01*
X11470Y-10149D01*
X11323Y-10210D01*
X11251Y-10283D01*
X11251Y-3157D01*
X11000Y-2906D01*
X10893Y-3012D01*
X10893Y-2800D01*
X10642Y-2548D01*
X10573Y-2582D01*
X10522Y-2762D01*
X10544Y-2948D01*
X10573Y-3017D01*
X10642Y-3051D01*
X10893Y-2800D01*
X10893Y-3012D01*
X10748Y-3157D01*
X10782Y-3226D01*
X10962Y-3277D01*
X11148Y-3255D01*
X11217Y-3226D01*
X11251Y-3157D01*
X11251Y-10283D01*
X11211Y-10323D01*
X11150Y-10470D01*
X11149Y-10629D01*
X11210Y-10776D01*
X11323Y-10888D01*
X11470Y-10949D01*
X11629Y-10950D01*
X11776Y-10889D01*
X11888Y-10776D01*
X11949Y-10629D01*
X11950Y-10470D01*
X11950Y-36049D01*
X11900Y-36049D01*
X11850Y-36070D01*
X11850Y-11670D01*
X11789Y-11523D01*
X11676Y-11411D01*
X11529Y-11350D01*
X11370Y-11349D01*
X11223Y-11410D01*
X11111Y-11523D01*
X11100Y-11549D01*
X11100Y-7370D01*
X11039Y-7223D01*
X10926Y-7111D01*
X10779Y-7050D01*
X10620Y-7049D01*
X10500Y-7099D01*
X10500Y-2700D01*
X10424Y-2517D01*
X10283Y-2376D01*
X10099Y-2300D01*
X9900Y-2299D01*
X9717Y-2375D01*
X9576Y-2516D01*
X9500Y-2700D01*
X9500Y-2701D01*
X9500Y-2700D01*
X9424Y-2517D01*
X9283Y-2376D01*
X9099Y-2300D01*
X8900Y-2299D01*
X8717Y-2375D01*
X8576Y-2516D01*
X8500Y-2700D01*
X8499Y-2899D01*
X8575Y-3082D01*
X8716Y-3223D01*
X8900Y-3299D01*
X9099Y-3300D01*
X9282Y-3224D01*
X9423Y-3083D01*
X9499Y-2899D01*
X9500Y-2700D01*
X9500Y-2701D01*
X9499Y-2899D01*
X9575Y-3082D01*
X9716Y-3223D01*
X9900Y-3299D01*
X10099Y-3300D01*
X10282Y-3224D01*
X10423Y-3083D01*
X10499Y-2899D01*
X10500Y-2700D01*
X10500Y-7099D01*
X10473Y-7110D01*
X10361Y-7223D01*
X10300Y-7370D01*
X10299Y-7529D01*
X10329Y-7600D01*
X10170Y-7599D01*
X10023Y-7660D01*
X9911Y-7773D01*
X9850Y-7920D01*
X9849Y-8079D01*
X9910Y-8226D01*
X10023Y-8338D01*
X10170Y-8399D01*
X10329Y-8400D01*
X10476Y-8339D01*
X10588Y-8226D01*
X10649Y-8079D01*
X10650Y-7920D01*
X10620Y-7849D01*
X10779Y-7850D01*
X10926Y-7789D01*
X11038Y-7676D01*
X11099Y-7529D01*
X11100Y-7370D01*
X11100Y-11549D01*
X11050Y-11670D01*
X11049Y-11829D01*
X11110Y-11976D01*
X11223Y-12088D01*
X11370Y-12149D01*
X11529Y-12150D01*
X11676Y-12089D01*
X11788Y-11976D01*
X11849Y-11829D01*
X11850Y-11670D01*
X11850Y-36070D01*
X11800Y-36091D01*
X11800Y-21120D01*
X11739Y-20973D01*
X11626Y-20861D01*
X11479Y-20800D01*
X11320Y-20799D01*
X11173Y-20860D01*
X11061Y-20973D01*
X11000Y-21120D01*
X10999Y-21279D01*
X11060Y-21426D01*
X11173Y-21538D01*
X11320Y-21599D01*
X11479Y-21600D01*
X11626Y-21539D01*
X11738Y-21426D01*
X11799Y-21279D01*
X11800Y-21120D01*
X11800Y-36091D01*
X11717Y-36125D01*
X11600Y-36242D01*
X11600Y-34970D01*
X11600Y-31370D01*
X11539Y-31223D01*
X11426Y-31111D01*
X11279Y-31050D01*
X11120Y-31049D01*
X10973Y-31110D01*
X10861Y-31223D01*
X10800Y-31370D01*
X10799Y-31529D01*
X10860Y-31676D01*
X10973Y-31788D01*
X11120Y-31849D01*
X11279Y-31850D01*
X11426Y-31789D01*
X11538Y-31676D01*
X11599Y-31529D01*
X11600Y-31370D01*
X11600Y-34970D01*
X11539Y-34823D01*
X11426Y-34711D01*
X11279Y-34650D01*
X11120Y-34649D01*
X10973Y-34710D01*
X10861Y-34823D01*
X10800Y-34970D01*
X10799Y-35129D01*
X10860Y-35276D01*
X10973Y-35388D01*
X11120Y-35449D01*
X11279Y-35450D01*
X11426Y-35389D01*
X11538Y-35276D01*
X11599Y-35129D01*
X11600Y-34970D01*
X11600Y-36242D01*
X11576Y-36266D01*
X11500Y-36450D01*
X11500Y-36451D01*
X11500Y-36450D01*
X11424Y-36267D01*
X11283Y-36126D01*
X11099Y-36050D01*
X10900Y-36049D01*
X10717Y-36125D01*
X10576Y-36266D01*
X10500Y-36450D01*
X10500Y-36451D01*
X10500Y-36450D01*
X10424Y-36267D01*
X10283Y-36126D01*
X10150Y-36070D01*
X10150Y-21470D01*
X10089Y-21323D01*
X10000Y-21234D01*
X10000Y-8770D01*
X9939Y-8623D01*
X9826Y-8511D01*
X9679Y-8450D01*
X9520Y-8449D01*
X9373Y-8510D01*
X9261Y-8623D01*
X9200Y-8770D01*
X9199Y-8929D01*
X9260Y-9076D01*
X9373Y-9188D01*
X9520Y-9249D01*
X9679Y-9250D01*
X9826Y-9189D01*
X9938Y-9076D01*
X9999Y-8929D01*
X10000Y-8770D01*
X10000Y-21234D01*
X9976Y-21211D01*
X9829Y-21150D01*
X9670Y-21149D01*
X9523Y-21210D01*
X9411Y-21323D01*
X9350Y-21470D01*
X9349Y-21629D01*
X9410Y-21776D01*
X9523Y-21888D01*
X9670Y-21949D01*
X9829Y-21950D01*
X9976Y-21889D01*
X10088Y-21776D01*
X10149Y-21629D01*
X10150Y-21470D01*
X10150Y-36070D01*
X10099Y-36050D01*
X9900Y-36049D01*
X9717Y-36125D01*
X9650Y-36192D01*
X9650Y-31220D01*
X9589Y-31073D01*
X9500Y-30984D01*
X9500Y-22070D01*
X9439Y-21923D01*
X9326Y-21811D01*
X9179Y-21750D01*
X9020Y-21749D01*
X8900Y-21799D01*
X8900Y-8170D01*
X8839Y-8023D01*
X8726Y-7911D01*
X8579Y-7850D01*
X8477Y-7849D01*
X8477Y-2837D01*
X8455Y-2651D01*
X8426Y-2582D01*
X8357Y-2548D01*
X8251Y-2654D01*
X8251Y-2442D01*
X8217Y-2373D01*
X8037Y-2322D01*
X7851Y-2344D01*
X7782Y-2373D01*
X7748Y-2442D01*
X8000Y-2693D01*
X8251Y-2442D01*
X8251Y-2654D01*
X8106Y-2800D01*
X8357Y-3051D01*
X8426Y-3017D01*
X8477Y-2837D01*
X8477Y-7849D01*
X8420Y-7849D01*
X8273Y-7910D01*
X8251Y-7933D01*
X8251Y-3157D01*
X8000Y-2906D01*
X7893Y-3012D01*
X7893Y-2800D01*
X7642Y-2548D01*
X7573Y-2582D01*
X7522Y-2762D01*
X7544Y-2948D01*
X7573Y-3017D01*
X7642Y-3051D01*
X7893Y-2800D01*
X7893Y-3012D01*
X7748Y-3157D01*
X7782Y-3226D01*
X7962Y-3277D01*
X8148Y-3255D01*
X8217Y-3226D01*
X8251Y-3157D01*
X8251Y-7933D01*
X8161Y-8023D01*
X8100Y-8170D01*
X8099Y-8329D01*
X8160Y-8476D01*
X8273Y-8588D01*
X8420Y-8649D01*
X8579Y-8650D01*
X8726Y-8589D01*
X8838Y-8476D01*
X8899Y-8329D01*
X8900Y-8170D01*
X8900Y-21799D01*
X8873Y-21810D01*
X8761Y-21923D01*
X8700Y-22070D01*
X8699Y-22229D01*
X8760Y-22376D01*
X8873Y-22488D01*
X9020Y-22549D01*
X9179Y-22550D01*
X9326Y-22489D01*
X9438Y-22376D01*
X9499Y-22229D01*
X9500Y-22070D01*
X9500Y-30984D01*
X9476Y-30961D01*
X9329Y-30900D01*
X9170Y-30899D01*
X9023Y-30960D01*
X9000Y-30984D01*
X9000Y-30670D01*
X8939Y-30523D01*
X8826Y-30411D01*
X8800Y-30399D01*
X8800Y-26320D01*
X8739Y-26173D01*
X8626Y-26061D01*
X8479Y-26000D01*
X8320Y-25999D01*
X8173Y-26060D01*
X8100Y-26134D01*
X8100Y-11170D01*
X8039Y-11023D01*
X7926Y-10911D01*
X7779Y-10850D01*
X7620Y-10849D01*
X7500Y-10899D01*
X7500Y-2700D01*
X7424Y-2517D01*
X7283Y-2376D01*
X7099Y-2300D01*
X6900Y-2299D01*
X6717Y-2375D01*
X6576Y-2516D01*
X6500Y-2700D01*
X6500Y-2760D01*
X6500Y-2460D01*
X6469Y-2386D01*
X6413Y-2330D01*
X6339Y-2300D01*
X6260Y-2299D01*
X5660Y-2299D01*
X5586Y-2330D01*
X5530Y-2386D01*
X5500Y-2460D01*
X5499Y-2539D01*
X5499Y-3139D01*
X5530Y-3213D01*
X5586Y-3269D01*
X5660Y-3299D01*
X5739Y-3300D01*
X6339Y-3300D01*
X6413Y-3269D01*
X6469Y-3213D01*
X6499Y-3139D01*
X6500Y-3060D01*
X6500Y-2899D01*
X6575Y-3082D01*
X6716Y-3223D01*
X6900Y-3299D01*
X7099Y-3300D01*
X7282Y-3224D01*
X7423Y-3083D01*
X7499Y-2899D01*
X7500Y-2700D01*
X7500Y-10899D01*
X7473Y-10910D01*
X7361Y-11023D01*
X7300Y-11170D01*
X7299Y-11329D01*
X7360Y-11476D01*
X7473Y-11588D01*
X7620Y-11649D01*
X7779Y-11650D01*
X7926Y-11589D01*
X8038Y-11476D01*
X8099Y-11329D01*
X8100Y-11170D01*
X8100Y-26134D01*
X8061Y-26173D01*
X8000Y-26320D01*
X7999Y-26479D01*
X8060Y-26626D01*
X8173Y-26738D01*
X8320Y-26799D01*
X8479Y-26800D01*
X8626Y-26739D01*
X8738Y-26626D01*
X8799Y-26479D01*
X8800Y-26320D01*
X8800Y-30399D01*
X8679Y-30350D01*
X8520Y-30349D01*
X8373Y-30410D01*
X8300Y-30484D01*
X8300Y-26970D01*
X8239Y-26823D01*
X8126Y-26711D01*
X7979Y-26650D01*
X7820Y-26649D01*
X7673Y-26710D01*
X7561Y-26823D01*
X7500Y-26970D01*
X7499Y-27129D01*
X7560Y-27276D01*
X7673Y-27388D01*
X7820Y-27449D01*
X7979Y-27450D01*
X8126Y-27389D01*
X8238Y-27276D01*
X8299Y-27129D01*
X8300Y-26970D01*
X8300Y-30484D01*
X8261Y-30523D01*
X8200Y-30670D01*
X8199Y-30829D01*
X8260Y-30976D01*
X8373Y-31088D01*
X8520Y-31149D01*
X8679Y-31150D01*
X8826Y-31089D01*
X8938Y-30976D01*
X8999Y-30829D01*
X9000Y-30670D01*
X9000Y-30984D01*
X8911Y-31073D01*
X8850Y-31220D01*
X8849Y-31379D01*
X8910Y-31526D01*
X9023Y-31638D01*
X9170Y-31699D01*
X9329Y-31700D01*
X9476Y-31639D01*
X9588Y-31526D01*
X9649Y-31379D01*
X9650Y-31220D01*
X9650Y-36192D01*
X9576Y-36266D01*
X9500Y-36450D01*
X9500Y-36451D01*
X9500Y-36450D01*
X9424Y-36267D01*
X9283Y-36126D01*
X9099Y-36050D01*
X8900Y-36049D01*
X8717Y-36125D01*
X8576Y-36266D01*
X8500Y-36450D01*
X8500Y-36451D01*
X8500Y-36450D01*
X8424Y-36267D01*
X8283Y-36126D01*
X8099Y-36050D01*
X7900Y-36049D01*
X7717Y-36125D01*
X7576Y-36266D01*
X7500Y-36450D01*
X7500Y-36451D01*
X7500Y-36450D01*
X7424Y-36267D01*
X7283Y-36126D01*
X7099Y-36050D01*
X6900Y-36049D01*
X6750Y-36112D01*
X6750Y-32570D01*
X6689Y-32423D01*
X6600Y-32334D01*
X6600Y-12670D01*
X6600Y-11370D01*
X6539Y-11223D01*
X6426Y-11111D01*
X6279Y-11050D01*
X6120Y-11049D01*
X5973Y-11110D01*
X5861Y-11223D01*
X5800Y-11370D01*
X5799Y-11529D01*
X5860Y-11676D01*
X5973Y-11788D01*
X6120Y-11849D01*
X6279Y-11850D01*
X6426Y-11789D01*
X6538Y-11676D01*
X6599Y-11529D01*
X6600Y-11370D01*
X6600Y-12670D01*
X6539Y-12523D01*
X6426Y-12411D01*
X6279Y-12350D01*
X6120Y-12349D01*
X5973Y-12410D01*
X5861Y-12523D01*
X5800Y-12670D01*
X5799Y-12829D01*
X5860Y-12976D01*
X5973Y-13088D01*
X6120Y-13149D01*
X6279Y-13150D01*
X6426Y-13089D01*
X6538Y-12976D01*
X6599Y-12829D01*
X6600Y-12670D01*
X6600Y-32334D01*
X6576Y-32311D01*
X6429Y-32250D01*
X6270Y-32249D01*
X6150Y-32299D01*
X6150Y-22120D01*
X6089Y-21973D01*
X5976Y-21861D01*
X5829Y-21800D01*
X5670Y-21799D01*
X5523Y-21860D01*
X5411Y-21973D01*
X5350Y-22120D01*
X5349Y-22279D01*
X5410Y-22426D01*
X5523Y-22538D01*
X5670Y-22599D01*
X5829Y-22600D01*
X5976Y-22539D01*
X6088Y-22426D01*
X6149Y-22279D01*
X6150Y-22120D01*
X6150Y-32299D01*
X6123Y-32310D01*
X6011Y-32423D01*
X5950Y-32570D01*
X5949Y-32729D01*
X6010Y-32876D01*
X6123Y-32988D01*
X6270Y-33049D01*
X6429Y-33050D01*
X6576Y-32989D01*
X6688Y-32876D01*
X6749Y-32729D01*
X6750Y-32570D01*
X6750Y-36112D01*
X6717Y-36125D01*
X6576Y-36266D01*
X6500Y-36450D01*
X6500Y-36510D01*
X6500Y-36210D01*
X6469Y-36136D01*
X6413Y-36080D01*
X6339Y-36050D01*
X6260Y-36049D01*
X5800Y-36049D01*
X5800Y-32770D01*
X5739Y-32623D01*
X5626Y-32511D01*
X5479Y-32450D01*
X5450Y-32450D01*
X5450Y-27620D01*
X5389Y-27473D01*
X5276Y-27361D01*
X5129Y-27300D01*
X4970Y-27299D01*
X4823Y-27360D01*
X4800Y-27384D01*
X4800Y-21170D01*
X4739Y-21023D01*
X4626Y-20911D01*
X4479Y-20850D01*
X4320Y-20849D01*
X4173Y-20910D01*
X4061Y-21023D01*
X4000Y-21170D01*
X3999Y-21329D01*
X4060Y-21476D01*
X4173Y-21588D01*
X4320Y-21649D01*
X4479Y-21650D01*
X4626Y-21589D01*
X4738Y-21476D01*
X4799Y-21329D01*
X4800Y-21170D01*
X4800Y-27384D01*
X4711Y-27473D01*
X4650Y-27620D01*
X4649Y-27779D01*
X4710Y-27926D01*
X4823Y-28038D01*
X4970Y-28099D01*
X5129Y-28100D01*
X5276Y-28039D01*
X5388Y-27926D01*
X5449Y-27779D01*
X5450Y-27620D01*
X5450Y-32450D01*
X5320Y-32449D01*
X5173Y-32510D01*
X5061Y-32623D01*
X5000Y-32770D01*
X4999Y-32929D01*
X5060Y-33076D01*
X5173Y-33188D01*
X5320Y-33249D01*
X5479Y-33250D01*
X5626Y-33189D01*
X5738Y-33076D01*
X5799Y-32929D01*
X5800Y-32770D01*
X5800Y-36049D01*
X5660Y-36049D01*
X5586Y-36080D01*
X5530Y-36136D01*
X5500Y-36210D01*
X5499Y-36289D01*
X5499Y-36889D01*
X5530Y-36963D01*
X5586Y-37019D01*
X5660Y-37049D01*
X5739Y-37050D01*
X6339Y-37050D01*
X6413Y-37019D01*
X6469Y-36963D01*
X6499Y-36889D01*
X6500Y-36810D01*
X6500Y-36649D01*
X6575Y-36832D01*
X6716Y-36973D01*
X6900Y-37049D01*
X7099Y-37050D01*
X7282Y-36974D01*
X7423Y-36833D01*
X7499Y-36649D01*
X7500Y-36450D01*
X7500Y-36451D01*
X7499Y-36649D01*
X7575Y-36832D01*
X7716Y-36973D01*
X7900Y-37049D01*
X8099Y-37050D01*
X8282Y-36974D01*
X8423Y-36833D01*
X8499Y-36649D01*
X8500Y-36450D01*
X8500Y-36451D01*
X8499Y-36649D01*
X8575Y-36832D01*
X8716Y-36973D01*
X8900Y-37049D01*
X9099Y-37050D01*
X9282Y-36974D01*
X9423Y-36833D01*
X9499Y-36649D01*
X9500Y-36450D01*
X9500Y-36451D01*
X9499Y-36649D01*
X9575Y-36832D01*
X9716Y-36973D01*
X9900Y-37049D01*
X10099Y-37050D01*
X10282Y-36974D01*
X10423Y-36833D01*
X10499Y-36649D01*
X10500Y-36450D01*
X10500Y-36451D01*
X10499Y-36649D01*
X10575Y-36832D01*
X10716Y-36973D01*
X10900Y-37049D01*
X11099Y-37050D01*
X11282Y-36974D01*
X11423Y-36833D01*
X11499Y-36649D01*
X11500Y-36450D01*
X11500Y-36451D01*
X11499Y-36649D01*
X11575Y-36832D01*
X11716Y-36973D01*
X11900Y-37049D01*
X12099Y-37050D01*
X12282Y-36974D01*
X12423Y-36833D01*
X12499Y-36649D01*
X12500Y-36450D01*
X12500Y-36451D01*
X12499Y-36649D01*
X12575Y-36832D01*
X12716Y-36973D01*
X12900Y-37049D01*
X13099Y-37050D01*
X13282Y-36974D01*
X13423Y-36833D01*
X13499Y-36649D01*
X13500Y-36450D01*
X13500Y-36451D01*
X13499Y-36649D01*
X13575Y-36832D01*
X13716Y-36973D01*
X13900Y-37049D01*
X14099Y-37050D01*
X14282Y-36974D01*
X14423Y-36833D01*
X14499Y-36649D01*
X14500Y-36450D01*
X14500Y-37450D01*
X14424Y-37267D01*
X14283Y-37126D01*
X14099Y-37050D01*
X13900Y-37049D01*
X13717Y-37125D01*
X13576Y-37266D01*
X13500Y-37450D01*
X13500Y-37451D01*
X13500Y-37450D01*
X13424Y-37267D01*
X13283Y-37126D01*
X13099Y-37050D01*
X12900Y-37049D01*
X12717Y-37125D01*
X12576Y-37266D01*
X12500Y-37450D01*
X12500Y-37451D01*
X12500Y-37450D01*
X12424Y-37267D01*
X12283Y-37126D01*
X12099Y-37050D01*
X11900Y-37049D01*
X11717Y-37125D01*
X11576Y-37266D01*
X11500Y-37450D01*
X11500Y-37451D01*
X11500Y-37450D01*
X11424Y-37267D01*
X11283Y-37126D01*
X11099Y-37050D01*
X10900Y-37049D01*
X10717Y-37125D01*
X10576Y-37266D01*
X10500Y-37450D01*
X10500Y-37451D01*
X10500Y-37450D01*
X10424Y-37267D01*
X10283Y-37126D01*
X10099Y-37050D01*
X9900Y-37049D01*
X9717Y-37125D01*
X9576Y-37266D01*
X9500Y-37450D01*
X9500Y-37451D01*
X9500Y-37450D01*
X9424Y-37267D01*
X9283Y-37126D01*
X9099Y-37050D01*
X8900Y-37049D01*
X8717Y-37125D01*
X8576Y-37266D01*
X8500Y-37450D01*
X8500Y-37451D01*
X8500Y-37450D01*
X8424Y-37267D01*
X8283Y-37126D01*
X8099Y-37050D01*
X7900Y-37049D01*
X7717Y-37125D01*
X7576Y-37266D01*
X7500Y-37450D01*
X7500Y-37451D01*
X7500Y-37450D01*
X7424Y-37267D01*
X7283Y-37126D01*
X7099Y-37050D01*
X6900Y-37049D01*
X6717Y-37125D01*
X6576Y-37266D01*
X6500Y-37450D01*
X6499Y-37649D01*
X6575Y-37832D01*
X6716Y-37973D01*
X6900Y-38049D01*
X7099Y-38050D01*
X7282Y-37974D01*
X7423Y-37833D01*
X7499Y-37649D01*
X7500Y-37450D01*
X7500Y-37451D01*
X7499Y-37649D01*
X7575Y-37832D01*
X7716Y-37973D01*
X7900Y-38049D01*
X8099Y-38050D01*
X8282Y-37974D01*
X8423Y-37833D01*
X8499Y-37649D01*
X8500Y-37450D01*
X8500Y-37451D01*
X8499Y-37649D01*
X8575Y-37832D01*
X8716Y-37973D01*
X8900Y-38049D01*
X9099Y-38050D01*
X9282Y-37974D01*
X9423Y-37833D01*
X9499Y-37649D01*
X9500Y-37450D01*
X9500Y-37451D01*
X9499Y-37649D01*
X9575Y-37832D01*
X9716Y-37973D01*
X9900Y-38049D01*
X10099Y-38050D01*
X10282Y-37974D01*
X10423Y-37833D01*
X10499Y-37649D01*
X10500Y-37450D01*
X10500Y-37451D01*
X10499Y-37649D01*
X10575Y-37832D01*
X10716Y-37973D01*
X10900Y-38049D01*
X11099Y-38050D01*
X11282Y-37974D01*
X11423Y-37833D01*
X11499Y-37649D01*
X11500Y-37450D01*
X11500Y-37451D01*
X11499Y-37649D01*
X11575Y-37832D01*
X11716Y-37973D01*
X11900Y-38049D01*
X12099Y-38050D01*
X12282Y-37974D01*
X12423Y-37833D01*
X12499Y-37649D01*
X12500Y-37450D01*
X12500Y-37451D01*
X12499Y-37649D01*
X12575Y-37832D01*
X12716Y-37973D01*
X12900Y-38049D01*
X13099Y-38050D01*
X13282Y-37974D01*
X13423Y-37833D01*
X13499Y-37649D01*
X13500Y-37450D01*
X13500Y-37451D01*
X13499Y-37649D01*
X13575Y-37832D01*
X13716Y-37973D01*
X13900Y-38049D01*
X14099Y-38050D01*
X14282Y-37974D01*
X14423Y-37833D01*
X14499Y-37649D01*
X14500Y-37450D01*
X14500Y-38800D01*
X6470Y-38800D01*
X6470Y-37816D01*
X6470Y-37283D01*
X6469Y-37216D01*
X6444Y-37153D01*
X6396Y-37105D01*
X6333Y-37079D01*
X6117Y-37080D01*
X6075Y-37122D01*
X6075Y-37475D01*
X6427Y-37475D01*
X6470Y-37432D01*
X6470Y-37283D01*
X6470Y-37816D01*
X6470Y-37667D01*
X6427Y-37625D01*
X6075Y-37625D01*
X6075Y-37977D01*
X6117Y-38020D01*
X6333Y-38020D01*
X6396Y-37994D01*
X6444Y-37946D01*
X6469Y-37883D01*
X6470Y-37816D01*
X6470Y-38800D01*
X5925Y-38800D01*
X5925Y-37977D01*
X5925Y-37625D01*
X5925Y-37475D01*
X5925Y-37122D01*
X5882Y-37080D01*
X5666Y-37079D01*
X5603Y-37105D01*
X5555Y-37153D01*
X5530Y-37216D01*
X5529Y-37283D01*
X5530Y-37432D01*
X5572Y-37475D01*
X5925Y-37475D01*
X5925Y-37625D01*
X5572Y-37625D01*
X5530Y-37667D01*
X5529Y-37816D01*
X5530Y-37883D01*
X5555Y-37946D01*
X5603Y-37994D01*
X5666Y-38020D01*
X5882Y-38020D01*
X5925Y-37977D01*
X5925Y-38800D01*
X5250Y-38800D01*
X5250Y-33420D01*
X5189Y-33273D01*
X5076Y-33161D01*
X4929Y-33100D01*
X4800Y-33099D01*
X4800Y-28170D01*
X4739Y-28023D01*
X4626Y-27911D01*
X4479Y-27850D01*
X4320Y-27849D01*
X4173Y-27910D01*
X4061Y-28023D01*
X4000Y-28170D01*
X3999Y-28329D01*
X4060Y-28476D01*
X4173Y-28588D01*
X4320Y-28649D01*
X4479Y-28650D01*
X4626Y-28589D01*
X4738Y-28476D01*
X4799Y-28329D01*
X4800Y-28170D01*
X4800Y-33099D01*
X4770Y-33099D01*
X4623Y-33160D01*
X4511Y-33273D01*
X4450Y-33420D01*
X4449Y-33579D01*
X4510Y-33726D01*
X4623Y-33838D01*
X4770Y-33899D01*
X4929Y-33900D01*
X5076Y-33839D01*
X5188Y-33726D01*
X5249Y-33579D01*
X5250Y-33420D01*
X5250Y-38800D01*
X3200Y-38800D01*
X3200Y-11770D01*
X3139Y-11623D01*
X3026Y-11511D01*
X2879Y-11450D01*
X2720Y-11449D01*
X2573Y-11510D01*
X2461Y-11623D01*
X2400Y-11770D01*
X2399Y-11929D01*
X2460Y-12076D01*
X2573Y-12188D01*
X2720Y-12249D01*
X2879Y-12250D01*
X3026Y-12189D01*
X3138Y-12076D01*
X3199Y-11929D01*
X3200Y-11770D01*
X3200Y-38800D01*
X3150Y-38800D01*
X3150Y-23320D01*
X3089Y-23173D01*
X2976Y-23061D01*
X2829Y-23000D01*
X2670Y-22999D01*
X2523Y-23060D01*
X2500Y-23084D01*
X2500Y-22820D01*
X2439Y-22673D01*
X2326Y-22561D01*
X2179Y-22500D01*
X2020Y-22499D01*
X1873Y-22560D01*
X1761Y-22673D01*
X1700Y-22820D01*
X1699Y-22979D01*
X1760Y-23126D01*
X1873Y-23238D01*
X2020Y-23299D01*
X2179Y-23300D01*
X2326Y-23239D01*
X2438Y-23126D01*
X2499Y-22979D01*
X2500Y-22820D01*
X2500Y-23084D01*
X2411Y-23173D01*
X2350Y-23320D01*
X2349Y-23479D01*
X2410Y-23626D01*
X2523Y-23738D01*
X2670Y-23799D01*
X2829Y-23800D01*
X2976Y-23739D01*
X3088Y-23626D01*
X3149Y-23479D01*
X3150Y-23320D01*
X3150Y-38800D01*
X854Y-38800D01*
X735Y-38776D01*
X638Y-38711D01*
X573Y-38614D01*
X550Y-38495D01*
X550Y-854D01*
X573Y-735D01*
X638Y-638D01*
X735Y-573D01*
X854Y-550D01*
X56145Y-550D01*
X56264Y-573D01*
X56361Y-638D01*
X56426Y-735D01*
X56450Y-854D01*
X56450Y-26795D01*
M02*
