G04 (created by PCBNEW (2013-03-19 BZR 4004)-stable) date 7/29/2015 9:45:37 AM*
%MOIN*%
G04 Gerber Fmt 3.4, Leading zero omitted, Abs format*
%FSLAX34Y34*%
G01*
G70*
G90*
G04 APERTURE LIST*
%ADD10C,0.007*%
%ADD11R,0.065X0.12*%
%ADD12R,0.24X0.24*%
%ADD13R,0.0315X0.0394*%
%ADD14R,0.0394X0.0315*%
%ADD15R,0.012X0.04*%
%ADD16R,0.055X0.03*%
%ADD17R,0.035X0.055*%
%ADD18R,0.055X0.035*%
%ADD19R,0.05X0.1*%
%ADD20R,0.1X0.05*%
%ADD21R,0.07X0.025*%
%ADD22R,0.025X0.07*%
%ADD23R,0.025X0.06*%
%ADD24R,0.04X0.04*%
%ADD25R,0.04X0.03*%
%ADD26R,0.04X0.014*%
%ADD27R,0.05X0.04*%
%ADD28R,0.075X0.165*%
%ADD29R,0.165X0.075*%
%ADD30R,0.126X0.1024*%
%ADD31C,0.2*%
%ADD32C,0.18*%
%ADD33R,0.06X0.06*%
%ADD34C,0.06*%
G04 APERTURE END LIST*
G54D10*
G54D11*
X52550Y-7600D03*
G54D12*
X53450Y-5100D03*
G54D11*
X54350Y-7600D03*
G54D13*
X50300Y-11483D03*
X49925Y-10617D03*
X50675Y-10617D03*
G54D14*
X35067Y-33700D03*
X35933Y-33325D03*
X35933Y-34075D03*
G54D15*
X5950Y-29200D03*
X6150Y-29200D03*
X6350Y-29200D03*
X6550Y-29200D03*
X6550Y-28100D03*
X6350Y-28100D03*
X6150Y-28100D03*
X5950Y-28100D03*
X8450Y-29200D03*
X8650Y-29200D03*
X8850Y-29200D03*
X9050Y-29200D03*
X9050Y-28100D03*
X8850Y-28100D03*
X8650Y-28100D03*
X8450Y-28100D03*
G54D16*
X19250Y-24500D03*
X19250Y-23500D03*
X20650Y-24500D03*
X19250Y-24000D03*
X20650Y-23500D03*
G54D17*
X49975Y-8000D03*
X50725Y-8000D03*
X17425Y-21100D03*
X18175Y-21100D03*
G54D18*
X20050Y-31575D03*
X20050Y-32325D03*
G54D17*
X6875Y-19400D03*
X6125Y-19400D03*
X18175Y-25700D03*
X17425Y-25700D03*
G54D18*
X5900Y-31275D03*
X5900Y-32025D03*
G54D17*
X18175Y-24550D03*
X17425Y-24550D03*
G54D18*
X12350Y-34475D03*
X12350Y-33725D03*
G54D17*
X12125Y-20550D03*
X11375Y-20550D03*
X17425Y-23400D03*
X18175Y-23400D03*
X18175Y-26850D03*
X17425Y-26850D03*
G54D18*
X9750Y-22875D03*
X9750Y-22125D03*
G54D17*
X5125Y-20600D03*
X4375Y-20600D03*
X13875Y-19400D03*
X13125Y-19400D03*
X12125Y-19400D03*
X11375Y-19400D03*
X5125Y-19400D03*
X4375Y-19400D03*
X13875Y-20550D03*
X13125Y-20550D03*
X19125Y-4550D03*
X18375Y-4550D03*
G54D18*
X2750Y-22125D03*
X2750Y-22875D03*
G54D17*
X4375Y-18250D03*
X5125Y-18250D03*
X6875Y-18250D03*
X6125Y-18250D03*
X13875Y-18250D03*
X13125Y-18250D03*
X11375Y-18250D03*
X12125Y-18250D03*
X19875Y-22250D03*
X20625Y-22250D03*
X23375Y-4550D03*
X22625Y-4550D03*
X14975Y-8000D03*
X15725Y-8000D03*
X12675Y-5450D03*
X11925Y-5450D03*
X12725Y-12500D03*
X13475Y-12500D03*
X14725Y-13650D03*
X15475Y-13650D03*
X14725Y-12500D03*
X15475Y-12500D03*
X15725Y-5450D03*
X14975Y-5450D03*
X20875Y-6850D03*
X20125Y-6850D03*
X19225Y-12500D03*
X19975Y-12500D03*
X19225Y-13650D03*
X19975Y-13650D03*
G54D18*
X21350Y-11325D03*
X21350Y-12075D03*
G54D17*
X18375Y-6850D03*
X19125Y-6850D03*
X20125Y-8000D03*
X20875Y-8000D03*
X14975Y-6850D03*
X15725Y-6850D03*
X19125Y-5700D03*
X18375Y-5700D03*
X20125Y-5700D03*
X20875Y-5700D03*
X20125Y-4550D03*
X20875Y-4550D03*
X25125Y-6850D03*
X24375Y-6850D03*
X23475Y-12500D03*
X24225Y-12500D03*
X23475Y-13650D03*
X24225Y-13650D03*
G54D18*
X25600Y-11325D03*
X25600Y-12075D03*
G54D17*
X22625Y-6850D03*
X23375Y-6850D03*
X24375Y-8000D03*
X25125Y-8000D03*
X6975Y-10550D03*
X6225Y-10550D03*
X23375Y-5700D03*
X22625Y-5700D03*
X24375Y-5700D03*
X25125Y-5700D03*
X24375Y-4550D03*
X25125Y-4550D03*
G54D18*
X11200Y-32775D03*
X11200Y-32025D03*
X8600Y-32025D03*
X8600Y-31275D03*
X10050Y-34475D03*
X10050Y-33725D03*
X10050Y-32025D03*
X10050Y-32775D03*
X20050Y-30625D03*
X20050Y-29875D03*
G54D17*
X2325Y-32850D03*
X3075Y-32850D03*
G54D18*
X5050Y-29025D03*
X5050Y-28275D03*
G54D17*
X9175Y-27050D03*
X8425Y-27050D03*
X17425Y-22250D03*
X18175Y-22250D03*
X36125Y-26900D03*
X36875Y-26900D03*
X2325Y-31650D03*
X3075Y-31650D03*
X4075Y-32850D03*
X4825Y-32850D03*
G54D18*
X15650Y-31975D03*
X15650Y-31225D03*
X11200Y-33725D03*
X11200Y-34475D03*
X12350Y-32025D03*
X12350Y-32775D03*
X18900Y-32325D03*
X18900Y-31575D03*
G54D17*
X16825Y-30100D03*
X17575Y-30100D03*
X6225Y-12100D03*
X6975Y-12100D03*
X4525Y-13700D03*
X5275Y-13700D03*
X4525Y-12550D03*
X5275Y-12550D03*
X6875Y-5450D03*
X7625Y-5450D03*
X6975Y-9250D03*
X6225Y-9250D03*
X4525Y-6850D03*
X5275Y-6850D03*
X4525Y-8000D03*
X5275Y-8000D03*
X9225Y-5450D03*
X9975Y-5450D03*
X12675Y-9200D03*
X13425Y-9200D03*
X11475Y-8000D03*
X10725Y-8000D03*
G54D18*
X16850Y-11325D03*
X16850Y-12075D03*
G54D17*
X41375Y-16300D03*
X40625Y-16300D03*
X39275Y-15700D03*
X38525Y-15700D03*
X39275Y-16900D03*
X38525Y-16900D03*
X38525Y-12100D03*
X39275Y-12100D03*
X39275Y-19800D03*
X38525Y-19800D03*
X32975Y-11200D03*
X32225Y-11200D03*
X32975Y-15150D03*
X32225Y-15150D03*
X32975Y-16300D03*
X32225Y-16300D03*
X32975Y-12350D03*
X32225Y-12350D03*
X32225Y-19800D03*
X32975Y-19800D03*
X41375Y-11200D03*
X40625Y-11200D03*
X41375Y-15150D03*
X40625Y-15150D03*
X38525Y-10900D03*
X39275Y-10900D03*
X6875Y-20600D03*
X6125Y-20600D03*
X40625Y-19800D03*
X41375Y-19800D03*
X30875Y-10900D03*
X30125Y-10900D03*
X30875Y-15700D03*
X30125Y-15700D03*
X30875Y-16900D03*
X30125Y-16900D03*
X30875Y-12100D03*
X30125Y-12100D03*
X30875Y-19800D03*
X30125Y-19800D03*
X42725Y-10900D03*
X43475Y-10900D03*
X42725Y-15700D03*
X43475Y-15700D03*
X42725Y-16900D03*
X43475Y-16900D03*
X48225Y-11400D03*
X48975Y-11400D03*
G54D18*
X54750Y-10075D03*
X54750Y-10825D03*
G54D17*
X50775Y-23800D03*
X50025Y-23800D03*
G54D18*
X54900Y-19525D03*
X54900Y-20275D03*
X52200Y-20275D03*
X52200Y-19525D03*
G54D17*
X45225Y-2050D03*
X44475Y-2050D03*
X44425Y-3850D03*
X45175Y-3850D03*
X50675Y-9550D03*
X49925Y-9550D03*
X48225Y-12550D03*
X48975Y-12550D03*
X49925Y-12550D03*
X50675Y-12550D03*
X41375Y-12350D03*
X40625Y-12350D03*
X34325Y-10900D03*
X35075Y-10900D03*
X34325Y-15700D03*
X35075Y-15700D03*
X34325Y-16900D03*
X35075Y-16900D03*
X34325Y-12100D03*
X35075Y-12100D03*
G54D18*
X42750Y-6575D03*
X42750Y-7325D03*
X28250Y-5125D03*
X28250Y-5875D03*
X42750Y-23125D03*
X42750Y-23875D03*
X28250Y-22375D03*
X28250Y-21625D03*
G54D17*
X34375Y-19800D03*
X35125Y-19800D03*
G54D18*
X35650Y-29125D03*
X35650Y-28375D03*
X38150Y-32925D03*
X38150Y-32175D03*
X37000Y-32925D03*
X37000Y-32175D03*
X37000Y-34325D03*
X37000Y-35075D03*
X39300Y-35075D03*
X39300Y-34325D03*
X32900Y-35075D03*
X32900Y-34325D03*
X37950Y-28375D03*
X37950Y-29125D03*
X36800Y-29125D03*
X36800Y-28375D03*
G54D17*
X42725Y-12100D03*
X43475Y-12100D03*
G54D18*
X33350Y-28375D03*
X33350Y-29125D03*
X30550Y-32225D03*
X30550Y-32975D03*
X31700Y-32225D03*
X31700Y-32975D03*
X34500Y-29125D03*
X34500Y-28375D03*
X37950Y-30275D03*
X37950Y-31025D03*
X36800Y-31025D03*
X36800Y-30275D03*
X34500Y-31025D03*
X34500Y-30275D03*
X33350Y-30275D03*
X33350Y-31025D03*
X35650Y-31025D03*
X35650Y-30275D03*
X38150Y-35075D03*
X38150Y-34325D03*
X24850Y-21875D03*
X24850Y-22625D03*
X23700Y-22625D03*
X23700Y-21875D03*
G54D17*
X21625Y-20400D03*
X22375Y-20400D03*
X20625Y-21100D03*
X19875Y-21100D03*
G54D18*
X39300Y-32175D03*
X39300Y-32925D03*
G54D17*
X42725Y-19800D03*
X43475Y-19800D03*
X28775Y-11200D03*
X28025Y-11200D03*
X28775Y-15150D03*
X28025Y-15150D03*
X28775Y-16300D03*
X28025Y-16300D03*
X28775Y-12350D03*
X28025Y-12350D03*
X28775Y-19800D03*
X28025Y-19800D03*
X37175Y-11200D03*
X36425Y-11200D03*
X37175Y-15150D03*
X36425Y-15150D03*
X37175Y-16300D03*
X36425Y-16300D03*
X37175Y-12350D03*
X36425Y-12350D03*
X37175Y-19800D03*
X36425Y-19800D03*
X35125Y-32300D03*
X35875Y-32300D03*
G54D18*
X34050Y-34325D03*
X34050Y-35075D03*
X36900Y-6575D03*
X36900Y-5825D03*
X34100Y-6575D03*
X34100Y-5825D03*
G54D17*
X35875Y-35100D03*
X35125Y-35100D03*
X43375Y-32250D03*
X44125Y-32250D03*
X25625Y-32250D03*
X24875Y-32250D03*
G54D18*
X29400Y-25525D03*
X29400Y-26275D03*
G54D17*
X13475Y-11300D03*
X12725Y-11300D03*
G54D18*
X2800Y-11325D03*
X2800Y-10575D03*
G54D17*
X5125Y-17100D03*
X4375Y-17100D03*
X6875Y-17100D03*
X6125Y-17100D03*
X12125Y-17100D03*
X11375Y-17100D03*
X13875Y-17100D03*
X13125Y-17100D03*
X8225Y-15950D03*
X7475Y-15950D03*
X10725Y-15950D03*
X9975Y-15950D03*
G54D18*
X52550Y-9125D03*
X52550Y-9875D03*
G54D19*
X41600Y-13750D03*
X40400Y-13750D03*
X38300Y-9500D03*
X39500Y-9500D03*
G54D20*
X32600Y-8850D03*
X32600Y-10050D03*
X15250Y-18300D03*
X15250Y-17100D03*
X32600Y-17450D03*
X32600Y-18650D03*
G54D19*
X33200Y-13750D03*
X32000Y-13750D03*
X32850Y-32550D03*
X34050Y-32550D03*
G54D20*
X10000Y-18300D03*
X10000Y-17100D03*
X40700Y-33100D03*
X40700Y-34300D03*
G54D19*
X39500Y-18350D03*
X38300Y-18350D03*
G54D20*
X41000Y-17450D03*
X41000Y-18650D03*
X41000Y-8850D03*
X41000Y-10050D03*
G54D19*
X38200Y-25500D03*
X39400Y-25500D03*
G54D20*
X30500Y-13300D03*
X30500Y-14500D03*
G54D19*
X31100Y-18350D03*
X29900Y-18350D03*
X31150Y-9450D03*
X29950Y-9450D03*
G54D20*
X35500Y-4650D03*
X35500Y-5850D03*
X43100Y-13300D03*
X43100Y-14500D03*
G54D19*
X42500Y-18350D03*
X43700Y-18350D03*
G54D20*
X36800Y-8850D03*
X36800Y-10050D03*
G54D19*
X42500Y-9500D03*
X43700Y-9500D03*
X29000Y-13750D03*
X27800Y-13750D03*
G54D20*
X28400Y-17450D03*
X28400Y-18650D03*
X36800Y-17450D03*
X36800Y-18650D03*
X28400Y-8850D03*
X28400Y-10050D03*
G54D19*
X37400Y-13750D03*
X36200Y-13750D03*
X35050Y-26900D03*
X33850Y-26900D03*
G54D20*
X3000Y-20600D03*
X3000Y-19400D03*
G54D19*
X32200Y-30650D03*
X31000Y-30650D03*
X40300Y-30650D03*
X39100Y-30650D03*
G54D20*
X8250Y-20600D03*
X8250Y-19400D03*
X3000Y-18300D03*
X3000Y-17100D03*
X8250Y-18300D03*
X8250Y-17100D03*
G54D19*
X32200Y-28750D03*
X31000Y-28750D03*
X40300Y-28750D03*
X39100Y-28750D03*
G54D20*
X15250Y-20600D03*
X15250Y-19400D03*
X34700Y-13300D03*
X34700Y-14500D03*
G54D19*
X34100Y-18350D03*
X35300Y-18350D03*
X31750Y-34700D03*
X30550Y-34700D03*
X34100Y-9500D03*
X35300Y-9500D03*
G54D20*
X10000Y-20600D03*
X10000Y-19400D03*
G54D19*
X32300Y-25500D03*
X31100Y-25500D03*
G54D20*
X38900Y-13300D03*
X38900Y-14500D03*
G54D21*
X8500Y-8750D03*
X8500Y-9250D03*
X8500Y-9750D03*
X8500Y-10250D03*
X8500Y-10750D03*
X8500Y-11250D03*
X8500Y-11750D03*
X8500Y-12250D03*
X10700Y-12250D03*
X10700Y-11750D03*
X10700Y-11250D03*
X10700Y-10750D03*
X10700Y-10250D03*
X10700Y-9750D03*
X10700Y-9250D03*
X10700Y-8750D03*
G54D22*
X10750Y-25100D03*
X11250Y-25100D03*
X11750Y-25100D03*
X12250Y-25100D03*
X12750Y-25100D03*
X13250Y-25100D03*
X13750Y-25100D03*
X14250Y-25100D03*
X14250Y-22900D03*
X13750Y-22900D03*
X13250Y-22900D03*
X12750Y-22900D03*
X12250Y-22900D03*
X11750Y-22900D03*
X11250Y-22900D03*
X10750Y-22900D03*
X3750Y-25100D03*
X4250Y-25100D03*
X4750Y-25100D03*
X5250Y-25100D03*
X5750Y-25100D03*
X6250Y-25100D03*
X6750Y-25100D03*
X7250Y-25100D03*
X7250Y-22900D03*
X6750Y-22900D03*
X6250Y-22900D03*
X5750Y-22900D03*
X5250Y-22900D03*
X4750Y-22900D03*
X4250Y-22900D03*
X3750Y-22900D03*
G54D21*
X27850Y-31500D03*
X27850Y-31000D03*
X27850Y-30500D03*
X27850Y-30000D03*
X27850Y-29500D03*
X27850Y-29000D03*
X27850Y-28500D03*
X27850Y-28000D03*
X25650Y-28000D03*
X25650Y-28500D03*
X25650Y-29000D03*
X25650Y-29500D03*
X25650Y-30000D03*
X25650Y-30500D03*
X25650Y-31000D03*
X25650Y-31500D03*
X46350Y-31500D03*
X46350Y-31000D03*
X46350Y-30500D03*
X46350Y-30000D03*
X46350Y-29500D03*
X46350Y-29000D03*
X46350Y-28500D03*
X46350Y-28000D03*
X44150Y-28000D03*
X44150Y-28500D03*
X44150Y-29000D03*
X44150Y-29500D03*
X44150Y-30000D03*
X44150Y-30500D03*
X44150Y-31000D03*
X44150Y-31500D03*
G54D22*
X41700Y-21650D03*
X41200Y-21650D03*
X40700Y-21650D03*
X40200Y-21650D03*
X39700Y-21650D03*
X39200Y-21650D03*
X38700Y-21650D03*
X38200Y-21650D03*
X38200Y-23850D03*
X38700Y-23850D03*
X39200Y-23850D03*
X39700Y-23850D03*
X40200Y-23850D03*
X40700Y-23850D03*
X41200Y-23850D03*
X41700Y-23850D03*
X29300Y-23850D03*
X29800Y-23850D03*
X30300Y-23850D03*
X30800Y-23850D03*
X31300Y-23850D03*
X31800Y-23850D03*
X32300Y-23850D03*
X32800Y-23850D03*
X32800Y-21650D03*
X32300Y-21650D03*
X31800Y-21650D03*
X31300Y-21650D03*
X30800Y-21650D03*
X30300Y-21650D03*
X29800Y-21650D03*
X29300Y-21650D03*
X41700Y-5100D03*
X41200Y-5100D03*
X40700Y-5100D03*
X40200Y-5100D03*
X39700Y-5100D03*
X39200Y-5100D03*
X38700Y-5100D03*
X38200Y-5100D03*
X38200Y-7300D03*
X38700Y-7300D03*
X39200Y-7300D03*
X39700Y-7300D03*
X40200Y-7300D03*
X40700Y-7300D03*
X41200Y-7300D03*
X41700Y-7300D03*
X29300Y-7300D03*
X29800Y-7300D03*
X30300Y-7300D03*
X30800Y-7300D03*
X31300Y-7300D03*
X31800Y-7300D03*
X32300Y-7300D03*
X32800Y-7300D03*
X32800Y-5100D03*
X32300Y-5100D03*
X31800Y-5100D03*
X31300Y-5100D03*
X30800Y-5100D03*
X30300Y-5100D03*
X29800Y-5100D03*
X29300Y-5100D03*
G54D23*
X24600Y-11300D03*
X24600Y-9200D03*
X24100Y-11300D03*
X23600Y-11300D03*
X23100Y-11300D03*
X24100Y-9200D03*
X23600Y-9200D03*
X23100Y-9200D03*
X20350Y-11300D03*
X20350Y-9200D03*
X19850Y-11300D03*
X19350Y-11300D03*
X18850Y-11300D03*
X19850Y-9200D03*
X19350Y-9200D03*
X18850Y-9200D03*
X15850Y-11300D03*
X15850Y-9200D03*
X15350Y-11300D03*
X14850Y-11300D03*
X14350Y-11300D03*
X15350Y-9200D03*
X14850Y-9200D03*
X14350Y-9200D03*
X5300Y-11300D03*
X5300Y-9200D03*
X4800Y-11300D03*
X4300Y-11300D03*
X3800Y-11300D03*
X4800Y-9200D03*
X4300Y-9200D03*
X3800Y-9200D03*
X46500Y-8100D03*
X46500Y-10200D03*
X47000Y-8100D03*
X47500Y-8100D03*
X48000Y-8100D03*
X47000Y-10200D03*
X47500Y-10200D03*
X48000Y-10200D03*
G54D24*
X12600Y-14850D03*
X12600Y-13650D03*
X13650Y-13650D03*
X13650Y-14850D03*
X13850Y-6800D03*
X13850Y-8000D03*
X12650Y-8000D03*
X12650Y-6800D03*
X7550Y-8000D03*
X7550Y-6800D03*
X6400Y-6800D03*
X6400Y-8000D03*
X3500Y-13750D03*
X3500Y-12550D03*
X2450Y-12550D03*
X2450Y-13750D03*
G54D25*
X17800Y-31950D03*
X17800Y-31150D03*
X16800Y-31950D03*
X17800Y-31550D03*
X16800Y-31150D03*
X22600Y-22250D03*
X22600Y-21450D03*
X21600Y-22250D03*
X22600Y-21850D03*
X21600Y-21450D03*
G54D26*
X4100Y-31400D03*
X4100Y-31900D03*
X4800Y-31400D03*
X4100Y-31650D03*
X4800Y-31900D03*
G54D15*
X6850Y-32550D03*
X7050Y-32550D03*
X7250Y-32550D03*
X7450Y-32550D03*
X7650Y-32550D03*
X7650Y-30750D03*
X7450Y-30750D03*
X7250Y-30750D03*
X7050Y-30750D03*
X6850Y-30750D03*
G54D27*
X6350Y-34350D03*
X7250Y-34350D03*
X7250Y-33650D03*
X6350Y-33650D03*
G54D28*
X20600Y-18700D03*
X20600Y-16000D03*
G54D29*
X48650Y-21050D03*
X45950Y-21050D03*
X48650Y-17200D03*
X45950Y-17200D03*
X47300Y-4150D03*
X50000Y-4150D03*
G54D28*
X24450Y-18700D03*
X24450Y-16000D03*
G54D30*
X51900Y-17850D03*
X51900Y-14850D03*
X54950Y-14850D03*
X54950Y-17850D03*
G54D31*
X52700Y-23750D03*
G54D32*
X55200Y-23750D03*
X53900Y-25650D03*
G54D33*
X6000Y-2800D03*
G54D34*
X7000Y-2800D03*
X8000Y-2800D03*
X9000Y-2800D03*
X10000Y-2800D03*
X11000Y-2800D03*
X12000Y-2800D03*
X13000Y-2800D03*
X14000Y-2800D03*
X15000Y-2800D03*
X16000Y-2800D03*
X17000Y-2800D03*
G54D33*
X31000Y-37550D03*
G54D34*
X32000Y-37550D03*
X33000Y-37550D03*
X34000Y-37550D03*
X35000Y-37550D03*
X36000Y-37550D03*
X37000Y-37550D03*
X38000Y-37550D03*
X39000Y-37550D03*
X40000Y-37550D03*
X41000Y-37550D03*
X42000Y-37550D03*
G54D33*
X31000Y-36550D03*
G54D34*
X32000Y-36550D03*
X33000Y-36550D03*
X34000Y-36550D03*
X35000Y-36550D03*
X36000Y-36550D03*
X37000Y-36550D03*
X38000Y-36550D03*
X39000Y-36550D03*
X40000Y-36550D03*
X41000Y-36550D03*
X42000Y-36550D03*
G54D33*
X6000Y-37550D03*
G54D34*
X7000Y-37550D03*
X8000Y-37550D03*
X9000Y-37550D03*
X10000Y-37550D03*
X11000Y-37550D03*
X12000Y-37550D03*
X13000Y-37550D03*
X14000Y-37550D03*
X15000Y-37550D03*
X16000Y-37550D03*
X17000Y-37550D03*
G54D33*
X6000Y-36550D03*
G54D34*
X7000Y-36550D03*
X8000Y-36550D03*
X9000Y-36550D03*
X10000Y-36550D03*
X11000Y-36550D03*
X12000Y-36550D03*
X13000Y-36550D03*
X14000Y-36550D03*
X15000Y-36550D03*
X16000Y-36550D03*
X17000Y-36550D03*
G54D33*
X31000Y-1800D03*
G54D34*
X32000Y-1800D03*
X33000Y-1800D03*
X34000Y-1800D03*
X35000Y-1800D03*
X36000Y-1800D03*
X37000Y-1800D03*
X38000Y-1800D03*
X39000Y-1800D03*
X40000Y-1800D03*
X41000Y-1800D03*
X42000Y-1800D03*
G54D33*
X33000Y-2800D03*
G54D34*
X34000Y-2800D03*
X35000Y-2800D03*
X36000Y-2800D03*
X37000Y-2800D03*
X38000Y-2800D03*
X39000Y-2800D03*
X40000Y-2800D03*
X41000Y-2800D03*
X42000Y-2800D03*
M02*
