G04 (created by PCBNEW (2013-03-19 BZR 4004)-stable) date 7/29/2015 9:45:37 AM*
%MOIN*%
G04 Gerber Fmt 3.4, Leading zero omitted, Abs format*
%FSLAX34Y34*%
G01*
G70*
G90*
G04 APERTURE LIST*
%ADD10C,0.007*%
%ADD11C,0.2*%
%ADD12C,0.18*%
%ADD13R,0.06X0.06*%
%ADD14C,0.06*%
G04 APERTURE END LIST*
G54D10*
G54D11*
X52700Y-23750D03*
G54D12*
X55200Y-23750D03*
X53900Y-25650D03*
G54D13*
X6000Y-2800D03*
G54D14*
X7000Y-2800D03*
X8000Y-2800D03*
X9000Y-2800D03*
X10000Y-2800D03*
X11000Y-2800D03*
X12000Y-2800D03*
X13000Y-2800D03*
X14000Y-2800D03*
X15000Y-2800D03*
X16000Y-2800D03*
X17000Y-2800D03*
G54D13*
X31000Y-37550D03*
G54D14*
X32000Y-37550D03*
X33000Y-37550D03*
X34000Y-37550D03*
X35000Y-37550D03*
X36000Y-37550D03*
X37000Y-37550D03*
X38000Y-37550D03*
X39000Y-37550D03*
X40000Y-37550D03*
X41000Y-37550D03*
X42000Y-37550D03*
G54D13*
X31000Y-36550D03*
G54D14*
X32000Y-36550D03*
X33000Y-36550D03*
X34000Y-36550D03*
X35000Y-36550D03*
X36000Y-36550D03*
X37000Y-36550D03*
X38000Y-36550D03*
X39000Y-36550D03*
X40000Y-36550D03*
X41000Y-36550D03*
X42000Y-36550D03*
G54D13*
X6000Y-37550D03*
G54D14*
X7000Y-37550D03*
X8000Y-37550D03*
X9000Y-37550D03*
X10000Y-37550D03*
X11000Y-37550D03*
X12000Y-37550D03*
X13000Y-37550D03*
X14000Y-37550D03*
X15000Y-37550D03*
X16000Y-37550D03*
X17000Y-37550D03*
G54D13*
X6000Y-36550D03*
G54D14*
X7000Y-36550D03*
X8000Y-36550D03*
X9000Y-36550D03*
X10000Y-36550D03*
X11000Y-36550D03*
X12000Y-36550D03*
X13000Y-36550D03*
X14000Y-36550D03*
X15000Y-36550D03*
X16000Y-36550D03*
X17000Y-36550D03*
G54D13*
X31000Y-1800D03*
G54D14*
X32000Y-1800D03*
X33000Y-1800D03*
X34000Y-1800D03*
X35000Y-1800D03*
X36000Y-1800D03*
X37000Y-1800D03*
X38000Y-1800D03*
X39000Y-1800D03*
X40000Y-1800D03*
X41000Y-1800D03*
X42000Y-1800D03*
G54D13*
X33000Y-2800D03*
G54D14*
X34000Y-2800D03*
X35000Y-2800D03*
X36000Y-2800D03*
X37000Y-2800D03*
X38000Y-2800D03*
X39000Y-2800D03*
X40000Y-2800D03*
X41000Y-2800D03*
X42000Y-2800D03*
M02*
