M48
;DRILL file {Pcbnew (2013-03-19 BZR 4004)-stable} date 8/2/2015 8:33:47 AM
;FORMAT={2:4/ absolute / inch / keep zeros}
FMAT,2
INCH,TZ
T1C0.020
T2C0.038
T3C0.120
T4C0.140
%
G90
G05
M72
T1
X000800Y-001500
X000800Y-005850
X000800Y-009850
X000800Y-013850
X000800Y-017850
X000800Y-021850
X000800Y-025850
X000800Y-029850
X000800Y-033850
X000800Y-037850
X002100Y-017750
X002100Y-020000
X002100Y-022150
X002100Y-022900
X002450Y-009950
X002750Y-021550
X002750Y-023400
X002800Y-011850
X003000Y-024550
X003100Y-033500
X003150Y-007550
X003300Y-009200
X003750Y-021200
X003750Y-034450
X003800Y-009900
X003800Y-016150
X003850Y-018850
X003850Y-020000
X003850Y-026600
X004050Y-033500
X004250Y-022250
X004400Y-021250
X004400Y-028250
X004400Y-029050
X004600Y-004900
X004650Y-025900
X004800Y-001500
X004800Y-030950
X004850Y-033500
X005050Y-027700
X005050Y-029600
X005400Y-032850
X005600Y-020000
X005600Y-033700
X005650Y-017700
X005700Y-023700
X005750Y-022200
X005750Y-027500
X005750Y-034900
X006000Y-013550
X006200Y-011450
X006200Y-012750
X006350Y-030650
X006350Y-032650
X006550Y-026850
X006550Y-029800
X006650Y-021250
X006750Y-025850
X006900Y-015400
X006950Y-029250
X007000Y-011450
X007000Y-028100
X007250Y-030200
X007250Y-031650
X007400Y-018850
X007400Y-020000
X007650Y-022250
X007650Y-025100
X007700Y-011250
X007800Y-021250
X007800Y-034950
X007850Y-012250
X007900Y-027050
X007950Y-023300
X008000Y-028100
X008000Y-029200
X008000Y-033900
X008400Y-026400
X008500Y-008250
X008500Y-012650
X008600Y-030750
X008600Y-032550
X008800Y-001500
X008800Y-021400
X008800Y-030100
X009100Y-020000
X009100Y-022150
X009100Y-034350
X009150Y-017750
X009200Y-023300
X009200Y-026400
X009250Y-031300
X009250Y-032000
X009450Y-014950
X009450Y-029250
X009550Y-028150
X009600Y-008850
X009750Y-021550
X010050Y-031500
X010050Y-035050
X010100Y-024900
X010200Y-026700
X010250Y-008000
X010550Y-029000
X010700Y-007450
X010800Y-021150
X010850Y-018850
X010850Y-020000
X011100Y-005950
X011200Y-031450
X011200Y-035050
X011250Y-022250
X011250Y-027850
X011300Y-026000
X011400Y-015300
X011400Y-021200
X011450Y-011750
X011500Y-007450
X011550Y-010550
X011950Y-008000
X012650Y-017700
X012650Y-020000
X012700Y-010750
X012750Y-022200
X012750Y-024000
X012800Y-001500
X013000Y-031350
X013500Y-010300
X013500Y-032050
X013500Y-034500
X013550Y-005700
X013750Y-025850
X013750Y-028700
X013800Y-021200
X013950Y-009250
X014350Y-008650
X014400Y-018850
X014450Y-020000
X014500Y-016250
X014650Y-025100
X014700Y-022200
X014750Y-021300
X014850Y-032050
X014950Y-023300
X015650Y-030650
X015650Y-032900
X015800Y-021500
X016150Y-012100
X016250Y-018100
X016700Y-027150
X016700Y-032850
X016750Y-025150
X016800Y-001500
X016800Y-022850
X016850Y-010750
X016850Y-020450
X017300Y-033950
X017500Y-011300
X017500Y-012100
X017600Y-014950
X017700Y-005200
X018150Y-030100
X018450Y-009200
X018650Y-020450
X018750Y-025100
X018850Y-008650
X018850Y-010300
X018850Y-027150
X018900Y-031000
X019200Y-037750
X019250Y-014400
X019250Y-021100
X019250Y-022250
X019400Y-029900
X019800Y-016000
X020050Y-029250
X020100Y-025100
X020650Y-012100
X020700Y-030650
X020700Y-031600
X020800Y-001500
X021350Y-010800
X021350Y-022950
X021350Y-024050
X021350Y-026700
X021400Y-016000
X021450Y-004550
X021450Y-025400
X021500Y-006850
X021550Y-033900
X021800Y-030750
X022000Y-011300
X022000Y-012100
X022600Y-012650
X022700Y-009200
X022800Y-026750
X022800Y-028150
X022950Y-020400
X023100Y-008650
X023100Y-010300
X023550Y-037750
X023650Y-016000
X023650Y-018700
X023700Y-021300
X024350Y-025050
X024400Y-032250
X024450Y-014800
X024450Y-019950
X024500Y-027500
X024800Y-001500
X024850Y-021350
X024850Y-028550
X024850Y-030500
X024900Y-032800
X025250Y-016000
X025250Y-018700
X025500Y-021850
X025600Y-010800
X025600Y-012650
X025650Y-032900
X025700Y-004550
X025700Y-006850
X026200Y-032250
X026250Y-011300
X026250Y-012100
X026400Y-030500
X026500Y-027150
X026750Y-034450
X027050Y-031000
X027350Y-012750
X027350Y-015100
X027400Y-017500
X027450Y-010500
X027650Y-005100
X027650Y-005900
X027650Y-021600
X027650Y-022400
X027700Y-020600
X027850Y-027600
X027850Y-031900
X027850Y-037800
X028250Y-004600
X028250Y-006400
X028250Y-021100
X028250Y-022900
X028300Y-007800
X028300Y-025000
X028500Y-028000
X028700Y-031500
X028700Y-032950
X028800Y-001500
X028850Y-007300
X028850Y-023850
X028950Y-034550
X029250Y-027800
X029400Y-010500
X029400Y-017450
X029450Y-020250
X029450Y-030650
X029500Y-015100
X029550Y-004250
X029550Y-012750
X029800Y-023150
X029800Y-031900
X029850Y-006600
X029850Y-033600
X030000Y-029750
X030200Y-005850
X030200Y-035750
X030250Y-022350
X030300Y-024650
X030350Y-008550
X030450Y-026650
X030550Y-033500
X031050Y-027750
X031450Y-004150
X031500Y-012750
X031500Y-015100
X031550Y-020250
X031600Y-010500
X031600Y-017400
X031700Y-024650
X031700Y-033500
X032150Y-029700
X032150Y-031600
X032400Y-033650
X032500Y-035750
X032800Y-006600
X032800Y-023250
X033000Y-024950
X033050Y-026200
X033100Y-027600
X033200Y-023850
X033250Y-007300
X033300Y-004500
X033450Y-021400
X033500Y-008750
X033500Y-033650
X033600Y-010500
X033600Y-017400
X033600Y-020250
X033700Y-015100
X033750Y-012750
X033900Y-029700
X034300Y-008150
X034350Y-035750
X034500Y-031650
X034600Y-005250
X035250Y-024950
X035350Y-022950
X035500Y-006600
X035700Y-012750
X035700Y-026050
X035700Y-027650
X035750Y-015100
X035750Y-017400
X035750Y-020500
X035850Y-010500
X036050Y-003800
X036200Y-029750
X036350Y-005250
X036350Y-008100
X036500Y-035800
X036550Y-033650
X036900Y-007150
X037400Y-031600
X037450Y-024950
X037500Y-023150
X037500Y-026350
X037600Y-005150
X037600Y-007250
X037800Y-010500
X037800Y-021650
X037850Y-008600
X037850Y-017400
X037850Y-020000
X037850Y-033650
X037900Y-012750
X037900Y-015100
X037900Y-027600
X038200Y-004400
X038200Y-021000
X038500Y-035800
X038550Y-029700
X038800Y-024650
X039200Y-004300
X039200Y-033650
X039600Y-008550
X039950Y-012800
X039950Y-015100
X039950Y-020250
X040000Y-017400
X040050Y-010500
X040050Y-035500
X040150Y-026200
X040200Y-027600
X040200Y-031650
X040700Y-006600
X040700Y-023150
X041200Y-005800
X041200Y-022350
X041450Y-035600
X041700Y-029500
X041750Y-030900
X041800Y-024950
X041950Y-008500
X042000Y-010500
X042000Y-020100
X042050Y-017450
X042100Y-015100
X042150Y-012750
X042200Y-021650
X042250Y-005100
X042300Y-004400
X042650Y-028550
X042700Y-021100
X042700Y-026050
X042750Y-006050
X042750Y-007850
X042750Y-022600
X042750Y-024400
X042750Y-029950
X042800Y-032250
X042900Y-035800
X043050Y-008450
X043300Y-001950
X043300Y-030750
X043350Y-027750
X043350Y-032950
X043400Y-006550
X043400Y-007350
X043400Y-023100
X043400Y-023900
X043500Y-037850
X043850Y-024950
X043950Y-001550
X043950Y-002550
X044150Y-012750
X044150Y-015100
X044150Y-032900
X044200Y-010500
X044200Y-019500
X044300Y-017500
X044400Y-005250
X044500Y-007600
X044600Y-034300
X044700Y-032250
X044900Y-030500
X045100Y-026000
X045250Y-027300
X045450Y-010550
X045450Y-012250
X045500Y-013950
X045650Y-031000
X045800Y-001600
X045800Y-002500
X046000Y-016450
X046000Y-020300
X046000Y-021800
X046050Y-017950
X046250Y-011050
X046350Y-024950
X046350Y-031950
X046500Y-006600
X047000Y-001950
X047000Y-007300
X047000Y-011050
X047050Y-026500
X047100Y-028000
X047200Y-012250
X047200Y-029050
X047200Y-030450
X047250Y-015650
X047350Y-013800
X047650Y-006600
X047700Y-021900
X047750Y-019150
X047900Y-025750
X048100Y-001600
X048100Y-002850
X048150Y-027250
X048200Y-007350
X048600Y-009500
X048650Y-016450
X048650Y-018000
X048650Y-020250
X049000Y-006800
X049050Y-001500
X049500Y-019150
X049650Y-011800
X049700Y-021950
X049750Y-015650
X049950Y-003400
X049950Y-004900
X050200Y-029850
X050200Y-033850
X050200Y-037850
X050350Y-013800
X050900Y-019400
X050950Y-017000
X051000Y-020550
X051000Y-021800
X051250Y-009550
X051300Y-011850
X051750Y-006150
X052200Y-020900
X052200Y-026850
X052650Y-001500
X052950Y-013800
X053050Y-015650
X053200Y-020450
X053450Y-003550
X053450Y-010550
X053450Y-017050
X053550Y-019450
X053700Y-013100
X054000Y-008650
X054000Y-009400
X054750Y-008650
X054750Y-009400
X055500Y-008650
X055500Y-009400
X055600Y-016950
X055650Y-019450
X056200Y-001500
X056200Y-005500
X056200Y-010500
X056200Y-014500
X056200Y-026850
X056250Y-020300
T2
X006000Y-002800
X006000Y-036550
X006000Y-037550
X007000Y-002800
X007000Y-036550
X007000Y-037550
X008000Y-002800
X008000Y-036550
X008000Y-037550
X009000Y-002800
X009000Y-036550
X009000Y-037550
X010000Y-002800
X010000Y-036550
X010000Y-037550
X011000Y-002800
X011000Y-036550
X011000Y-037550
X012000Y-002800
X012000Y-036550
X012000Y-037550
X013000Y-002800
X013000Y-036550
X013000Y-037550
X014000Y-002800
X014000Y-036550
X014000Y-037550
X015000Y-002800
X015000Y-036550
X015000Y-037550
X016000Y-002800
X016000Y-036550
X016000Y-037550
X017000Y-002800
X017000Y-036550
X017000Y-037550
X031000Y-001800
X031000Y-036550
X031000Y-037550
X032000Y-001800
X032000Y-036550
X032000Y-037550
X033000Y-001800
X033000Y-002800
X033000Y-036550
X033000Y-037550
X034000Y-001800
X034000Y-002800
X034000Y-036550
X034000Y-037550
X035000Y-001800
X035000Y-002800
X035000Y-036550
X035000Y-037550
X036000Y-001800
X036000Y-002800
X036000Y-036550
X036000Y-037550
X037000Y-001800
X037000Y-002800
X037000Y-036550
X037000Y-037550
X038000Y-001800
X038000Y-002800
X038000Y-036550
X038000Y-037550
X039000Y-001800
X039000Y-002800
X039000Y-036550
X039000Y-037550
X040000Y-001800
X040000Y-002800
X040000Y-036550
X040000Y-037550
X041000Y-001800
X041000Y-002800
X041000Y-036550
X041000Y-037550
X042000Y-001800
X042000Y-002800
X042000Y-036550
X042000Y-037550
T3
X053900Y-025650
X055200Y-023750
T4
X052700Y-023750
T0
M30
