G04 (created by PCBNEW (2013-03-19 BZR 4004)-stable) date 8/2/2015 8:33:43 AM*
%MOIN*%
G04 Gerber Fmt 3.4, Leading zero omitted, Abs format*
%FSLAX34Y34*%
G01*
G70*
G90*
G04 APERTURE LIST*
%ADD10C,0.007*%
%ADD11C,0.015*%
%ADD12C,0.012*%
%ADD13C,0.008*%
%ADD14C,0.2*%
%ADD15C,0.18*%
%ADD16R,0.06X0.06*%
%ADD17C,0.06*%
G04 APERTURE END LIST*
G54D10*
G54D11*
X52450Y-25500D02*
X52800Y-25500D01*
X56800Y-25500D02*
X55050Y-25500D01*
X52450Y-25500D02*
X52450Y-24950D01*
X52450Y-22000D02*
X52450Y-22550D01*
X52450Y-22000D02*
X56800Y-22000D01*
G54D12*
X5500Y-2300D02*
X5500Y-2300D01*
X5500Y-2300D02*
X5500Y-3300D01*
X5500Y-3300D02*
X15500Y-3300D01*
X15500Y-2300D02*
X5500Y-2300D01*
X6500Y-2300D02*
X6500Y-3300D01*
X15500Y-3300D02*
X17250Y-3300D01*
X17250Y-3300D02*
X17500Y-3300D01*
X17500Y-3300D02*
X17500Y-2300D01*
X17500Y-2300D02*
X15500Y-2300D01*
X30500Y-36050D02*
X30500Y-36050D01*
X30500Y-36050D02*
X30500Y-37050D01*
X30500Y-37050D02*
X40500Y-37050D01*
X40500Y-36050D02*
X30500Y-36050D01*
X31500Y-36050D02*
X31500Y-37050D01*
X40500Y-37050D02*
X42250Y-37050D01*
X42250Y-37050D02*
X42500Y-37050D01*
X42500Y-37050D02*
X42500Y-36050D01*
X42500Y-36050D02*
X40500Y-36050D01*
X5500Y-36050D02*
X5500Y-36050D01*
X5500Y-36050D02*
X5500Y-37050D01*
X5500Y-37050D02*
X15500Y-37050D01*
X15500Y-36050D02*
X5500Y-36050D01*
X6500Y-36050D02*
X6500Y-37050D01*
X15500Y-37050D02*
X17250Y-37050D01*
X17250Y-37050D02*
X17500Y-37050D01*
X17500Y-37050D02*
X17500Y-36050D01*
X17500Y-36050D02*
X15500Y-36050D01*
X32500Y-2300D02*
X32500Y-3300D01*
X32500Y-3300D02*
X42500Y-3300D01*
X42500Y-3300D02*
X42500Y-2300D01*
X42500Y-2300D02*
X32500Y-2300D01*
X33500Y-2300D02*
X33500Y-3300D01*
G54D13*
X55733Y-25811D02*
X55733Y-26097D01*
X55752Y-26154D01*
X55790Y-26192D01*
X55847Y-26211D01*
X55885Y-26211D01*
X55485Y-25983D02*
X55523Y-25964D01*
X55542Y-25945D01*
X55561Y-25907D01*
X55561Y-25888D01*
X55542Y-25850D01*
X55523Y-25830D01*
X55485Y-25811D01*
X55409Y-25811D01*
X55371Y-25830D01*
X55352Y-25850D01*
X55333Y-25888D01*
X55333Y-25907D01*
X55352Y-25945D01*
X55371Y-25964D01*
X55409Y-25983D01*
X55485Y-25983D01*
X55523Y-26002D01*
X55542Y-26021D01*
X55561Y-26059D01*
X55561Y-26135D01*
X55542Y-26173D01*
X55523Y-26192D01*
X55485Y-26211D01*
X55409Y-26211D01*
X55371Y-26192D01*
X55352Y-26173D01*
X55333Y-26135D01*
X55333Y-26059D01*
X55352Y-26021D01*
X55371Y-26002D01*
X55409Y-25983D01*
G54D10*
X4966Y-2591D02*
X4966Y-2841D01*
X4983Y-2891D01*
X5016Y-2925D01*
X5066Y-2941D01*
X5100Y-2941D01*
X4833Y-2591D02*
X4600Y-2591D01*
X4750Y-2941D01*
X30166Y-36341D02*
X30166Y-36591D01*
X30183Y-36641D01*
X30216Y-36675D01*
X30266Y-36691D01*
X30300Y-36691D01*
X29833Y-36341D02*
X30000Y-36341D01*
X30016Y-36508D01*
X30000Y-36491D01*
X29966Y-36475D01*
X29883Y-36475D01*
X29850Y-36491D01*
X29833Y-36508D01*
X29816Y-36541D01*
X29816Y-36625D01*
X29833Y-36658D01*
X29850Y-36675D01*
X29883Y-36691D01*
X29966Y-36691D01*
X30000Y-36675D01*
X30016Y-36658D01*
X5166Y-36341D02*
X5166Y-36591D01*
X5183Y-36641D01*
X5216Y-36675D01*
X5266Y-36691D01*
X5300Y-36691D01*
X5033Y-36341D02*
X4816Y-36341D01*
X4933Y-36475D01*
X4883Y-36475D01*
X4850Y-36491D01*
X4833Y-36508D01*
X4816Y-36541D01*
X4816Y-36625D01*
X4833Y-36658D01*
X4850Y-36675D01*
X4883Y-36691D01*
X4983Y-36691D01*
X5016Y-36675D01*
X5033Y-36658D01*
X31966Y-2691D02*
X31966Y-2941D01*
X31983Y-2991D01*
X32016Y-3025D01*
X32066Y-3041D01*
X32100Y-3041D01*
X31616Y-3041D02*
X31816Y-3041D01*
X31716Y-3041D02*
X31716Y-2691D01*
X31750Y-2741D01*
X31783Y-2775D01*
X31816Y-2791D01*
%LPC*%
G54D14*
X52700Y-23750D03*
G54D15*
X55200Y-23750D03*
X53900Y-25650D03*
G54D16*
X6000Y-2800D03*
G54D17*
X7000Y-2800D03*
X8000Y-2800D03*
X9000Y-2800D03*
X10000Y-2800D03*
X11000Y-2800D03*
X12000Y-2800D03*
X13000Y-2800D03*
X14000Y-2800D03*
X15000Y-2800D03*
X16000Y-2800D03*
X17000Y-2800D03*
G54D16*
X31000Y-37550D03*
G54D17*
X32000Y-37550D03*
X33000Y-37550D03*
X34000Y-37550D03*
X35000Y-37550D03*
X36000Y-37550D03*
X37000Y-37550D03*
X38000Y-37550D03*
X39000Y-37550D03*
X40000Y-37550D03*
X41000Y-37550D03*
X42000Y-37550D03*
G54D16*
X31000Y-36550D03*
G54D17*
X32000Y-36550D03*
X33000Y-36550D03*
X34000Y-36550D03*
X35000Y-36550D03*
X36000Y-36550D03*
X37000Y-36550D03*
X38000Y-36550D03*
X39000Y-36550D03*
X40000Y-36550D03*
X41000Y-36550D03*
X42000Y-36550D03*
G54D16*
X6000Y-37550D03*
G54D17*
X7000Y-37550D03*
X8000Y-37550D03*
X9000Y-37550D03*
X10000Y-37550D03*
X11000Y-37550D03*
X12000Y-37550D03*
X13000Y-37550D03*
X14000Y-37550D03*
X15000Y-37550D03*
X16000Y-37550D03*
X17000Y-37550D03*
G54D16*
X6000Y-36550D03*
G54D17*
X7000Y-36550D03*
X8000Y-36550D03*
X9000Y-36550D03*
X10000Y-36550D03*
X11000Y-36550D03*
X12000Y-36550D03*
X13000Y-36550D03*
X14000Y-36550D03*
X15000Y-36550D03*
X16000Y-36550D03*
X17000Y-36550D03*
G54D16*
X31000Y-1800D03*
G54D17*
X32000Y-1800D03*
X33000Y-1800D03*
X34000Y-1800D03*
X35000Y-1800D03*
X36000Y-1800D03*
X37000Y-1800D03*
X38000Y-1800D03*
X39000Y-1800D03*
X40000Y-1800D03*
X41000Y-1800D03*
X42000Y-1800D03*
G54D16*
X33000Y-2800D03*
G54D17*
X34000Y-2800D03*
X35000Y-2800D03*
X36000Y-2800D03*
X37000Y-2800D03*
X38000Y-2800D03*
X39000Y-2800D03*
X40000Y-2800D03*
X41000Y-2800D03*
X42000Y-2800D03*
M02*
