M48
;DRILL file {Pcbnew (2013-03-19 BZR 4004)-stable} date 8/2/2015 7:03:19 AM
;FORMAT={2:4/ absolute / inch / keep zeros}
FMAT,2
INCH,TZ
T1C0.025
T2C0.038
T3C0.046
T4C0.054
T5C0.094
%
G90
G05
M72
T1
X002950Y-009050
X002950Y-010650
X002950Y-013550
X004450Y-007550
X007050Y-013550
X008950Y-007550
X013150Y-007550
X014350Y-013550
X016750Y-007750
X016750Y-010000
X019150Y-010850
X019150Y-013550
X021100Y-007600
X022200Y-008700
X022200Y-010300
X023350Y-007600
X025100Y-009700
X025250Y-007600
T2
X017950Y-017350
X017950Y-018350
X018950Y-017350
X018950Y-018350
X019950Y-017350
X019950Y-018350
X020950Y-017350
X020950Y-018350
X021950Y-017350
X021950Y-018350
X022950Y-017350
X022950Y-018350
X023950Y-017350
X023950Y-018350
X024950Y-017350
X024950Y-018350
T3
X004440Y-000615
X004440Y-015185
X022750Y-000615
X022750Y-015185
T4
X028400Y-007800
X028400Y-011450
X029400Y-000900
X029400Y-018350
X030350Y-007800
X030350Y-011450
X031300Y-000900
X031300Y-018350
X032300Y-007800
X032300Y-011450
T5
X027450Y-003650
X027450Y-015600
X033250Y-003650
X033250Y-015600
T0
M30
