G04 (created by PCBNEW (2013-03-19 BZR 4004)-stable) date 8/2/2015 7:03:12 AM*
%MOIN*%
G04 Gerber Fmt 3.4, Leading zero omitted, Abs format*
%FSLAX34Y34*%
G01*
G70*
G90*
G04 APERTURE LIST*
%ADD10C,0.007*%
%ADD11C,0.008*%
%ADD12C,0.1*%
%ADD13C,0.18*%
%ADD14C,0.08*%
%ADD15R,0.06X0.06*%
%ADD16C,0.06*%
%ADD17C,0.035*%
%ADD18C,0.012*%
%ADD19C,0.01*%
G04 APERTURE END LIST*
G54D10*
G54D11*
X12411Y-1702D02*
X12354Y-1721D01*
X12335Y-1740D01*
X12316Y-1778D01*
X12316Y-1835D01*
X12335Y-1873D01*
X12354Y-1892D01*
X12392Y-1911D01*
X12545Y-1911D01*
X12545Y-1511D01*
X12411Y-1511D01*
X12373Y-1530D01*
X12354Y-1550D01*
X12335Y-1588D01*
X12335Y-1626D01*
X12354Y-1664D01*
X12373Y-1683D01*
X12411Y-1702D01*
X12545Y-1702D01*
X12069Y-1511D02*
X11992Y-1511D01*
X11954Y-1530D01*
X11916Y-1569D01*
X11897Y-1645D01*
X11897Y-1778D01*
X11916Y-1854D01*
X11954Y-1892D01*
X11992Y-1911D01*
X12069Y-1911D01*
X12107Y-1892D01*
X12145Y-1854D01*
X12164Y-1778D01*
X12164Y-1645D01*
X12145Y-1569D01*
X12107Y-1530D01*
X12069Y-1511D01*
X11783Y-1511D02*
X11554Y-1511D01*
X11669Y-1911D02*
X11669Y-1511D01*
X11478Y-1511D02*
X11250Y-1511D01*
X11364Y-1911D02*
X11364Y-1511D01*
X11040Y-1511D02*
X10964Y-1511D01*
X10926Y-1530D01*
X10888Y-1569D01*
X10869Y-1645D01*
X10869Y-1778D01*
X10888Y-1854D01*
X10926Y-1892D01*
X10964Y-1911D01*
X11040Y-1911D01*
X11078Y-1892D01*
X11116Y-1854D01*
X11135Y-1778D01*
X11135Y-1645D01*
X11116Y-1569D01*
X11078Y-1530D01*
X11040Y-1511D01*
X10697Y-1911D02*
X10697Y-1511D01*
X10564Y-1797D01*
X10430Y-1511D01*
X10430Y-1911D01*
X9745Y-1911D02*
X9935Y-1911D01*
X9935Y-1511D01*
X9630Y-1797D02*
X9440Y-1797D01*
X9669Y-1911D02*
X9535Y-1511D01*
X9402Y-1911D01*
X9192Y-1721D02*
X9192Y-1911D01*
X9326Y-1511D02*
X9192Y-1721D01*
X9059Y-1511D01*
X8926Y-1702D02*
X8792Y-1702D01*
X8735Y-1911D02*
X8926Y-1911D01*
X8926Y-1511D01*
X8735Y-1511D01*
X8335Y-1911D02*
X8469Y-1721D01*
X8564Y-1911D02*
X8564Y-1511D01*
X8411Y-1511D01*
X8373Y-1530D01*
X8354Y-1550D01*
X8335Y-1588D01*
X8335Y-1645D01*
X8354Y-1683D01*
X8373Y-1702D01*
X8411Y-1721D01*
X8564Y-1721D01*
G54D12*
X31300Y-900D03*
X29400Y-900D03*
X32300Y-7800D03*
X30350Y-7800D03*
G54D13*
X33250Y-3650D03*
X27450Y-3650D03*
G54D12*
X28400Y-7800D03*
X29400Y-18350D03*
X31300Y-18350D03*
X28400Y-11450D03*
X30350Y-11450D03*
G54D13*
X27450Y-15600D03*
X33250Y-15600D03*
G54D12*
X32300Y-11450D03*
G54D14*
X22750Y-15185D03*
X22750Y-615D03*
X4440Y-615D03*
X4440Y-15185D03*
G54D15*
X17950Y-17350D03*
G54D16*
X17950Y-18350D03*
X18950Y-17350D03*
X18950Y-18350D03*
X19950Y-17350D03*
X19950Y-18350D03*
X20950Y-17350D03*
X20950Y-18350D03*
X21950Y-17350D03*
X21950Y-18350D03*
X22950Y-17350D03*
X22950Y-18350D03*
X23950Y-17350D03*
X23950Y-18350D03*
X24950Y-17350D03*
X24950Y-18350D03*
G54D17*
X25100Y-9700D03*
X23350Y-7600D03*
X25250Y-7600D03*
X22200Y-10300D03*
X22200Y-8700D03*
X21100Y-7600D03*
X13150Y-7550D03*
X8950Y-7550D03*
X4450Y-7550D03*
X2950Y-9050D03*
X2950Y-10650D03*
X2950Y-13550D03*
X7050Y-13550D03*
X14350Y-13550D03*
X19150Y-13550D03*
X19150Y-10850D03*
X16750Y-7750D03*
X16750Y-10000D03*
G54D18*
X25250Y-7600D02*
X23350Y-7600D01*
X21100Y-7600D02*
X22200Y-8700D01*
X8950Y-7550D02*
X13150Y-7550D01*
X2950Y-9050D02*
X4450Y-7550D01*
X2950Y-13550D02*
X2950Y-10650D01*
X14350Y-13550D02*
X7050Y-13550D01*
X19150Y-10850D02*
X19150Y-13550D01*
G54D10*
G36*
X36600Y-16862D02*
X36587Y-16924D01*
X36560Y-16964D01*
X34564Y-18960D01*
X34524Y-18987D01*
X34462Y-19000D01*
X34350Y-19000D01*
X34350Y-15382D01*
X34350Y-3432D01*
X34183Y-3027D01*
X33873Y-2718D01*
X33469Y-2550D01*
X33032Y-2549D01*
X32627Y-2716D01*
X32318Y-3026D01*
X32150Y-3430D01*
X32149Y-3867D01*
X32316Y-4272D01*
X32626Y-4581D01*
X33030Y-4749D01*
X33467Y-4750D01*
X33872Y-4583D01*
X34181Y-4273D01*
X34349Y-3869D01*
X34350Y-3432D01*
X34350Y-15382D01*
X34183Y-14977D01*
X33873Y-14668D01*
X33469Y-14500D01*
X33032Y-14499D01*
X33000Y-14513D01*
X33000Y-11311D01*
X32974Y-11248D01*
X32974Y-7910D01*
X32965Y-7644D01*
X32880Y-7439D01*
X32786Y-7383D01*
X32716Y-7454D01*
X32716Y-7313D01*
X32660Y-7219D01*
X32410Y-7125D01*
X32144Y-7134D01*
X31974Y-7205D01*
X31974Y-1010D01*
X31965Y-744D01*
X31880Y-539D01*
X31786Y-483D01*
X31370Y-900D01*
X31786Y-1316D01*
X31880Y-1260D01*
X31974Y-1010D01*
X31974Y-7205D01*
X31939Y-7219D01*
X31883Y-7313D01*
X32300Y-7729D01*
X32716Y-7313D01*
X32716Y-7454D01*
X32370Y-7800D01*
X32786Y-8216D01*
X32880Y-8160D01*
X32974Y-7910D01*
X32974Y-11248D01*
X32893Y-11054D01*
X32716Y-10876D01*
X32716Y-8286D01*
X32300Y-7870D01*
X32229Y-7941D01*
X32229Y-7800D01*
X31813Y-7383D01*
X31719Y-7439D01*
X31716Y-7448D01*
X31716Y-1386D01*
X31300Y-970D01*
X31229Y-1041D01*
X31229Y-900D01*
X30813Y-483D01*
X30719Y-539D01*
X30625Y-789D01*
X30634Y-1055D01*
X30719Y-1260D01*
X30813Y-1316D01*
X31229Y-900D01*
X31229Y-1041D01*
X30883Y-1386D01*
X30939Y-1480D01*
X31189Y-1574D01*
X31455Y-1565D01*
X31660Y-1480D01*
X31716Y-1386D01*
X31716Y-7448D01*
X31625Y-7689D01*
X31634Y-7955D01*
X31719Y-8160D01*
X31813Y-8216D01*
X32229Y-7800D01*
X32229Y-7941D01*
X31883Y-8286D01*
X31939Y-8380D01*
X32189Y-8474D01*
X32455Y-8465D01*
X32660Y-8380D01*
X32716Y-8286D01*
X32716Y-10876D01*
X32697Y-10856D01*
X32439Y-10750D01*
X32161Y-10749D01*
X31904Y-10856D01*
X31706Y-11052D01*
X31600Y-11310D01*
X31599Y-11588D01*
X31706Y-11846D01*
X31902Y-12043D01*
X32160Y-12149D01*
X32438Y-12150D01*
X32696Y-12043D01*
X32893Y-11847D01*
X32999Y-11589D01*
X33000Y-11311D01*
X33000Y-14513D01*
X32627Y-14666D01*
X32318Y-14976D01*
X32150Y-15380D01*
X32149Y-15817D01*
X32316Y-16222D01*
X32626Y-16531D01*
X33030Y-16699D01*
X33467Y-16700D01*
X33872Y-16533D01*
X34181Y-16223D01*
X34349Y-15819D01*
X34350Y-15382D01*
X34350Y-19000D01*
X31559Y-19000D01*
X31696Y-18943D01*
X31893Y-18747D01*
X31999Y-18489D01*
X32000Y-18211D01*
X31893Y-17954D01*
X31697Y-17756D01*
X31439Y-17650D01*
X31161Y-17649D01*
X31050Y-17695D01*
X31050Y-11311D01*
X31050Y-7661D01*
X30943Y-7404D01*
X30747Y-7206D01*
X30489Y-7100D01*
X30211Y-7099D01*
X29954Y-7206D01*
X29756Y-7402D01*
X29650Y-7660D01*
X29649Y-7938D01*
X29756Y-8196D01*
X29952Y-8393D01*
X30210Y-8499D01*
X30488Y-8500D01*
X30746Y-8393D01*
X30943Y-8197D01*
X31049Y-7939D01*
X31050Y-7661D01*
X31050Y-11311D01*
X30943Y-11054D01*
X30747Y-10856D01*
X30489Y-10750D01*
X30211Y-10749D01*
X29954Y-10856D01*
X29756Y-11052D01*
X29650Y-11310D01*
X29649Y-11588D01*
X29756Y-11846D01*
X29952Y-12043D01*
X30210Y-12149D01*
X30488Y-12150D01*
X30746Y-12043D01*
X30943Y-11847D01*
X31049Y-11589D01*
X31050Y-11311D01*
X31050Y-17695D01*
X30904Y-17756D01*
X30706Y-17952D01*
X30600Y-18210D01*
X30599Y-18488D01*
X30706Y-18746D01*
X30902Y-18943D01*
X31040Y-19000D01*
X30074Y-19000D01*
X30074Y-18460D01*
X30065Y-18194D01*
X29980Y-17989D01*
X29886Y-17933D01*
X29816Y-18004D01*
X29816Y-17863D01*
X29760Y-17769D01*
X29510Y-17675D01*
X29244Y-17684D01*
X29100Y-17744D01*
X29100Y-7661D01*
X28993Y-7404D01*
X28797Y-7206D01*
X28550Y-7104D01*
X28550Y-3432D01*
X28383Y-3027D01*
X28073Y-2718D01*
X27669Y-2550D01*
X27232Y-2549D01*
X26827Y-2716D01*
X26518Y-3026D01*
X26350Y-3430D01*
X26349Y-3867D01*
X26516Y-4272D01*
X26826Y-4581D01*
X27230Y-4749D01*
X27667Y-4750D01*
X28072Y-4583D01*
X28381Y-4273D01*
X28549Y-3869D01*
X28550Y-3432D01*
X28550Y-7104D01*
X28539Y-7100D01*
X28261Y-7099D01*
X28004Y-7206D01*
X27806Y-7402D01*
X27700Y-7660D01*
X27699Y-7938D01*
X27806Y-8196D01*
X28002Y-8393D01*
X28260Y-8499D01*
X28538Y-8500D01*
X28796Y-8393D01*
X28993Y-8197D01*
X29099Y-7939D01*
X29100Y-7661D01*
X29100Y-17744D01*
X29074Y-17755D01*
X29074Y-11560D01*
X29065Y-11294D01*
X28980Y-11089D01*
X28886Y-11033D01*
X28816Y-11104D01*
X28816Y-10963D01*
X28760Y-10869D01*
X28510Y-10775D01*
X28244Y-10784D01*
X28039Y-10869D01*
X27983Y-10963D01*
X28400Y-11379D01*
X28816Y-10963D01*
X28816Y-11104D01*
X28470Y-11450D01*
X28886Y-11866D01*
X28980Y-11810D01*
X29074Y-11560D01*
X29074Y-17755D01*
X29039Y-17769D01*
X28983Y-17863D01*
X29400Y-18279D01*
X29816Y-17863D01*
X29816Y-18004D01*
X29470Y-18350D01*
X29886Y-18766D01*
X29980Y-18710D01*
X30074Y-18460D01*
X30074Y-19000D01*
X29592Y-19000D01*
X29760Y-18930D01*
X29816Y-18836D01*
X29400Y-18420D01*
X29329Y-18491D01*
X29329Y-18350D01*
X28913Y-17933D01*
X28819Y-17989D01*
X28816Y-17998D01*
X28816Y-11936D01*
X28400Y-11520D01*
X28329Y-11591D01*
X28329Y-11450D01*
X27913Y-11033D01*
X27819Y-11089D01*
X27725Y-11339D01*
X27734Y-11605D01*
X27819Y-11810D01*
X27913Y-11866D01*
X28329Y-11450D01*
X28329Y-11591D01*
X27983Y-11936D01*
X28039Y-12030D01*
X28289Y-12124D01*
X28555Y-12115D01*
X28760Y-12030D01*
X28816Y-11936D01*
X28816Y-17998D01*
X28725Y-18239D01*
X28734Y-18505D01*
X28819Y-18710D01*
X28913Y-18766D01*
X29329Y-18350D01*
X29329Y-18491D01*
X28983Y-18836D01*
X29039Y-18930D01*
X29225Y-19000D01*
X28550Y-19000D01*
X28550Y-15382D01*
X28383Y-14977D01*
X28073Y-14668D01*
X27669Y-14500D01*
X27232Y-14499D01*
X26827Y-14666D01*
X26518Y-14976D01*
X26350Y-15380D01*
X26349Y-15817D01*
X26516Y-16222D01*
X26826Y-16531D01*
X27230Y-16699D01*
X27667Y-16700D01*
X28072Y-16533D01*
X28381Y-16223D01*
X28549Y-15819D01*
X28550Y-15382D01*
X28550Y-19000D01*
X25450Y-19000D01*
X25450Y-18250D01*
X25450Y-17250D01*
X25374Y-17067D01*
X25233Y-16926D01*
X25049Y-16850D01*
X24850Y-16849D01*
X24667Y-16925D01*
X24526Y-17066D01*
X24450Y-17250D01*
X24450Y-17251D01*
X24450Y-17250D01*
X24374Y-17067D01*
X24233Y-16926D01*
X24049Y-16850D01*
X23850Y-16849D01*
X23667Y-16925D01*
X23526Y-17066D01*
X23450Y-17250D01*
X23450Y-17251D01*
X23450Y-17250D01*
X23374Y-17067D01*
X23350Y-17043D01*
X23350Y-15066D01*
X23258Y-14845D01*
X23090Y-14676D01*
X22869Y-14585D01*
X22631Y-14584D01*
X22410Y-14676D01*
X22241Y-14844D01*
X22150Y-15065D01*
X22149Y-15303D01*
X22241Y-15524D01*
X22409Y-15693D01*
X22630Y-15784D01*
X22868Y-15785D01*
X23089Y-15693D01*
X23258Y-15525D01*
X23349Y-15304D01*
X23350Y-15066D01*
X23350Y-17043D01*
X23233Y-16926D01*
X23049Y-16850D01*
X22850Y-16849D01*
X22667Y-16925D01*
X22526Y-17066D01*
X22450Y-17250D01*
X22450Y-17251D01*
X22450Y-17250D01*
X22374Y-17067D01*
X22233Y-16926D01*
X22049Y-16850D01*
X21850Y-16849D01*
X21667Y-16925D01*
X21526Y-17066D01*
X21450Y-17250D01*
X21450Y-17251D01*
X21450Y-17250D01*
X21374Y-17067D01*
X21233Y-16926D01*
X21049Y-16850D01*
X20850Y-16849D01*
X20667Y-16925D01*
X20526Y-17066D01*
X20450Y-17250D01*
X20450Y-17251D01*
X20450Y-17250D01*
X20374Y-17067D01*
X20233Y-16926D01*
X20049Y-16850D01*
X19850Y-16849D01*
X19667Y-16925D01*
X19526Y-17066D01*
X19450Y-17250D01*
X19450Y-17251D01*
X19450Y-17250D01*
X19374Y-17067D01*
X19233Y-16926D01*
X19049Y-16850D01*
X18850Y-16849D01*
X18667Y-16925D01*
X18526Y-17066D01*
X18450Y-17250D01*
X18449Y-17449D01*
X18525Y-17632D01*
X18666Y-17773D01*
X18850Y-17849D01*
X19049Y-17850D01*
X19232Y-17774D01*
X19373Y-17633D01*
X19449Y-17449D01*
X19450Y-17250D01*
X19450Y-17251D01*
X19449Y-17449D01*
X19525Y-17632D01*
X19666Y-17773D01*
X19850Y-17849D01*
X20049Y-17850D01*
X20232Y-17774D01*
X20373Y-17633D01*
X20449Y-17449D01*
X20450Y-17250D01*
X20450Y-17251D01*
X20449Y-17449D01*
X20525Y-17632D01*
X20666Y-17773D01*
X20850Y-17849D01*
X21049Y-17850D01*
X21232Y-17774D01*
X21373Y-17633D01*
X21449Y-17449D01*
X21450Y-17250D01*
X21450Y-17251D01*
X21449Y-17449D01*
X21525Y-17632D01*
X21666Y-17773D01*
X21850Y-17849D01*
X22049Y-17850D01*
X22232Y-17774D01*
X22373Y-17633D01*
X22449Y-17449D01*
X22450Y-17250D01*
X22450Y-17251D01*
X22449Y-17449D01*
X22525Y-17632D01*
X22666Y-17773D01*
X22850Y-17849D01*
X23049Y-17850D01*
X23232Y-17774D01*
X23373Y-17633D01*
X23449Y-17449D01*
X23450Y-17250D01*
X23450Y-17251D01*
X23449Y-17449D01*
X23525Y-17632D01*
X23666Y-17773D01*
X23850Y-17849D01*
X24049Y-17850D01*
X24232Y-17774D01*
X24373Y-17633D01*
X24449Y-17449D01*
X24450Y-17250D01*
X24450Y-17251D01*
X24449Y-17449D01*
X24525Y-17632D01*
X24666Y-17773D01*
X24850Y-17849D01*
X25049Y-17850D01*
X25232Y-17774D01*
X25373Y-17633D01*
X25449Y-17449D01*
X25450Y-17250D01*
X25450Y-18250D01*
X25374Y-18067D01*
X25233Y-17926D01*
X25049Y-17850D01*
X24850Y-17849D01*
X24667Y-17925D01*
X24526Y-18066D01*
X24450Y-18250D01*
X24450Y-18251D01*
X24450Y-18250D01*
X24374Y-18067D01*
X24233Y-17926D01*
X24049Y-17850D01*
X23850Y-17849D01*
X23667Y-17925D01*
X23526Y-18066D01*
X23450Y-18250D01*
X23450Y-18251D01*
X23450Y-18250D01*
X23374Y-18067D01*
X23233Y-17926D01*
X23049Y-17850D01*
X22850Y-17849D01*
X22667Y-17925D01*
X22526Y-18066D01*
X22450Y-18250D01*
X22449Y-18449D01*
X22525Y-18632D01*
X22666Y-18773D01*
X22850Y-18849D01*
X23049Y-18850D01*
X23232Y-18774D01*
X23373Y-18633D01*
X23449Y-18449D01*
X23450Y-18250D01*
X23450Y-18251D01*
X23449Y-18449D01*
X23525Y-18632D01*
X23666Y-18773D01*
X23850Y-18849D01*
X24049Y-18850D01*
X24232Y-18774D01*
X24373Y-18633D01*
X24449Y-18449D01*
X24450Y-18250D01*
X24450Y-18251D01*
X24449Y-18449D01*
X24525Y-18632D01*
X24666Y-18773D01*
X24850Y-18849D01*
X25049Y-18850D01*
X25232Y-18774D01*
X25373Y-18633D01*
X25449Y-18449D01*
X25450Y-18250D01*
X25450Y-19000D01*
X22425Y-19000D01*
X22425Y-18412D01*
X22412Y-18226D01*
X22364Y-18110D01*
X22292Y-18078D01*
X22221Y-18149D01*
X22221Y-18007D01*
X22189Y-17935D01*
X22012Y-17874D01*
X21826Y-17887D01*
X21710Y-17935D01*
X21678Y-18007D01*
X21950Y-18279D01*
X22221Y-18007D01*
X22221Y-18149D01*
X22020Y-18350D01*
X22292Y-18621D01*
X22364Y-18589D01*
X22425Y-18412D01*
X22425Y-19000D01*
X22221Y-19000D01*
X22221Y-18692D01*
X21950Y-18420D01*
X21879Y-18491D01*
X21879Y-18350D01*
X21607Y-18078D01*
X21535Y-18110D01*
X21474Y-18287D01*
X21487Y-18473D01*
X21535Y-18589D01*
X21607Y-18621D01*
X21879Y-18350D01*
X21879Y-18491D01*
X21678Y-18692D01*
X21710Y-18764D01*
X21887Y-18825D01*
X22073Y-18812D01*
X22189Y-18764D01*
X22221Y-18692D01*
X22221Y-19000D01*
X21450Y-19000D01*
X21450Y-18250D01*
X21374Y-18067D01*
X21233Y-17926D01*
X21049Y-17850D01*
X20850Y-17849D01*
X20667Y-17925D01*
X20526Y-18066D01*
X20450Y-18250D01*
X20450Y-18251D01*
X20450Y-18250D01*
X20374Y-18067D01*
X20233Y-17926D01*
X20049Y-17850D01*
X19850Y-17849D01*
X19667Y-17925D01*
X19526Y-18066D01*
X19450Y-18250D01*
X19450Y-18251D01*
X19450Y-18250D01*
X19374Y-18067D01*
X19233Y-17926D01*
X19049Y-17850D01*
X18850Y-17849D01*
X18667Y-17925D01*
X18526Y-18066D01*
X18450Y-18250D01*
X18450Y-18251D01*
X18450Y-18250D01*
X18420Y-18178D01*
X18420Y-17616D01*
X18420Y-17083D01*
X18419Y-17016D01*
X18394Y-16953D01*
X18346Y-16905D01*
X18283Y-16879D01*
X18042Y-16880D01*
X18000Y-16922D01*
X18000Y-17300D01*
X18377Y-17300D01*
X18420Y-17257D01*
X18420Y-17083D01*
X18420Y-17616D01*
X18420Y-17442D01*
X18377Y-17400D01*
X18000Y-17400D01*
X18000Y-17777D01*
X18042Y-17820D01*
X18283Y-17820D01*
X18346Y-17794D01*
X18394Y-17746D01*
X18419Y-17683D01*
X18420Y-17616D01*
X18420Y-18178D01*
X18374Y-18067D01*
X18233Y-17926D01*
X18049Y-17850D01*
X17900Y-17849D01*
X17900Y-17777D01*
X17900Y-17400D01*
X17900Y-17300D01*
X17900Y-16922D01*
X17857Y-16880D01*
X17616Y-16879D01*
X17553Y-16905D01*
X17505Y-16953D01*
X17480Y-17016D01*
X17479Y-17083D01*
X17480Y-17257D01*
X17522Y-17300D01*
X17900Y-17300D01*
X17900Y-17400D01*
X17522Y-17400D01*
X17480Y-17442D01*
X17479Y-17616D01*
X17480Y-17683D01*
X17505Y-17746D01*
X17553Y-17794D01*
X17616Y-17820D01*
X17857Y-17820D01*
X17900Y-17777D01*
X17900Y-17849D01*
X17850Y-17849D01*
X17667Y-17925D01*
X17526Y-18066D01*
X17450Y-18250D01*
X17449Y-18449D01*
X17525Y-18632D01*
X17666Y-18773D01*
X17850Y-18849D01*
X18049Y-18850D01*
X18232Y-18774D01*
X18373Y-18633D01*
X18449Y-18449D01*
X18450Y-18250D01*
X18450Y-18251D01*
X18449Y-18449D01*
X18525Y-18632D01*
X18666Y-18773D01*
X18850Y-18849D01*
X19049Y-18850D01*
X19232Y-18774D01*
X19373Y-18633D01*
X19449Y-18449D01*
X19450Y-18250D01*
X19450Y-18251D01*
X19449Y-18449D01*
X19525Y-18632D01*
X19666Y-18773D01*
X19850Y-18849D01*
X20049Y-18850D01*
X20232Y-18774D01*
X20373Y-18633D01*
X20449Y-18449D01*
X20450Y-18250D01*
X20450Y-18251D01*
X20449Y-18449D01*
X20525Y-18632D01*
X20666Y-18773D01*
X20850Y-18849D01*
X21049Y-18850D01*
X21232Y-18774D01*
X21373Y-18633D01*
X21449Y-18449D01*
X21450Y-18250D01*
X21450Y-19000D01*
X17169Y-19000D01*
X17148Y-18995D01*
X17061Y-18937D01*
X17004Y-18851D01*
X17000Y-18830D01*
X17000Y-15977D01*
X16981Y-15886D01*
X16930Y-15809D01*
X16740Y-15619D01*
X16663Y-15568D01*
X16572Y-15550D01*
X12880Y-15550D01*
X12880Y-2270D01*
X12880Y-1150D01*
X8019Y-1150D01*
X8019Y-2270D01*
X12880Y-2270D01*
X12880Y-15550D01*
X4923Y-15550D01*
X4948Y-15525D01*
X5039Y-15304D01*
X5040Y-15066D01*
X4948Y-14845D01*
X4780Y-14676D01*
X4559Y-14585D01*
X4321Y-14584D01*
X4100Y-14676D01*
X3931Y-14844D01*
X3840Y-15065D01*
X3839Y-15303D01*
X3931Y-15524D01*
X3956Y-15550D01*
X419Y-15550D01*
X398Y-15545D01*
X311Y-15487D01*
X254Y-15401D01*
X250Y-15380D01*
X250Y-2437D01*
X262Y-2375D01*
X297Y-2323D01*
X2323Y-297D01*
X2375Y-262D01*
X2437Y-250D01*
X3956Y-250D01*
X3931Y-274D01*
X3840Y-495D01*
X3839Y-733D01*
X3931Y-954D01*
X4099Y-1123D01*
X4320Y-1214D01*
X4558Y-1215D01*
X4779Y-1123D01*
X4948Y-955D01*
X5039Y-734D01*
X5040Y-496D01*
X4948Y-275D01*
X4923Y-250D01*
X22266Y-250D01*
X22241Y-274D01*
X22150Y-495D01*
X22149Y-733D01*
X22241Y-954D01*
X22409Y-1123D01*
X22630Y-1214D01*
X22868Y-1215D01*
X23089Y-1123D01*
X23258Y-955D01*
X23349Y-734D01*
X23350Y-496D01*
X23258Y-275D01*
X23233Y-250D01*
X29140Y-250D01*
X29004Y-306D01*
X28806Y-502D01*
X28700Y-760D01*
X28699Y-1038D01*
X28806Y-1296D01*
X29002Y-1493D01*
X29260Y-1599D01*
X29538Y-1600D01*
X29796Y-1493D01*
X29993Y-1297D01*
X30099Y-1039D01*
X30100Y-761D01*
X29993Y-504D01*
X29797Y-306D01*
X29659Y-250D01*
X31107Y-250D01*
X30939Y-319D01*
X30883Y-413D01*
X31300Y-829D01*
X31716Y-413D01*
X31660Y-319D01*
X31474Y-250D01*
X34462Y-250D01*
X34524Y-262D01*
X34564Y-289D01*
X36560Y-2285D01*
X36587Y-2325D01*
X36600Y-2387D01*
X36600Y-16862D01*
X36600Y-16862D01*
G37*
G54D19*
X36600Y-16862D02*
X36587Y-16924D01*
X36560Y-16964D01*
X34564Y-18960D01*
X34524Y-18987D01*
X34462Y-19000D01*
X34350Y-19000D01*
X34350Y-15382D01*
X34350Y-3432D01*
X34183Y-3027D01*
X33873Y-2718D01*
X33469Y-2550D01*
X33032Y-2549D01*
X32627Y-2716D01*
X32318Y-3026D01*
X32150Y-3430D01*
X32149Y-3867D01*
X32316Y-4272D01*
X32626Y-4581D01*
X33030Y-4749D01*
X33467Y-4750D01*
X33872Y-4583D01*
X34181Y-4273D01*
X34349Y-3869D01*
X34350Y-3432D01*
X34350Y-15382D01*
X34183Y-14977D01*
X33873Y-14668D01*
X33469Y-14500D01*
X33032Y-14499D01*
X33000Y-14513D01*
X33000Y-11311D01*
X32974Y-11248D01*
X32974Y-7910D01*
X32965Y-7644D01*
X32880Y-7439D01*
X32786Y-7383D01*
X32716Y-7454D01*
X32716Y-7313D01*
X32660Y-7219D01*
X32410Y-7125D01*
X32144Y-7134D01*
X31974Y-7205D01*
X31974Y-1010D01*
X31965Y-744D01*
X31880Y-539D01*
X31786Y-483D01*
X31370Y-900D01*
X31786Y-1316D01*
X31880Y-1260D01*
X31974Y-1010D01*
X31974Y-7205D01*
X31939Y-7219D01*
X31883Y-7313D01*
X32300Y-7729D01*
X32716Y-7313D01*
X32716Y-7454D01*
X32370Y-7800D01*
X32786Y-8216D01*
X32880Y-8160D01*
X32974Y-7910D01*
X32974Y-11248D01*
X32893Y-11054D01*
X32716Y-10876D01*
X32716Y-8286D01*
X32300Y-7870D01*
X32229Y-7941D01*
X32229Y-7800D01*
X31813Y-7383D01*
X31719Y-7439D01*
X31716Y-7448D01*
X31716Y-1386D01*
X31300Y-970D01*
X31229Y-1041D01*
X31229Y-900D01*
X30813Y-483D01*
X30719Y-539D01*
X30625Y-789D01*
X30634Y-1055D01*
X30719Y-1260D01*
X30813Y-1316D01*
X31229Y-900D01*
X31229Y-1041D01*
X30883Y-1386D01*
X30939Y-1480D01*
X31189Y-1574D01*
X31455Y-1565D01*
X31660Y-1480D01*
X31716Y-1386D01*
X31716Y-7448D01*
X31625Y-7689D01*
X31634Y-7955D01*
X31719Y-8160D01*
X31813Y-8216D01*
X32229Y-7800D01*
X32229Y-7941D01*
X31883Y-8286D01*
X31939Y-8380D01*
X32189Y-8474D01*
X32455Y-8465D01*
X32660Y-8380D01*
X32716Y-8286D01*
X32716Y-10876D01*
X32697Y-10856D01*
X32439Y-10750D01*
X32161Y-10749D01*
X31904Y-10856D01*
X31706Y-11052D01*
X31600Y-11310D01*
X31599Y-11588D01*
X31706Y-11846D01*
X31902Y-12043D01*
X32160Y-12149D01*
X32438Y-12150D01*
X32696Y-12043D01*
X32893Y-11847D01*
X32999Y-11589D01*
X33000Y-11311D01*
X33000Y-14513D01*
X32627Y-14666D01*
X32318Y-14976D01*
X32150Y-15380D01*
X32149Y-15817D01*
X32316Y-16222D01*
X32626Y-16531D01*
X33030Y-16699D01*
X33467Y-16700D01*
X33872Y-16533D01*
X34181Y-16223D01*
X34349Y-15819D01*
X34350Y-15382D01*
X34350Y-19000D01*
X31559Y-19000D01*
X31696Y-18943D01*
X31893Y-18747D01*
X31999Y-18489D01*
X32000Y-18211D01*
X31893Y-17954D01*
X31697Y-17756D01*
X31439Y-17650D01*
X31161Y-17649D01*
X31050Y-17695D01*
X31050Y-11311D01*
X31050Y-7661D01*
X30943Y-7404D01*
X30747Y-7206D01*
X30489Y-7100D01*
X30211Y-7099D01*
X29954Y-7206D01*
X29756Y-7402D01*
X29650Y-7660D01*
X29649Y-7938D01*
X29756Y-8196D01*
X29952Y-8393D01*
X30210Y-8499D01*
X30488Y-8500D01*
X30746Y-8393D01*
X30943Y-8197D01*
X31049Y-7939D01*
X31050Y-7661D01*
X31050Y-11311D01*
X30943Y-11054D01*
X30747Y-10856D01*
X30489Y-10750D01*
X30211Y-10749D01*
X29954Y-10856D01*
X29756Y-11052D01*
X29650Y-11310D01*
X29649Y-11588D01*
X29756Y-11846D01*
X29952Y-12043D01*
X30210Y-12149D01*
X30488Y-12150D01*
X30746Y-12043D01*
X30943Y-11847D01*
X31049Y-11589D01*
X31050Y-11311D01*
X31050Y-17695D01*
X30904Y-17756D01*
X30706Y-17952D01*
X30600Y-18210D01*
X30599Y-18488D01*
X30706Y-18746D01*
X30902Y-18943D01*
X31040Y-19000D01*
X30074Y-19000D01*
X30074Y-18460D01*
X30065Y-18194D01*
X29980Y-17989D01*
X29886Y-17933D01*
X29816Y-18004D01*
X29816Y-17863D01*
X29760Y-17769D01*
X29510Y-17675D01*
X29244Y-17684D01*
X29100Y-17744D01*
X29100Y-7661D01*
X28993Y-7404D01*
X28797Y-7206D01*
X28550Y-7104D01*
X28550Y-3432D01*
X28383Y-3027D01*
X28073Y-2718D01*
X27669Y-2550D01*
X27232Y-2549D01*
X26827Y-2716D01*
X26518Y-3026D01*
X26350Y-3430D01*
X26349Y-3867D01*
X26516Y-4272D01*
X26826Y-4581D01*
X27230Y-4749D01*
X27667Y-4750D01*
X28072Y-4583D01*
X28381Y-4273D01*
X28549Y-3869D01*
X28550Y-3432D01*
X28550Y-7104D01*
X28539Y-7100D01*
X28261Y-7099D01*
X28004Y-7206D01*
X27806Y-7402D01*
X27700Y-7660D01*
X27699Y-7938D01*
X27806Y-8196D01*
X28002Y-8393D01*
X28260Y-8499D01*
X28538Y-8500D01*
X28796Y-8393D01*
X28993Y-8197D01*
X29099Y-7939D01*
X29100Y-7661D01*
X29100Y-17744D01*
X29074Y-17755D01*
X29074Y-11560D01*
X29065Y-11294D01*
X28980Y-11089D01*
X28886Y-11033D01*
X28816Y-11104D01*
X28816Y-10963D01*
X28760Y-10869D01*
X28510Y-10775D01*
X28244Y-10784D01*
X28039Y-10869D01*
X27983Y-10963D01*
X28400Y-11379D01*
X28816Y-10963D01*
X28816Y-11104D01*
X28470Y-11450D01*
X28886Y-11866D01*
X28980Y-11810D01*
X29074Y-11560D01*
X29074Y-17755D01*
X29039Y-17769D01*
X28983Y-17863D01*
X29400Y-18279D01*
X29816Y-17863D01*
X29816Y-18004D01*
X29470Y-18350D01*
X29886Y-18766D01*
X29980Y-18710D01*
X30074Y-18460D01*
X30074Y-19000D01*
X29592Y-19000D01*
X29760Y-18930D01*
X29816Y-18836D01*
X29400Y-18420D01*
X29329Y-18491D01*
X29329Y-18350D01*
X28913Y-17933D01*
X28819Y-17989D01*
X28816Y-17998D01*
X28816Y-11936D01*
X28400Y-11520D01*
X28329Y-11591D01*
X28329Y-11450D01*
X27913Y-11033D01*
X27819Y-11089D01*
X27725Y-11339D01*
X27734Y-11605D01*
X27819Y-11810D01*
X27913Y-11866D01*
X28329Y-11450D01*
X28329Y-11591D01*
X27983Y-11936D01*
X28039Y-12030D01*
X28289Y-12124D01*
X28555Y-12115D01*
X28760Y-12030D01*
X28816Y-11936D01*
X28816Y-17998D01*
X28725Y-18239D01*
X28734Y-18505D01*
X28819Y-18710D01*
X28913Y-18766D01*
X29329Y-18350D01*
X29329Y-18491D01*
X28983Y-18836D01*
X29039Y-18930D01*
X29225Y-19000D01*
X28550Y-19000D01*
X28550Y-15382D01*
X28383Y-14977D01*
X28073Y-14668D01*
X27669Y-14500D01*
X27232Y-14499D01*
X26827Y-14666D01*
X26518Y-14976D01*
X26350Y-15380D01*
X26349Y-15817D01*
X26516Y-16222D01*
X26826Y-16531D01*
X27230Y-16699D01*
X27667Y-16700D01*
X28072Y-16533D01*
X28381Y-16223D01*
X28549Y-15819D01*
X28550Y-15382D01*
X28550Y-19000D01*
X25450Y-19000D01*
X25450Y-18250D01*
X25450Y-17250D01*
X25374Y-17067D01*
X25233Y-16926D01*
X25049Y-16850D01*
X24850Y-16849D01*
X24667Y-16925D01*
X24526Y-17066D01*
X24450Y-17250D01*
X24450Y-17251D01*
X24450Y-17250D01*
X24374Y-17067D01*
X24233Y-16926D01*
X24049Y-16850D01*
X23850Y-16849D01*
X23667Y-16925D01*
X23526Y-17066D01*
X23450Y-17250D01*
X23450Y-17251D01*
X23450Y-17250D01*
X23374Y-17067D01*
X23350Y-17043D01*
X23350Y-15066D01*
X23258Y-14845D01*
X23090Y-14676D01*
X22869Y-14585D01*
X22631Y-14584D01*
X22410Y-14676D01*
X22241Y-14844D01*
X22150Y-15065D01*
X22149Y-15303D01*
X22241Y-15524D01*
X22409Y-15693D01*
X22630Y-15784D01*
X22868Y-15785D01*
X23089Y-15693D01*
X23258Y-15525D01*
X23349Y-15304D01*
X23350Y-15066D01*
X23350Y-17043D01*
X23233Y-16926D01*
X23049Y-16850D01*
X22850Y-16849D01*
X22667Y-16925D01*
X22526Y-17066D01*
X22450Y-17250D01*
X22450Y-17251D01*
X22450Y-17250D01*
X22374Y-17067D01*
X22233Y-16926D01*
X22049Y-16850D01*
X21850Y-16849D01*
X21667Y-16925D01*
X21526Y-17066D01*
X21450Y-17250D01*
X21450Y-17251D01*
X21450Y-17250D01*
X21374Y-17067D01*
X21233Y-16926D01*
X21049Y-16850D01*
X20850Y-16849D01*
X20667Y-16925D01*
X20526Y-17066D01*
X20450Y-17250D01*
X20450Y-17251D01*
X20450Y-17250D01*
X20374Y-17067D01*
X20233Y-16926D01*
X20049Y-16850D01*
X19850Y-16849D01*
X19667Y-16925D01*
X19526Y-17066D01*
X19450Y-17250D01*
X19450Y-17251D01*
X19450Y-17250D01*
X19374Y-17067D01*
X19233Y-16926D01*
X19049Y-16850D01*
X18850Y-16849D01*
X18667Y-16925D01*
X18526Y-17066D01*
X18450Y-17250D01*
X18449Y-17449D01*
X18525Y-17632D01*
X18666Y-17773D01*
X18850Y-17849D01*
X19049Y-17850D01*
X19232Y-17774D01*
X19373Y-17633D01*
X19449Y-17449D01*
X19450Y-17250D01*
X19450Y-17251D01*
X19449Y-17449D01*
X19525Y-17632D01*
X19666Y-17773D01*
X19850Y-17849D01*
X20049Y-17850D01*
X20232Y-17774D01*
X20373Y-17633D01*
X20449Y-17449D01*
X20450Y-17250D01*
X20450Y-17251D01*
X20449Y-17449D01*
X20525Y-17632D01*
X20666Y-17773D01*
X20850Y-17849D01*
X21049Y-17850D01*
X21232Y-17774D01*
X21373Y-17633D01*
X21449Y-17449D01*
X21450Y-17250D01*
X21450Y-17251D01*
X21449Y-17449D01*
X21525Y-17632D01*
X21666Y-17773D01*
X21850Y-17849D01*
X22049Y-17850D01*
X22232Y-17774D01*
X22373Y-17633D01*
X22449Y-17449D01*
X22450Y-17250D01*
X22450Y-17251D01*
X22449Y-17449D01*
X22525Y-17632D01*
X22666Y-17773D01*
X22850Y-17849D01*
X23049Y-17850D01*
X23232Y-17774D01*
X23373Y-17633D01*
X23449Y-17449D01*
X23450Y-17250D01*
X23450Y-17251D01*
X23449Y-17449D01*
X23525Y-17632D01*
X23666Y-17773D01*
X23850Y-17849D01*
X24049Y-17850D01*
X24232Y-17774D01*
X24373Y-17633D01*
X24449Y-17449D01*
X24450Y-17250D01*
X24450Y-17251D01*
X24449Y-17449D01*
X24525Y-17632D01*
X24666Y-17773D01*
X24850Y-17849D01*
X25049Y-17850D01*
X25232Y-17774D01*
X25373Y-17633D01*
X25449Y-17449D01*
X25450Y-17250D01*
X25450Y-18250D01*
X25374Y-18067D01*
X25233Y-17926D01*
X25049Y-17850D01*
X24850Y-17849D01*
X24667Y-17925D01*
X24526Y-18066D01*
X24450Y-18250D01*
X24450Y-18251D01*
X24450Y-18250D01*
X24374Y-18067D01*
X24233Y-17926D01*
X24049Y-17850D01*
X23850Y-17849D01*
X23667Y-17925D01*
X23526Y-18066D01*
X23450Y-18250D01*
X23450Y-18251D01*
X23450Y-18250D01*
X23374Y-18067D01*
X23233Y-17926D01*
X23049Y-17850D01*
X22850Y-17849D01*
X22667Y-17925D01*
X22526Y-18066D01*
X22450Y-18250D01*
X22449Y-18449D01*
X22525Y-18632D01*
X22666Y-18773D01*
X22850Y-18849D01*
X23049Y-18850D01*
X23232Y-18774D01*
X23373Y-18633D01*
X23449Y-18449D01*
X23450Y-18250D01*
X23450Y-18251D01*
X23449Y-18449D01*
X23525Y-18632D01*
X23666Y-18773D01*
X23850Y-18849D01*
X24049Y-18850D01*
X24232Y-18774D01*
X24373Y-18633D01*
X24449Y-18449D01*
X24450Y-18250D01*
X24450Y-18251D01*
X24449Y-18449D01*
X24525Y-18632D01*
X24666Y-18773D01*
X24850Y-18849D01*
X25049Y-18850D01*
X25232Y-18774D01*
X25373Y-18633D01*
X25449Y-18449D01*
X25450Y-18250D01*
X25450Y-19000D01*
X22425Y-19000D01*
X22425Y-18412D01*
X22412Y-18226D01*
X22364Y-18110D01*
X22292Y-18078D01*
X22221Y-18149D01*
X22221Y-18007D01*
X22189Y-17935D01*
X22012Y-17874D01*
X21826Y-17887D01*
X21710Y-17935D01*
X21678Y-18007D01*
X21950Y-18279D01*
X22221Y-18007D01*
X22221Y-18149D01*
X22020Y-18350D01*
X22292Y-18621D01*
X22364Y-18589D01*
X22425Y-18412D01*
X22425Y-19000D01*
X22221Y-19000D01*
X22221Y-18692D01*
X21950Y-18420D01*
X21879Y-18491D01*
X21879Y-18350D01*
X21607Y-18078D01*
X21535Y-18110D01*
X21474Y-18287D01*
X21487Y-18473D01*
X21535Y-18589D01*
X21607Y-18621D01*
X21879Y-18350D01*
X21879Y-18491D01*
X21678Y-18692D01*
X21710Y-18764D01*
X21887Y-18825D01*
X22073Y-18812D01*
X22189Y-18764D01*
X22221Y-18692D01*
X22221Y-19000D01*
X21450Y-19000D01*
X21450Y-18250D01*
X21374Y-18067D01*
X21233Y-17926D01*
X21049Y-17850D01*
X20850Y-17849D01*
X20667Y-17925D01*
X20526Y-18066D01*
X20450Y-18250D01*
X20450Y-18251D01*
X20450Y-18250D01*
X20374Y-18067D01*
X20233Y-17926D01*
X20049Y-17850D01*
X19850Y-17849D01*
X19667Y-17925D01*
X19526Y-18066D01*
X19450Y-18250D01*
X19450Y-18251D01*
X19450Y-18250D01*
X19374Y-18067D01*
X19233Y-17926D01*
X19049Y-17850D01*
X18850Y-17849D01*
X18667Y-17925D01*
X18526Y-18066D01*
X18450Y-18250D01*
X18450Y-18251D01*
X18450Y-18250D01*
X18420Y-18178D01*
X18420Y-17616D01*
X18420Y-17083D01*
X18419Y-17016D01*
X18394Y-16953D01*
X18346Y-16905D01*
X18283Y-16879D01*
X18042Y-16880D01*
X18000Y-16922D01*
X18000Y-17300D01*
X18377Y-17300D01*
X18420Y-17257D01*
X18420Y-17083D01*
X18420Y-17616D01*
X18420Y-17442D01*
X18377Y-17400D01*
X18000Y-17400D01*
X18000Y-17777D01*
X18042Y-17820D01*
X18283Y-17820D01*
X18346Y-17794D01*
X18394Y-17746D01*
X18419Y-17683D01*
X18420Y-17616D01*
X18420Y-18178D01*
X18374Y-18067D01*
X18233Y-17926D01*
X18049Y-17850D01*
X17900Y-17849D01*
X17900Y-17777D01*
X17900Y-17400D01*
X17900Y-17300D01*
X17900Y-16922D01*
X17857Y-16880D01*
X17616Y-16879D01*
X17553Y-16905D01*
X17505Y-16953D01*
X17480Y-17016D01*
X17479Y-17083D01*
X17480Y-17257D01*
X17522Y-17300D01*
X17900Y-17300D01*
X17900Y-17400D01*
X17522Y-17400D01*
X17480Y-17442D01*
X17479Y-17616D01*
X17480Y-17683D01*
X17505Y-17746D01*
X17553Y-17794D01*
X17616Y-17820D01*
X17857Y-17820D01*
X17900Y-17777D01*
X17900Y-17849D01*
X17850Y-17849D01*
X17667Y-17925D01*
X17526Y-18066D01*
X17450Y-18250D01*
X17449Y-18449D01*
X17525Y-18632D01*
X17666Y-18773D01*
X17850Y-18849D01*
X18049Y-18850D01*
X18232Y-18774D01*
X18373Y-18633D01*
X18449Y-18449D01*
X18450Y-18250D01*
X18450Y-18251D01*
X18449Y-18449D01*
X18525Y-18632D01*
X18666Y-18773D01*
X18850Y-18849D01*
X19049Y-18850D01*
X19232Y-18774D01*
X19373Y-18633D01*
X19449Y-18449D01*
X19450Y-18250D01*
X19450Y-18251D01*
X19449Y-18449D01*
X19525Y-18632D01*
X19666Y-18773D01*
X19850Y-18849D01*
X20049Y-18850D01*
X20232Y-18774D01*
X20373Y-18633D01*
X20449Y-18449D01*
X20450Y-18250D01*
X20450Y-18251D01*
X20449Y-18449D01*
X20525Y-18632D01*
X20666Y-18773D01*
X20850Y-18849D01*
X21049Y-18850D01*
X21232Y-18774D01*
X21373Y-18633D01*
X21449Y-18449D01*
X21450Y-18250D01*
X21450Y-19000D01*
X17169Y-19000D01*
X17148Y-18995D01*
X17061Y-18937D01*
X17004Y-18851D01*
X17000Y-18830D01*
X17000Y-15977D01*
X16981Y-15886D01*
X16930Y-15809D01*
X16740Y-15619D01*
X16663Y-15568D01*
X16572Y-15550D01*
X12880Y-15550D01*
X12880Y-2270D01*
X12880Y-1150D01*
X8019Y-1150D01*
X8019Y-2270D01*
X12880Y-2270D01*
X12880Y-15550D01*
X4923Y-15550D01*
X4948Y-15525D01*
X5039Y-15304D01*
X5040Y-15066D01*
X4948Y-14845D01*
X4780Y-14676D01*
X4559Y-14585D01*
X4321Y-14584D01*
X4100Y-14676D01*
X3931Y-14844D01*
X3840Y-15065D01*
X3839Y-15303D01*
X3931Y-15524D01*
X3956Y-15550D01*
X419Y-15550D01*
X398Y-15545D01*
X311Y-15487D01*
X254Y-15401D01*
X250Y-15380D01*
X250Y-2437D01*
X262Y-2375D01*
X297Y-2323D01*
X2323Y-297D01*
X2375Y-262D01*
X2437Y-250D01*
X3956Y-250D01*
X3931Y-274D01*
X3840Y-495D01*
X3839Y-733D01*
X3931Y-954D01*
X4099Y-1123D01*
X4320Y-1214D01*
X4558Y-1215D01*
X4779Y-1123D01*
X4948Y-955D01*
X5039Y-734D01*
X5040Y-496D01*
X4948Y-275D01*
X4923Y-250D01*
X22266Y-250D01*
X22241Y-274D01*
X22150Y-495D01*
X22149Y-733D01*
X22241Y-954D01*
X22409Y-1123D01*
X22630Y-1214D01*
X22868Y-1215D01*
X23089Y-1123D01*
X23258Y-955D01*
X23349Y-734D01*
X23350Y-496D01*
X23258Y-275D01*
X23233Y-250D01*
X29140Y-250D01*
X29004Y-306D01*
X28806Y-502D01*
X28700Y-760D01*
X28699Y-1038D01*
X28806Y-1296D01*
X29002Y-1493D01*
X29260Y-1599D01*
X29538Y-1600D01*
X29796Y-1493D01*
X29993Y-1297D01*
X30099Y-1039D01*
X30100Y-761D01*
X29993Y-504D01*
X29797Y-306D01*
X29659Y-250D01*
X31107Y-250D01*
X30939Y-319D01*
X30883Y-413D01*
X31300Y-829D01*
X31716Y-413D01*
X31660Y-319D01*
X31474Y-250D01*
X34462Y-250D01*
X34524Y-262D01*
X34564Y-289D01*
X36560Y-2285D01*
X36587Y-2325D01*
X36600Y-2387D01*
X36600Y-16862D01*
M02*
