G04 (created by PCBNEW (2013-03-19 BZR 4004)-stable) date 7/29/2015 1:15:23 PM*
%MOIN*%
G04 Gerber Fmt 3.4, Leading zero omitted, Abs format*
%FSLAX34Y34*%
G01*
G70*
G90*
G04 APERTURE LIST*
%ADD10C,0.007*%
%ADD11C,0.2*%
%ADD12C,0.01*%
%ADD13C,0.012*%
%ADD14C,0.008*%
%ADD15C,0.1*%
%ADD16C,0.18*%
%ADD17C,0.08*%
%ADD18R,0.06X0.06*%
%ADD19C,0.06*%
G04 APERTURE END LIST*
G54D10*
G54D11*
X7600Y-11650D02*
X12600Y-11650D01*
G54D12*
X12214Y-10242D02*
X12414Y-9957D01*
X12557Y-10242D02*
X12557Y-9642D01*
X12328Y-9642D01*
X12271Y-9671D01*
X12242Y-9700D01*
X12214Y-9757D01*
X12214Y-9842D01*
X12242Y-9900D01*
X12271Y-9928D01*
X12328Y-9957D01*
X12557Y-9957D01*
X11957Y-9928D02*
X11757Y-9928D01*
X11671Y-10242D02*
X11957Y-10242D01*
X11957Y-9642D01*
X11671Y-9642D01*
X11500Y-9642D02*
X11300Y-10242D01*
X11100Y-9642D01*
X11042Y-10300D02*
X10585Y-10300D01*
X10242Y-9928D02*
X10157Y-9957D01*
X10128Y-9985D01*
X10100Y-10042D01*
X10100Y-10128D01*
X10128Y-10185D01*
X10157Y-10214D01*
X10214Y-10242D01*
X10442Y-10242D01*
X10442Y-9642D01*
X10242Y-9642D01*
X10185Y-9671D01*
X10157Y-9700D01*
X10128Y-9757D01*
X10128Y-9814D01*
X10157Y-9871D01*
X10185Y-9900D01*
X10242Y-9928D01*
X10442Y-9928D01*
X9414Y-10214D02*
X9328Y-10242D01*
X9185Y-10242D01*
X9128Y-10214D01*
X9100Y-10185D01*
X9071Y-10128D01*
X9071Y-10071D01*
X9100Y-10014D01*
X9128Y-9985D01*
X9185Y-9957D01*
X9300Y-9928D01*
X9357Y-9900D01*
X9385Y-9871D01*
X9414Y-9814D01*
X9414Y-9757D01*
X9385Y-9700D01*
X9357Y-9671D01*
X9300Y-9642D01*
X9157Y-9642D01*
X9071Y-9671D01*
X8385Y-9614D02*
X8899Y-10385D01*
X8185Y-10242D02*
X8185Y-9642D01*
X7842Y-10242D01*
X7842Y-9642D01*
X21257Y-3702D02*
X21161Y-3702D01*
X21114Y-3726D01*
X21066Y-3773D01*
X21042Y-3869D01*
X21042Y-4035D01*
X21066Y-4130D01*
X21114Y-4178D01*
X21161Y-4202D01*
X21257Y-4202D01*
X21304Y-4178D01*
X21352Y-4130D01*
X21376Y-4035D01*
X21376Y-3869D01*
X21352Y-3773D01*
X21304Y-3726D01*
X21257Y-3702D01*
X20828Y-4202D02*
X20828Y-3702D01*
X20638Y-3702D01*
X20590Y-3726D01*
X20566Y-3750D01*
X20542Y-3797D01*
X20542Y-3869D01*
X20566Y-3916D01*
X20590Y-3940D01*
X20638Y-3964D01*
X20828Y-3964D01*
X20328Y-3940D02*
X20161Y-3940D01*
X20090Y-4202D02*
X20328Y-4202D01*
X20328Y-3702D01*
X20090Y-3702D01*
X19876Y-4202D02*
X19876Y-3702D01*
X19590Y-4202D01*
X19590Y-3702D01*
X18971Y-4202D02*
X18971Y-3702D01*
X18852Y-3702D01*
X18780Y-3726D01*
X18733Y-3773D01*
X18709Y-3821D01*
X18685Y-3916D01*
X18685Y-3988D01*
X18709Y-4083D01*
X18733Y-4130D01*
X18780Y-4178D01*
X18852Y-4202D01*
X18971Y-4202D01*
X18471Y-3940D02*
X18304Y-3940D01*
X18233Y-4202D02*
X18471Y-4202D01*
X18471Y-3702D01*
X18233Y-3702D01*
X18042Y-4178D02*
X17971Y-4202D01*
X17852Y-4202D01*
X17804Y-4178D01*
X17780Y-4154D01*
X17757Y-4107D01*
X17757Y-4059D01*
X17780Y-4011D01*
X17804Y-3988D01*
X17852Y-3964D01*
X17947Y-3940D01*
X17995Y-3916D01*
X18019Y-3892D01*
X18042Y-3845D01*
X18042Y-3797D01*
X18019Y-3750D01*
X17995Y-3726D01*
X17947Y-3702D01*
X17828Y-3702D01*
X17757Y-3726D01*
X17542Y-4202D02*
X17542Y-3702D01*
X17042Y-3726D02*
X17090Y-3702D01*
X17161Y-3702D01*
X17233Y-3726D01*
X17280Y-3773D01*
X17304Y-3821D01*
X17328Y-3916D01*
X17328Y-3988D01*
X17304Y-4083D01*
X17280Y-4130D01*
X17233Y-4178D01*
X17161Y-4202D01*
X17114Y-4202D01*
X17042Y-4178D01*
X17019Y-4154D01*
X17019Y-3988D01*
X17114Y-3988D01*
X16804Y-4202D02*
X16804Y-3702D01*
X16519Y-4202D01*
X16519Y-3702D01*
X15614Y-4202D02*
X15780Y-3964D01*
X15899Y-4202D02*
X15899Y-3702D01*
X15709Y-3702D01*
X15661Y-3726D01*
X15638Y-3750D01*
X15614Y-3797D01*
X15614Y-3869D01*
X15638Y-3916D01*
X15661Y-3940D01*
X15709Y-3964D01*
X15899Y-3964D01*
X15423Y-4059D02*
X15185Y-4059D01*
X15471Y-4202D02*
X15304Y-3702D01*
X15138Y-4202D01*
X14971Y-4202D02*
X14971Y-3702D01*
X14852Y-3702D01*
X14780Y-3726D01*
X14733Y-3773D01*
X14709Y-3821D01*
X14685Y-3916D01*
X14685Y-3988D01*
X14709Y-4083D01*
X14733Y-4130D01*
X14780Y-4178D01*
X14852Y-4202D01*
X14971Y-4202D01*
X14471Y-4202D02*
X14471Y-3702D01*
X14138Y-3702D02*
X14042Y-3702D01*
X13995Y-3726D01*
X13947Y-3773D01*
X13923Y-3869D01*
X13923Y-4035D01*
X13947Y-4130D01*
X13995Y-4178D01*
X14042Y-4202D01*
X14138Y-4202D01*
X14185Y-4178D01*
X14233Y-4130D01*
X14257Y-4035D01*
X14257Y-3869D01*
X14233Y-3773D01*
X14185Y-3726D01*
X14138Y-3702D01*
X21142Y-3292D02*
X21142Y-2692D01*
X20800Y-3292D01*
X20800Y-2692D01*
X20571Y-2692D02*
X20171Y-2692D01*
X20428Y-3292D01*
X19942Y-3292D02*
X19942Y-2692D01*
X19457Y-2978D02*
X19657Y-2978D01*
X19657Y-3292D02*
X19657Y-2692D01*
X19371Y-2692D01*
X18800Y-3235D02*
X18828Y-3264D01*
X18914Y-3292D01*
X18971Y-3292D01*
X19057Y-3264D01*
X19114Y-3207D01*
X19142Y-3150D01*
X19171Y-3035D01*
X19171Y-2950D01*
X19142Y-2835D01*
X19114Y-2778D01*
X19057Y-2721D01*
X18971Y-2692D01*
X18914Y-2692D01*
X18828Y-2721D01*
X18800Y-2750D01*
X17914Y-2692D02*
X17914Y-3121D01*
X17942Y-3207D01*
X18000Y-3264D01*
X18085Y-3292D01*
X18142Y-3292D01*
X17628Y-2692D02*
X17628Y-3178D01*
X17600Y-3235D01*
X17571Y-3264D01*
X17514Y-3292D01*
X17400Y-3292D01*
X17342Y-3264D01*
X17314Y-3235D01*
X17285Y-3178D01*
X17285Y-2692D01*
X16714Y-3292D02*
X17000Y-3292D01*
X17000Y-2692D01*
X16085Y-2750D02*
X16057Y-2721D01*
X16000Y-2692D01*
X15857Y-2692D01*
X15800Y-2721D01*
X15771Y-2750D01*
X15742Y-2807D01*
X15742Y-2864D01*
X15771Y-2950D01*
X16114Y-3292D01*
X15742Y-3292D01*
X15371Y-2692D02*
X15314Y-2692D01*
X15257Y-2721D01*
X15228Y-2750D01*
X15200Y-2807D01*
X15171Y-2921D01*
X15171Y-3064D01*
X15200Y-3178D01*
X15228Y-3235D01*
X15257Y-3264D01*
X15314Y-3292D01*
X15371Y-3292D01*
X15428Y-3264D01*
X15457Y-3235D01*
X15485Y-3178D01*
X15514Y-3064D01*
X15514Y-2921D01*
X15485Y-2807D01*
X15457Y-2750D01*
X15428Y-2721D01*
X15371Y-2692D01*
X14600Y-3292D02*
X14942Y-3292D01*
X14771Y-3292D02*
X14771Y-2692D01*
X14828Y-2778D01*
X14885Y-2835D01*
X14942Y-2864D01*
X14057Y-2692D02*
X14342Y-2692D01*
X14371Y-2978D01*
X14342Y-2950D01*
X14285Y-2921D01*
X14142Y-2921D01*
X14085Y-2950D01*
X14057Y-2978D01*
X14028Y-3035D01*
X14028Y-3178D01*
X14057Y-3235D01*
X14085Y-3264D01*
X14142Y-3292D01*
X14285Y-3292D01*
X14342Y-3264D01*
X14371Y-3235D01*
X21583Y-783D02*
X21449Y-783D01*
X21383Y-816D01*
X21316Y-883D01*
X21283Y-1016D01*
X21283Y-1250D01*
X21316Y-1383D01*
X21383Y-1450D01*
X21449Y-1483D01*
X21583Y-1483D01*
X21649Y-1450D01*
X21716Y-1383D01*
X21749Y-1250D01*
X21749Y-1016D01*
X21716Y-883D01*
X21649Y-816D01*
X21583Y-783D01*
X20983Y-1483D02*
X20983Y-783D01*
X20816Y-783D01*
X20716Y-816D01*
X20649Y-883D01*
X20616Y-950D01*
X20583Y-1083D01*
X20583Y-1183D01*
X20616Y-1316D01*
X20649Y-1383D01*
X20716Y-1450D01*
X20816Y-1483D01*
X20983Y-1483D01*
X19883Y-1483D02*
X20116Y-1150D01*
X20283Y-1483D02*
X20283Y-783D01*
X20016Y-783D01*
X19949Y-816D01*
X19916Y-850D01*
X19883Y-916D01*
X19883Y-1016D01*
X19916Y-1083D01*
X19949Y-1116D01*
X20016Y-1150D01*
X20283Y-1150D01*
X19583Y-1216D02*
X19049Y-1216D01*
X18349Y-1483D02*
X18749Y-1483D01*
X18549Y-1483D02*
X18549Y-783D01*
X18616Y-883D01*
X18683Y-950D01*
X18749Y-983D01*
X17516Y-1483D02*
X17516Y-783D01*
X17349Y-783D01*
X17249Y-816D01*
X17183Y-883D01*
X17149Y-950D01*
X17116Y-1083D01*
X17116Y-1183D01*
X17149Y-1316D01*
X17183Y-1383D01*
X17249Y-1450D01*
X17349Y-1483D01*
X17516Y-1483D01*
X16816Y-1483D02*
X16816Y-783D01*
X16516Y-1450D02*
X16416Y-1483D01*
X16249Y-1483D01*
X16183Y-1450D01*
X16149Y-1416D01*
X16116Y-1350D01*
X16116Y-1283D01*
X16149Y-1216D01*
X16183Y-1183D01*
X16249Y-1150D01*
X16383Y-1116D01*
X16449Y-1083D01*
X16483Y-1050D01*
X16516Y-983D01*
X16516Y-916D01*
X16483Y-850D01*
X16449Y-816D01*
X16383Y-783D01*
X16216Y-783D01*
X16116Y-816D01*
X15816Y-1483D02*
X15816Y-783D01*
X15549Y-783D01*
X15483Y-816D01*
X15449Y-850D01*
X15416Y-916D01*
X15416Y-1016D01*
X15449Y-1083D01*
X15483Y-1116D01*
X15549Y-1150D01*
X15816Y-1150D01*
X14783Y-1483D02*
X15116Y-1483D01*
X15116Y-783D01*
X14583Y-1283D02*
X14250Y-1283D01*
X14650Y-1483D02*
X14416Y-783D01*
X14183Y-1483D01*
X13816Y-1150D02*
X13816Y-1483D01*
X14050Y-783D02*
X13816Y-1150D01*
X13583Y-783D01*
G54D13*
X17550Y-16950D02*
X17550Y-18750D01*
X17550Y-18750D02*
X25350Y-18750D01*
X25350Y-18750D02*
X25350Y-16950D01*
X25350Y-16950D02*
X17550Y-16950D01*
G54D14*
X18195Y-16511D02*
X18195Y-16111D01*
X18042Y-16111D01*
X18004Y-16130D01*
X17985Y-16150D01*
X17966Y-16188D01*
X17966Y-16245D01*
X17985Y-16283D01*
X18004Y-16302D01*
X18042Y-16321D01*
X18195Y-16321D01*
X17776Y-16511D02*
X17699Y-16511D01*
X17661Y-16492D01*
X17642Y-16473D01*
X17604Y-16416D01*
X17585Y-16340D01*
X17585Y-16188D01*
X17604Y-16150D01*
X17623Y-16130D01*
X17661Y-16111D01*
X17738Y-16111D01*
X17776Y-16130D01*
X17795Y-16150D01*
X17814Y-16188D01*
X17814Y-16283D01*
X17795Y-16321D01*
X17776Y-16340D01*
X17738Y-16359D01*
X17661Y-16359D01*
X17623Y-16340D01*
X17604Y-16321D01*
X17585Y-16283D01*
%LPC*%
G54D15*
X31300Y-900D03*
X29400Y-900D03*
X32300Y-7800D03*
X30350Y-7800D03*
G54D16*
X33250Y-3650D03*
X27450Y-3650D03*
G54D15*
X28400Y-7800D03*
X29400Y-18350D03*
X31300Y-18350D03*
X28400Y-11450D03*
X30350Y-11450D03*
G54D16*
X27450Y-15600D03*
X33250Y-15600D03*
G54D15*
X32300Y-11450D03*
G54D17*
X22750Y-15185D03*
X22750Y-615D03*
X4440Y-615D03*
X4440Y-15185D03*
G54D18*
X17950Y-17350D03*
G54D19*
X17950Y-18350D03*
X18950Y-17350D03*
X18950Y-18350D03*
X19950Y-17350D03*
X19950Y-18350D03*
X20950Y-17350D03*
X20950Y-18350D03*
X21950Y-17350D03*
X21950Y-18350D03*
X22950Y-17350D03*
X22950Y-18350D03*
X23950Y-17350D03*
X23950Y-18350D03*
X24950Y-17350D03*
X24950Y-18350D03*
M02*
