G04 (created by PCBNEW (2013-03-19 BZR 4004)-stable) date 8/2/2015 7:03:13 AM*
%MOIN*%
G04 Gerber Fmt 3.4, Leading zero omitted, Abs format*
%FSLAX34Y34*%
G01*
G70*
G90*
G04 APERTURE LIST*
%ADD10C,0.007*%
%ADD11C,0.2*%
%ADD12C,0.01*%
%ADD13C,0.012*%
%ADD14C,0.0001*%
%ADD15C,0.008*%
%ADD16C,0.1*%
%ADD17C,0.18*%
%ADD18C,0.08*%
%ADD19R,0.06X0.06*%
%ADD20C,0.06*%
G04 APERTURE END LIST*
G54D10*
G54D11*
X7600Y-11650D02*
X12600Y-11650D01*
G54D12*
X12214Y-10242D02*
X12414Y-9957D01*
X12557Y-10242D02*
X12557Y-9642D01*
X12328Y-9642D01*
X12271Y-9671D01*
X12242Y-9700D01*
X12214Y-9757D01*
X12214Y-9842D01*
X12242Y-9900D01*
X12271Y-9928D01*
X12328Y-9957D01*
X12557Y-9957D01*
X11957Y-9928D02*
X11757Y-9928D01*
X11671Y-10242D02*
X11957Y-10242D01*
X11957Y-9642D01*
X11671Y-9642D01*
X11500Y-9642D02*
X11300Y-10242D01*
X11100Y-9642D01*
X11042Y-10300D02*
X10585Y-10300D01*
X10242Y-9928D02*
X10157Y-9957D01*
X10128Y-9985D01*
X10100Y-10042D01*
X10100Y-10128D01*
X10128Y-10185D01*
X10157Y-10214D01*
X10214Y-10242D01*
X10442Y-10242D01*
X10442Y-9642D01*
X10242Y-9642D01*
X10185Y-9671D01*
X10157Y-9700D01*
X10128Y-9757D01*
X10128Y-9814D01*
X10157Y-9871D01*
X10185Y-9900D01*
X10242Y-9928D01*
X10442Y-9928D01*
X9414Y-10214D02*
X9328Y-10242D01*
X9185Y-10242D01*
X9128Y-10214D01*
X9100Y-10185D01*
X9071Y-10128D01*
X9071Y-10071D01*
X9100Y-10014D01*
X9128Y-9985D01*
X9185Y-9957D01*
X9300Y-9928D01*
X9357Y-9900D01*
X9385Y-9871D01*
X9414Y-9814D01*
X9414Y-9757D01*
X9385Y-9700D01*
X9357Y-9671D01*
X9300Y-9642D01*
X9157Y-9642D01*
X9071Y-9671D01*
X8385Y-9614D02*
X8899Y-10385D01*
X8185Y-10242D02*
X8185Y-9642D01*
X7842Y-10242D01*
X7842Y-9642D01*
X21257Y-3702D02*
X21161Y-3702D01*
X21114Y-3726D01*
X21066Y-3773D01*
X21042Y-3869D01*
X21042Y-4035D01*
X21066Y-4130D01*
X21114Y-4178D01*
X21161Y-4202D01*
X21257Y-4202D01*
X21304Y-4178D01*
X21352Y-4130D01*
X21376Y-4035D01*
X21376Y-3869D01*
X21352Y-3773D01*
X21304Y-3726D01*
X21257Y-3702D01*
X20828Y-4202D02*
X20828Y-3702D01*
X20638Y-3702D01*
X20590Y-3726D01*
X20566Y-3750D01*
X20542Y-3797D01*
X20542Y-3869D01*
X20566Y-3916D01*
X20590Y-3940D01*
X20638Y-3964D01*
X20828Y-3964D01*
X20328Y-3940D02*
X20161Y-3940D01*
X20090Y-4202D02*
X20328Y-4202D01*
X20328Y-3702D01*
X20090Y-3702D01*
X19876Y-4202D02*
X19876Y-3702D01*
X19590Y-4202D01*
X19590Y-3702D01*
X18971Y-4202D02*
X18971Y-3702D01*
X18852Y-3702D01*
X18780Y-3726D01*
X18733Y-3773D01*
X18709Y-3821D01*
X18685Y-3916D01*
X18685Y-3988D01*
X18709Y-4083D01*
X18733Y-4130D01*
X18780Y-4178D01*
X18852Y-4202D01*
X18971Y-4202D01*
X18471Y-3940D02*
X18304Y-3940D01*
X18233Y-4202D02*
X18471Y-4202D01*
X18471Y-3702D01*
X18233Y-3702D01*
X18042Y-4178D02*
X17971Y-4202D01*
X17852Y-4202D01*
X17804Y-4178D01*
X17780Y-4154D01*
X17757Y-4107D01*
X17757Y-4059D01*
X17780Y-4011D01*
X17804Y-3988D01*
X17852Y-3964D01*
X17947Y-3940D01*
X17995Y-3916D01*
X18019Y-3892D01*
X18042Y-3845D01*
X18042Y-3797D01*
X18019Y-3750D01*
X17995Y-3726D01*
X17947Y-3702D01*
X17828Y-3702D01*
X17757Y-3726D01*
X17542Y-4202D02*
X17542Y-3702D01*
X17042Y-3726D02*
X17090Y-3702D01*
X17161Y-3702D01*
X17233Y-3726D01*
X17280Y-3773D01*
X17304Y-3821D01*
X17328Y-3916D01*
X17328Y-3988D01*
X17304Y-4083D01*
X17280Y-4130D01*
X17233Y-4178D01*
X17161Y-4202D01*
X17114Y-4202D01*
X17042Y-4178D01*
X17019Y-4154D01*
X17019Y-3988D01*
X17114Y-3988D01*
X16804Y-4202D02*
X16804Y-3702D01*
X16519Y-4202D01*
X16519Y-3702D01*
X15614Y-4202D02*
X15780Y-3964D01*
X15899Y-4202D02*
X15899Y-3702D01*
X15709Y-3702D01*
X15661Y-3726D01*
X15638Y-3750D01*
X15614Y-3797D01*
X15614Y-3869D01*
X15638Y-3916D01*
X15661Y-3940D01*
X15709Y-3964D01*
X15899Y-3964D01*
X15423Y-4059D02*
X15185Y-4059D01*
X15471Y-4202D02*
X15304Y-3702D01*
X15138Y-4202D01*
X14971Y-4202D02*
X14971Y-3702D01*
X14852Y-3702D01*
X14780Y-3726D01*
X14733Y-3773D01*
X14709Y-3821D01*
X14685Y-3916D01*
X14685Y-3988D01*
X14709Y-4083D01*
X14733Y-4130D01*
X14780Y-4178D01*
X14852Y-4202D01*
X14971Y-4202D01*
X14471Y-4202D02*
X14471Y-3702D01*
X14138Y-3702D02*
X14042Y-3702D01*
X13995Y-3726D01*
X13947Y-3773D01*
X13923Y-3869D01*
X13923Y-4035D01*
X13947Y-4130D01*
X13995Y-4178D01*
X14042Y-4202D01*
X14138Y-4202D01*
X14185Y-4178D01*
X14233Y-4130D01*
X14257Y-4035D01*
X14257Y-3869D01*
X14233Y-3773D01*
X14185Y-3726D01*
X14138Y-3702D01*
X21142Y-3292D02*
X21142Y-2692D01*
X20800Y-3292D01*
X20800Y-2692D01*
X20571Y-2692D02*
X20171Y-2692D01*
X20428Y-3292D01*
X19942Y-3292D02*
X19942Y-2692D01*
X19457Y-2978D02*
X19657Y-2978D01*
X19657Y-3292D02*
X19657Y-2692D01*
X19371Y-2692D01*
X18800Y-3235D02*
X18828Y-3264D01*
X18914Y-3292D01*
X18971Y-3292D01*
X19057Y-3264D01*
X19114Y-3207D01*
X19142Y-3150D01*
X19171Y-3035D01*
X19171Y-2950D01*
X19142Y-2835D01*
X19114Y-2778D01*
X19057Y-2721D01*
X18971Y-2692D01*
X18914Y-2692D01*
X18828Y-2721D01*
X18800Y-2750D01*
X17914Y-2692D02*
X17914Y-3121D01*
X17942Y-3207D01*
X18000Y-3264D01*
X18085Y-3292D01*
X18142Y-3292D01*
X17628Y-2692D02*
X17628Y-3178D01*
X17600Y-3235D01*
X17571Y-3264D01*
X17514Y-3292D01*
X17400Y-3292D01*
X17342Y-3264D01*
X17314Y-3235D01*
X17285Y-3178D01*
X17285Y-2692D01*
X16714Y-3292D02*
X17000Y-3292D01*
X17000Y-2692D01*
X16085Y-2750D02*
X16057Y-2721D01*
X16000Y-2692D01*
X15857Y-2692D01*
X15800Y-2721D01*
X15771Y-2750D01*
X15742Y-2807D01*
X15742Y-2864D01*
X15771Y-2950D01*
X16114Y-3292D01*
X15742Y-3292D01*
X15371Y-2692D02*
X15314Y-2692D01*
X15257Y-2721D01*
X15228Y-2750D01*
X15200Y-2807D01*
X15171Y-2921D01*
X15171Y-3064D01*
X15200Y-3178D01*
X15228Y-3235D01*
X15257Y-3264D01*
X15314Y-3292D01*
X15371Y-3292D01*
X15428Y-3264D01*
X15457Y-3235D01*
X15485Y-3178D01*
X15514Y-3064D01*
X15514Y-2921D01*
X15485Y-2807D01*
X15457Y-2750D01*
X15428Y-2721D01*
X15371Y-2692D01*
X14600Y-3292D02*
X14942Y-3292D01*
X14771Y-3292D02*
X14771Y-2692D01*
X14828Y-2778D01*
X14885Y-2835D01*
X14942Y-2864D01*
X14057Y-2692D02*
X14342Y-2692D01*
X14371Y-2978D01*
X14342Y-2950D01*
X14285Y-2921D01*
X14142Y-2921D01*
X14085Y-2950D01*
X14057Y-2978D01*
X14028Y-3035D01*
X14028Y-3178D01*
X14057Y-3235D01*
X14085Y-3264D01*
X14142Y-3292D01*
X14285Y-3292D01*
X14342Y-3264D01*
X14371Y-3235D01*
X21583Y-783D02*
X21449Y-783D01*
X21383Y-816D01*
X21316Y-883D01*
X21283Y-1016D01*
X21283Y-1250D01*
X21316Y-1383D01*
X21383Y-1450D01*
X21449Y-1483D01*
X21583Y-1483D01*
X21649Y-1450D01*
X21716Y-1383D01*
X21749Y-1250D01*
X21749Y-1016D01*
X21716Y-883D01*
X21649Y-816D01*
X21583Y-783D01*
X20983Y-1483D02*
X20983Y-783D01*
X20816Y-783D01*
X20716Y-816D01*
X20649Y-883D01*
X20616Y-950D01*
X20583Y-1083D01*
X20583Y-1183D01*
X20616Y-1316D01*
X20649Y-1383D01*
X20716Y-1450D01*
X20816Y-1483D01*
X20983Y-1483D01*
X19883Y-1483D02*
X20116Y-1150D01*
X20283Y-1483D02*
X20283Y-783D01*
X20016Y-783D01*
X19949Y-816D01*
X19916Y-850D01*
X19883Y-916D01*
X19883Y-1016D01*
X19916Y-1083D01*
X19949Y-1116D01*
X20016Y-1150D01*
X20283Y-1150D01*
X19583Y-1216D02*
X19049Y-1216D01*
X18349Y-1483D02*
X18749Y-1483D01*
X18549Y-1483D02*
X18549Y-783D01*
X18616Y-883D01*
X18683Y-950D01*
X18749Y-983D01*
X17516Y-1483D02*
X17516Y-783D01*
X17349Y-783D01*
X17249Y-816D01*
X17183Y-883D01*
X17149Y-950D01*
X17116Y-1083D01*
X17116Y-1183D01*
X17149Y-1316D01*
X17183Y-1383D01*
X17249Y-1450D01*
X17349Y-1483D01*
X17516Y-1483D01*
X16816Y-1483D02*
X16816Y-783D01*
X16516Y-1450D02*
X16416Y-1483D01*
X16249Y-1483D01*
X16183Y-1450D01*
X16149Y-1416D01*
X16116Y-1350D01*
X16116Y-1283D01*
X16149Y-1216D01*
X16183Y-1183D01*
X16249Y-1150D01*
X16383Y-1116D01*
X16449Y-1083D01*
X16483Y-1050D01*
X16516Y-983D01*
X16516Y-916D01*
X16483Y-850D01*
X16449Y-816D01*
X16383Y-783D01*
X16216Y-783D01*
X16116Y-816D01*
X15816Y-1483D02*
X15816Y-783D01*
X15549Y-783D01*
X15483Y-816D01*
X15449Y-850D01*
X15416Y-916D01*
X15416Y-1016D01*
X15449Y-1083D01*
X15483Y-1116D01*
X15549Y-1150D01*
X15816Y-1150D01*
X14783Y-1483D02*
X15116Y-1483D01*
X15116Y-783D01*
X14583Y-1283D02*
X14250Y-1283D01*
X14650Y-1483D02*
X14416Y-783D01*
X14183Y-1483D01*
X13816Y-1150D02*
X13816Y-1483D01*
X14050Y-783D02*
X13816Y-1150D01*
X13583Y-783D01*
G54D13*
X17550Y-16950D02*
X17550Y-18750D01*
X17550Y-18750D02*
X25350Y-18750D01*
X25350Y-18750D02*
X25350Y-16950D01*
X25350Y-16950D02*
X17550Y-16950D01*
G54D14*
G36*
X23396Y-4334D02*
X23386Y-4328D01*
X23363Y-4314D01*
X23330Y-4292D01*
X23291Y-4266D01*
X23252Y-4240D01*
X23220Y-4219D01*
X23198Y-4204D01*
X23188Y-4199D01*
X23183Y-4201D01*
X23165Y-4210D01*
X23138Y-4224D01*
X23122Y-4232D01*
X23098Y-4242D01*
X23085Y-4245D01*
X23083Y-4241D01*
X23074Y-4222D01*
X23060Y-4190D01*
X23042Y-4147D01*
X23020Y-4097D01*
X22998Y-4044D01*
X22975Y-3989D01*
X22953Y-3936D01*
X22934Y-3889D01*
X22918Y-3851D01*
X22908Y-3824D01*
X22904Y-3813D01*
X22905Y-3810D01*
X22918Y-3798D01*
X22939Y-3782D01*
X22986Y-3744D01*
X23032Y-3687D01*
X23060Y-3622D01*
X23069Y-3549D01*
X23061Y-3482D01*
X23035Y-3418D01*
X22990Y-3360D01*
X22935Y-3317D01*
X22871Y-3290D01*
X22800Y-3281D01*
X22732Y-3289D01*
X22666Y-3315D01*
X22608Y-3359D01*
X22583Y-3387D01*
X22549Y-3446D01*
X22530Y-3508D01*
X22528Y-3524D01*
X22531Y-3593D01*
X22551Y-3660D01*
X22588Y-3719D01*
X22639Y-3768D01*
X22645Y-3772D01*
X22668Y-3790D01*
X22684Y-3802D01*
X22696Y-3812D01*
X22608Y-4024D01*
X22594Y-4057D01*
X22570Y-4115D01*
X22549Y-4165D01*
X22532Y-4205D01*
X22520Y-4231D01*
X22515Y-4242D01*
X22515Y-4243D01*
X22507Y-4244D01*
X22491Y-4238D01*
X22461Y-4224D01*
X22442Y-4214D01*
X22419Y-4203D01*
X22409Y-4199D01*
X22400Y-4204D01*
X22379Y-4218D01*
X22347Y-4239D01*
X22309Y-4264D01*
X22273Y-4289D01*
X22240Y-4311D01*
X22216Y-4326D01*
X22204Y-4333D01*
X22202Y-4333D01*
X22192Y-4327D01*
X22173Y-4311D01*
X22144Y-4284D01*
X22103Y-4243D01*
X22097Y-4237D01*
X22063Y-4203D01*
X22036Y-4174D01*
X22018Y-4154D01*
X22011Y-4145D01*
X22011Y-4145D01*
X22017Y-4133D01*
X22032Y-4109D01*
X22054Y-4075D01*
X22081Y-4036D01*
X22151Y-3934D01*
X22113Y-3838D01*
X22101Y-3808D01*
X22086Y-3773D01*
X22075Y-3747D01*
X22069Y-3736D01*
X22059Y-3732D01*
X22032Y-3726D01*
X21994Y-3718D01*
X21949Y-3710D01*
X21905Y-3702D01*
X21866Y-3694D01*
X21838Y-3689D01*
X21825Y-3686D01*
X21822Y-3684D01*
X21819Y-3678D01*
X21818Y-3665D01*
X21817Y-3641D01*
X21816Y-3604D01*
X21816Y-3549D01*
X21816Y-3543D01*
X21817Y-3492D01*
X21818Y-3450D01*
X21819Y-3424D01*
X21821Y-3413D01*
X21821Y-3413D01*
X21833Y-3410D01*
X21861Y-3404D01*
X21900Y-3397D01*
X21947Y-3388D01*
X21950Y-3387D01*
X21996Y-3378D01*
X22035Y-3370D01*
X22063Y-3364D01*
X22074Y-3360D01*
X22077Y-3357D01*
X22086Y-3339D01*
X22099Y-3310D01*
X22115Y-3275D01*
X22130Y-3238D01*
X22143Y-3205D01*
X22152Y-3181D01*
X22155Y-3170D01*
X22154Y-3169D01*
X22147Y-3158D01*
X22131Y-3134D01*
X22109Y-3101D01*
X22082Y-3061D01*
X22080Y-3058D01*
X22053Y-3019D01*
X22031Y-2985D01*
X22017Y-2962D01*
X22011Y-2951D01*
X22011Y-2950D01*
X22020Y-2938D01*
X22040Y-2916D01*
X22069Y-2886D01*
X22103Y-2851D01*
X22114Y-2841D01*
X22153Y-2803D01*
X22179Y-2779D01*
X22196Y-2766D01*
X22204Y-2763D01*
X22204Y-2763D01*
X22216Y-2770D01*
X22241Y-2786D01*
X22274Y-2809D01*
X22314Y-2836D01*
X22317Y-2838D01*
X22356Y-2865D01*
X22389Y-2887D01*
X22412Y-2903D01*
X22423Y-2909D01*
X22424Y-2909D01*
X22440Y-2904D01*
X22468Y-2894D01*
X22503Y-2881D01*
X22539Y-2866D01*
X22572Y-2852D01*
X22597Y-2841D01*
X22609Y-2834D01*
X22609Y-2834D01*
X22613Y-2820D01*
X22620Y-2790D01*
X22628Y-2750D01*
X22638Y-2702D01*
X22639Y-2694D01*
X22648Y-2647D01*
X22655Y-2608D01*
X22661Y-2581D01*
X22664Y-2570D01*
X22670Y-2569D01*
X22693Y-2567D01*
X22728Y-2566D01*
X22771Y-2566D01*
X22815Y-2566D01*
X22858Y-2567D01*
X22895Y-2568D01*
X22922Y-2570D01*
X22933Y-2572D01*
X22933Y-2573D01*
X22937Y-2588D01*
X22944Y-2617D01*
X22952Y-2658D01*
X22961Y-2706D01*
X22963Y-2715D01*
X22972Y-2761D01*
X22980Y-2800D01*
X22985Y-2826D01*
X22988Y-2837D01*
X22993Y-2839D01*
X23012Y-2847D01*
X23043Y-2860D01*
X23082Y-2876D01*
X23172Y-2912D01*
X23283Y-2837D01*
X23293Y-2830D01*
X23333Y-2803D01*
X23365Y-2781D01*
X23388Y-2766D01*
X23397Y-2761D01*
X23398Y-2761D01*
X23409Y-2771D01*
X23431Y-2792D01*
X23461Y-2821D01*
X23496Y-2855D01*
X23521Y-2881D01*
X23552Y-2912D01*
X23571Y-2933D01*
X23582Y-2946D01*
X23585Y-2954D01*
X23584Y-2960D01*
X23577Y-2971D01*
X23561Y-2995D01*
X23538Y-3029D01*
X23511Y-3068D01*
X23489Y-3101D01*
X23465Y-3138D01*
X23450Y-3164D01*
X23444Y-3177D01*
X23446Y-3182D01*
X23453Y-3204D01*
X23467Y-3237D01*
X23483Y-3276D01*
X23522Y-3363D01*
X23579Y-3374D01*
X23614Y-3381D01*
X23662Y-3390D01*
X23709Y-3399D01*
X23781Y-3413D01*
X23784Y-3679D01*
X23773Y-3684D01*
X23762Y-3687D01*
X23735Y-3693D01*
X23697Y-3701D01*
X23651Y-3709D01*
X23613Y-3716D01*
X23574Y-3724D01*
X23546Y-3729D01*
X23534Y-3732D01*
X23530Y-3736D01*
X23521Y-3755D01*
X23507Y-3785D01*
X23491Y-3821D01*
X23476Y-3858D01*
X23462Y-3893D01*
X23453Y-3919D01*
X23449Y-3932D01*
X23454Y-3943D01*
X23469Y-3966D01*
X23490Y-3998D01*
X23517Y-4037D01*
X23543Y-4075D01*
X23566Y-4108D01*
X23581Y-4132D01*
X23588Y-4143D01*
X23584Y-4150D01*
X23569Y-4169D01*
X23540Y-4199D01*
X23496Y-4242D01*
X23489Y-4249D01*
X23455Y-4282D01*
X23426Y-4309D01*
X23405Y-4327D01*
X23396Y-4334D01*
X23396Y-4334D01*
G37*
G54D15*
X18195Y-16511D02*
X18195Y-16111D01*
X18042Y-16111D01*
X18004Y-16130D01*
X17985Y-16150D01*
X17966Y-16188D01*
X17966Y-16245D01*
X17985Y-16283D01*
X18004Y-16302D01*
X18042Y-16321D01*
X18195Y-16321D01*
X17776Y-16511D02*
X17699Y-16511D01*
X17661Y-16492D01*
X17642Y-16473D01*
X17604Y-16416D01*
X17585Y-16340D01*
X17585Y-16188D01*
X17604Y-16150D01*
X17623Y-16130D01*
X17661Y-16111D01*
X17738Y-16111D01*
X17776Y-16130D01*
X17795Y-16150D01*
X17814Y-16188D01*
X17814Y-16283D01*
X17795Y-16321D01*
X17776Y-16340D01*
X17738Y-16359D01*
X17661Y-16359D01*
X17623Y-16340D01*
X17604Y-16321D01*
X17585Y-16283D01*
%LPC*%
G54D16*
X31300Y-900D03*
X29400Y-900D03*
X32300Y-7800D03*
X30350Y-7800D03*
G54D17*
X33250Y-3650D03*
X27450Y-3650D03*
G54D16*
X28400Y-7800D03*
X29400Y-18350D03*
X31300Y-18350D03*
X28400Y-11450D03*
X30350Y-11450D03*
G54D17*
X27450Y-15600D03*
X33250Y-15600D03*
G54D16*
X32300Y-11450D03*
G54D18*
X22750Y-15185D03*
X22750Y-615D03*
X4440Y-615D03*
X4440Y-15185D03*
G54D19*
X17950Y-17350D03*
G54D20*
X17950Y-18350D03*
X18950Y-17350D03*
X18950Y-18350D03*
X19950Y-17350D03*
X19950Y-18350D03*
X20950Y-17350D03*
X20950Y-18350D03*
X21950Y-17350D03*
X21950Y-18350D03*
X22950Y-17350D03*
X22950Y-18350D03*
X23950Y-17350D03*
X23950Y-18350D03*
X24950Y-17350D03*
X24950Y-18350D03*
M02*
